<svg width="PARENT_WIDTH" height="PARENT_HEIGHT" viewBox="0 0 1988 767" fill="none" xmlns="http://www.w3.org/2000/svg">
<path d="M1510.32 125.759H1519.29V143H1468.64V135.749L1494.26 107.282C1495.8 105.599 1497.16 104.024 1498.34 102.556C1499.52 101.088 1500.54 99.7448 1501.4 98.5273C1503.12 96.0924 1504.32 93.9082 1505 91.9746C1505.68 90.0052 1506.02 87.9642 1506.02 85.8516C1506.02 81.9486 1504.84 78.6722 1502.48 76.0225C1500.11 73.3369 1496.73 71.9941 1492.32 71.9941C1487.74 71.9941 1484.16 73.3727 1481.58 76.1299C1479.04 78.887 1477.77 82.79 1477.77 87.8389H1467.62L1467.51 87.5166C1467.4 83.0049 1468.35 78.9408 1470.36 75.3242C1472.36 71.7077 1475.26 68.861 1479.06 66.7842C1482.89 64.7074 1487.44 63.6689 1492.7 63.6689C1497.64 63.6689 1501.9 64.5999 1505.48 66.4619C1509.03 68.3239 1511.77 70.902 1513.7 74.1963C1515.63 77.4548 1516.6 81.1966 1516.6 85.4219C1516.6 88.3223 1516.05 91.1689 1514.94 93.9619C1513.83 96.7907 1512.18 99.6911 1510 102.663C1507.81 105.635 1505.2 108.768 1502.15 112.062L1481.58 134.46L1481.69 134.729H1509.46L1510.32 125.759ZM1555.65 144.128C1547.99 144.128 1541.92 141.46 1537.44 136.125C1532.97 130.79 1530.73 123.145 1530.73 113.19V94.6602C1530.73 84.7057 1532.95 77.0609 1537.39 71.7256C1541.83 66.3545 1547.88 63.6689 1555.54 63.6689C1563.24 63.6689 1569.33 66.3545 1573.8 71.7256C1578.28 77.0609 1580.52 84.7057 1580.52 94.6602V113.19C1580.52 123.181 1578.3 130.843 1573.86 136.179C1569.42 141.478 1563.35 144.128 1555.65 144.128ZM1555.65 135.856C1565.17 135.856 1569.94 129.017 1569.94 115.339V92.4043C1569.94 78.7975 1565.14 71.9941 1555.54 71.9941C1550.92 71.9941 1547.4 73.7129 1544.96 77.1504C1542.53 80.5521 1541.31 85.6367 1541.31 92.4043V115.339C1541.31 122.106 1542.54 127.227 1545.01 130.7C1547.49 134.138 1551.03 135.856 1555.65 135.856ZM1633.85 125.759H1642.82V143H1592.17V135.749L1617.79 107.282C1619.33 105.599 1620.69 104.024 1621.88 102.556C1623.06 101.088 1624.08 99.7448 1624.94 98.5273C1626.66 96.0924 1627.85 93.9082 1628.54 91.9746C1629.22 90.0052 1629.56 87.9642 1629.56 85.8516C1629.56 81.9486 1628.37 78.6722 1626.01 76.0225C1623.65 73.3369 1620.26 71.9941 1615.86 71.9941C1611.28 71.9941 1607.7 73.3727 1605.12 76.1299C1602.57 78.887 1601.3 82.79 1601.3 87.8389H1591.15L1591.04 87.5166C1590.94 83.0049 1591.89 78.9408 1593.89 75.3242C1595.9 71.7077 1598.8 68.861 1602.59 66.7842C1606.42 64.7074 1610.97 63.6689 1616.24 63.6689C1621.18 63.6689 1625.44 64.5999 1629.02 66.4619C1632.56 68.3239 1635.3 70.902 1637.24 74.1963C1639.17 77.4548 1640.14 81.1966 1640.14 85.4219C1640.14 88.3223 1639.58 91.1689 1638.47 93.9619C1637.36 96.7907 1635.71 99.6911 1633.53 102.663C1631.35 105.635 1628.73 108.768 1625.69 112.062L1605.12 134.46L1605.22 134.729H1632.99L1633.85 125.759ZM1696.8 124.953V134.729L1705.56 136.232V143H1677.52V136.232L1686.27 134.729V124.953H1651.15V118.991L1685.63 64.7969H1696.8V116.682H1707.6V124.953H1696.8ZM1686.27 116.682V79.8896L1685.95 79.7822L1684.88 82.6289L1662.43 116.682H1686.27Z" fill="#222537"/>
<path d="M76.2177 171.352L102.48 200.251L128.814 171.352H165.925V130.438L192.259 101.539L165.925 72.5617V31.412H128.458L102.48 2.74854L95.3437 10.6015L81.8556 25.4437L76.2177 31.412H39.0361V72.5617L12.7734 101.539L33.3982 124.234L39.0361 130.438V171.352H76.2177Z" fill="#F9AB00"/>
<path d="M154.364 101.539C154.364 112.831 151.321 123.869 145.62 133.257C139.919 142.646 131.816 149.963 122.335 154.285C112.855 158.606 102.423 159.736 92.3588 157.533C82.2945 155.331 73.0498 149.893 65.7938 141.909C58.5379 133.924 53.5965 123.752 51.5946 112.677C49.5927 101.602 50.6201 90.1233 54.547 79.6912C58.4739 69.2591 65.1239 60.3427 73.656 54.0694C82.1881 47.7962 92.2192 44.4478 102.481 44.4478C109.285 44.4375 116.024 45.902 122.314 48.7576C128.603 51.6132 134.32 55.8041 139.138 61.0909C143.956 66.3778 147.78 72.657 150.392 79.5702C153.005 86.4833 154.354 93.895 154.364 101.382V101.539Z" fill="#E37400"/>
<path d="M92.9531 125.07L105.743 72.9069L112.771 74.9934L99.9811 127.157L92.9531 125.07Z" fill="white"/>
<path d="M84.566 81.5927L89.9898 86.9327L79.2849 100.126L89.9898 113.24L84.566 118.58L69.5078 100.047L84.566 81.5927ZM120.463 81.5142L135.593 99.9687L120.534 118.423L115.111 113.083L125.815 99.9687L115.111 86.8542L120.463 81.5142Z" fill="white"/>
<path d="M649.427 143.945C645.779 142.124 642.539 139.443 639.935 136.092C637.137 132.5 635.112 128.259 634.012 123.684L642.29 119.994C643.396 124.729 645.723 129.017 648.999 132.323C652.139 135.417 656.207 137.121 660.417 137.113C664.493 137.247 668.491 135.863 671.764 133.187C673.254 131.928 674.447 130.294 675.242 128.421C676.037 126.549 676.411 124.493 676.332 122.428C676.38 120.597 676.052 118.777 675.372 117.105C674.692 115.433 673.679 113.95 672.407 112.769C668.643 109.486 664.326 107.057 659.703 105.623L654.922 103.738C650.022 102.003 645.502 99.1685 641.648 95.4137C639.914 93.5769 638.562 91.3477 637.687 88.88C636.813 86.4124 636.435 83.7652 636.581 81.1212C636.574 77.1947 637.587 73.3546 639.507 70.0485C641.602 66.6863 644.455 63.9804 647.785 62.1955C651.471 60.1179 655.563 59.0663 659.703 59.1328C663.691 59.0534 667.643 59.9661 671.265 61.8029C674.283 63.3892 676.981 65.6351 679.186 68.3994C680.963 70.7082 682.319 73.3782 683.183 76.2524L674.762 80.2574C673.901 76.7 671.958 73.5749 669.256 71.4028C666.555 69.2307 663.259 68.143 659.918 68.3209C656.289 68.2414 652.743 69.5145 649.855 71.9332C647.236 74.1085 645.701 77.5089 645.716 81.1212C645.709 84.1918 647 87.0974 649.213 88.9742C652.46 91.5579 656.078 93.5211 659.918 94.7855L664.842 96.6702C670.466 98.724 675.642 102.04 680.043 106.408C681.889 108.467 683.325 110.928 684.259 113.632C685.193 116.336 685.604 119.225 685.467 122.114C685.629 126.982 684.297 131.768 681.684 135.7C679.225 139.215 675.944 141.929 672.192 143.553C668.389 145.272 664.315 146.152 660.203 146.144C656.511 146.244 652.841 145.495 649.427 143.945ZM699.811 140.411C696.222 135.55 694.415 129.388 694.744 123.135V86.3828H703.879V121.329C703.879 132.087 708.232 137.035 716.939 137.035C719.758 137.066 722.505 136.1 724.789 134.286C727.116 132.535 728.964 130.116 730.142 127.297C731.362 124.423 731.997 121.281 731.997 118.109V86.3828H740.989V144.573H732.425V136.014H731.997C730.3 139.287 727.835 141.999 724.86 143.867C721.77 145.878 718.245 146.936 714.655 146.929C711.901 147.075 709.151 146.568 706.59 145.444C704.029 144.319 701.717 142.603 699.811 140.411ZM754.263 86.3828H762.898V95.0211H763.612C765.325 91.8641 767.794 89.2805 770.749 87.5607C773.655 85.615 776.981 84.5578 780.383 84.498C784.029 84.3934 787.625 85.4575 790.731 87.5607C793.557 89.6339 795.727 92.6259 796.94 96.1205C798.867 92.6651 801.507 89.7595 804.648 87.6392C807.898 85.4945 811.634 84.4055 815.424 84.498C818.079 84.2199 820.756 84.637 823.237 85.7153C825.718 86.7935 827.931 88.5022 829.697 90.7019C833.052 95.6187 834.721 101.682 834.407 107.821V144.573H825.344V109.942C825.701 105.607 824.665 101.272 822.418 97.6911C821.251 96.4008 819.841 95.4085 818.287 94.7843C816.733 94.1601 815.073 93.9192 813.426 94.0787C810.848 94.1013 808.345 95.0376 806.289 96.7487C804.099 98.5476 802.357 100.924 801.222 103.659C800.024 106.542 799.415 109.678 799.438 112.847V145.123H790.446V109.942C790.833 105.605 789.795 101.258 787.52 97.6911C786.344 96.4139 784.933 95.4302 783.381 94.8068C781.83 94.1835 780.174 93.9351 778.528 94.0787C775.944 94.0787 773.439 95.0132 771.391 96.7487C769.22 98.613 767.503 101.042 766.395 103.816C765.167 106.718 764.533 109.882 764.54 113.083V145.123H755.476L754.263 86.3828ZM846.397 86.3828H855.103V95.0211H855.531C857.215 91.8363 859.691 89.2477 862.668 87.5607C865.594 85.6053 868.948 84.5452 872.374 84.498C875.996 84.4051 879.566 85.4689 882.65 87.5607C885.476 89.6339 887.646 92.6259 888.859 96.1205C890.786 92.6651 893.427 89.7595 896.567 87.6392C899.818 85.4945 903.554 84.4055 907.343 84.498C909.996 84.2456 912.666 84.6745 915.143 85.7511C917.62 86.8277 919.836 88.5225 921.616 90.7019C924.92 95.6414 926.562 101.696 926.255 107.821V144.573H917.191V109.942C917.578 105.605 916.54 101.258 914.265 97.6911C913.099 96.4008 911.688 95.4085 910.135 94.7843C908.581 94.1601 906.921 93.9192 905.273 94.0787C902.691 94.0718 900.18 95.0112 898.137 96.7487C895.912 98.5067 894.161 100.895 893.07 103.659C891.849 106.534 891.214 109.675 891.214 112.847V145.123H882.294V109.942C882.666 105.594 881.602 101.245 879.296 97.6911C878.121 96.4139 876.709 95.4302 875.158 94.8068C873.606 94.1835 871.951 93.9351 870.304 94.0787C867.721 94.0787 865.216 95.0132 863.167 96.7487C860.996 98.613 859.279 101.042 858.172 103.816C856.966 106.722 856.359 109.887 856.388 113.083V145.123H846.397V86.3828ZM948.45 142.61C944.452 139.966 941.194 136.162 939.029 131.616C936.742 126.766 935.566 121.374 935.604 115.91C935.546 110.471 936.646 105.092 938.815 100.204C940.806 95.4464 944.012 91.4285 948.041 88.6399C952.071 85.8513 956.75 84.4122 961.51 84.498C966.234 84.3809 970.897 85.6841 974.998 88.2675C978.859 90.8275 981.956 94.5656 983.919 99.0261C986.01 103.934 987.059 109.306 986.987 114.732C987.087 115.51 987.087 116.311 986.987 117.088H944.953C944.974 121.007 945.988 124.839 947.879 128.161C949.499 131.027 951.79 133.367 954.516 134.914C957.071 136.391 959.911 137.176 962.794 137.192C966.048 137.207 969.237 136.194 971.982 134.273C974.727 132.352 976.914 129.603 978.281 126.355L986.274 130.595C984.074 135.222 980.799 139.124 976.782 141.903C972.517 144.865 967.55 146.369 962.509 146.223C957.606 146.507 952.731 145.255 948.45 142.61ZM977.71 109.156C977.525 106.688 976.894 104.285 975.854 102.089C974.654 99.6324 972.88 97.5723 970.716 96.1205C967.94 94.3792 964.774 93.5354 961.581 93.686C957.77 93.6161 954.074 95.1304 951.233 97.9267C948.249 100.846 946.281 104.816 945.666 109.156H977.71ZM997.264 86.3828H1006.26V95.8849C1007.42 92.5909 1009.55 89.8242 1012.32 88.0319C1014.54 86.3243 1017.1 85.2386 1019.79 84.8691C1022.48 84.4996 1025.2 84.8574 1027.74 85.9116V96.5917C1025.53 95.3435 1023.08 94.7226 1020.6 94.7855C1018.05 94.7771 1015.56 95.6265 1013.46 97.2199C1011.28 98.8745 1009.5 101.083 1008.25 103.659C1006.98 106.329 1006.3 109.282 1006.26 112.298V144.731H997.193L997.264 86.3828ZM1071.13 142.532C1067.01 139.903 1063.67 136.034 1061.49 131.38C1059.16 126.544 1057.96 121.147 1058 115.674C1057.98 110.204 1059.18 104.812 1061.49 99.9684C1063.71 95.348 1067.05 91.4897 1071.13 88.8172C1075.4 86.1754 1080.22 84.7877 1085.12 84.7877C1090.01 84.7877 1094.83 86.1754 1099.1 88.8172C1103.22 91.4623 1106.58 95.3257 1108.81 99.9684C1111.16 104.798 1112.36 110.201 1112.31 115.674C1112.37 121.152 1111.17 126.557 1108.81 131.38C1106.61 136.065 1103.21 139.941 1099.03 142.532C1094.76 145.173 1089.94 146.561 1085.04 146.561C1080.14 146.561 1075.33 145.173 1071.06 142.532H1071.13ZM1094.04 134.679C1096.89 132.794 1099.22 130.077 1100.74 126.826C1102.45 123.245 1103.31 119.248 1103.24 115.203C1103.32 111.184 1102.46 107.21 1100.74 103.659C1099.18 100.432 1096.87 97.721 1094.04 95.8063C1091.34 94.0596 1088.28 93.1383 1085.15 93.1383C1082.03 93.1383 1078.96 94.0596 1076.27 95.8063C1073.43 97.721 1071.12 100.432 1069.56 103.659C1067.84 107.209 1066.98 111.183 1067.06 115.203C1066.99 119.247 1067.85 123.243 1069.56 126.826C1071.08 130.077 1073.41 132.794 1076.27 134.679C1078.94 136.477 1082.02 137.429 1085.15 137.429C1088.29 137.429 1091.36 136.477 1094.04 134.679ZM1127.15 95.5708H1117.23V86.3828H1127.15V78.5298C1127.05 75.0613 1127.85 71.6329 1129.43 68.635C1130.9 65.8864 1133.02 63.6248 1135.57 62.117C1138.26 60.5918 1141.25 59.8101 1144.28 59.8396C1145.73 59.6983 1147.18 59.6983 1148.63 59.8396C1149.79 60.1145 1150.94 60.4836 1152.06 60.939V70.6768C1149.84 69.4566 1147.4 68.8118 1144.92 68.792C1143.8 68.7773 1142.7 69.0135 1141.66 69.4861C1140.63 69.9587 1139.7 70.6578 1138.93 71.5406C1138.06 72.6011 1137.4 73.8438 1136.98 75.1936C1136.56 76.5433 1136.4 77.9721 1136.5 79.3936V86.3828H1150.13V95.4137H1136.5V144.573H1127.44L1127.15 95.5708ZM1200.51 140.883C1194.56 137.161 1189.62 131.733 1186.24 125.177C1182.89 118.32 1181.14 110.658 1181.14 102.874C1181.14 95.0904 1182.89 87.428 1186.24 80.5715C1189.62 74.0147 1194.56 68.5874 1200.51 64.8655C1206.52 60.9378 1213.37 58.85 1220.35 58.8187C1225.77 58.732 1231.13 59.9657 1236.05 62.4311C1240.75 64.7773 1244.92 68.2366 1248.26 72.5615L1241.91 79.4721C1239.43 75.8032 1236.24 72.7966 1232.56 70.6768C1228.69 68.9348 1224.53 68.1312 1220.35 68.3209C1215.05 68.2507 1209.83 69.7419 1205.22 72.64C1200.59 75.4671 1196.76 79.6527 1194.16 84.7336C1191.35 90.2155 1189.92 96.4239 1190.02 102.717C1189.92 109.01 1191.35 115.218 1194.16 120.7C1196.76 125.781 1200.59 129.967 1205.22 132.794C1211.54 136.691 1218.9 138.002 1226.01 136.492C1233.11 134.983 1239.51 130.751 1244.05 124.548L1250.54 131.616C1246.97 136.262 1242.51 139.988 1237.48 142.532C1232.13 145.312 1226.27 146.709 1220.35 146.615C1213.4 146.646 1206.56 144.669 1200.51 140.883ZM1269.74 142.532C1265.62 139.884 1262.26 136.021 1260.03 131.38C1257.73 126.537 1256.55 121.141 1256.61 115.674C1256.56 110.21 1257.74 104.817 1260.03 99.9684C1262.3 95.3568 1265.65 91.5039 1269.74 88.8172C1274.06 86.0436 1279.01 84.6564 1284.01 84.8122C1289.01 84.6844 1293.95 86.0697 1298.29 88.8172C1302.39 91.4842 1305.75 95.342 1307.99 99.9684C1310.3 104.814 1311.5 110.201 1311.49 115.674C1311.52 121.147 1310.32 126.544 1307.99 131.38C1305.79 136.038 1302.42 139.907 1298.29 142.532C1293.97 145.341 1289.02 146.757 1284.01 146.615C1279 146.787 1274.04 145.369 1269.74 142.532ZM1292.65 134.679C1295.5 132.818 1297.8 130.093 1299.28 126.826C1301.01 123.253 1301.87 119.248 1301.78 115.203C1301.88 111.181 1301.02 107.201 1299.28 103.659C1297.77 100.418 1295.48 97.7003 1292.65 95.8063C1289.94 94.0598 1286.86 93.1391 1283.73 93.1391C1280.59 93.1391 1277.51 94.0598 1274.81 95.8063C1271.99 97.722 1269.7 100.434 1268.17 103.659C1266.46 107.209 1265.59 111.183 1265.67 115.203C1265.61 119.247 1266.46 123.243 1268.17 126.826C1269.67 130.069 1271.97 132.794 1274.81 134.679C1277.5 136.474 1280.58 137.423 1283.73 137.423C1286.87 137.423 1289.96 136.474 1292.65 134.679ZM1330.69 142.61C1326.82 139.855 1323.67 136.038 1321.55 131.537C1319.3 126.603 1318.12 121.157 1318.12 115.635C1318.12 110.113 1319.3 104.667 1321.55 99.7328C1323.67 95.2319 1326.82 91.4158 1330.69 88.6601C1334.46 86.0142 1338.84 84.6235 1343.32 84.6551C1347.17 84.6007 1350.98 85.6277 1354.38 87.6392C1357.32 89.3826 1359.78 91.9584 1361.52 95.0996H1361.94L1361.52 87.2466V60.7034H1370.51V144.731H1361.94V136.014H1361.52C1359.82 139.287 1357.35 141.999 1354.38 143.867C1350.69 146.017 1346.54 147.034 1342.38 146.813C1338.21 146.592 1334.17 145.14 1330.69 142.61ZM1353.38 134.757C1356.14 132.849 1358.37 130.132 1359.8 126.904C1361.4 123.226 1362.23 119.201 1362.23 115.125C1362.23 111.048 1361.4 107.024 1359.8 103.345C1358.38 100.112 1356.15 97.3896 1353.38 95.4922C1350.77 93.7089 1347.75 92.7827 1344.67 92.8222C1341.6 92.7913 1338.58 93.7169 1335.97 95.4922C1333.24 97.4241 1331.04 100.141 1329.61 103.345C1327.92 106.902 1327.09 110.876 1327.19 114.889C1327.1 118.925 1327.94 122.921 1329.61 126.512C1331.01 129.739 1333.21 132.464 1335.97 134.365C1338.58 136.161 1341.59 137.114 1344.67 137.113C1347.71 137.294 1350.72 136.532 1353.38 134.914V134.757ZM1393.34 142.61C1389.36 139.946 1386.11 136.148 1383.92 131.616C1381.64 126.766 1380.46 121.374 1380.5 115.91C1380.44 110.471 1381.54 105.092 1383.71 100.204C1385.76 95.61 1388.92 91.7228 1392.84 88.9742C1396.91 86.1789 1401.61 84.7337 1406.4 84.8122C1411.15 84.7032 1415.83 86.0054 1419.96 88.5816C1423.8 91.1417 1426.88 94.8797 1428.81 99.3402C1430.93 104.248 1432 109.62 1431.95 115.046C1432.05 115.824 1432.05 116.625 1431.95 117.402H1389.92C1389.92 121.313 1390.91 125.145 1392.77 128.475C1394.4 131.365 1396.72 133.705 1399.48 135.228C1402.02 136.697 1404.83 137.482 1407.69 137.506C1410.94 137.521 1414.13 136.508 1416.88 134.587C1419.62 132.666 1421.81 129.917 1423.18 126.669L1431.17 130.909C1428.98 135.518 1425.73 139.416 1421.75 142.218C1417.48 145.161 1412.51 146.663 1407.47 146.537C1402.52 146.718 1397.62 145.357 1393.34 142.61ZM1422.32 109.156C1422.16 106.692 1421.56 104.289 1420.53 102.089C1419.31 99.6233 1417.51 97.5625 1415.33 96.1205C1412.58 94.3788 1409.43 93.5344 1406.26 93.686C1402.45 93.5996 1398.75 95.1161 1395.91 97.9267C1392.93 100.846 1390.96 104.816 1390.35 109.156H1422.32Z" fill="#1A2430"/>
<path d="M283.822 48.2959H286.962C297.938 48.5299 308.412 53.3933 316.222 61.8816L307.73 71.3052C301.555 64.9003 293.323 61.4522 284.841 61.7172C276.359 61.9822 268.318 65.9387 262.484 72.7187C257.832 78.1995 254.862 85.149 253.991 92.5868C253.367 97.5363 253.679 102.574 254.907 107.385C256.135 112.196 258.253 116.675 261.128 120.543C263.981 124.279 267.512 127.319 271.493 129.469C275.474 131.619 279.819 132.831 284.25 133.03C288.355 133.333 292.473 132.724 296.359 131.24C300.246 129.756 303.821 127.427 306.873 124.391C311.383 119.667 314.109 113.246 314.509 106.408H285.463V92.9795H326.856C328.157 100.263 327.844 107.784 325.943 114.906C324.043 122.028 320.61 128.541 315.937 133.894C309.135 141.127 300.248 145.516 290.816 146.301C281.574 147.398 272.247 145.4 264.054 140.569C254.219 134.92 246.604 125.507 242.644 114.104C239.254 103.588 239.254 92.1088 242.644 81.5926C245.793 72.1189 251.464 63.9091 258.915 58.0336C266.2 52.2321 274.844 48.8524 283.822 48.2959ZM520.971 51.6727H533.603V144.652H520.971V51.6727ZM354.831 83.87C358.758 83.0618 362.792 83.1176 366.699 84.0341C370.607 84.9507 374.311 86.7098 377.597 89.21C383.477 93.8874 387.47 100.901 388.73 108.764C389.502 112.812 389.54 116.989 388.842 121.053C388.143 125.118 386.722 128.991 384.66 132.449C382.598 135.908 379.935 138.884 376.825 141.208C373.714 143.531 370.217 145.155 366.535 145.987C363.949 146.523 361.312 146.708 358.685 146.537C354.493 146.241 350.41 144.951 346.714 142.755C343.018 140.56 339.798 137.51 337.275 133.815C334.532 129.592 332.751 124.706 332.08 119.568C331.41 114.43 331.87 109.19 333.421 104.288C335.066 99.128 337.906 94.5301 341.661 90.9491C345.416 87.368 349.956 84.9278 354.831 83.87ZM356.829 96.2777C353.589 97.2279 350.699 99.2619 348.551 102.089C345.768 105.951 344.331 110.781 344.502 115.706C344.672 120.632 346.437 125.328 349.479 128.946C351.227 130.86 353.356 132.299 355.698 133.147C358.04 133.996 360.53 134.232 362.97 133.835C365.409 133.439 367.73 132.421 369.749 130.863C371.768 129.306 373.429 127.251 374.599 124.863C376.518 120.916 377.214 116.389 376.583 111.967C375.952 107.545 374.028 103.471 371.103 100.361C369.199 98.4639 366.907 97.1015 364.422 96.3904C361.936 95.6793 359.331 95.6407 356.829 96.2777ZM417.562 83.87C423.407 82.3977 429.526 82.9886 435.049 85.5589C440.573 88.1292 445.22 92.5483 448.332 98.1891C451.444 103.83 452.863 110.406 452.387 116.984C451.911 123.562 449.564 129.808 445.68 134.836C443.245 138.094 440.251 140.792 436.869 142.777C433.486 144.761 429.782 145.993 425.966 146.402C422.151 146.811 418.3 146.39 414.633 145.161C410.966 143.932 407.555 141.921 404.595 139.241L404.502 139.155C399.907 134.946 396.63 129.255 395.132 122.887C393.634 116.518 393.991 109.793 396.152 103.66C397.842 98.5926 400.707 94.1004 404.463 90.6288C408.219 87.1573 412.734 84.8272 417.562 83.87ZM419.346 96.2777C416.106 97.2257 413.214 99.2561 411.067 102.089C408.303 105.896 406.851 110.657 406.969 115.529C407.086 120.401 408.765 125.07 411.71 128.711C413.516 130.799 415.767 132.359 418.259 133.251C420.751 134.142 423.406 134.336 425.983 133.815C428.298 133.324 430.484 132.273 432.385 130.738C434.286 129.204 435.853 127.224 436.973 124.941C438.902 121.001 439.624 116.481 439.033 112.053C438.441 107.625 436.568 103.525 433.69 100.361C431.787 98.466 429.492 97.1105 427.005 96.4126C424.517 95.7147 421.913 95.6953 419.417 96.3562L419.346 96.2777ZM471.015 87.6394C474.426 85.2065 478.339 83.7585 482.392 83.4291C486.446 83.0997 490.51 83.8995 494.209 85.7547C496.485 86.9484 498.541 88.6053 500.275 90.6236V85.205H512.264V142.61C512.606 151.452 509.817 160.094 504.485 166.719C501.279 170.022 497.414 172.453 493.201 173.817C488.987 175.181 484.542 175.439 480.221 174.572C475.65 173.722 471.348 171.613 467.717 168.441C464.086 165.269 461.243 161.138 459.453 156.432C463.022 154.547 466.59 153.055 470.444 151.327C471.407 154.038 472.958 156.449 474.96 158.351C476.962 160.254 479.356 161.589 481.934 162.243C484.56 162.857 487.287 162.702 489.842 161.792C492.397 160.882 494.69 159.251 496.492 157.06C499.53 151.786 500.769 145.497 499.989 139.312C497.347 142.408 493.993 144.66 490.283 145.83C486.161 146.923 481.858 146.886 477.752 145.723C473.646 144.559 469.862 142.304 466.733 139.155C463.838 136.405 461.464 133.055 459.746 129.296C458.028 125.536 457 121.441 456.72 117.245C456.44 113.048 456.915 108.831 458.116 104.836C459.317 100.841 461.222 97.146 463.721 93.9611L463.878 93.7648C465.798 91.4167 468.003 89.3828 470.444 87.7179M482.719 96.0421C479.086 96.7253 475.796 98.8142 473.441 101.932C470.717 105.615 469.23 110.219 469.23 114.968C469.23 119.717 470.717 124.32 473.441 128.004C475.06 130.118 477.118 131.771 479.442 132.824C481.765 133.876 484.284 134.297 486.787 134.051C489.186 133.777 491.489 132.87 493.502 131.407C495.515 129.944 497.177 127.969 498.348 125.648C500.297 121.804 501.149 117.403 500.793 113.019C500.436 108.635 498.888 104.47 496.35 101.068C494.719 99.0154 492.631 97.4652 490.291 96.5702C487.951 95.6752 485.44 95.4661 483.004 95.9636L482.719 96.0421ZM548.875 91.0162C552.487 87.3984 556.927 84.9314 561.717 83.8799C566.508 82.8285 571.468 83.2322 576.065 85.0479C580.186 87.1091 583.841 90.1503 586.766 93.9525C589.69 97.7547 591.812 102.223 592.979 107.036L554.513 124.548C556.161 128.381 559.066 131.388 562.648 132.951C565.199 133.989 567.945 134.309 570.636 133.884C573.328 133.459 575.881 132.302 578.063 130.517C579.712 129.033 581.175 127.313 582.417 125.412C585.7 127.768 588.982 130.124 592.194 132.559C587.926 139.542 581.323 144.386 573.823 146.033C566.323 147.681 558.535 145.999 552.158 141.354C550.131 139.833 548.285 138.039 546.662 136.014C541.936 129.587 539.546 121.459 539.955 113.204C540.364 104.949 543.542 97.1541 548.875 91.3303M555.226 103.345C553.29 106.577 552.317 110.393 552.443 114.261L578.063 102.089C577.279 100.343 576.112 98.839 574.666 97.7146C573.22 96.5902 571.543 95.8804 569.785 95.6495C567.027 95.3174 564.239 95.8225 561.722 97.1098C559.206 98.3972 557.059 100.418 555.512 102.953L555.226 103.345Z" fill="#1A2430"/>
<mask id="mask0_216_103" style="mask-type:luminance" maskUnits="userSpaceOnUse" x="955" y="203" width="289" height="201">
<path d="M1218.12 230.695C1188.13 218.614 1129.13 311.417 1101.49 391.84C1101.49 391.84 1092.75 370.976 1091.92 346.544C1091.43 332.347 1095.51 336.671 1097.18 337.618L1097.78 333.389L1089.87 332.326V332.32L1081.69 331.421L1081.11 335.655C1082.99 335.134 1088.09 331.938 1083.79 345.55C1076.38 368.967 1062.28 387.038 1062.28 387.038C1057.31 302.617 1025.36 198.678 993.086 203.139C981.584 204.728 940.123 227.3 962.481 270.913C962.473 270.917 962.462 270.936 962.458 270.95C962.771 271.569 963.137 272.198 963.484 272.825C963.729 273.267 963.944 273.69 964.197 274.132C965.012 275.558 965.905 276.996 966.863 278.464C967.143 278.891 967.447 279.335 967.757 279.762C968.53 280.929 969.378 282.105 970.258 283.295C970.597 283.74 970.921 284.202 971.272 284.656C972.456 286.2 973.716 287.768 975.054 289.347C975.319 289.662 975.612 289.978 975.888 290.294C977.054 291.627 978.279 292.984 979.565 294.359C980.01 294.829 980.455 295.304 980.915 295.779C982.527 297.443 984.193 299.138 985.991 300.837C987.677 302.438 989.19 303.946 990.789 305.502C990.762 305.472 990.74 305.448 990.713 305.417C943.092 252.375 972.883 226.698 982.654 220.983C1010.12 204.95 1059.14 354.756 1058.81 398.096C1069.5 386.682 1079.23 373.214 1086.64 354.893C1088.85 374.397 1094.6 389.76 1101.85 403.377C1113.26 361.406 1201.15 228.352 1223.37 250.463C1231.28 258.341 1253.09 290.298 1192.88 330.066C1194.73 329.009 1196.62 327.951 1198.56 326.878C1200.75 325.654 1202.81 324.434 1204.82 323.205C1205.4 322.851 1205.96 322.505 1206.52 322.156C1208.14 321.133 1209.69 320.123 1211.17 319.113C1211.52 318.872 1211.88 318.639 1212.23 318.395C1213.96 317.189 1215.6 315.979 1217.16 314.775C1217.63 314.419 1218.05 314.055 1218.51 313.706C1219.68 312.764 1220.82 311.825 1221.89 310.895C1222.29 310.544 1222.71 310.193 1223.1 309.849C1224.42 308.664 1225.68 307.488 1226.85 306.3C1227.21 305.936 1227.53 305.578 1227.89 305.205C1228.39 304.692 1228.92 304.163 1229.4 303.637C1229.39 303.629 1229.38 303.607 1229.38 303.593C1262.8 266.824 1228.81 235.004 1218.12 230.695Z" fill="white"/>
</mask>
<g mask="url(#mask0_216_103)">
<path d="M1218.12 230.695C1188.13 218.614 1129.13 311.417 1101.49 391.84C1101.49 391.84 1092.75 370.976 1091.92 346.544C1091.43 332.347 1095.51 336.671 1097.18 337.618L1097.78 333.389L1089.87 332.326V332.32L1081.69 331.421L1081.11 335.655C1082.99 335.134 1088.09 331.938 1083.79 345.55C1076.38 368.967 1062.28 387.038 1062.28 387.038C1057.31 302.617 1025.36 198.678 993.086 203.139C981.584 204.728 940.123 227.3 962.481 270.913C962.473 270.917 962.462 270.936 962.458 270.95C962.771 271.569 963.137 272.198 963.484 272.825C963.729 273.267 963.944 273.69 964.197 274.132C965.012 275.558 965.905 276.996 966.863 278.464C967.143 278.891 967.447 279.335 967.757 279.762C968.53 280.929 969.378 282.105 970.258 283.295C970.597 283.74 970.921 284.202 971.272 284.656C972.456 286.2 973.716 287.768 975.054 289.347C975.319 289.662 975.612 289.978 975.888 290.294C977.054 291.627 978.279 292.984 979.565 294.359C980.01 294.829 980.455 295.304 980.915 295.779C982.527 297.443 984.193 299.138 985.991 300.837C987.677 302.438 989.19 303.946 990.789 305.502C990.762 305.472 990.74 305.448 990.713 305.417C943.092 252.375 972.883 226.698 982.654 220.983C1010.12 204.95 1059.14 354.756 1058.81 398.096C1069.5 386.682 1079.23 373.214 1086.64 354.893C1088.85 374.397 1094.6 389.76 1101.85 403.377C1113.26 361.406 1201.15 228.352 1223.37 250.463C1231.28 258.341 1253.09 290.298 1192.88 330.066C1194.73 329.009 1196.62 327.951 1198.56 326.878C1200.75 325.654 1202.81 324.434 1204.82 323.205C1205.4 322.851 1205.96 322.505 1206.52 322.156C1208.14 321.133 1209.69 320.123 1211.17 319.113C1211.52 318.872 1211.88 318.639 1212.23 318.395C1213.96 317.189 1215.6 315.979 1217.16 314.775C1217.63 314.419 1218.05 314.055 1218.51 313.706C1219.68 312.764 1220.82 311.825 1221.89 310.895C1222.29 310.544 1222.71 310.193 1223.1 309.849C1224.42 308.664 1225.68 307.488 1226.85 306.3C1227.21 305.936 1227.53 305.578 1227.89 305.205C1228.39 304.692 1228.92 304.163 1229.4 303.637C1229.39 303.629 1229.38 303.607 1229.38 303.593C1262.8 266.824 1228.81 235.004 1218.12 230.695Z" fill="url(#paint0_radial_216_103)"/>
</g>
<mask id="mask1_216_103" style="mask-type:luminance" maskUnits="userSpaceOnUse" x="964" y="219" width="270" height="290">
<path d="M1223.37 250.464C1201.15 228.352 1113.26 361.406 1101.85 403.377C1102.25 404.125 1102.65 404.888 1103.06 405.633C1104.11 407.446 1105.82 410.364 1108.01 414.091C1123.11 439.84 1161.14 504.115 1166.96 508.653C1172.15 512.694 1148.62 480.286 1153.01 466.326C1161.39 476.349 1168.06 483.881 1170.22 485.221C1170.5 485.388 1170.71 485.477 1170.83 485.495C1172.43 485.698 1160.75 472.722 1156.24 461.944C1158.36 460.555 1161.47 459.877 1165.86 460.198C1177.89 461.085 1169.23 457.726 1157.3 449.424C1159.34 448.134 1162.63 447.543 1167.57 447.967C1192.77 450.126 1126.6 435.293 1129.38 403.12C1131.27 384.131 1147.45 360.017 1192.74 330.162C1192.78 330.128 1192.83 330.098 1192.88 330.066C1253.09 290.298 1231.28 258.341 1223.37 250.464ZM982.654 220.983C972.882 226.698 943.092 252.375 990.713 305.417C990.74 305.448 990.762 305.472 990.788 305.502C1026.45 345.231 1035.55 372.423 1032.26 391.231C1026.24 423.001 958.242 421.405 983.193 425.385C988.066 426.162 991.097 427.527 992.712 429.262C978.957 434.411 969.661 435.582 981.534 437.623C985.878 438.369 988.688 439.776 990.362 441.636C983.087 450.956 968.288 460.698 969.887 460.878C970.005 460.897 970.223 460.861 970.536 460.762C972.994 459.984 981.487 454.316 992.297 446.645C992.761 461.202 961.255 486.863 967.365 484.205C974.239 481.215 1028.58 428.047 1050.08 406.869C1053.08 403.908 1055.45 401.567 1056.95 400.082C1057.58 399.434 1058.19 398.759 1058.81 398.097C1059.14 354.756 1010.12 204.951 982.654 220.983Z" fill="white"/>
</mask>
<g mask="url(#mask1_216_103)">
<path d="M1223.37 250.464C1201.15 228.352 1113.26 361.406 1101.85 403.377C1102.25 404.125 1102.65 404.888 1103.06 405.633C1104.11 407.446 1105.82 410.364 1108.01 414.091C1123.11 439.84 1161.14 504.115 1166.96 508.653C1172.15 512.694 1148.62 480.286 1153.01 466.326C1161.39 476.349 1168.06 483.881 1170.22 485.221C1170.5 485.388 1170.71 485.477 1170.83 485.495C1172.43 485.698 1160.75 472.722 1156.24 461.944C1158.36 460.555 1161.47 459.877 1165.86 460.198C1177.89 461.085 1169.23 457.726 1157.3 449.424C1159.34 448.134 1162.63 447.543 1167.57 447.967C1192.77 450.126 1126.6 435.293 1129.38 403.12C1131.27 384.131 1147.45 360.017 1192.74 330.162C1192.78 330.128 1192.83 330.098 1192.88 330.066C1253.09 290.298 1231.28 258.341 1223.37 250.464ZM982.654 220.983C972.882 226.698 943.092 252.375 990.713 305.417C990.74 305.448 990.762 305.472 990.788 305.502C1026.45 345.231 1035.55 372.423 1032.26 391.231C1026.24 423.001 958.242 421.405 983.193 425.385C988.066 426.162 991.097 427.527 992.712 429.262C978.957 434.411 969.661 435.582 981.534 437.623C985.878 438.369 988.688 439.776 990.362 441.636C983.087 450.956 968.288 460.698 969.887 460.878C970.005 460.897 970.223 460.861 970.536 460.762C972.994 459.984 981.487 454.316 992.297 446.645C992.761 461.202 961.255 486.863 967.365 484.205C974.239 481.215 1028.58 428.047 1050.08 406.869C1053.08 403.908 1055.45 401.567 1056.95 400.082C1057.58 399.434 1058.19 398.759 1058.81 398.097C1059.14 354.756 1010.12 204.951 982.654 220.983Z" fill="url(#paint1_radial_216_103)"/>
</g>
<mask id="mask2_216_103" style="mask-type:luminance" maskUnits="userSpaceOnUse" x="966" y="258" width="262" height="209">
<path d="M1218.07 288.538C1217.33 288.161 1216.52 287.915 1215.64 287.8C1191.75 284.834 1116.24 379.2 1103.54 399.711C1102.91 400.94 1102.18 402.572 1101.85 403.377C1104.23 406.42 1133.39 442.854 1152.98 466.298C1153.56 464.473 1154.59 462.991 1156.23 461.929C1154 456.6 1153.53 451.804 1157.3 449.416C1144.15 440.261 1127.06 425.087 1129.37 402.936C1129.41 402.551 1129.46 402.152 1129.51 401.753C1132.05 382.987 1148.53 359.304 1192.74 330.162C1192.89 330.071 1193.02 329.982 1193.16 329.887C1210.35 318.495 1220.96 307.596 1227.11 297.709C1224.59 293.197 1220.85 289.992 1218.07 288.538ZM980.039 258.948C979.156 258.844 978.308 258.889 977.497 259.071C974.405 259.807 969.917 262 966.266 265.762C969.536 276.798 976.845 289.901 990.387 305.054C990.497 305.181 990.603 305.298 990.712 305.417C1025.58 344.244 1035.11 371.112 1032.49 389.867C1032.43 390.267 1032.36 390.665 1032.31 391.057C1028.55 413.021 1007.9 423.572 992.726 429.273C995.724 432.472 993.975 436.997 990.381 441.615C991.67 443.039 992.266 444.725 992.334 446.616C1017.62 428.674 1055.7 400.47 1058.81 398.097C1058.71 397.234 1058.45 395.496 1058.18 394.157C1051.44 371.261 1003.95 261.843 980.039 258.948Z" fill="white"/>
</mask>
<g mask="url(#mask2_216_103)">
<path d="M1218.07 288.538C1217.33 288.161 1216.52 287.915 1215.64 287.8C1191.75 284.834 1116.24 379.2 1103.54 399.711C1102.91 400.94 1102.18 402.572 1101.85 403.377C1104.23 406.42 1133.39 442.854 1152.98 466.298C1153.56 464.473 1154.59 462.991 1156.23 461.929C1154 456.6 1153.53 451.804 1157.3 449.416C1144.15 440.261 1127.06 425.087 1129.37 402.936C1129.41 402.551 1129.46 402.152 1129.51 401.753C1132.05 382.987 1148.53 359.304 1192.74 330.162C1192.89 330.071 1193.02 329.982 1193.16 329.887C1210.35 318.495 1220.96 307.596 1227.11 297.709C1224.59 293.197 1220.85 289.992 1218.07 288.538ZM980.039 258.948C979.156 258.844 978.308 258.889 977.497 259.071C974.405 259.807 969.917 262 966.266 265.762C969.536 276.798 976.845 289.901 990.387 305.054C990.497 305.181 990.603 305.298 990.712 305.417C1025.58 344.244 1035.11 371.112 1032.49 389.867C1032.43 390.267 1032.36 390.665 1032.31 391.057C1028.55 413.021 1007.9 423.572 992.726 429.273C995.724 432.472 993.975 436.997 990.381 441.615C991.67 443.039 992.266 444.725 992.334 446.616C1017.62 428.674 1055.7 400.47 1058.81 398.097C1058.71 397.234 1058.45 395.496 1058.18 394.157C1051.44 371.261 1003.95 261.843 980.039 258.948Z" fill="url(#paint2_radial_216_103)"/>
</g>
<path d="M1023.9 287.206C1022.14 287.079 1020.64 287.554 1019.37 288.673C1018.09 289.769 1017.38 291.13 1017.25 292.694C1017.12 294.342 1017.59 295.759 1018.68 296.961C1019.75 298.17 1021.16 298.824 1022.92 298.965C1024.57 299.082 1026.01 298.639 1027.19 297.602C1028.38 296.568 1029.02 295.222 1029.16 293.577C1029.28 292.017 1028.88 290.576 1027.88 289.313C1026.9 288.021 1025.55 287.336 1023.9 287.206Z" fill="#161315"/>
<path d="M740.768 351.447C740.852 354.819 741.413 358.608 742.44 362.818C743.461 367.032 745.132 371.094 747.451 375.011C749.766 378.929 752.844 382.385 756.683 385.371C760.515 388.364 765.286 390.28 770.992 391.122C776.344 391.877 781.107 391.798 785.301 390.868C789.491 389.945 793.15 388.428 796.264 386.318C799.391 384.216 802.016 381.708 804.162 378.8C806.297 375.893 808.058 372.843 809.442 369.644C810.822 366.444 811.829 363.242 812.448 360.039C813.073 356.837 813.429 353.932 813.519 351.321C813.605 344.835 812.738 339.13 810.913 334.202C809.084 329.273 806.588 325.106 803.423 321.693C800.258 318.281 796.555 315.627 792.323 313.731C788.088 311.84 783.562 310.68 778.743 310.258C773.756 310.258 768.937 311.123 764.306 312.848C759.67 314.576 755.586 317.166 752.072 320.618C748.545 324.073 745.735 328.369 743.642 333.507C741.549 338.643 740.583 344.624 740.768 351.447ZM731 351.195C731 344.12 732.071 337.697 734.213 331.928C736.352 326.156 739.335 321.21 743.174 317.08C747.002 312.953 751.554 309.712 756.816 307.352C762.069 304.995 767.779 303.689 773.93 303.436C780.889 302.93 787.349 303.689 793.326 305.709C799.3 307.731 804.494 310.826 808.906 314.996C813.322 319.165 816.773 324.304 819.274 330.411C821.767 336.518 823.015 343.405 823.015 351.069C823.015 358.145 821.902 364.567 819.674 370.335C817.441 376.107 814.367 381.059 810.445 385.181C806.523 389.311 801.884 392.532 796.533 394.848C791.185 397.168 785.388 398.361 779.15 398.447C772.373 398.867 766.063 398.048 760.221 395.988C754.383 393.922 749.303 390.804 744.981 386.632C740.652 382.463 737.246 377.39 734.749 371.411C732.249 365.433 731 358.693 731 351.195Z" fill="#161315"/>
<path d="M865.004 339.318C861.349 339.318 858.249 340.163 855.711 341.844C853.173 343.532 851.118 345.678 849.56 348.29C847.998 350.901 846.886 353.785 846.214 356.944C845.547 360.101 845.215 363.117 845.215 365.977C845.215 368.842 845.525 371.832 846.147 374.949C846.773 378.067 847.867 380.931 849.42 383.539C850.985 386.151 853.037 388.3 855.579 389.98C858.117 391.669 861.259 392.511 865.004 392.511C868.93 392.511 872.162 391.713 874.7 390.109C877.242 388.51 879.272 386.425 880.791 383.853C882.303 381.287 883.348 378.423 883.932 375.263C884.506 372.105 884.796 369.01 884.796 365.977C884.796 362.946 884.506 359.85 883.932 356.691C883.348 353.531 882.303 350.668 880.791 348.099C879.272 345.53 877.242 343.425 874.7 341.783C872.162 340.14 868.93 339.318 865.004 339.318ZM826.887 423.341C828.226 423.169 829.741 422.937 831.434 422.646C833.128 422.346 834.47 421.527 835.451 420.18V339.696C834.47 338.353 833.173 337.531 831.566 337.233C829.964 336.938 828.493 336.708 827.154 336.539V333.128H845.215V344.373H845.483C847.712 340.328 850.537 337.359 853.973 335.463C857.401 333.571 861.531 332.62 866.343 332.62C870.891 332.62 874.922 333.486 878.445 335.213C881.967 336.938 884.913 339.297 887.274 342.287C889.635 345.278 891.423 348.815 892.626 352.9C893.824 356.987 894.428 361.342 894.428 365.977C894.428 370.777 893.893 375.202 892.825 379.243C891.754 383.286 890.084 386.781 887.809 389.732C885.535 392.681 882.612 394.997 879.045 396.679C875.481 398.361 871.245 399.209 866.343 399.209C863.046 399.209 860.169 398.703 857.717 397.692C855.266 396.679 853.173 395.504 851.434 394.153C849.696 392.807 848.331 391.434 847.353 390.045C846.374 388.655 845.747 387.587 845.483 386.825H845.215V426.245H826.887V423.341Z" fill="#161315"/>
<path d="M930.142 338.435C927.109 338.435 924.39 339.086 921.984 340.391C919.578 341.698 917.545 343.382 915.897 345.446C914.249 347.511 912.977 349.826 912.088 352.393C911.194 354.965 910.745 357.512 910.745 360.039H946.996C946.996 357.344 946.679 354.69 946.057 352.079C945.434 349.469 944.449 347.152 943.116 345.132C941.776 343.108 940.038 341.49 937.899 340.264C935.758 339.046 933.174 338.435 930.142 338.435ZM948.467 395.543C946.947 396.048 944.985 396.743 942.583 397.627C940.17 398.511 937.005 398.952 933.083 398.952C928.089 398.952 923.563 398.279 919.509 396.932C915.452 395.585 912.02 393.501 909.21 390.679C906.4 387.856 904.243 384.281 902.727 379.94C901.207 375.602 900.498 370.442 900.581 364.464C900.671 359.66 901.499 355.281 903.06 351.321C904.621 347.363 906.716 343.929 909.346 341.023C911.971 338.118 915.097 335.868 918.71 334.265C922.316 332.666 926.219 331.863 930.413 331.863C935.044 331.863 939.057 332.684 942.448 334.327C945.834 335.969 948.602 338.306 950.737 341.34C952.879 344.372 954.437 348.015 955.418 352.267C956.398 356.523 956.847 361.303 956.756 366.608H910.613C910.346 371.917 911.039 376.506 912.691 380.382C914.34 384.255 916.813 387.265 920.114 389.414C923.406 391.562 927.445 392.848 932.215 393.27C936.983 393.693 942.402 393.145 948.467 391.626V395.543Z" fill="#161315"/>
<path d="M1019.88 391.37C1020.86 392.724 1022.2 393.543 1023.9 393.836C1025.59 394.131 1027.1 394.363 1028.44 394.53V397.691H1010.12V358.901C1010.12 352.837 1008.89 348.036 1006.44 344.498C1003.99 340.96 999.906 339.194 994.204 339.194C990.372 339.194 987.177 339.97 984.643 341.529C982.101 343.088 980.046 345.045 978.488 347.404C976.93 349.763 975.834 352.393 975.211 355.303C974.585 358.208 974.275 360.964 974.275 363.576V397.563H964.647V339.95C963.662 338.603 962.327 337.782 960.63 337.485C958.937 337.191 957.421 336.961 956.086 336.79V333.128H974.143V345.002C974.766 343.57 975.683 342.118 976.881 340.645C978.089 339.172 979.601 337.821 981.426 336.602C983.255 335.381 985.442 334.391 987.984 333.634C990.526 332.874 993.487 332.495 996.877 332.495C1005.26 332.495 1011.19 334.307 1014.66 337.928C1018.14 341.552 1019.88 346.9 1019.88 353.974V391.37Z" fill="#161315"/>
<path d="M1170.36 333.128V397.691H1160.59V339.696C1159.61 338.352 1158.28 337.531 1156.58 337.233C1154.89 336.938 1153.38 336.708 1152.04 336.539V333.128H1170.36Z" fill="#161315"/>
<path d="M1219.57 381.138C1218.32 385.181 1216.21 388.449 1213.22 390.928C1210.23 393.415 1206.82 395.208 1202.99 396.301C1199.16 397.395 1195.18 397.797 1191.09 397.502C1186.99 397.206 1183.24 396.344 1179.85 394.912V390.868C1181.9 391.877 1184.6 392.531 1187.94 392.824C1191.29 393.123 1194.56 392.888 1197.78 392.133C1200.98 391.37 1203.75 390.024 1206.07 388.085C1208.38 386.151 1209.54 383.458 1209.54 380.004C1209.54 377.475 1208.74 375.411 1207.13 373.813C1205.53 372.209 1203.5 370.841 1201.05 369.704C1198.6 368.568 1195.95 367.492 1193.09 366.484C1190.24 365.472 1187.58 364.271 1185.13 362.882C1182.68 361.492 1180.65 359.83 1179.05 357.89C1177.45 355.953 1176.64 353.429 1176.64 350.31C1176.64 347.195 1177.22 344.456 1178.38 342.099C1179.54 339.741 1181.12 337.802 1183.13 336.284C1185.13 334.769 1187.48 333.634 1190.15 332.874C1192.82 332.118 1195.68 331.736 1198.71 331.736C1202.81 331.736 1206.07 331.949 1208.47 332.369C1210.88 332.793 1212.89 333.297 1214.49 333.884L1214.36 337.674C1210.88 336.329 1207.47 335.571 1204.13 335.401C1200.78 335.235 1197.8 335.675 1195.17 336.728C1192.53 337.783 1190.42 339.444 1188.81 341.718C1187.2 343.99 1186.41 346.858 1186.41 350.31C1186.41 352.248 1187.28 353.849 1189.01 355.111C1190.75 356.374 1192.91 357.534 1195.5 358.586C1198.08 359.641 1200.85 360.715 1203.8 361.805C1206.73 362.902 1209.43 364.271 1211.88 365.917C1214.34 367.556 1216.32 369.579 1217.84 371.977C1219.35 374.383 1219.93 377.432 1219.57 381.138Z" fill="#161315"/>
<path d="M1281.23 326.558C1281.23 324.454 1280.83 322.389 1280.03 320.367C1279.23 318.344 1278.04 316.556 1276.48 314.996C1274.92 313.439 1272.98 312.198 1270.66 311.27C1268.35 310.343 1265.72 309.878 1262.77 309.878H1241.65V345.256H1261.17C1264.02 345.256 1266.68 344.773 1269.12 343.802C1271.58 342.835 1273.69 341.51 1275.48 339.824C1277.26 338.141 1278.67 336.158 1279.69 333.884C1280.72 331.61 1281.23 329.169 1281.23 326.558ZM1241.65 354.352V397.816H1231.88V309.123C1230.81 307.943 1229.47 307.205 1227.87 306.91C1226.26 306.617 1224.83 306.384 1223.59 306.217V302.804H1264.78C1268.88 302.804 1272.54 303.455 1275.74 304.764C1278.96 306.069 1281.68 307.817 1283.9 310.005C1286.14 312.198 1287.83 314.765 1288.98 317.713C1290.15 320.661 1290.73 323.821 1290.73 327.19C1290.73 330.389 1290.15 333.528 1288.98 336.602C1287.83 339.677 1286.22 342.477 1284.17 345.002C1282.12 347.531 1279.63 349.636 1276.68 351.321C1273.74 353.007 1270.48 354.016 1266.93 354.352H1241.65Z" fill="#161315"/>
<path d="M1166.54 304.915C1164.79 304.789 1163.28 305.27 1162.01 306.387C1160.72 307.478 1160.03 308.843 1159.89 310.405C1159.76 312.052 1160.23 313.471 1161.31 314.674C1162.39 315.881 1163.8 316.542 1165.56 316.676C1167.21 316.792 1168.65 316.351 1169.82 315.315C1171.02 314.278 1171.67 312.935 1171.8 311.29C1171.93 309.731 1171.52 308.289 1170.52 307.027C1169.53 305.732 1168.19 305.045 1166.54 304.915Z" fill="#161315"/>
<path d="M569.149 549.273H577.956V597.426C577.956 602.398 576.784 606.837 574.441 610.743C572.12 614.625 568.842 617.691 564.604 619.94C560.366 622.166 555.395 623.278 549.689 623.278C543.984 623.278 539.012 622.166 534.774 619.94C530.537 617.691 527.246 614.625 524.902 610.743C522.582 606.837 521.422 602.398 521.422 597.426V549.273H530.229V596.716C530.229 600.267 531.01 603.428 532.573 606.197C534.135 608.944 536.361 611.11 539.249 612.696C542.161 614.259 545.641 615.04 549.689 615.04C553.737 615.04 557.218 614.259 560.129 612.696C563.041 611.11 565.267 608.944 566.806 606.197C568.368 603.428 569.149 600.267 569.149 596.716V549.273ZM599.805 549.273L618.555 579.528H619.123L637.873 549.273H648.242L625.373 585.636L648.242 622H637.873L619.123 592.312H618.555L599.805 622H589.435L612.873 585.636L589.435 549.273H599.805ZM696.635 549.273V622H687.828V549.273H696.635ZM713.157 622V567.455H721.253V575.977H721.964C723.1 573.065 724.935 570.804 727.468 569.195C730.001 567.561 733.043 566.744 736.594 566.744C740.193 566.744 743.188 567.561 745.579 569.195C747.993 570.804 749.876 573.065 751.225 575.977H751.793C753.19 573.16 755.285 570.923 758.079 569.266C760.872 567.585 764.222 566.744 768.128 566.744C773.005 566.744 776.994 568.271 780.096 571.325C783.197 574.356 784.748 579.079 784.748 585.494V622H776.367V585.494C776.367 581.47 775.266 578.593 773.064 576.865C770.863 575.137 768.27 574.273 765.287 574.273C761.452 574.273 758.481 575.433 756.374 577.753C754.267 580.049 753.214 582.961 753.214 586.489V622H744.691V584.642C744.691 581.541 743.685 579.043 741.672 577.149C739.66 575.232 737.068 574.273 733.895 574.273C731.717 574.273 729.681 574.853 727.787 576.013C725.917 577.173 724.402 578.783 723.242 580.842C722.106 582.878 721.537 585.234 721.537 587.909V622H713.157ZM800.071 642.455V567.455H808.167V576.119H809.162C809.777 575.172 810.63 573.965 811.719 572.497C812.831 571.006 814.417 569.68 816.477 568.52C818.56 567.336 821.378 566.744 824.929 566.744C829.522 566.744 833.57 567.893 837.074 570.189C840.577 572.485 843.312 575.741 845.277 579.955C847.242 584.169 848.224 589.14 848.224 594.869C848.224 600.646 847.242 605.653 845.277 609.891C843.312 614.105 840.589 617.372 837.109 619.692C833.629 621.988 829.616 623.136 825.071 623.136C821.567 623.136 818.762 622.556 816.655 621.396C814.548 620.213 812.926 618.875 811.79 617.384C810.653 615.868 809.777 614.614 809.162 613.619H808.452V642.455H800.071ZM808.309 594.727C808.309 598.847 808.913 602.481 810.121 605.629C811.328 608.754 813.092 611.205 815.412 612.98C817.732 614.732 820.573 615.608 823.934 615.608C827.438 615.608 830.362 614.685 832.706 612.838C835.073 610.968 836.849 608.458 838.032 605.31C839.24 602.137 839.844 598.61 839.844 594.727C839.844 590.892 839.252 587.436 838.068 584.358C836.908 581.257 835.144 578.806 832.777 577.007C830.433 575.184 827.486 574.273 823.934 574.273C820.525 574.273 817.661 575.137 815.341 576.865C813.021 578.57 811.269 580.961 810.085 584.038C808.901 587.092 808.309 590.655 808.309 594.727ZM861.008 622V567.455H869.105V575.693H869.673C870.667 572.994 872.467 570.804 875.071 569.124C877.675 567.443 880.611 566.602 883.878 566.602C884.493 566.602 885.263 566.614 886.186 566.638C887.109 566.661 887.808 566.697 888.281 566.744V575.267C887.997 575.196 887.346 575.089 886.328 574.947C885.334 574.782 884.28 574.699 883.167 574.699C880.516 574.699 878.148 575.255 876.065 576.368C874.006 577.457 872.372 578.972 871.165 580.913C869.981 582.831 869.389 585.021 869.389 587.483V622H861.008ZM918.714 623.136C913.79 623.136 909.47 621.964 905.753 619.621C902.059 617.277 899.171 613.998 897.088 609.784C895.028 605.57 893.998 600.646 893.998 595.011C893.998 589.33 895.028 584.37 897.088 580.132C899.171 575.894 902.059 572.604 905.753 570.26C909.47 567.916 913.79 566.744 918.714 566.744C923.639 566.744 927.947 567.916 931.64 570.26C935.357 572.604 938.246 575.894 940.305 580.132C942.389 584.37 943.43 589.33 943.43 595.011C943.43 600.646 942.389 605.57 940.305 609.784C938.246 613.998 935.357 617.277 931.64 619.621C927.947 621.964 923.639 623.136 918.714 623.136ZM918.714 615.608C922.455 615.608 925.532 614.649 927.947 612.732C930.362 610.814 932.149 608.293 933.309 605.168C934.47 602.043 935.05 598.657 935.05 595.011C935.05 591.366 934.47 587.968 933.309 584.82C932.149 581.671 930.362 579.126 927.947 577.185C925.532 575.243 922.455 574.273 918.714 574.273C914.974 574.273 911.896 575.243 909.481 577.185C907.067 579.126 905.279 581.671 904.119 584.82C902.959 587.968 902.379 591.366 902.379 595.011C902.379 598.657 902.959 602.043 904.119 605.168C905.279 608.293 907.067 610.814 909.481 612.732C911.896 614.649 914.974 615.608 918.714 615.608ZM998.872 567.455L978.702 622H970.179L950.009 567.455H959.1L974.156 610.92H974.725L989.781 567.455H998.872ZM1030.85 623.136C1025.59 623.136 1021.06 621.976 1017.25 619.656C1013.46 617.312 1010.54 614.045 1008.48 609.855C1006.44 605.641 1005.42 600.741 1005.42 595.153C1005.42 589.566 1006.44 584.642 1008.48 580.381C1010.54 576.096 1013.4 572.758 1017.07 570.366C1020.77 567.952 1025.07 566.744 1030 566.744C1032.84 566.744 1035.64 567.218 1038.41 568.165C1041.18 569.112 1043.71 570.651 1045.98 572.781C1048.25 574.888 1050.06 577.682 1051.41 581.162C1052.76 584.642 1053.44 588.927 1053.44 594.017V597.568H1011.39V590.324H1044.91C1044.91 587.246 1044.3 584.5 1043.07 582.085C1041.86 579.67 1040.13 577.765 1037.88 576.368C1035.66 574.971 1033.03 574.273 1030 574.273C1026.66 574.273 1023.77 575.101 1021.33 576.759C1018.92 578.392 1017.06 580.523 1015.76 583.151C1014.46 585.778 1013.8 588.596 1013.8 591.602V596.432C1013.8 600.551 1014.52 604.043 1015.94 606.908C1017.38 609.749 1019.38 611.915 1021.94 613.406C1024.49 614.874 1027.46 615.608 1030.85 615.608C1033.05 615.608 1035.04 615.3 1036.82 614.685C1038.62 614.045 1040.17 613.098 1041.47 611.844C1042.77 610.565 1043.78 608.979 1044.49 607.085L1052.58 609.358C1051.73 612.104 1050.3 614.519 1048.29 616.602C1046.27 618.662 1043.79 620.272 1040.83 621.432C1037.87 622.568 1034.54 623.136 1030.85 623.136ZM1066.18 622V567.455H1074.28V575.977H1074.99C1076.13 573.065 1077.96 570.804 1080.5 569.195C1083.03 567.561 1086.07 566.744 1089.62 566.744C1093.22 566.744 1096.21 567.561 1098.61 569.195C1101.02 570.804 1102.9 573.065 1104.25 575.977H1104.82C1106.22 573.16 1108.31 570.923 1111.11 569.266C1113.9 567.585 1117.25 566.744 1121.16 566.744C1126.03 566.744 1130.02 568.271 1133.12 571.325C1136.22 574.356 1137.78 579.079 1137.78 585.494V622H1129.39V585.494C1129.39 581.47 1128.29 578.593 1126.09 576.865C1123.89 575.137 1121.3 574.273 1118.31 574.273C1114.48 574.273 1111.51 575.433 1109.4 577.753C1107.29 580.049 1106.24 582.961 1106.24 586.489V622H1097.72V584.642C1097.72 581.541 1096.71 579.043 1094.7 577.149C1092.69 575.232 1090.1 574.273 1086.92 574.273C1084.74 574.273 1082.71 574.853 1080.81 576.013C1078.94 577.173 1077.43 578.783 1076.27 580.842C1075.13 582.878 1074.56 585.234 1074.56 587.909V622H1066.18ZM1175.97 623.136C1170.71 623.136 1166.18 621.976 1162.37 619.656C1158.58 617.312 1155.66 614.045 1153.6 609.855C1151.56 605.641 1150.54 600.741 1150.54 595.153C1150.54 589.566 1151.56 584.642 1153.6 580.381C1155.66 576.096 1158.52 572.758 1162.19 570.366C1165.88 567.952 1170.19 566.744 1175.12 566.744C1177.96 566.744 1180.76 567.218 1183.53 568.165C1186.3 569.112 1188.82 570.651 1191.1 572.781C1193.37 574.888 1195.18 577.682 1196.53 581.162C1197.88 584.642 1198.55 588.927 1198.55 594.017V597.568H1156.51V590.324H1190.03C1190.03 587.246 1189.41 584.5 1188.18 582.085C1186.98 579.67 1185.25 577.765 1183 576.368C1180.77 574.971 1178.15 574.273 1175.12 574.273C1171.78 574.273 1168.89 575.101 1166.45 576.759C1164.04 578.392 1162.18 580.523 1160.88 583.151C1159.57 585.778 1158.92 588.596 1158.92 591.602V596.432C1158.92 600.551 1159.63 604.043 1161.05 606.908C1162.5 609.749 1164.5 611.915 1167.05 613.406C1169.61 614.874 1172.58 615.608 1175.97 615.608C1178.17 615.608 1180.16 615.3 1181.93 614.685C1183.73 614.045 1185.28 613.098 1186.59 611.844C1187.89 610.565 1188.89 608.979 1189.6 607.085L1197.7 609.358C1196.85 612.104 1195.42 614.519 1193.4 616.602C1191.39 618.662 1188.91 620.272 1185.95 621.432C1182.99 622.568 1179.66 623.136 1175.97 623.136ZM1219.68 589.188V622H1211.3V567.455H1219.4V575.977H1220.11C1221.39 573.207 1223.33 570.982 1225.93 569.301C1228.54 567.597 1231.9 566.744 1236.02 566.744C1239.71 566.744 1242.94 567.502 1245.71 569.017C1248.48 570.509 1250.64 572.781 1252.17 575.835C1253.71 578.866 1254.48 582.701 1254.48 587.341V622H1246.1V587.909C1246.1 583.624 1244.99 580.286 1242.76 577.895C1240.54 575.48 1237.49 574.273 1233.6 574.273C1230.93 574.273 1228.54 574.853 1226.43 576.013C1224.35 577.173 1222.7 578.866 1221.49 581.091C1220.29 583.316 1219.68 586.015 1219.68 589.188ZM1293.52 567.455V574.557H1265.25V567.455H1293.52ZM1273.49 554.386H1281.87V606.375C1281.87 608.742 1282.21 610.518 1282.9 611.702C1283.61 612.862 1284.51 613.643 1285.6 614.045C1286.71 614.424 1287.88 614.614 1289.12 614.614C1290.04 614.614 1290.8 614.566 1291.39 614.472C1291.98 614.353 1292.45 614.259 1292.81 614.188L1294.51 621.716C1293.95 621.929 1293.15 622.142 1292.13 622.355C1291.12 622.592 1289.83 622.71 1288.26 622.71C1285.9 622.71 1283.58 622.201 1281.3 621.183C1279.05 620.165 1277.18 618.615 1275.69 616.531C1274.22 614.448 1273.49 611.82 1273.49 608.648V554.386ZM1343.79 579.67L1336.26 581.801C1335.78 580.546 1335.09 579.327 1334.16 578.143C1333.26 576.936 1332.03 575.942 1330.47 575.161C1328.91 574.379 1326.91 573.989 1324.47 573.989C1321.13 573.989 1318.35 574.758 1316.12 576.297C1313.92 577.812 1312.82 579.741 1312.82 582.085C1312.82 584.169 1313.58 585.814 1315.09 587.021C1316.61 588.229 1318.97 589.235 1322.19 590.04L1330.29 592.028C1335.17 593.212 1338.8 595.023 1341.19 597.462C1343.58 599.876 1344.78 602.99 1344.78 606.801C1344.78 609.926 1343.88 612.72 1342.08 615.182C1340.31 617.644 1337.82 619.585 1334.62 621.006C1331.43 622.426 1327.71 623.136 1323.47 623.136C1317.91 623.136 1313.3 621.929 1309.66 619.514C1306.01 617.099 1303.7 613.572 1302.73 608.932L1310.69 606.943C1311.45 609.879 1312.88 612.08 1314.99 613.548C1317.12 615.016 1319.9 615.75 1323.33 615.75C1327.24 615.75 1330.34 614.921 1332.63 613.264C1334.95 611.583 1336.11 609.571 1336.11 607.227C1336.11 605.333 1335.45 603.747 1334.13 602.469C1332.8 601.167 1330.76 600.196 1328.02 599.557L1318.93 597.426C1313.93 596.242 1310.26 594.408 1307.92 591.922C1305.6 589.412 1304.44 586.276 1304.44 582.511C1304.44 579.434 1305.3 576.711 1307.03 574.344C1308.78 571.976 1311.16 570.118 1314.17 568.768C1317.2 567.419 1320.63 566.744 1324.47 566.744C1329.86 566.744 1334.1 567.928 1337.18 570.295C1340.28 572.663 1342.48 575.788 1343.79 579.67ZM1409.24 567.455V574.557H1380.97V567.455H1409.24ZM1389.21 554.386H1397.59V606.375C1397.59 608.742 1397.94 610.518 1398.62 611.702C1399.33 612.862 1400.23 613.643 1401.32 614.045C1402.44 614.424 1403.61 614.614 1404.84 614.614C1405.76 614.614 1406.52 614.566 1407.11 614.472C1407.7 614.353 1408.18 614.259 1408.53 614.188L1410.24 621.716C1409.67 621.929 1408.87 622.142 1407.86 622.355C1406.84 622.592 1405.55 622.71 1403.99 622.71C1401.62 622.71 1399.3 622.201 1397.03 621.183C1394.78 620.165 1392.91 618.615 1391.41 616.531C1389.95 614.448 1389.21 611.82 1389.21 608.648V554.386ZM1443.42 623.136C1438.5 623.136 1434.18 621.964 1430.46 619.621C1426.77 617.277 1423.88 613.998 1421.79 609.784C1419.74 605.57 1418.71 600.646 1418.71 595.011C1418.71 589.33 1419.74 584.37 1421.79 580.132C1423.88 575.894 1426.77 572.604 1430.46 570.26C1434.18 567.916 1438.5 566.744 1443.42 566.744C1448.35 566.744 1452.65 567.916 1456.35 570.26C1460.06 572.604 1462.95 575.894 1465.01 580.132C1467.1 584.37 1468.14 589.33 1468.14 595.011C1468.14 600.646 1467.1 605.57 1465.01 609.784C1462.95 613.998 1460.06 617.277 1456.35 619.621C1452.65 621.964 1448.35 623.136 1443.42 623.136ZM1443.42 615.608C1447.16 615.608 1450.24 614.649 1452.65 612.732C1455.07 610.814 1456.86 608.293 1458.02 605.168C1459.18 602.043 1459.76 598.657 1459.76 595.011C1459.76 591.366 1459.18 587.968 1458.02 584.82C1456.86 581.671 1455.07 579.126 1452.65 577.185C1450.24 575.243 1447.16 574.273 1443.42 574.273C1439.68 574.273 1436.6 575.243 1434.19 577.185C1431.77 579.126 1429.99 581.671 1428.83 584.82C1427.67 587.968 1427.09 591.366 1427.09 595.011C1427.09 598.657 1427.67 602.043 1428.83 605.168C1429.99 608.293 1431.77 610.814 1434.19 612.732C1436.6 614.649 1439.68 615.608 1443.42 615.608ZM458.753 688.455V695.557H430.486V688.455H458.753ZM438.725 675.386H447.106V727.375C447.106 729.742 447.449 731.518 448.135 732.702C448.846 733.862 449.745 734.643 450.834 735.045C451.947 735.424 453.119 735.614 454.35 735.614C455.273 735.614 456.031 735.566 456.623 735.472C457.215 735.353 457.688 735.259 458.043 735.188L459.748 742.716C459.18 742.929 458.386 743.142 457.368 743.355C456.35 743.592 455.06 743.71 453.498 743.71C451.13 743.71 448.81 743.201 446.537 742.183C444.288 741.165 442.418 739.615 440.927 737.531C439.459 735.448 438.725 732.82 438.725 729.648V675.386ZM480.912 710.188V743H472.532V670.273H480.912V696.977H481.623C482.901 694.16 484.819 691.923 487.376 690.266C489.956 688.585 493.389 687.744 497.674 687.744C501.391 687.744 504.646 688.49 507.439 689.982C510.233 691.449 512.399 693.71 513.938 696.764C515.501 699.795 516.282 703.653 516.282 708.341V743H507.901V708.909C507.901 704.577 506.777 701.227 504.528 698.859C502.302 696.468 499.213 695.273 495.259 695.273C492.513 695.273 490.051 695.853 487.873 697.013C485.718 698.173 484.014 699.866 482.759 702.091C481.528 704.316 480.912 707.015 480.912 710.188ZM554.483 744.136C549.227 744.136 544.694 742.976 540.882 740.656C537.094 738.312 534.171 735.045 532.111 730.855C530.075 726.641 529.057 721.741 529.057 716.153C529.057 710.566 530.075 705.642 532.111 701.381C534.171 697.096 537.035 693.758 540.705 691.366C544.398 688.952 548.707 687.744 553.631 687.744C556.472 687.744 559.277 688.218 562.047 689.165C564.817 690.112 567.338 691.651 569.611 693.781C571.884 695.888 573.695 698.682 575.044 702.162C576.394 705.642 577.068 709.927 577.068 715.017V718.568H535.023V711.324H568.546C568.546 708.246 567.93 705.5 566.699 703.085C565.492 700.67 563.763 698.765 561.514 697.368C559.289 695.971 556.661 695.273 553.631 695.273C550.293 695.273 547.405 696.101 544.966 697.759C542.551 699.392 540.693 701.523 539.391 704.151C538.089 706.778 537.438 709.596 537.438 712.602V717.432C537.438 721.551 538.148 725.043 539.568 727.908C541.012 730.749 543.013 732.915 545.57 734.406C548.127 735.874 551.098 736.608 554.483 736.608C556.685 736.608 558.673 736.3 560.449 735.685C562.248 735.045 563.799 734.098 565.101 732.844C566.403 731.565 567.409 729.979 568.119 728.085L576.216 730.358C575.364 733.104 573.932 735.519 571.919 737.602C569.907 739.662 567.421 741.272 564.462 742.432C561.503 743.568 558.176 744.136 554.483 744.136ZM676.749 670.273V743H668.226L628.595 685.898H627.885V743H619.078V670.273H627.601L667.374 727.517H668.084V670.273H676.749ZM715.394 744.136C710.47 744.136 706.149 742.964 702.432 740.621C698.739 738.277 695.851 734.998 693.768 730.784C691.708 726.57 690.678 721.646 690.678 716.011C690.678 710.33 691.708 705.37 693.768 701.132C695.851 696.894 698.739 693.604 702.432 691.26C706.149 688.916 710.47 687.744 715.394 687.744C720.318 687.744 724.627 688.916 728.32 691.26C732.037 693.604 734.925 696.894 736.985 701.132C739.068 705.37 740.11 710.33 740.11 716.011C740.11 721.646 739.068 726.57 736.985 730.784C734.925 734.998 732.037 738.277 728.32 740.621C724.627 742.964 720.318 744.136 715.394 744.136ZM715.394 736.608C719.135 736.608 722.212 735.649 724.627 733.732C727.042 731.814 728.829 729.293 729.989 726.168C731.149 723.043 731.729 719.657 731.729 716.011C731.729 712.366 731.149 708.968 729.989 705.82C728.829 702.671 727.042 700.126 724.627 698.185C722.212 696.243 719.135 695.273 715.394 695.273C711.653 695.273 708.576 696.243 706.161 698.185C703.746 700.126 701.959 702.671 700.799 705.82C699.639 708.968 699.059 712.366 699.059 716.011C699.059 719.657 699.639 723.043 700.799 726.168C701.959 729.293 703.746 731.814 706.161 733.732C708.576 735.649 711.653 736.608 715.394 736.608ZM776.624 688.455V695.557H748.357V688.455H776.624ZM756.596 675.386H764.977V727.375C764.977 729.742 765.32 731.518 766.007 732.702C766.717 733.862 767.616 734.643 768.705 735.045C769.818 735.424 770.99 735.614 772.221 735.614C773.144 735.614 773.902 735.566 774.494 735.472C775.086 735.353 775.559 735.259 775.914 735.188L777.619 742.716C777.051 742.929 776.258 743.142 775.24 743.355C774.222 743.592 772.931 743.71 771.369 743.71C769.001 743.71 766.681 743.201 764.409 742.183C762.16 741.165 760.289 739.615 758.798 737.531C757.33 735.448 756.596 732.82 756.596 729.648V675.386ZM789.231 743V688.455H797.612V743H789.231ZM793.492 679.364C791.859 679.364 790.45 678.807 789.267 677.695C788.106 676.582 787.526 675.244 787.526 673.682C787.526 672.119 788.106 670.782 789.267 669.669C790.45 668.556 791.859 668 793.492 668C795.126 668 796.523 668.556 797.683 669.669C798.866 670.782 799.458 672.119 799.458 673.682C799.458 675.244 798.866 676.582 797.683 677.695C796.523 678.807 795.126 679.364 793.492 679.364ZM837.251 688.455V695.557H807.848V688.455H837.251ZM816.655 743V680.926C816.655 677.801 817.389 675.197 818.856 673.114C820.324 671.03 822.23 669.468 824.574 668.426C826.917 667.384 829.391 666.864 831.996 666.864C834.055 666.864 835.736 667.029 837.038 667.361C838.34 667.692 839.311 668 839.95 668.284L837.535 675.528C837.109 675.386 836.517 675.209 835.76 674.996C835.026 674.783 834.055 674.676 832.848 674.676C830.078 674.676 828.077 675.375 826.846 676.771C825.639 678.168 825.035 680.216 825.035 682.915V743H816.655ZM848.997 743V688.455H857.377V743H848.997ZM853.258 679.364C851.624 679.364 850.216 678.807 849.032 677.695C847.872 676.582 847.292 675.244 847.292 673.682C847.292 672.119 847.872 670.782 849.032 669.669C850.216 668.556 851.624 668 853.258 668C854.892 668 856.288 668.556 857.448 669.669C858.632 670.782 859.224 672.119 859.224 673.682C859.224 675.244 858.632 676.582 857.448 677.695C856.288 678.807 854.892 679.364 853.258 679.364ZM894.886 744.136C889.773 744.136 885.369 742.929 881.676 740.514C877.983 738.099 875.142 734.773 873.153 730.536C871.165 726.298 870.17 721.456 870.17 716.011C870.17 710.472 871.188 705.583 873.224 701.345C875.284 697.084 878.148 693.758 881.818 691.366C885.511 688.952 889.82 687.744 894.744 687.744C898.579 687.744 902.036 688.455 905.113 689.875C908.191 691.295 910.712 693.284 912.677 695.841C914.642 698.398 915.862 701.381 916.335 704.79H907.954C907.315 702.304 905.895 700.102 903.693 698.185C901.515 696.243 898.579 695.273 894.886 695.273C891.619 695.273 888.755 696.125 886.292 697.83C883.854 699.51 881.948 701.89 880.575 704.967C879.226 708.021 878.551 711.608 878.551 715.727C878.551 719.941 879.214 723.611 880.54 726.736C881.889 729.861 883.783 732.287 886.221 734.016C888.684 735.744 891.572 736.608 894.886 736.608C897.064 736.608 899.041 736.229 900.817 735.472C902.592 734.714 904.095 733.625 905.327 732.205C906.558 730.784 907.434 729.08 907.954 727.091H916.335C915.862 730.311 914.69 733.211 912.819 735.791C910.973 738.348 908.523 740.384 905.469 741.899C902.438 743.391 898.911 744.136 894.886 744.136ZM944.638 744.278C941.181 744.278 938.044 743.627 935.227 742.325C932.41 741 930.173 739.094 928.515 736.608C926.858 734.098 926.03 731.068 926.03 727.517C926.03 724.392 926.645 721.859 927.876 719.918C929.107 717.953 930.753 716.414 932.812 715.301C934.872 714.188 937.145 713.36 939.631 712.815C942.14 712.247 944.661 711.797 947.194 711.466C950.509 711.04 953.196 710.72 955.256 710.507C957.339 710.27 958.854 709.88 959.801 709.335C960.772 708.791 961.257 707.844 961.257 706.494V706.21C961.257 702.706 960.298 699.984 958.381 698.043C956.487 696.101 953.61 695.131 949.751 695.131C945.75 695.131 942.613 696.007 940.341 697.759C938.068 699.51 936.47 701.381 935.547 703.369L927.592 700.528C929.013 697.214 930.907 694.634 933.274 692.787C935.665 690.917 938.269 689.615 941.086 688.881C943.927 688.123 946.721 687.744 949.467 687.744C951.219 687.744 953.231 687.957 955.504 688.384C957.8 688.786 960.014 689.626 962.145 690.905C964.299 692.183 966.086 694.113 967.507 696.693C968.927 699.274 969.638 702.73 969.638 707.062V743H961.257V735.614H960.831C960.263 736.797 959.316 738.064 957.99 739.413C956.664 740.763 954.9 741.911 952.699 742.858C950.497 743.805 947.81 744.278 944.638 744.278ZM945.916 736.75C949.23 736.75 952.024 736.099 954.297 734.797C956.593 733.495 958.321 731.814 959.481 729.754C960.665 727.695 961.257 725.528 961.257 723.256V715.585C960.902 716.011 960.121 716.402 958.913 716.757C957.729 717.089 956.356 717.384 954.794 717.645C953.255 717.882 951.752 718.095 950.284 718.284C948.84 718.45 947.668 718.592 946.768 718.71C944.59 718.994 942.554 719.456 940.66 720.095C938.79 720.711 937.275 721.646 936.115 722.901C934.979 724.132 934.41 725.812 934.41 727.943C934.41 730.855 935.488 733.057 937.642 734.548C939.82 736.016 942.578 736.75 945.916 736.75ZM1008.66 688.455V695.557H980.389V688.455H1008.66ZM988.627 675.386H997.008V727.375C997.008 729.742 997.351 731.518 998.038 732.702C998.748 733.862 999.648 734.643 1000.74 735.045C1001.85 735.424 1003.02 735.614 1004.25 735.614C1005.18 735.614 1005.93 735.566 1006.53 735.472C1007.12 735.353 1007.59 735.259 1007.95 735.188L1009.65 742.716C1009.08 742.929 1008.29 743.142 1007.27 743.355C1006.25 743.592 1004.96 743.71 1003.4 743.71C1001.03 743.71 998.713 743.201 996.44 742.183C994.191 741.165 992.32 739.615 990.829 737.531C989.361 735.448 988.627 732.82 988.627 729.648V675.386ZM1021.26 743V688.455H1029.64V743H1021.26ZM1025.52 679.364C1023.89 679.364 1022.48 678.807 1021.3 677.695C1020.14 676.582 1019.56 675.244 1019.56 673.682C1019.56 672.119 1020.14 670.782 1021.3 669.669C1022.48 668.556 1023.89 668 1025.52 668C1027.16 668 1028.55 668.556 1029.71 669.669C1030.9 670.782 1031.49 672.119 1031.49 673.682C1031.49 675.244 1030.9 676.582 1029.71 677.695C1028.55 678.807 1027.16 679.364 1025.52 679.364ZM1067.15 744.136C1062.23 744.136 1057.91 742.964 1054.19 740.621C1050.5 738.277 1047.61 734.998 1045.53 730.784C1043.47 726.57 1042.44 721.646 1042.44 716.011C1042.44 710.33 1043.47 705.37 1045.53 701.132C1047.61 696.894 1050.5 693.604 1054.19 691.26C1057.91 688.916 1062.23 687.744 1067.15 687.744C1072.08 687.744 1076.38 688.916 1080.08 691.26C1083.79 693.604 1086.68 696.894 1088.74 701.132C1090.83 705.37 1091.87 710.33 1091.87 716.011C1091.87 721.646 1090.83 726.57 1088.74 730.784C1086.68 734.998 1083.79 738.277 1080.08 740.621C1076.38 742.964 1072.08 744.136 1067.15 744.136ZM1067.15 736.608C1070.89 736.608 1073.97 735.649 1076.38 733.732C1078.8 731.814 1080.59 729.293 1081.75 726.168C1082.91 723.043 1083.49 719.657 1083.49 716.011C1083.49 712.366 1082.91 708.968 1081.75 705.82C1080.59 702.671 1078.8 700.126 1076.38 698.185C1073.97 696.243 1070.89 695.273 1067.15 695.273C1063.41 695.273 1060.33 696.243 1057.92 698.185C1055.5 700.126 1053.72 702.671 1052.56 705.82C1051.4 708.968 1050.82 712.366 1050.82 716.011C1050.82 719.657 1051.4 723.043 1052.56 726.168C1053.72 729.293 1055.5 731.814 1057.92 733.732C1060.33 735.649 1063.41 736.608 1067.15 736.608ZM1113.04 710.188V743H1104.66V688.455H1112.76V696.977H1113.47C1114.75 694.207 1116.69 691.982 1119.29 690.301C1121.9 688.597 1125.26 687.744 1129.38 687.744C1133.07 687.744 1136.3 688.502 1139.07 690.017C1141.84 691.509 1144 693.781 1145.53 696.835C1147.07 699.866 1147.84 703.701 1147.84 708.341V743H1139.46V708.909C1139.46 704.624 1138.35 701.286 1136.12 698.895C1133.9 696.48 1130.84 695.273 1126.96 695.273C1124.29 695.273 1121.9 695.853 1119.79 697.013C1117.71 698.173 1116.06 699.866 1114.85 702.091C1113.65 704.316 1113.04 707.015 1113.04 710.188ZM1201.79 700.67L1194.26 702.801C1193.79 701.546 1193.09 700.327 1192.17 699.143C1191.27 697.936 1190.04 696.942 1188.48 696.161C1186.91 695.379 1184.91 694.989 1182.47 694.989C1179.14 694.989 1176.36 695.758 1174.13 697.297C1171.93 698.812 1170.83 700.741 1170.83 703.085C1170.83 705.169 1171.58 706.814 1173.1 708.021C1174.62 709.229 1176.98 710.235 1180.2 711.04L1188.3 713.028C1193.18 714.212 1196.81 716.023 1199.2 718.462C1201.59 720.876 1202.79 723.99 1202.79 727.801C1202.79 730.926 1201.89 733.72 1200.09 736.182C1198.31 738.644 1195.83 740.585 1192.63 742.006C1189.44 743.426 1185.72 744.136 1181.48 744.136C1175.92 744.136 1171.31 742.929 1167.67 740.514C1164.02 738.099 1161.71 734.572 1160.74 729.932L1168.7 727.943C1169.45 730.879 1170.89 733.08 1172.99 734.548C1175.12 736.016 1177.91 736.75 1181.34 736.75C1185.24 736.75 1188.35 735.921 1190.64 734.264C1192.96 732.583 1194.12 730.571 1194.12 728.227C1194.12 726.333 1193.46 724.747 1192.13 723.469C1190.81 722.167 1188.77 721.196 1186.03 720.557L1176.94 718.426C1171.94 717.242 1168.27 715.408 1165.93 712.922C1163.61 710.412 1162.45 707.276 1162.45 703.511C1162.45 700.434 1163.31 697.711 1165.04 695.344C1166.79 692.976 1169.17 691.118 1172.18 689.768C1175.21 688.419 1178.64 687.744 1182.47 687.744C1187.87 687.744 1192.11 688.928 1195.19 691.295C1198.29 693.663 1200.49 696.788 1201.79 700.67ZM1244.66 670.273H1255.18L1279.89 730.642H1280.74L1305.46 670.273H1315.97V743H1307.73V687.744H1307.02L1284.29 743H1276.34L1253.61 687.744H1252.9V743H1244.66V670.273ZM1354.65 744.136C1349.73 744.136 1345.41 742.964 1341.69 740.621C1338 738.277 1335.11 734.998 1333.03 730.784C1330.97 726.57 1329.94 721.646 1329.94 716.011C1329.94 710.33 1330.97 705.37 1333.03 701.132C1335.11 696.894 1338 693.604 1341.69 691.26C1345.41 688.916 1349.73 687.744 1354.65 687.744C1359.58 687.744 1363.88 688.916 1367.58 691.26C1371.29 693.604 1374.18 696.894 1376.24 701.132C1378.33 705.37 1379.37 710.33 1379.37 716.011C1379.37 721.646 1378.33 726.57 1376.24 730.784C1374.18 734.998 1371.29 738.277 1367.58 740.621C1363.88 742.964 1359.58 744.136 1354.65 744.136ZM1354.65 736.608C1358.39 736.608 1361.47 735.649 1363.88 733.732C1366.3 731.814 1368.09 729.293 1369.25 726.168C1370.41 723.043 1370.99 719.657 1370.99 716.011C1370.99 712.366 1370.41 708.968 1369.25 705.82C1368.09 702.671 1366.3 700.126 1363.88 698.185C1361.47 696.243 1358.39 695.273 1354.65 695.273C1350.91 695.273 1347.83 696.243 1345.42 698.185C1343 700.126 1341.22 702.671 1340.06 705.82C1338.9 708.968 1338.32 712.366 1338.32 716.011C1338.32 719.657 1338.9 723.043 1340.06 726.168C1341.22 729.293 1343 731.814 1345.42 733.732C1347.83 735.649 1350.91 736.608 1354.65 736.608ZM1412.76 744.136C1408.21 744.136 1404.2 742.988 1400.72 740.692C1397.24 738.372 1394.52 735.105 1392.55 730.891C1390.59 726.653 1389.6 721.646 1389.6 715.869C1389.6 710.14 1390.59 705.169 1392.55 700.955C1394.52 696.741 1397.25 693.485 1400.75 691.189C1404.26 688.893 1408.31 687.744 1412.9 687.744C1416.45 687.744 1419.26 688.336 1421.32 689.52C1423.4 690.68 1424.99 692.006 1426.07 693.497C1427.19 694.965 1428.05 696.172 1428.67 697.119H1429.38V670.273H1437.76V743H1429.66V734.619H1428.67C1428.05 735.614 1427.17 736.868 1426.04 738.384C1424.9 739.875 1423.28 741.213 1421.17 742.396C1419.07 743.556 1416.26 744.136 1412.76 744.136ZM1413.89 736.608C1417.26 736.608 1420.1 735.732 1422.42 733.98C1424.74 732.205 1426.5 729.754 1427.71 726.629C1428.91 723.481 1429.52 719.847 1429.52 715.727C1429.52 711.655 1428.93 708.092 1427.74 705.038C1426.56 701.961 1424.81 699.57 1422.49 697.865C1420.17 696.137 1417.3 695.273 1413.89 695.273C1410.34 695.273 1407.38 696.184 1405.02 698.007C1402.67 699.806 1400.91 702.257 1399.72 705.358C1398.56 708.436 1397.98 711.892 1397.98 715.727C1397.98 719.61 1398.58 723.137 1399.76 726.31C1400.97 729.458 1402.74 731.968 1405.09 733.838C1407.45 735.685 1410.39 736.608 1413.89 736.608ZM1488.65 720.699V688.455H1497.03V743H1488.65V733.767H1488.08C1486.8 736.537 1484.81 738.893 1482.11 740.834C1479.41 742.751 1476 743.71 1471.88 743.71C1468.47 743.71 1465.44 742.964 1462.79 741.473C1460.14 739.958 1458.06 737.685 1456.54 734.655C1455.03 731.601 1454.27 727.754 1454.27 723.114V688.455H1462.65V722.545C1462.65 726.523 1463.76 729.695 1465.99 732.062C1468.24 734.43 1471.1 735.614 1474.58 735.614C1476.67 735.614 1478.78 735.081 1480.94 734.016C1483.12 732.95 1484.94 731.317 1486.41 729.115C1487.9 726.913 1488.65 724.108 1488.65 720.699ZM1520.76 670.273V743H1512.38V670.273H1520.76ZM1558.98 744.136C1553.72 744.136 1549.19 742.976 1545.37 740.656C1541.59 738.312 1538.66 735.045 1536.6 730.855C1534.57 726.641 1533.55 721.741 1533.55 716.153C1533.55 710.566 1534.57 705.642 1536.6 701.381C1538.66 697.096 1541.53 693.758 1545.2 691.366C1548.89 688.952 1553.2 687.744 1558.12 687.744C1560.96 687.744 1563.77 688.218 1566.54 689.165C1569.31 690.112 1571.83 691.651 1574.1 693.781C1576.38 695.888 1578.19 698.682 1579.54 702.162C1580.89 705.642 1581.56 709.927 1581.56 715.017V718.568H1539.52V711.324H1573.04C1573.04 708.246 1572.42 705.5 1571.19 703.085C1569.98 700.67 1568.26 698.765 1566.01 697.368C1563.78 695.971 1561.15 695.273 1558.12 695.273C1554.78 695.273 1551.9 696.101 1549.46 697.759C1547.04 699.392 1545.19 701.523 1543.88 704.151C1542.58 706.778 1541.93 709.596 1541.93 712.602V717.432C1541.93 721.551 1542.64 725.043 1544.06 727.908C1545.5 730.749 1547.51 732.915 1550.06 734.406C1552.62 735.874 1555.59 736.608 1558.98 736.608C1561.18 736.608 1563.17 736.3 1564.94 735.685C1566.74 735.045 1568.29 734.098 1569.59 732.844C1570.9 731.565 1571.9 729.979 1572.61 728.085L1580.71 730.358C1579.86 733.104 1578.42 735.519 1576.41 737.602C1574.4 739.662 1571.91 741.272 1568.95 742.432C1565.99 743.568 1562.67 744.136 1558.98 744.136Z" fill="#161315"/>
<defs>
<radialGradient id="paint0_radial_216_103" cx="0" cy="0" r="1" gradientUnits="userSpaceOnUse" gradientTransform="translate(1089.58 341.652) rotate(-84.7232) scale(178.928 189.227)">
<stop stop-color="#161315"/>
<stop offset="0.674286" stop-color="#161315"/>
<stop offset="0.91399" stop-color="#161315"/>
<stop offset="1" stop-color="#E0E0E1"/>
</radialGradient>
<radialGradient id="paint1_radial_216_103" cx="0" cy="0" r="1" gradientUnits="userSpaceOnUse" gradientTransform="translate(1099.12 364.394) scale(144.158 136.188)">
<stop stop-color="#FDE3C3"/>
<stop offset="1" stop-color="#F79210"/>
</radialGradient>
<radialGradient id="paint2_radial_216_103" cx="0" cy="0" r="1" gradientUnits="userSpaceOnUse" gradientTransform="translate(1087.03 359.858) rotate(8.35279) scale(177.804 49.5205)">
<stop stop-color="#F9B2B4"/>
<stop offset="0.704871" stop-color="#C4161D"/>
<stop offset="1" stop-color="#C4161D"/>
</radialGradient>
</defs>
</svg>
