<svg width="PARENT_WIDTH" height="PARENT_HEIGHT" viewBox="0 0 1924 306" fill="none" xmlns="http://www.w3.org/2000/svg">
<path d="M63.3501 206.9L85.1788 229.82L107.067 206.9H137.912V174.451L159.8 151.531L137.912 128.549V95.9128H106.77L85.1788 73.1797L79.247 79.4079L68.0361 91.1793L63.3501 95.9128H32.4459V128.549L10.6172 151.531L27.7598 169.531L32.4459 174.451V206.9H63.3501Z" fill="#F9AB00"/>
<path d="M128.302 151.531C128.302 160.486 125.773 169.241 121.034 176.687C116.296 184.133 109.561 189.936 101.681 193.363C93.8011 196.791 85.1304 197.687 76.7652 195.94C68.4001 194.193 60.7162 189.881 54.6853 183.548C48.6544 177.216 44.5472 169.148 42.8833 160.364C41.2194 151.581 42.0734 142.477 45.3373 134.203C48.6012 125.929 54.1285 118.858 61.2201 113.882C68.3117 108.907 76.6492 106.252 85.1782 106.252C90.8335 106.243 96.4349 107.405 101.663 109.67C106.89 111.934 111.642 115.258 115.647 119.451C119.651 123.644 122.83 128.624 125.001 134.107C127.172 139.59 128.294 145.468 128.302 151.406V151.531Z" fill="#E37400"/>
<path d="M77.2578 170.193L87.8884 128.822L93.7298 130.477L83.0993 171.848L77.2578 170.193Z" fill="white"/>
<path d="M70.2893 135.711L74.7974 139.946L65.8999 150.41L74.7974 160.811L70.2893 165.046L57.7734 150.348L70.2893 135.711ZM100.126 135.649L112.701 150.285L100.185 164.922L95.677 160.686L104.575 150.285L95.677 139.884L100.126 135.649Z" fill="white"/>
<path d="M539.785 185.164C536.753 183.719 534.06 181.593 531.896 178.935C529.57 176.086 527.887 172.722 526.973 169.095L533.853 166.167C534.773 169.923 536.707 173.324 539.429 175.946C542.039 178.4 545.42 179.751 548.92 179.745C552.308 179.851 555.631 178.754 558.351 176.631C559.59 175.633 560.581 174.336 561.242 172.851C561.903 171.366 562.213 169.736 562.148 168.098C562.188 166.646 561.915 165.203 561.35 163.876C560.785 162.55 559.943 161.374 558.885 160.437C555.757 157.834 552.169 155.908 548.327 154.77L544.353 153.275C540.28 151.899 536.523 149.651 533.32 146.673C531.878 145.216 530.755 143.448 530.028 141.491C529.301 139.534 528.987 137.434 529.108 135.338C529.102 132.223 529.944 129.178 531.54 126.556C533.281 123.889 535.652 121.743 538.421 120.328C541.484 118.68 544.885 117.846 548.327 117.899C551.641 117.836 554.926 118.559 557.936 120.016C560.445 121.274 562.687 123.055 564.52 125.248C565.997 127.079 567.124 129.197 567.842 131.476L560.843 134.652C560.127 131.831 558.512 129.353 556.267 127.63C554.022 125.907 551.282 125.044 548.505 125.186C545.489 125.123 542.541 126.132 540.141 128.051C537.964 129.776 536.689 132.473 536.701 135.338C536.695 137.773 537.768 140.077 539.607 141.566C542.306 143.615 545.314 145.172 548.505 146.175L552.598 147.67C557.273 149.298 561.575 151.928 565.232 155.393C566.767 157.026 567.961 158.977 568.737 161.122C569.513 163.267 569.855 165.558 569.74 167.849C569.876 171.71 568.768 175.505 566.596 178.624C564.552 181.412 561.826 183.564 558.707 184.852C555.546 186.216 552.16 186.914 548.742 186.907C545.673 186.987 542.623 186.393 539.785 185.164ZM581.663 182.361C578.68 178.505 577.178 173.618 577.451 168.659V139.511H585.044V167.226C585.044 175.759 588.662 179.683 595.899 179.683C598.242 179.708 600.526 178.941 602.424 177.503C604.358 176.114 605.894 174.196 606.873 171.96C607.887 169.68 608.415 167.189 608.415 164.673V139.511H615.889V185.662H608.771V178.873H608.415C607.004 181.469 604.956 183.62 602.483 185.101C599.915 186.696 596.985 187.535 594.001 187.53C591.712 187.646 589.426 187.244 587.297 186.352C585.169 185.46 583.248 184.099 581.663 182.361ZM626.922 139.511H634.099V146.362H634.692C636.116 143.858 638.168 141.809 640.624 140.445C643.04 138.902 645.804 138.063 648.632 138.016C651.663 137.933 654.651 138.777 657.233 140.445C659.582 142.089 661.385 144.462 662.394 147.234C663.995 144.493 666.19 142.189 668.8 140.507C671.502 138.806 674.607 137.942 677.757 138.016C679.964 137.795 682.189 138.126 684.251 138.981C686.313 139.836 688.152 141.191 689.62 142.936C692.409 146.836 693.796 151.645 693.535 156.514V185.662H686.002V158.195C686.298 154.758 685.438 151.319 683.57 148.479C682.6 147.456 681.428 146.669 680.136 146.174C678.845 145.679 677.465 145.488 676.096 145.614C673.953 145.632 671.873 146.375 670.164 147.732C668.344 149.158 666.896 151.043 665.953 153.213C664.957 155.499 664.451 157.986 664.47 160.5V186.098H656.996V158.195C657.317 154.755 656.455 151.308 654.564 148.479C653.587 147.466 652.414 146.686 651.124 146.192C649.834 145.697 648.458 145.5 647.09 145.614C644.942 145.614 642.86 146.355 641.158 147.732C639.353 149.21 637.926 151.137 637.006 153.337C635.985 155.639 635.458 158.148 635.464 160.687V186.098H627.93L626.922 139.511ZM703.5 139.511H710.737V146.362H711.093C712.492 143.836 714.55 141.783 717.025 140.445C719.457 138.894 722.244 138.053 725.092 138.016C728.103 137.942 731.069 138.786 733.633 140.445C735.982 142.089 737.786 144.462 738.794 147.234C740.396 144.493 742.59 142.189 745.2 140.507C747.902 138.806 751.007 137.942 754.157 138.016C756.362 137.816 758.582 138.156 760.64 139.01C762.699 139.863 764.541 141.208 766.02 142.936C768.767 146.854 770.131 151.656 769.876 156.514V185.662H762.343V158.195C762.665 154.755 761.802 151.308 759.911 148.479C758.941 147.456 757.769 146.669 756.477 146.174C755.186 145.679 753.806 145.488 752.437 145.614C750.291 145.609 748.204 146.354 746.505 147.732C744.656 149.126 743.201 151.02 742.294 153.213C741.279 155.492 740.751 157.983 740.751 160.5V186.098H733.337V158.195C733.646 154.747 732.762 151.298 730.845 148.479C729.869 147.466 728.695 146.686 727.406 146.192C726.116 145.697 724.74 145.5 723.371 145.614C721.224 145.614 719.142 146.355 717.44 147.732C715.635 149.21 714.208 151.137 713.288 153.337C712.285 155.642 711.781 158.152 711.805 160.687V186.098H703.5V139.511ZM788.324 184.105C785.001 182.007 782.293 178.991 780.494 175.385C778.592 171.539 777.615 167.262 777.647 162.929C777.598 158.615 778.513 154.349 780.316 150.472C781.971 146.699 784.635 143.512 787.984 141.301C791.333 139.089 795.223 137.948 799.179 138.016C803.105 137.923 806.981 138.956 810.39 141.005C813.599 143.036 816.173 146 817.804 149.538C819.542 153.431 820.414 157.691 820.355 161.994C820.438 162.611 820.438 163.246 820.355 163.863H785.417C785.435 166.971 786.277 170.01 787.849 172.645C789.196 174.918 791.1 176.774 793.366 178.001C795.489 179.172 797.85 179.795 800.246 179.807C802.951 179.819 805.601 179.016 807.883 177.492C810.165 175.969 811.982 173.789 813.118 171.212L819.762 174.575C817.934 178.245 815.211 181.34 811.873 183.544C808.328 185.893 804.199 187.085 800.009 186.97C795.934 187.196 791.882 186.202 788.324 184.105ZM812.644 157.572C812.49 155.615 811.966 153.709 811.101 151.967C810.104 150.019 808.629 148.385 806.831 147.234C804.523 145.853 801.892 145.183 799.238 145.303C796.07 145.247 792.999 146.448 790.637 148.666C788.157 150.981 786.521 154.13 786.01 157.572H812.644ZM828.897 139.511H836.371V147.047C837.336 144.434 839.112 142.24 841.413 140.818C843.256 139.464 845.387 138.603 847.62 138.31C849.853 138.017 852.12 138.301 854.225 139.137V147.607C852.393 146.617 850.353 146.125 848.293 146.175C846.175 146.168 844.105 146.842 842.362 148.105C840.548 149.418 839.063 151.17 838.031 153.213C836.976 155.33 836.406 157.672 836.371 160.064V185.786H828.837L828.897 139.511ZM890.29 184.042C886.871 181.958 884.092 178.889 882.282 175.198C880.347 171.363 879.348 167.083 879.375 162.742C879.363 158.403 880.361 154.127 882.282 150.285C884.127 146.621 886.897 143.561 890.29 141.441C893.84 139.346 897.844 138.245 901.916 138.245C905.988 138.245 909.992 139.346 913.542 141.441C916.966 143.539 919.761 146.603 921.609 150.285C923.561 154.116 924.557 158.401 924.516 162.742C924.571 167.086 923.57 171.373 921.609 175.198C919.778 178.914 916.953 181.987 913.483 184.042C909.933 186.138 905.929 187.238 901.857 187.238C897.784 187.238 893.78 186.138 890.23 184.042H890.29ZM909.331 177.814C911.703 176.319 913.637 174.164 914.906 171.586C916.324 168.746 917.036 165.576 916.982 162.368C917.046 159.18 916.332 156.028 914.906 153.213C913.608 150.653 911.684 148.503 909.331 146.984C907.093 145.599 904.543 144.868 901.946 144.868C899.348 144.868 896.798 145.599 894.561 146.984C892.208 148.503 890.283 150.653 888.985 153.213C887.561 156.028 886.843 159.179 886.909 162.368C886.854 165.575 887.568 168.745 888.985 171.586C890.254 174.164 892.188 176.319 894.561 177.814C896.784 179.241 899.34 179.995 901.946 179.995C904.551 179.995 907.107 179.241 909.331 177.814ZM936.854 146.798H928.609V139.511H936.854V133.282C936.774 130.531 937.432 127.812 938.752 125.435C939.968 123.255 941.735 121.461 943.853 120.265C946.09 119.056 948.574 118.436 951.09 118.459C952.294 118.347 953.504 118.347 954.708 118.459C955.675 118.677 956.624 118.97 957.555 119.331V127.054C955.713 126.086 953.684 125.575 951.624 125.559C950.695 125.548 949.775 125.735 948.918 126.11C948.061 126.485 947.287 127.039 946.641 127.739C945.921 128.58 945.372 129.566 945.025 130.636C944.678 131.707 944.542 132.84 944.624 133.967V139.511H955.954V146.673H944.624V185.662H937.091L936.854 146.798ZM997.832 182.734C992.879 179.783 988.78 175.478 985.968 170.278C983.185 164.84 981.729 158.763 981.729 152.59C981.729 146.417 983.185 140.34 985.968 134.902C988.78 129.701 992.879 125.397 997.832 122.445C1002.82 119.33 1008.52 117.674 1014.32 117.649C1018.82 117.581 1023.28 118.559 1027.37 120.514C1031.28 122.375 1034.74 125.119 1037.51 128.549L1032.24 134.03C1030.18 131.12 1027.52 128.735 1024.47 127.054C1021.25 125.672 1017.79 125.035 1014.32 125.186C1009.91 125.13 1005.57 126.313 1001.75 128.611C997.891 130.853 994.712 134.173 992.552 138.203C990.216 142.55 989.029 147.474 989.112 152.465C989.029 157.456 990.216 162.38 992.552 166.728C994.712 170.758 997.891 174.077 1001.75 176.319C1006.99 179.411 1013.11 180.45 1019.02 179.253C1024.93 178.055 1030.24 174.699 1034.02 169.78L1039.41 175.385C1036.44 179.07 1032.74 182.025 1028.56 184.042C1024.11 186.247 1019.24 187.355 1014.32 187.281C1008.54 187.305 1002.86 185.738 997.832 182.734ZM1055.37 184.042C1051.95 181.943 1049.15 178.879 1047.3 175.198C1045.39 171.357 1044.41 167.077 1044.45 162.742C1044.42 158.408 1045.4 154.131 1047.3 150.285C1049.18 146.628 1051.97 143.572 1055.37 141.441C1058.96 139.242 1063.07 138.141 1067.23 138.265C1071.39 138.164 1075.49 139.262 1079.1 141.441C1082.51 143.556 1085.3 146.616 1087.16 150.285C1089.08 154.128 1090.08 158.401 1090.07 162.742C1090.1 167.083 1089.1 171.363 1087.16 175.198C1085.33 178.892 1082.53 181.96 1079.1 184.042C1075.51 186.271 1071.4 187.393 1067.23 187.281C1063.06 187.417 1058.95 186.293 1055.37 184.042ZM1074.41 177.814C1076.78 176.338 1078.69 174.177 1079.93 171.586C1081.36 168.752 1082.07 165.576 1082 162.368C1082.08 159.178 1081.37 156.021 1079.93 153.213C1078.67 150.642 1076.76 148.487 1074.41 146.984C1072.16 145.599 1069.6 144.869 1067 144.869C1064.39 144.869 1061.83 145.599 1059.58 146.984C1057.24 148.504 1055.34 150.655 1054.06 153.213C1052.64 156.028 1051.92 159.179 1051.99 162.368C1051.93 165.575 1052.65 168.745 1054.06 171.586C1055.32 174.158 1057.23 176.319 1059.58 177.814C1061.82 179.238 1064.38 179.991 1067 179.991C1069.61 179.991 1072.17 179.238 1074.41 177.814ZM1106.03 184.105C1102.81 181.919 1100.2 178.893 1098.43 175.323C1096.56 171.409 1095.59 167.09 1095.59 162.711C1095.59 158.331 1096.56 154.012 1098.43 150.099C1100.2 146.529 1102.81 143.502 1106.03 141.317C1109.16 139.218 1112.81 138.115 1116.53 138.14C1119.73 138.097 1122.9 138.912 1125.72 140.507C1128.16 141.89 1130.21 143.933 1131.65 146.424H1132.01L1131.65 140.196V119.144H1139.12V185.786H1132.01V178.873H1131.65C1130.24 181.469 1128.19 183.62 1125.72 185.101C1122.65 186.806 1119.21 187.614 1115.74 187.438C1112.28 187.263 1108.92 186.111 1106.03 184.105ZM1124.89 177.876C1127.18 176.363 1129.04 174.208 1130.23 171.648C1131.55 168.731 1132.24 165.539 1132.24 162.306C1132.24 159.073 1131.55 155.881 1130.23 152.964C1129.04 150.4 1127.19 148.24 1124.89 146.735C1122.72 145.321 1120.21 144.586 1117.65 144.618C1115.1 144.593 1112.59 145.327 1110.42 146.735C1108.15 148.267 1106.32 150.422 1105.14 152.964C1103.73 155.785 1103.04 158.936 1103.12 162.119C1103.05 165.32 1103.74 168.489 1105.14 171.337C1106.3 173.897 1108.13 176.058 1110.42 177.565C1112.59 178.99 1115.09 179.745 1117.65 179.745C1120.17 179.888 1122.68 179.284 1124.89 178.001V177.876ZM1158.11 184.105C1154.8 181.992 1152.09 178.979 1150.28 175.385C1148.37 171.539 1147.4 167.262 1147.43 162.929C1147.38 158.615 1148.3 154.349 1150.1 150.472C1151.8 146.829 1154.43 143.746 1157.69 141.566C1161.07 139.349 1164.98 138.203 1168.96 138.265C1172.91 138.178 1176.8 139.211 1180.23 141.254C1183.42 143.285 1185.98 146.249 1187.59 149.787C1189.34 153.68 1190.24 157.94 1190.2 162.244C1190.28 162.86 1190.28 163.495 1190.2 164.112H1155.26C1155.26 167.214 1156.08 170.253 1157.63 172.894C1158.98 175.186 1160.91 177.042 1163.21 178.25C1165.31 179.415 1167.65 180.038 1170.03 180.056C1172.73 180.069 1175.38 179.265 1177.67 177.741C1179.95 176.218 1181.76 174.038 1182.9 171.461L1189.54 174.825C1187.72 178.48 1185.02 181.571 1181.71 183.793C1178.16 186.128 1174.04 187.319 1169.85 187.219C1165.74 187.363 1161.66 186.283 1158.11 184.105ZM1182.19 157.572C1182.06 155.618 1181.55 153.712 1180.71 151.967C1179.69 150.012 1178.2 148.377 1176.38 147.234C1174.09 145.852 1171.48 145.183 1168.84 145.303C1165.67 145.234 1162.6 146.437 1160.24 148.666C1157.76 150.981 1156.13 154.13 1155.62 157.572H1182.19Z" fill="#1A2430"/>
<path d="M235.902 109.304H238.512C247.634 109.489 256.34 113.346 262.832 120.079L255.773 127.552C250.641 122.473 243.799 119.738 236.749 119.948C229.698 120.158 223.015 123.296 218.166 128.674C214.3 133.02 211.831 138.532 211.107 144.431C210.589 148.356 210.848 152.352 211.869 156.167C212.889 159.983 214.649 163.536 217.039 166.604C219.411 169.566 222.345 171.977 225.654 173.682C228.963 175.387 232.574 176.349 236.258 176.506C239.669 176.747 243.092 176.264 246.322 175.087C249.553 173.91 252.525 172.063 255.061 169.655C258.809 165.908 261.075 160.816 261.408 155.393H237.266V144.742H271.67C272.751 150.519 272.491 156.484 270.912 162.132C269.332 167.781 266.479 172.946 262.594 177.192C256.941 182.928 249.555 186.409 241.715 187.032C234.033 187.902 226.281 186.317 219.471 182.486C211.297 178.006 204.967 170.54 201.676 161.496C198.858 153.156 198.858 144.052 201.676 135.711C204.293 128.198 209.006 121.687 215.2 117.027C221.255 112.426 228.439 109.745 235.902 109.304ZM433.012 111.982H443.511V185.724H433.012V111.982ZM294.922 137.518C298.186 136.877 301.539 136.921 304.787 137.648C308.034 138.375 311.113 139.77 313.844 141.753C318.732 145.462 322.051 151.025 323.098 157.261C323.74 160.472 323.771 163.784 323.191 167.008C322.61 170.232 321.429 173.303 319.715 176.046C318.001 178.789 315.788 181.15 313.202 182.992C310.617 184.835 307.711 186.123 304.65 186.783C302.5 187.208 300.309 187.355 298.125 187.219C294.641 186.985 291.247 185.962 288.176 184.22C285.104 182.478 282.427 180.059 280.33 177.129C278.05 173.78 276.57 169.905 276.012 165.83C275.455 161.755 275.837 157.599 277.127 153.711C278.494 149.619 280.855 145.972 283.976 143.132C287.097 140.292 290.87 138.357 294.922 137.518ZM296.583 147.358C293.89 148.112 291.488 149.725 289.702 151.967C287.389 155.03 286.195 158.861 286.337 162.767C286.478 166.674 287.945 170.398 290.473 173.268C291.926 174.786 293.696 175.927 295.643 176.6C297.59 177.273 299.659 177.46 301.687 177.145C303.714 176.831 305.644 176.024 307.322 174.788C309 173.553 310.38 171.923 311.353 170.029C312.947 166.899 313.526 163.308 313.002 159.801C312.477 156.295 310.878 153.063 308.446 150.597C306.865 149.092 304.959 148.012 302.894 147.448C300.828 146.884 298.663 146.853 296.583 147.358ZM347.062 137.518C351.921 136.35 357.006 136.819 361.597 138.857C366.188 140.896 370.051 144.4 372.637 148.874C375.224 153.348 376.403 158.563 376.007 163.781C375.612 168.998 373.661 173.951 370.433 177.939C368.409 180.523 365.92 182.663 363.109 184.237C360.298 185.811 357.219 186.788 354.048 187.112C350.877 187.437 347.676 187.102 344.628 186.128C341.58 185.153 338.745 183.558 336.284 181.433L336.207 181.364C332.388 178.026 329.664 173.513 328.419 168.462C327.174 163.411 327.47 158.077 329.267 153.213C330.671 149.194 333.053 145.631 336.175 142.878C339.296 140.125 343.05 138.277 347.062 137.518ZM348.545 147.358C345.852 148.11 343.448 149.72 341.664 151.967C339.366 154.987 338.159 158.763 338.257 162.626C338.355 166.49 339.751 170.193 342.198 173.081C343.699 174.737 345.57 175.975 347.642 176.682C349.713 177.388 351.919 177.542 354.061 177.129C355.985 176.74 357.803 175.906 359.383 174.689C360.962 173.472 362.265 171.902 363.196 170.091C364.799 166.966 365.399 163.381 364.908 159.869C364.416 156.358 362.859 153.106 360.467 150.597C358.886 149.094 356.978 148.019 354.911 147.465C352.843 146.912 350.678 146.896 348.604 147.421L348.545 147.358ZM391.49 140.507C394.325 138.578 397.578 137.429 400.947 137.168C404.316 136.907 407.694 137.541 410.768 139.012C412.661 139.959 414.369 141.273 415.81 142.874V138.576H425.776V184.105C426.059 191.117 423.742 197.971 419.31 203.226C416.645 205.845 413.433 207.773 409.931 208.855C406.428 209.937 402.734 210.142 399.142 209.454C395.343 208.78 391.767 207.107 388.749 204.591C385.731 202.076 383.368 198.799 381.881 195.067C384.847 193.572 387.813 192.388 391.016 191.018C391.817 193.168 393.105 195.08 394.769 196.589C396.434 198.098 398.423 199.157 400.566 199.675C402.749 200.163 405.016 200.039 407.139 199.318C409.263 198.597 411.169 197.302 412.667 195.565C415.191 191.382 416.221 186.394 415.573 181.489C413.377 183.944 410.59 185.73 407.506 186.658C404.08 187.525 400.503 187.496 397.09 186.573C393.677 185.65 390.532 183.862 387.931 181.364C385.525 179.184 383.552 176.527 382.124 173.545C380.696 170.563 379.841 167.316 379.609 163.987C379.376 160.659 379.771 157.315 380.769 154.146C381.768 150.978 383.351 148.047 385.428 145.521L385.559 145.365C387.154 143.503 388.987 141.89 391.016 140.569M401.218 147.171C398.199 147.713 395.465 149.37 393.507 151.843C391.243 154.764 390.007 158.415 390.007 162.181C390.007 165.948 391.243 169.599 393.507 172.52C394.853 174.197 396.564 175.508 398.494 176.343C400.425 177.178 402.52 177.512 404.599 177.316C406.594 177.099 408.508 176.379 410.181 175.219C411.854 174.059 413.236 172.492 414.209 170.652C415.829 167.603 416.537 164.113 416.241 160.636C415.945 157.159 414.658 153.856 412.548 151.157C411.193 149.53 409.458 148.3 407.513 147.59C405.568 146.88 403.48 146.715 401.456 147.109L401.218 147.171ZM456.205 143.185C459.208 140.316 462.898 138.359 466.88 137.526C470.861 136.692 474.984 137.012 478.805 138.452C482.23 140.087 485.268 142.499 487.699 145.514C490.13 148.53 491.894 152.074 492.863 155.891L460.891 169.78C462.261 172.819 464.676 175.205 467.653 176.444C469.773 177.267 472.055 177.521 474.293 177.184C476.53 176.847 478.652 175.929 480.466 174.513C481.836 173.336 483.052 171.972 484.084 170.465C486.813 172.333 489.541 174.202 492.211 176.133C488.664 181.671 483.175 185.513 476.941 186.82C470.707 188.126 464.235 186.792 458.934 183.108C457.249 181.902 455.715 180.479 454.366 178.873C450.438 173.776 448.451 167.329 448.791 160.782C449.131 154.235 451.773 148.053 456.205 143.434M461.484 152.964C459.875 155.527 459.066 158.553 459.171 161.621L480.466 151.967C479.814 150.582 478.844 149.39 477.642 148.498C476.441 147.606 475.046 147.043 473.585 146.86C471.293 146.597 468.975 146.997 466.884 148.018C464.793 149.039 463.007 150.642 461.722 152.652L461.484 152.964Z" fill="#1A2430"/>
<path d="M1312.58 194L1287.45 159.7L1284.58 155.92L1257.07 118.4H1263.09L1287.59 151.93L1290.46 155.78L1318.6 194H1312.58ZM1256.58 194L1284.58 155.92L1287.59 151.93L1312.16 118.4H1317.97L1290.46 155.78L1287.45 159.7L1262.53 194H1256.58Z" fill="black"/>
<g clip-path="url(#clip0_210_99)">
<mask id="mask0_210_99" style="mask-type:luminance" maskUnits="userSpaceOnUse" x="1595" y="0" width="283" height="201">
<path d="M1852.66 27.6952C1823.19 15.6148 1765.21 108.417 1738.06 188.841C1738.06 188.841 1729.47 167.977 1728.65 143.544C1728.17 129.348 1732.18 133.671 1733.82 134.619L1734.41 130.39L1726.64 129.326V129.321L1718.6 128.421L1718.03 132.656C1719.88 132.134 1724.89 128.938 1720.66 142.55C1713.38 165.968 1699.53 184.038 1699.53 184.038C1694.64 99.6172 1663.25 -4.32104 1631.53 0.139262C1620.23 1.72827 1579.49 24.3008 1601.46 67.9132C1601.45 67.918 1601.44 67.9362 1601.44 67.9505C1601.75 68.5694 1602.11 69.1987 1602.45 69.8256C1602.69 70.2678 1602.9 70.6902 1603.15 71.1324C1603.95 72.559 1604.83 73.9966 1605.77 75.4644C1606.04 75.8915 1606.34 76.3353 1606.65 76.7625C1607.41 77.9299 1608.24 79.1052 1609.1 80.2956C1609.44 80.741 1609.76 81.2022 1610.1 81.6563C1611.26 83.2009 1612.5 84.7685 1613.82 86.3472C1614.08 86.6627 1614.36 86.9781 1614.64 87.2943C1615.78 88.6273 1616.99 89.9849 1618.25 91.3599C1618.69 91.8291 1619.12 92.3046 1619.58 92.7793C1621.16 94.4436 1622.8 96.138 1624.56 97.8372C1626.22 99.4389 1627.71 100.946 1629.28 102.503C1629.25 102.473 1629.23 102.448 1629.2 102.417C1582.41 49.3754 1611.68 23.6985 1621.28 17.9837C1648.27 1.95098 1696.44 151.756 1696.12 195.097C1706.62 183.682 1716.19 170.214 1723.46 151.893C1725.63 171.397 1731.29 186.76 1738.41 200.377C1749.62 158.406 1835.99 25.3525 1857.82 47.4638C1865.59 55.3415 1887.03 87.2983 1827.86 127.066C1829.68 126.01 1831.53 124.952 1833.43 123.879C1835.6 122.655 1837.62 121.434 1839.6 120.205C1840.16 119.851 1840.71 119.505 1841.27 119.156C1842.85 118.134 1844.38 117.124 1845.83 116.114C1846.17 115.873 1846.53 115.64 1846.87 115.395C1848.57 114.189 1850.18 112.98 1851.72 111.775C1852.18 111.419 1852.59 111.056 1853.05 110.707C1854.2 109.765 1855.31 108.826 1856.37 107.896C1856.76 107.545 1857.17 107.194 1857.55 106.85C1858.85 105.665 1860.08 104.488 1861.24 103.301C1861.59 102.936 1861.91 102.578 1862.26 102.206C1862.75 101.692 1863.27 101.163 1863.74 100.638C1863.73 100.629 1863.72 100.608 1863.72 100.594C1896.56 63.8246 1863.16 32.0041 1852.66 27.6952Z" fill="white"/>
</mask>
<g mask="url(#mask0_210_99)">
<path d="M1852.66 27.6952C1823.19 15.6148 1765.21 108.417 1738.06 188.841C1738.06 188.841 1729.47 167.977 1728.65 143.544C1728.17 129.348 1732.18 133.671 1733.82 134.619L1734.41 130.39L1726.64 129.326V129.321L1718.6 128.421L1718.03 132.656C1719.88 132.134 1724.89 128.938 1720.66 142.55C1713.38 165.968 1699.53 184.038 1699.53 184.038C1694.64 99.6172 1663.25 -4.32104 1631.53 0.139262C1620.23 1.72827 1579.49 24.3008 1601.46 67.9132C1601.45 67.918 1601.44 67.9362 1601.44 67.9505C1601.75 68.5694 1602.11 69.1987 1602.45 69.8256C1602.69 70.2678 1602.9 70.6902 1603.15 71.1324C1603.95 72.559 1604.83 73.9966 1605.77 75.4644C1606.04 75.8915 1606.34 76.3353 1606.65 76.7625C1607.41 77.9299 1608.24 79.1052 1609.1 80.2956C1609.44 80.741 1609.76 81.2022 1610.1 81.6563C1611.26 83.2009 1612.5 84.7685 1613.82 86.3472C1614.08 86.6627 1614.36 86.9781 1614.64 87.2943C1615.78 88.6273 1616.99 89.9849 1618.25 91.3599C1618.69 91.8291 1619.12 92.3046 1619.58 92.7793C1621.16 94.4436 1622.8 96.138 1624.56 97.8372C1626.22 99.4389 1627.71 100.946 1629.28 102.503C1629.25 102.473 1629.23 102.448 1629.2 102.417C1582.41 49.3754 1611.68 23.6985 1621.28 17.9837C1648.27 1.95098 1696.44 151.756 1696.12 195.097C1706.62 183.682 1716.19 170.214 1723.46 151.893C1725.63 171.397 1731.29 186.76 1738.41 200.377C1749.62 158.406 1835.99 25.3525 1857.82 47.4638C1865.59 55.3415 1887.03 87.2983 1827.86 127.066C1829.68 126.01 1831.53 124.952 1833.43 123.879C1835.6 122.655 1837.62 121.434 1839.6 120.205C1840.16 119.851 1840.71 119.505 1841.27 119.156C1842.85 118.134 1844.38 117.124 1845.83 116.114C1846.17 115.873 1846.53 115.64 1846.87 115.395C1848.57 114.189 1850.18 112.98 1851.72 111.775C1852.18 111.419 1852.59 111.056 1853.05 110.707C1854.2 109.765 1855.31 108.826 1856.37 107.896C1856.76 107.545 1857.17 107.194 1857.55 106.85C1858.85 105.665 1860.08 104.488 1861.24 103.301C1861.59 102.936 1861.91 102.578 1862.26 102.206C1862.75 101.692 1863.27 101.163 1863.74 100.638C1863.73 100.629 1863.72 100.608 1863.72 100.594C1896.56 63.8246 1863.16 32.0041 1852.66 27.6952Z" fill="url(#paint0_radial_210_99)"/>
</g>
<mask id="mask1_210_99" style="mask-type:luminance" maskUnits="userSpaceOnUse" x="1603" y="16" width="266" height="290">
<path d="M1857.82 47.464C1835.99 25.3527 1749.62 158.406 1738.41 200.378C1738.8 201.126 1739.19 201.889 1739.59 202.633C1740.63 204.446 1742.31 207.364 1744.46 211.092C1759.3 236.841 1796.66 301.116 1802.39 305.653C1807.49 309.695 1784.37 277.286 1788.68 263.327C1796.91 273.35 1803.47 280.882 1805.6 282.221C1805.87 282.388 1806.07 282.477 1806.19 282.495C1807.76 282.699 1796.28 269.722 1791.85 258.945C1793.94 257.556 1796.99 256.878 1801.31 257.199C1813.13 258.086 1804.61 254.726 1792.9 246.425C1794.9 245.134 1798.13 244.543 1802.99 244.967C1827.75 247.127 1762.73 232.294 1765.46 200.121C1767.32 181.131 1783.21 157.017 1827.72 127.162C1827.76 127.128 1827.81 127.098 1827.86 127.066C1887.02 87.2984 1865.59 55.3416 1857.82 47.464ZM1621.28 17.9838C1611.68 23.6987 1582.41 49.3755 1629.2 102.417C1629.23 102.448 1629.25 102.473 1629.28 102.503C1664.32 142.231 1673.26 169.423 1670.03 188.231C1664.11 220.002 1597.29 218.406 1621.81 222.386C1626.6 223.163 1629.58 224.527 1631.17 226.263C1617.65 231.411 1608.52 232.582 1620.18 234.624C1624.45 235.369 1627.21 236.776 1628.86 238.636C1621.71 247.956 1607.17 257.698 1608.74 257.879C1608.85 257.898 1609.07 257.861 1609.38 257.762C1611.79 256.985 1620.14 251.317 1630.76 243.645C1631.21 258.203 1600.26 283.863 1606.26 281.206C1613.01 278.216 1666.41 225.047 1687.54 203.869C1690.49 200.909 1692.82 198.567 1694.29 197.082C1694.91 196.434 1695.51 195.76 1696.12 195.097C1696.44 151.756 1648.27 1.95114 1621.28 17.9838Z" fill="white"/>
</mask>
<g mask="url(#mask1_210_99)">
<path d="M1857.82 47.464C1835.99 25.3527 1749.62 158.406 1738.41 200.378C1738.8 201.126 1739.19 201.889 1739.59 202.633C1740.63 204.446 1742.31 207.364 1744.46 211.092C1759.3 236.841 1796.66 301.116 1802.39 305.653C1807.49 309.695 1784.37 277.286 1788.68 263.327C1796.91 273.35 1803.47 280.882 1805.6 282.221C1805.87 282.388 1806.07 282.477 1806.19 282.495C1807.76 282.699 1796.28 269.722 1791.85 258.945C1793.94 257.556 1796.99 256.878 1801.31 257.199C1813.13 258.086 1804.61 254.726 1792.9 246.425C1794.9 245.134 1798.13 244.543 1802.99 244.967C1827.75 247.127 1762.73 232.294 1765.46 200.121C1767.32 181.131 1783.21 157.017 1827.72 127.162C1827.76 127.128 1827.81 127.098 1827.86 127.066C1887.02 87.2984 1865.59 55.3416 1857.82 47.464ZM1621.28 17.9838C1611.68 23.6987 1582.41 49.3755 1629.2 102.417C1629.23 102.448 1629.25 102.473 1629.28 102.503C1664.32 142.231 1673.26 169.423 1670.03 188.231C1664.11 220.002 1597.29 218.406 1621.81 222.386C1626.6 223.163 1629.58 224.527 1631.17 226.263C1617.65 231.411 1608.52 232.582 1620.18 234.624C1624.45 235.369 1627.21 236.776 1628.86 238.636C1621.71 247.956 1607.17 257.698 1608.74 257.879C1608.85 257.898 1609.07 257.861 1609.38 257.762C1611.79 256.985 1620.14 251.317 1630.76 243.645C1631.21 258.203 1600.26 283.863 1606.26 281.206C1613.01 278.216 1666.41 225.047 1687.54 203.869C1690.49 200.909 1692.82 198.567 1694.29 197.082C1694.91 196.434 1695.51 195.76 1696.12 195.097C1696.44 151.756 1648.27 1.95114 1621.28 17.9838Z" fill="url(#paint1_radial_210_99)"/>
</g>
<mask id="mask2_210_99" style="mask-type:luminance" maskUnits="userSpaceOnUse" x="1605" y="55" width="257" height="209">
<path d="M1852.61 85.5383C1851.88 85.1611 1851.09 84.9154 1850.22 84.8005C1826.74 81.8349 1752.55 176.2 1740.07 196.712C1739.45 197.941 1738.74 199.573 1738.41 200.378C1740.75 203.42 1769.4 239.855 1788.66 263.298C1789.22 261.474 1790.23 259.992 1791.84 258.93C1789.65 253.601 1789.19 248.805 1792.89 246.417C1779.98 237.262 1763.18 222.087 1765.46 199.936C1765.49 199.551 1765.54 199.152 1765.59 198.754C1768.08 179.988 1784.28 156.305 1827.72 127.162C1827.87 127.071 1828 126.982 1828.14 126.887C1845.03 115.496 1855.45 104.597 1861.49 94.7094C1859.02 90.1976 1855.35 86.9926 1852.61 85.5383ZM1618.71 55.9488C1617.85 55.8442 1617.01 55.8894 1616.22 56.0716C1613.18 56.8071 1608.77 59 1605.18 62.7629C1608.39 73.7988 1615.58 86.9015 1628.88 102.054C1628.99 102.181 1629.09 102.299 1629.2 102.417C1663.46 141.245 1672.83 168.113 1670.25 186.868C1670.2 187.267 1670.13 187.666 1670.07 188.058C1666.38 210.022 1646.09 220.573 1631.18 226.273C1634.13 229.472 1632.41 233.997 1628.88 238.615C1630.14 240.039 1630.73 241.725 1630.79 243.617C1655.65 225.674 1693.06 197.471 1696.12 195.097C1696.02 194.235 1695.76 192.497 1695.5 191.158C1688.87 168.262 1642.21 58.8439 1618.71 55.9488Z" fill="white"/>
</mask>
<g mask="url(#mask2_210_99)">
<path d="M1852.61 85.5383C1851.88 85.1611 1851.09 84.9154 1850.22 84.8005C1826.74 81.8349 1752.55 176.2 1740.07 196.712C1739.45 197.941 1738.74 199.573 1738.41 200.378C1740.75 203.42 1769.4 239.855 1788.66 263.298C1789.22 261.474 1790.23 259.992 1791.84 258.93C1789.65 253.601 1789.19 248.805 1792.89 246.417C1779.98 237.262 1763.18 222.087 1765.46 199.936C1765.49 199.551 1765.54 199.152 1765.59 198.754C1768.08 179.988 1784.28 156.305 1827.72 127.162C1827.87 127.071 1828 126.982 1828.14 126.887C1845.03 115.496 1855.45 104.597 1861.49 94.7094C1859.02 90.1976 1855.35 86.9926 1852.61 85.5383ZM1618.71 55.9488C1617.85 55.8442 1617.01 55.8894 1616.22 56.0716C1613.18 56.8071 1608.77 59 1605.18 62.7629C1608.39 73.7988 1615.58 86.9015 1628.88 102.054C1628.99 102.181 1629.09 102.299 1629.2 102.417C1663.46 141.245 1672.83 168.113 1670.25 186.868C1670.2 187.267 1670.13 187.666 1670.07 188.058C1666.38 210.022 1646.09 220.573 1631.18 226.273C1634.13 229.472 1632.41 233.997 1628.88 238.615C1630.14 240.039 1630.73 241.725 1630.79 243.617C1655.65 225.674 1693.06 197.471 1696.12 195.097C1696.02 194.235 1695.76 192.497 1695.5 191.158C1688.87 168.262 1642.21 58.8439 1618.71 55.9488Z" fill="url(#paint2_radial_210_99)"/>
</g>
<path d="M1661.81 84.2061C1660.08 84.0793 1658.61 84.5548 1657.36 85.6739C1656.1 86.7691 1655.41 88.1307 1655.28 89.6943C1655.15 91.3428 1655.61 92.759 1656.68 93.9612C1657.74 95.1706 1659.12 95.8245 1660.85 95.9655C1662.47 96.0828 1663.89 95.639 1665.04 94.6024C1666.22 93.5682 1666.84 92.2225 1666.98 90.5772C1667.1 89.0175 1666.71 87.5767 1665.72 86.3134C1664.75 85.0216 1663.44 84.3361 1661.81 84.2061Z" fill="#161315"/>
<path d="M1383.6 148.447C1383.68 151.819 1384.23 155.608 1385.24 159.818C1386.24 164.033 1387.89 168.094 1390.17 172.011C1392.44 175.929 1395.46 179.385 1399.24 182.372C1403 185.364 1407.69 187.281 1413.3 188.122C1418.56 188.877 1423.24 188.798 1427.36 187.869C1431.47 186.945 1435.07 185.428 1438.13 183.319C1441.2 181.217 1443.78 178.709 1445.89 175.801C1447.99 172.894 1449.72 169.843 1451.08 166.645C1452.44 163.445 1453.43 160.242 1454.03 157.04C1454.65 153.838 1455 150.932 1455.09 148.322C1455.17 141.836 1454.32 136.13 1452.53 131.203C1450.73 126.273 1448.27 122.107 1445.16 118.693C1442.06 115.282 1438.42 112.628 1434.26 110.732C1430.1 108.84 1425.65 107.681 1420.91 107.258C1416.01 107.258 1411.28 108.124 1406.73 109.848C1402.17 111.577 1398.16 114.167 1394.71 117.619C1391.24 121.073 1388.48 125.37 1386.42 130.508C1384.37 135.644 1383.42 141.624 1383.6 148.447ZM1374 148.196C1374 141.121 1375.05 134.698 1377.16 128.928C1379.26 123.157 1382.19 118.21 1385.96 114.081C1389.72 109.954 1394.2 106.713 1399.37 104.352C1404.53 101.996 1410.14 100.69 1416.18 100.437C1423.02 99.9305 1429.37 100.69 1435.24 102.71C1441.11 104.732 1446.22 107.826 1450.55 111.997C1454.89 116.165 1458.28 121.305 1460.74 127.412C1463.19 133.518 1464.42 140.405 1464.42 148.069C1464.42 155.145 1463.32 161.567 1461.13 167.336C1458.94 173.107 1455.92 178.06 1452.06 182.181C1448.21 186.311 1443.65 189.532 1438.39 191.849C1433.14 194.168 1427.44 195.361 1421.31 195.447C1414.65 195.867 1408.45 195.048 1402.71 192.988C1396.98 190.922 1391.99 187.804 1387.74 183.633C1383.48 179.464 1380.14 174.39 1377.68 168.411C1375.23 162.433 1374 155.694 1374 148.196Z" fill="#161315"/>
<path d="M1505.68 136.318C1502.09 136.318 1499.04 137.163 1496.55 138.845C1494.05 140.532 1492.03 142.678 1490.5 145.29C1488.97 147.902 1487.87 150.786 1487.21 153.945C1486.56 157.101 1486.23 160.118 1486.23 162.978C1486.23 165.843 1486.54 168.832 1487.15 171.949C1487.76 175.067 1488.84 177.931 1490.36 180.539C1491.9 183.152 1493.92 185.3 1496.42 186.981C1498.91 188.67 1502 189.511 1505.68 189.511C1509.54 189.511 1512.71 188.713 1515.21 187.109C1517.7 185.51 1519.7 183.426 1521.19 180.853C1522.68 178.288 1523.7 175.424 1524.28 172.263C1524.84 169.106 1525.13 166.01 1525.13 162.978C1525.13 159.947 1524.84 156.85 1524.28 153.691C1523.7 150.531 1522.68 147.669 1521.19 145.099C1519.7 142.531 1517.7 140.425 1515.21 138.783C1512.71 137.14 1509.54 136.318 1505.68 136.318ZM1468.22 220.341C1469.54 220.169 1471.03 219.938 1472.69 219.646C1474.36 219.347 1475.67 218.527 1476.64 217.181V136.696C1475.67 135.353 1474.4 134.532 1472.82 134.234C1471.25 133.938 1469.8 133.709 1468.49 133.54V130.129H1486.23V141.373H1486.5C1488.69 137.329 1491.46 134.359 1494.84 132.464C1498.21 130.572 1502.26 129.621 1506.99 129.621C1511.46 129.621 1515.42 130.486 1518.89 132.213C1522.35 133.938 1525.24 136.298 1527.56 139.288C1529.88 142.278 1531.64 145.816 1532.82 149.901C1534 153.988 1534.59 158.342 1534.59 162.978C1534.59 167.777 1534.07 172.203 1533.02 176.243C1531.96 180.287 1530.32 183.782 1528.09 186.732C1525.85 189.682 1522.98 191.998 1519.48 193.679C1515.97 195.361 1511.81 196.209 1506.99 196.209C1503.75 196.209 1500.93 195.703 1498.52 194.692C1496.11 193.679 1494.05 192.504 1492.34 191.154C1490.64 189.807 1489.29 188.434 1488.33 187.045C1487.37 185.656 1486.76 184.588 1486.5 183.825H1486.23V223.245H1468.22V220.341Z" fill="#161315"/>
<path d="M1569.68 135.435C1566.7 135.435 1564.03 136.087 1561.67 137.391C1559.3 138.699 1557.3 140.382 1555.69 142.447C1554.07 144.511 1552.82 146.826 1551.94 149.394C1551.06 151.966 1550.62 154.512 1550.62 157.039H1586.24C1586.24 154.345 1585.93 151.691 1585.32 149.079C1584.71 146.47 1583.74 144.152 1582.43 142.132C1581.11 140.108 1579.41 138.49 1577.31 137.264C1575.2 136.046 1572.66 135.435 1569.68 135.435ZM1587.69 192.544C1586.2 193.048 1584.27 193.743 1581.91 194.628C1579.54 195.512 1576.43 195.952 1572.57 195.952C1567.67 195.952 1563.22 195.279 1559.23 193.933C1555.25 192.586 1551.88 190.502 1549.11 187.68C1546.35 184.857 1544.23 181.281 1542.74 176.94C1541.25 172.602 1540.55 167.443 1540.64 161.464C1540.72 156.661 1541.54 152.282 1543.07 148.322C1544.61 144.364 1546.66 140.929 1549.25 138.024C1551.83 135.118 1554.9 132.868 1558.45 131.265C1561.99 129.667 1565.83 128.864 1569.95 128.864C1574.5 128.864 1578.44 129.685 1581.78 131.328C1585.1 132.97 1587.82 135.307 1589.92 138.341C1592.02 141.373 1593.56 145.015 1594.52 149.268C1595.48 153.524 1595.92 158.303 1595.83 163.609H1550.49C1550.23 168.918 1550.91 173.506 1552.54 177.383C1554.16 181.256 1556.59 184.266 1559.83 186.415C1563.06 188.563 1567.03 189.849 1571.72 190.271C1576.41 190.694 1581.73 190.145 1587.69 188.627V192.544Z" fill="#161315"/>
<path d="M1657.87 188.371C1658.82 189.724 1660.14 190.544 1661.81 190.836C1663.47 191.132 1664.96 191.363 1666.27 191.531V194.692H1648.27V155.902C1648.27 149.838 1647.07 145.037 1644.65 141.499C1642.24 137.961 1638.23 136.194 1632.63 136.194C1628.87 136.194 1625.73 136.97 1623.24 138.529C1620.74 140.088 1618.72 142.046 1617.19 144.404C1615.66 146.763 1614.58 149.394 1613.97 152.303C1613.35 155.209 1613.05 157.965 1613.05 160.576V194.564H1603.59V136.95C1602.62 135.604 1601.31 134.783 1599.64 134.486C1597.98 134.192 1596.49 133.962 1595.18 133.791V130.128H1612.92V142.003C1613.53 140.571 1614.43 139.119 1615.61 137.645C1616.8 136.172 1618.28 134.822 1620.08 133.602C1621.87 132.382 1624.02 131.392 1626.52 130.634C1629.02 129.875 1631.93 129.495 1635.26 129.495C1643.49 129.495 1649.32 131.308 1652.74 134.929C1656.15 138.552 1657.87 143.9 1657.87 150.975V188.371Z" fill="#161315"/>
<path d="M1805.73 130.128V194.692H1796.13V136.696C1795.17 135.353 1793.86 134.532 1792.19 134.234C1790.52 133.938 1789.04 133.708 1787.72 133.539V130.128H1805.73Z" fill="#161315"/>
<path d="M1854.08 178.139C1852.86 182.181 1850.78 185.45 1847.84 187.929C1844.9 190.416 1841.56 192.208 1837.79 193.302C1834.02 194.396 1830.12 194.797 1826.09 194.503C1822.06 194.206 1818.38 193.345 1815.06 191.913V187.868C1817.07 188.877 1819.72 189.532 1823 189.824C1826.29 190.124 1829.51 189.889 1832.67 189.133C1835.82 188.371 1838.53 187.024 1840.81 185.086C1843.09 183.151 1844.22 180.458 1844.22 177.005C1844.22 174.476 1843.44 172.412 1841.86 170.813C1840.29 169.209 1838.3 167.841 1835.88 166.705C1833.47 165.568 1830.87 164.492 1828.06 163.484C1825.26 162.472 1822.65 161.271 1820.24 159.882C1817.84 158.492 1815.84 156.83 1814.27 154.89C1812.69 152.954 1811.9 150.43 1811.9 147.31C1811.9 144.196 1812.47 141.457 1813.61 139.099C1814.75 136.741 1816.3 134.803 1818.27 133.284C1820.24 131.769 1822.55 130.634 1825.17 129.875C1827.8 129.118 1830.6 128.737 1833.58 128.737C1837.61 128.737 1840.81 128.949 1843.18 129.369C1845.54 129.793 1847.52 130.297 1849.09 130.885L1848.96 134.674C1845.54 133.33 1842.19 132.572 1838.91 132.401C1835.62 132.236 1832.69 132.676 1830.1 133.728C1827.52 134.783 1825.44 136.445 1823.86 138.719C1822.28 140.991 1821.49 143.858 1821.49 147.31C1821.49 149.248 1822.35 150.85 1824.06 152.111C1825.77 153.375 1827.89 154.534 1830.43 155.587C1832.97 156.641 1835.69 157.715 1838.58 158.806C1841.47 159.903 1844.12 161.271 1846.53 162.917C1848.94 164.556 1850.89 166.58 1852.38 168.977C1853.86 171.383 1854.44 174.433 1854.08 178.139Z" fill="#161315"/>
<path d="M1914.67 123.559C1914.67 121.454 1914.28 119.39 1913.49 117.367C1912.7 115.344 1911.54 113.557 1910.01 111.996C1908.47 110.44 1906.57 109.198 1904.29 108.27C1902.01 107.344 1899.43 106.878 1896.54 106.878H1875.78V142.256H1894.96C1897.76 142.256 1900.37 141.774 1902.78 140.803C1905.19 139.835 1907.26 138.51 1909.02 136.825C1910.77 135.141 1912.16 133.158 1913.16 130.885C1914.17 128.61 1914.67 126.17 1914.67 123.559ZM1875.78 151.352V194.816H1866.18V106.123C1865.13 104.944 1863.81 104.206 1862.24 103.91C1860.66 103.617 1859.26 103.385 1858.03 103.218V99.8043H1898.51C1902.54 99.8043 1906.13 100.456 1909.28 101.764C1912.44 103.07 1915.11 104.817 1917.3 107.005C1919.49 109.198 1921.15 111.765 1922.29 114.713C1923.44 117.661 1924 120.822 1924 124.191C1924 127.39 1923.44 130.529 1922.29 133.602C1921.15 136.678 1919.58 139.477 1917.56 142.003C1915.55 144.531 1913.1 146.637 1910.2 148.322C1907.31 150.007 1904.11 151.017 1900.62 151.352H1875.78Z" fill="#161315"/>
<path d="M1801.98 101.916C1800.25 101.789 1798.77 102.27 1797.52 103.388C1796.26 104.479 1795.57 105.844 1795.44 107.406C1795.31 109.052 1795.77 110.472 1796.84 111.674C1797.89 112.882 1799.29 113.543 1801.01 113.677C1802.63 113.793 1804.05 113.352 1805.2 112.315C1806.37 111.279 1807.01 109.935 1807.14 108.29C1807.27 106.732 1806.87 105.29 1805.89 104.028C1804.91 102.733 1803.6 102.046 1801.98 101.916Z" fill="#161315"/>
</g>
<defs>
<radialGradient id="paint0_radial_210_99" cx="0" cy="0" r="1" gradientUnits="userSpaceOnUse" gradientTransform="translate(1726.36 138.652) rotate(-84.8143) scale(178.902 185.967)">
<stop stop-color="#161315"/>
<stop offset="0.674286" stop-color="#161315"/>
<stop offset="0.91399" stop-color="#161315"/>
<stop offset="1" stop-color="#E0E0E1"/>
</radialGradient>
<radialGradient id="paint1_radial_210_99" cx="0" cy="0" r="1" gradientUnits="userSpaceOnUse" gradientTransform="translate(1735.72 161.394) scale(141.654 136.188)">
<stop stop-color="#FDE3C3"/>
<stop offset="1" stop-color="#F79210"/>
</radialGradient>
<radialGradient id="paint2_radial_210_99" cx="0" cy="0" r="1" gradientUnits="userSpaceOnUse" gradientTransform="translate(1723.85 156.859) rotate(8.49831) scale(174.781 49.5018)">
<stop stop-color="#F9B2B4"/>
<stop offset="0.704871" stop-color="#C4161D"/>
<stop offset="1" stop-color="#C4161D"/>
</radialGradient>
<clipPath id="clip0_210_99">
<rect width="550" height="306" fill="white" transform="translate(1374)"/>
</clipPath>
</defs>
</svg>
