<?xml version="1.0" encoding="UTF-8" standalone="no"?>
<svg
   xmlns:dc="http://purl.org/dc/elements/1.1/"
   xmlns:cc="http://creativecommons.org/ns#"
   xmlns:rdf="http://www.w3.org/1999/02/22-rdf-syntax-ns#"
   xmlns:svg="http://www.w3.org/2000/svg"
   xmlns="http://www.w3.org/2000/svg"
   viewBox="0 0 2391.2932 513.46667"
   height="513.46667"
   width="2391.2932"
   xml:space="preserve"
   id="svg2"
   version="1.1"><metadata
     id="metadata8"><rdf:RDF><cc:Work
         rdf:about=""><dc:format>image/svg+xml</dc:format><dc:type
           rdf:resource="http://purl.org/dc/dcmitype/StillImage" /><dc:title></dc:title></cc:Work></rdf:RDF></metadata><defs
     id="defs6" /><g
     transform="matrix(1.3333333,0,0,-1.3333333,0,513.46667)"
     id="g10"><g
       transform="scale(0.1)"
       id="g12"><path
         id="path14"
         style="fill:#040606;fill-opacity:1;fill-rule:nonzero;stroke:none"
         d="M 83.6172,2120.63 H 1782.17 V 3819.18 H 83.6172 V 2120.63" /><path
         id="path16"
         style="fill:#040606;fill-opacity:1;fill-rule:nonzero;stroke:none"
         d="M 2121.88,2120.63 H 3820.42 V 3819.18 H 2121.88 V 2120.63" /><path
         id="path18"
         style="fill:#040606;fill-opacity:1;fill-rule:nonzero;stroke:none"
         d="M 2121.88,82.3711 H 3820.42 V 1780.92 H 2121.88 V 82.3711" /><path
         id="path20"
         style="fill:#040606;fill-opacity:1;fill-rule:nonzero;stroke:none"
         d="M 1865.78,932.922 C 1865.78,417.719 1448.13,0 932.855,0 417.652,0 0,417.719 0,932.922 c 0,515.208 417.652,932.928 932.855,932.928 515.275,0 932.925,-417.72 932.925,-932.928" /><path
         id="path22"
         style="fill:#040606;fill-opacity:1;fill-rule:nonzero;stroke:none"
         d="m 8704.25,2714.08 c 0,-359.32 -260.8,-627.1 -620.94,-627.1 -143.47,0 -270.83,48.92 -369.65,132.79 l -107.36,-99.14 h -166.32 v 1698.55 h 319.3 v -575.84 c 91.19,62.43 201.78,97.77 324.03,97.77 360.14,0 620.94,-267.39 620.94,-627.03 m -646.89,-323.46 c 185.47,0 321.44,138.83 321.44,323.46 0,186.44 -135.97,325.34 -321.44,325.34 -185.54,0 -321.89,-139.29 -321.89,-325.34 0,-183.85 136.35,-323.52 321.89,-323.52 v 0.06" /><path
         id="path24"
         style="fill:#040606;fill-opacity:1;fill-rule:nonzero;stroke:none"
         d="M 5764.12,3819.18 V 2120.63 H 5597.8 l -107.17,98.81 c -99.08,-84.78 -226.7,-134.28 -369.85,-134.28 -358.26,0 -620.94,269.6 -620.94,628.92 0,359.64 262.68,627.03 620.94,627.03 121.93,0 232.66,-35.6 324.03,-98.29 v 576.36 z m -295.43,-1105.1 c 0,186.05 -136.35,325.27 -321.89,325.27 -185.47,0 -321.44,-138.83 -321.44,-325.27 0,-186.45 135.97,-325.34 321.44,-325.34 185.54,0 321.89,139.67 321.89,325.34" /><path
         id="path26"
         style="fill:#040606;fill-opacity:1;fill-rule:nonzero;stroke:none"
         d="m 7110.67,2424.7 c 93.46,135.09 149.1,306.03 156.89,502.08 h -297.8 c -7.26,-97.2 -31.22,-184.65 -68.7,-259.06 -39.8,-100.44 -101.64,-168.61 -193.78,-215.12 -67.72,-34.26 -147.64,-54.93 -230.01,-54.93 -140.19,0 -233.31,76.72 -233.31,193.07 0,99.71 59.66,172.72 142.89,239.97 91.28,73.81 137.94,95.4 249.81,155.5 186.52,108.46 368.94,232.49 368.94,460.86 0,241.97 -190.08,403.89 -474.01,403.89 -286.78,0 -478.9,-160.6 -478.9,-405.67 0,-95.81 28.9,-193.73 158.33,-381.16 -160.25,-105.09 -298.52,-247 -298.52,-484.66 0,-294.83 213.65,-487.37 531.5,-487.37 176.42,0 332.71,46.52 460.62,130.53 29.04,-32.93 59.07,-66.79 90.09,-101.7 h 380.49 c -93.98,107.92 -182.22,209.16 -264.53,303.77 m -579.08,1167.41 c 97.94,0 162.62,-59.43 162.62,-147.02 0,-97.6 -97.81,-163.72 -223.87,-233.82 -67.06,101.64 -102.3,178.43 -102.3,232.03 0,88.91 64.74,148.81 163.55,148.81" /><path
         id="path28"
         style="fill:#040606;fill-opacity:1;fill-rule:nonzero;stroke:none"
         d="m 4725.53,642.039 c 0,-230.711 162.43,-415.508 399.02,-415.508 231.88,0 396.67,178.91 396.67,415.508 0,235.41 -164.79,414.321 -396.67,414.321 -238.94,0 -399.02,-184.801 -399.02,-414.321 z M 5686.01,84.1094 H 5510.63 V 250.07 C 5422.35,135.891 5286.99,61.7383 5103.36,61.7383 c -313.1,0 -556.75,244.8317 -556.75,580.3007 0,334.281 243.65,579.111 556.75,579.111 183.63,0 318.99,-75.34 407.27,-188.33 v 165.96 h 175.38 V 84.1094" /><path
         id="path30"
         style="fill:#040606;fill-opacity:1;fill-rule:nonzero;stroke:none"
         d="m 7003.16,549.051 c 0,-330.75 -237.77,-487.3127 -506.14,-487.3127 -269.54,0 -506.14,156.5627 -506.14,487.3127 v 649.729 h 175.39 V 565.52 c 0,-230.7 140.07,-338.989 330.75,-338.989 190.69,0 329.58,108.289 329.58,338.989 v 633.26 h 176.56 V 549.051" /><path
         id="path32"
         style="fill:#040606;fill-opacity:1;fill-rule:nonzero;stroke:none"
         d="m 7402.22,642.039 c 0,-230.711 162.43,-415.508 399.02,-415.508 231.88,0 396.67,178.91 396.67,415.508 0,235.41 -164.79,414.321 -396.67,414.321 -238.95,0 -399.02,-184.801 -399.02,-414.321 z m 785.1,390.781 v 746.26 H 8362.7 V 84.1094 H 8187.32 V 250.07 C 8099.04,135.891 7963.68,61.7383 7780.05,61.7383 c -313.1,0 -556.75,244.8317 -556.75,580.3007 0,334.281 243.65,579.111 556.75,579.111 183.63,0 318.99,-75.34 407.27,-188.33" /><path
         id="path34"
         style="fill:#040606;fill-opacity:1;fill-rule:nonzero;stroke:none"
         d="M 8857.08,84.1094 H 8680.52 V 1198.78 h 176.56 z m 36.49,1510.1706 c 0,-70.62 -55.32,-123.59 -124.77,-123.59 -70.62,0 -123.59,52.97 -123.59,123.59 0,70.62 52.97,124.77 123.59,124.77 69.45,0 124.77,-54.15 124.77,-124.77" /><path
         id="path36"
         style="fill:#040606;fill-opacity:1;fill-rule:nonzero;stroke:none"
         d="m 9269.07,642.039 c 0,-241.301 175.38,-415.508 407.26,-415.508 230.71,0 407.27,174.207 407.27,415.508 0,240.109 -176.56,414.321 -407.27,414.321 -231.88,0 -407.26,-174.212 -407.26,-414.321 z m 994.63,0 c 0,-330.758 -251.9,-580.3007 -587.37,-580.3007 -335.46,0 -586.18,249.5427 -586.18,580.3007 0,329.582 250.72,579.111 586.18,579.111 335.47,0 587.37,-249.529 587.37,-579.111" /><path
         id="path38"
         style="fill:#040606;fill-opacity:1;fill-rule:nonzero;stroke:none"
         d="m 11253.6,1039.88 h -481.4 V 477.238 c 0,-174.199 91.8,-250.707 221.3,-250.707 85.9,0 169.5,31.778 234.2,78.86 l 82.4,-133 c -83.6,-63.571 -194.2,-110.6527 -330.7,-110.6527 -240.2,0 -382.6,131.8317 -382.6,411.9807 v 566.161 h -243.6 v 158.9 h 243.6 v 354.3 h 175.4 v -354.3 h 481.4 v -158.9" /><path
         id="path40"
         style="fill:#040606;fill-opacity:1;fill-rule:nonzero;stroke:none"
         d="m 11566.7,722.07 h 715.7 c -22.4,208.34 -158.9,342.53 -348.4,342.53 -206,0 -339,-141.248 -367.3,-342.53 z m 894.6,-76.511 c 0,-22.36 -1.2,-45.899 -3.6,-65.911 h -893.3 c 24.7,-240.117 193,-363.718 394.3,-363.718 137.7,0 257.8,52.968 353.1,140.082 l 94.2,-120.063 c -138.9,-133.008 -294.3,-174.2107 -457.9,-174.2107 -329.6,0 -563.8,234.2417 -563.8,579.1137 0,341.347 235.4,580.298 553.2,580.298 302.5,0 521.4,-236.599 523.8,-575.591" /><path
         id="path42"
         style="fill:#040606;fill-opacity:1;fill-rule:nonzero;stroke:none"
         d="m 13599.5,1045.77 -113,-118.891 c -83.6,81.221 -183.6,129.481 -304.8,129.481 -223.7,0 -393.2,-174.212 -393.2,-414.321 0,-241.301 169.5,-415.508 393.2,-415.508 121.2,0 229.5,54.149 308.3,130.649 l 109.5,-120.059 c -101.2,-114.172 -248.4,-175.3827 -413.1,-175.3827 -342.6,0 -576.8,249.5427 -576.8,580.3007 0,329.582 234.2,579.111 576.8,579.111 164.7,0 313.1,-61.2 413.1,-175.38" /><path
         id="path44"
         style="fill:#040606;fill-opacity:1;fill-rule:nonzero;stroke:none"
         d="m 13982.1,1043.41 c 91.8,129.48 237.7,177.74 373.1,177.74 275.4,0 465,-176.57 465,-446.111 V 84.1094 h -175.4 V 717.371 c 0,211.859 -117.7,336.639 -321.4,336.639 -187.1,0 -341.3,-129.479 -341.3,-341.35 V 84.1094 h -176.6 V 1779.08 h 176.6 v -735.67" /><path
         id="path46"
         style="fill:#040606;fill-opacity:1;fill-rule:nonzero;stroke:none"
         d="M 16139.7,775.039 V 84.1094 h -175.4 V 717.371 c 0,211.859 -117.7,336.639 -321.3,336.639 -187.2,0 -341.4,-129.479 -341.4,-341.35 V 84.1094 H 15125 V 1198.78 h 174.3 v -158.9 c 90.6,133.01 238.9,181.27 375.4,181.27 275.5,0 465,-176.57 465,-446.111" /><g
         transform="scale(1.02194)"
         id="g48"><path
           id="path50"
           style="fill:#040606;fill-opacity:1;fill-rule:nonzero;stroke:none"
           d="m 16264.3,82.3037 h -172.7 V 1173.05 h 172.7 z M 16300,1560.06 c 0,-69.11 -54.1,-120.94 -122.1,-120.94 -69.1,0 -120.9,51.83 -120.9,120.94 0,69.1 51.8,122.09 120.9,122.09 68,0 122.1,-52.99 122.1,-122.09" /></g><g
         transform="scale(1.10029)"
         id="g52"><path
           id="path54"
           style="fill:#040606;fill-opacity:1;fill-rule:nonzero;stroke:none"
           d="m 15555.5,678.721 h 146.6 l 390.4,410.799 h 200 L 15832.6,612.393 16300,76.443 h -202.1 L 15701,533.234 h -145.5 V 76.443 h -160.4 V 1616.92 h 160.4 V 678.721" /></g></g></g></svg>