<svg width="475" height="379" fill="none" xmlns="http://www.w3.org/2000/svg"><path d="M405.6 208.376 243.482 370.497c-10.582 10.582-27.741 10.582-38.322 0L43.041 208.376c-10.583-10.581-10.583-27.74 0-38.322L205.16 7.936c10.581-10.581 27.74-10.581 38.322 0L405.6 170.054c10.584 10.582 10.584 27.741 0 38.322z" fill="#FEF1E8"/><path d="M216.504 106.506a1.355 1.355 0 0 1-.917-2.352c18.114-16.663 40.53-27.174 64.823-30.401a1.354 1.354 0 0 1 .358 2.686c-23.741 3.153-45.645 13.429-63.347 29.71-.26.241-.589.357-.917.357zM179.641 176.268a1.354 1.354 0 0 1-1.342-1.548c2.957-20.489 11.294-39.959 24.108-56.304a1.357 1.357 0 0 1 2.134 1.672c-12.524 15.971-20.67 34.997-23.561 55.017a1.353 1.353 0 0 1-1.339 1.163zM201.865 263.789a1.36 1.36 0 0 1-1.088-.544c-11.937-15.95-19.723-34.775-22.517-54.441a1.356 1.356 0 0 1 2.684-.382c2.728 19.218 10.337 37.613 22.003 53.199a1.355 1.355 0 0 1-1.082 2.168zM282.375 310.271c-.054 0-.105-.003-.16-.008-25.971-3.049-50.606-14.847-69.363-33.225a1.354 1.354 0 0 1-.018-1.916 1.35 1.35 0 0 1 1.915-.019c18.331 17.958 42.403 29.488 67.781 32.469a1.355 1.355 0 0 1-.155 2.699z" fill="#151933"/><path d="M296.706 117.227c-24.48 0-48.001-7.368-68.016-21.302a1.353 1.353 0 0 1-.337-1.886 1.348 1.348 0 0 1 1.886-.339c19.558 13.617 42.542 20.817 66.467 20.817a1.355 1.355 0 0 1 0 2.71zM233.876 290.861a1.354 1.354 0 0 1-.705-2.512c18.577-11.286 39.946-17.253 61.796-17.253a1.355 1.355 0 0 1 0 2.709c-21.354 0-42.236 5.829-60.388 16.858a1.36 1.36 0 0 1-.703.198z" fill="#151933"/><path d="M237.218 183.462c-.019 0-.039 0-.06-.002a1.355 1.355 0 0 1-1.295-1.415c2.206-50.465 20.559-92.622 45.671-104.903a1.356 1.356 0 0 1 1.813.62 1.357 1.357 0 0 1-.623 1.814c-24.248 11.858-41.99 53.085-44.153 102.591a1.355 1.355 0 0 1-1.353 1.295zM282.756 307.941a1.38 1.38 0 0 1-.572-.128c-25.732-11.996-44.365-54.735-46.367-106.352a1.352 1.352 0 0 1 1.3-1.406c.755-.055 1.379.552 1.407 1.298 1.933 49.841 20.358 92.608 44.806 104.003a1.36 1.36 0 0 1 .656 1.802c-.23.493-.721.783-1.23.783z" fill="#151933"/><path d="M287.579 157.058h-.041c-38.988-1.138-74.036-9.934-93.754-23.537a1.352 1.352 0 0 1-.346-1.883 1.35 1.35 0 0 1 1.883-.347c19.306 13.316 53.808 21.936 92.296 23.058a1.355 1.355 0 0 1-.038 2.709zM194.554 250.945a1.353 1.353 0 0 1-.77-2.469c19.704-13.592 54.728-22.391 93.689-23.534.721.027 1.372.566 1.393 1.317a1.354 1.354 0 0 1-1.314 1.392c-38.458 1.128-72.938 9.748-92.231 23.056a1.344 1.344 0 0 1-.767.238zM296.256 295.006a1.355 1.355 0 0 1-1.355-1.355v-58.524a1.355 1.355 0 0 1 2.71 0v58.524c0 .748-.604 1.355-1.355 1.355zM296.256 218.899a1.354 1.354 0 0 1-1.355-1.355v-53.189a1.355 1.355 0 0 1 2.71 0v53.189c0 .75-.604 1.355-1.355 1.355zM296.256 148.314a1.354 1.354 0 0 1-1.355-1.355v-56.82c0-.75.607-1.355 1.355-1.355.751 0 1.355.604 1.355 1.355v56.82c0 .75-.604 1.355-1.355 1.355z" fill="#151933"/><path d="M296.031 193.25h-50.526a1.355 1.355 0 1 1 0-2.71h50.526a1.355 1.355 0 0 1 0 2.71zM228.846 193.25h-33.158a1.355 1.355 0 0 1 0-2.71h33.158a1.355 1.355 0 1 1 0 2.71z" fill="#151933"/><path d="M178.425 178.44c-7.419 0-13.453 6.035-13.453 13.455 0 7.416 6.034 13.451 13.453 13.451 7.417 0 13.452-6.035 13.452-13.451 0-7.42-6.035-13.455-13.452-13.455zm0 29.616c-8.912 0-16.163-7.251-16.163-16.161 0-8.913 7.251-16.164 16.163-16.164 8.911 0 16.162 7.251 16.162 16.164 0 8.91-7.251 16.161-16.162 16.161zM295.414 60.729c-7.054 0-12.793 5.74-12.793 12.793 0 7.056 5.739 12.796 12.793 12.796 7.056 0 12.795-5.74 12.795-12.796 0-7.054-5.739-12.793-12.795-12.793zm0 28.299c-8.547 0-15.503-6.957-15.503-15.506 0-8.547 6.956-15.503 15.503-15.503 8.549 0 15.505 6.956 15.505 15.503 0 8.55-6.956 15.506-15.505 15.506zM296.913 297.123c-7.054 0-12.796 5.74-12.796 12.793 0 7.054 5.742 12.793 12.796 12.793 7.054 0 12.793-5.739 12.793-12.793 0-7.053-5.739-12.793-12.793-12.793zm0 28.296c-8.55 0-15.506-6.953-15.506-15.503 0-8.549 6.956-15.503 15.506-15.503 8.549 0 15.503 6.954 15.503 15.503 0 8.55-6.954 15.503-15.503 15.503zM236.995 185.101c-3.745 0-6.793 3.049-6.793 6.794a6.802 6.802 0 0 0 6.793 6.793 6.802 6.802 0 0 0 6.794-6.793 6.803 6.803 0 0 0-6.794-6.794zm0 16.297c-5.24 0-9.503-4.265-9.503-9.503 0-5.241 4.263-9.503 9.503-9.503s9.504 4.262 9.504 9.503c0 5.238-4.264 9.503-9.504 9.503zM296.583 219.376a6.801 6.801 0 0 0-6.794 6.793c0 3.745 3.049 6.794 6.794 6.794 3.745 0 6.793-3.049 6.793-6.794a6.8 6.8 0 0 0-6.793-6.793zm0 16.297c-5.241 0-9.503-4.266-9.503-9.504 0-5.241 4.262-9.503 9.503-9.503 5.241 0 9.503 4.262 9.503 9.503 0 5.238-4.262 9.504-9.503 9.504zM296.257 149.034c-3.745 0-6.793 3.048-6.793 6.796 0 3.745 3.048 6.791 6.793 6.791a6.799 6.799 0 0 0 6.794-6.791 6.801 6.801 0 0 0-6.794-6.796zm0 16.297c-5.24 0-9.503-4.263-9.503-9.501 0-5.241 4.263-9.506 9.503-9.506 5.241 0 9.504 4.265 9.504 9.506 0 5.238-4.263 9.501-9.504 9.501zM210.029 105.541c-3.745 0-6.794 3.049-6.794 6.794 0 3.745 3.049 6.793 6.794 6.793a6.802 6.802 0 0 0 6.794-6.793 6.803 6.803 0 0 0-6.794-6.794zm0 16.297c-5.241 0-9.504-4.262-9.504-9.503 0-5.241 4.263-9.503 9.504-9.503 5.24 0 9.503 4.262 9.503 9.503 0 5.241-4.263 9.503-9.503 9.503zM208.058 263.166c-3.746 0-6.794 3.046-6.794 6.791 0 3.747 3.048 6.796 6.794 6.796 3.746 0 6.792-3.049 6.792-6.796a6.798 6.798 0 0 0-6.792-6.791zm0 16.297c-5.24 0-9.503-4.263-9.503-9.506 0-5.238 4.263-9.501 9.503-9.501s9.502 4.263 9.502 9.501c0 5.243-4.262 9.506-9.502 9.506zM377.113 106.506c-.328 0-.656-.116-.916-.357-17.704-16.281-39.607-26.557-63.348-29.71a1.354 1.354 0 0 1 .358-2.686c24.294 3.227 46.709 13.738 64.824 30.401.55.507.586 1.363.079 1.916a1.35 1.35 0 0 1-.997.436zM413.976 176.268a1.355 1.355 0 0 1-1.339-1.163c-2.889-20.017-11.037-39.043-23.562-55.017a1.354 1.354 0 1 1 2.133-1.672c12.817 16.348 21.155 35.815 24.109 56.304a1.352 1.352 0 0 1-1.341 1.548zM391.754 263.789a1.357 1.357 0 0 1-1.084-2.168c11.666-15.586 19.275-33.981 22.007-53.199a1.354 1.354 0 1 1 2.682.382c-2.793 19.666-10.582 38.493-22.518 54.441a1.358 1.358 0 0 1-1.087.544z" fill="#151933"/><path d="M311.244 310.271a1.354 1.354 0 0 1-.157-2.699c25.377-2.981 49.451-14.511 67.781-32.469a1.355 1.355 0 0 1 1.896 1.935c-18.757 18.378-43.389 30.176-69.363 33.225a1.65 1.65 0 0 1-.157.008zM296.911 117.227a1.355 1.355 0 0 1 0-2.71c23.925 0 46.91-7.2 66.47-20.817a1.354 1.354 0 1 1 1.547 2.225c-20.018 13.934-43.536 21.302-68.017 21.302z" fill="#151933"/><path d="M359.741 290.861c-.238 0-.482-.065-.701-.198-18.153-11.029-39.035-16.858-60.386-16.858a1.354 1.354 0 1 1 0-2.709c21.849 0 43.216 5.967 61.792 17.253a1.356 1.356 0 0 1-.705 2.512zM356.401 183.462a1.354 1.354 0 0 1-1.352-1.295c-2.163-49.506-19.907-90.733-44.154-102.591a1.357 1.357 0 0 1-.623-1.813 1.363 1.363 0 0 1 1.813-.62c25.111 12.28 43.465 54.437 45.671 104.902a1.356 1.356 0 0 1-1.295 1.415c-.022.002-.041.002-.06.002z" fill="#151933"/><path d="M310.862 307.941a1.357 1.357 0 0 1-.575-2.585c24.448-11.395 42.872-54.162 44.807-104.003.027-.746.699-1.35 1.406-1.298a1.354 1.354 0 0 1 1.301 1.406c-2.002 51.617-20.635 94.356-46.368 106.352a1.379 1.379 0 0 1-.571.128zM306.037 157.058a1.354 1.354 0 0 1-.038-2.709c38.488-1.122 72.992-9.742 92.297-23.058a1.35 1.35 0 0 1 1.883.347 1.352 1.352 0 0 1-.347 1.883c-19.717 13.603-54.765 22.399-93.754 23.537h-.041z" fill="#151933"/><path d="M399.065 250.945c-.263 0-.531-.076-.767-.238-19.294-13.308-53.771-21.928-92.231-23.056a1.355 1.355 0 0 1-1.315-1.392c.022-.751.751-1.29 1.393-1.317 38.962 1.143 73.986 9.942 93.689 23.534a1.352 1.352 0 0 1-.769 2.469zM348.113 193.25h-50.527a1.355 1.355 0 0 1 0-2.71h50.527a1.355 1.355 0 0 1 0 2.71zM397.929 193.25h-33.158a1.354 1.354 0 1 1 0-2.71h33.158a1.354 1.354 0 1 1 0 2.71z" fill="#151933"/><path d="M415.192 178.44c-7.417 0-13.452 6.035-13.452 13.455 0 7.416 6.035 13.451 13.452 13.451s13.451-6.035 13.451-13.451c0-7.42-6.034-13.455-13.451-13.455zm0 29.616c-8.913 0-16.162-7.251-16.162-16.161 0-8.913 7.249-16.164 16.162-16.164 8.912 0 16.161 7.251 16.161 16.164 0 8.91-7.249 16.161-16.161 16.161zM356.623 185.101c-3.745 0-6.793 3.049-6.793 6.794a6.802 6.802 0 0 0 6.793 6.793 6.8 6.8 0 0 0 6.794-6.793 6.801 6.801 0 0 0-6.794-6.794zm0 16.297c-5.241 0-9.503-4.265-9.503-9.503 0-5.241 4.262-9.503 9.503-9.503 5.241 0 9.503 4.262 9.503 9.503 0 5.238-4.262 9.503-9.503 9.503zM383.588 105.541c-3.745 0-6.794 3.049-6.794 6.794 0 3.745 3.049 6.793 6.794 6.793a6.8 6.8 0 0 0 6.793-6.793 6.801 6.801 0 0 0-6.793-6.794zm0 16.297c-5.241 0-9.504-4.262-9.504-9.503 0-5.241 4.263-9.503 9.504-9.503 5.24 0 9.503 4.262 9.503 9.503 0 5.241-4.263 9.503-9.503 9.503zM385.558 263.166a6.798 6.798 0 0 0-6.791 6.791c0 3.747 3.046 6.796 6.791 6.796 3.747 0 6.793-3.049 6.793-6.796a6.799 6.799 0 0 0-6.793-6.791zm0 16.297c-5.238 0-9.501-4.263-9.501-9.506 0-5.238 4.263-9.501 9.501-9.501 5.241 0 9.503 4.263 9.503 9.501 0 5.243-4.262 9.506-9.503 9.506zM450.57 115.95c-.268 0-.539-.082-.775-.244l-12.167-8.49a1.363 1.363 0 0 1-.336-1.889 1.359 1.359 0 0 1 1.889-.336l12.164 8.49a1.356 1.356 0 0 1-.775 2.469zM430.905 97.417a1.355 1.355 0 0 1-1.355-1.355V82.987a1.354 1.354 0 1 1 2.709 0v13.075c0 .748-.604 1.355-1.354 1.355zM411.242 115.95a1.357 1.357 0 0 1-.775-2.469l12.165-8.49a1.358 1.358 0 0 1 1.886.336 1.357 1.357 0 0 1-.336 1.889l-12.165 8.49a1.371 1.371 0 0 1-.775.244zM89.113 210.425H12.93a1.354 1.354 0 1 1 0-2.71h76.183a1.355 1.355 0 0 1 0 2.71zM63.68 227.651H50.133a1.355 1.355 0 1 1 0-2.71H63.68a1.355 1.355 0 0 1 0 2.71zm27.099 0h-13.55a1.355 1.355 0 0 1 0-2.71h13.55a1.355 1.355 0 0 1 0 2.71zm27.098 0h-13.549a1.355 1.355 0 1 1 0-2.71h13.549a1.355 1.355 0 1 1 0 2.71zM396.426 20.821h-76.184a1.354 1.354 0 1 1 0-2.71h76.184a1.354 1.354 0 1 1 0 2.71zM413.446 36.452h-34.043a1.355 1.355 0 0 1 0-2.71h34.043c.751 0 1.355.607 1.355 1.355s-.604 1.355-1.355 1.355zM58.58 3.687a4.069 4.069 0 0 0-4.065 4.065v109.425a4.07 4.07 0 0 0 4.065 4.065h109.425a4.07 4.07 0 0 0 4.065-4.065V7.752a4.07 4.07 0 0 0-4.065-4.065H58.58zm109.425 120.265H58.58a6.783 6.783 0 0 1-6.774-6.775V7.752A6.783 6.783 0 0 1 58.58.978h109.425a6.783 6.783 0 0 1 6.775 6.774v109.425a6.783 6.783 0 0 1-6.775 6.775z" fill="#151933"/><path d="M79.771 24.88a4.07 4.07 0 0 0-4.065 4.065v67.038a4.07 4.07 0 0 0 4.065 4.065h67.039a4.07 4.07 0 0 0 4.065-4.064V28.945a4.07 4.07 0 0 0-4.065-4.064H79.771zm67.039 77.878H79.771a6.783 6.783 0 0 1-6.775-6.774V28.945a6.781 6.781 0 0 1 6.775-6.774h67.039a6.782 6.782 0 0 1 6.775 6.774v67.038c0 3.735-3.04 6.775-6.775 6.775z" fill="#151933"/><path d="M86.411 33.172a.7.7 0 0 0-.7.7v45.543a.7.7 0 0 0 .7.7h10.443c1.88 0 3.41 1.528 3.41 3.409v7.533a.7.7 0 0 0 .701.699h24.654a.7.7 0 0 0 .698-.7v-7.532c0-1.881 1.53-3.41 3.41-3.41h10.443a.7.7 0 0 0 .7-.699V33.871a.7.7 0 0 0-.7-.699H86.411zm39.208 61.294h-24.654a3.415 3.415 0 0 1-3.411-3.41v-7.532c0-.388-.313-.7-.7-.7H86.411a3.413 3.413 0 0 1-3.41-3.409V33.871a3.413 3.413 0 0 1 3.41-3.408h53.759a3.414 3.414 0 0 1 3.41 3.408v45.544a3.414 3.414 0 0 1-3.41 3.41h-10.443a.7.7 0 0 0-.7.699v7.533a3.414 3.414 0 0 1-3.408 3.409zM164.251 9.026a2.813 2.813 0 0 0 0 5.623 2.814 2.814 0 0 0 2.812-2.813c0-1.55-1.261-2.81-2.812-2.81zm0 8.333a5.528 5.528 0 0 1-5.52-5.523 5.527 5.527 0 0 1 5.52-5.52 5.527 5.527 0 0 1 5.521 5.52 5.528 5.528 0 0 1-5.521 5.523zM64.35 9.026a2.814 2.814 0 0 0-2.81 2.81 2.814 2.814 0 0 0 2.81 2.813c1.55 0 2.811-1.26 2.811-2.813 0-1.55-1.262-2.81-2.811-2.81zm0 8.333a5.527 5.527 0 0 1-5.52-5.523 5.527 5.527 0 0 1 5.52-5.52 5.528 5.528 0 0 1 5.52 5.52 5.529 5.529 0 0 1-5.52 5.523zM163.241 111.555c-1.55 0-2.81 1.26-2.81 2.81s1.26 2.812 2.81 2.812 2.81-1.262 2.81-2.812c0-1.55-1.26-2.81-2.81-2.81zm0 8.332a5.527 5.527 0 0 1-5.52-5.522 5.527 5.527 0 0 1 5.52-5.52 5.527 5.527 0 0 1 5.52 5.52 5.527 5.527 0 0 1-5.52 5.522zM63.342 111.555a2.814 2.814 0 0 0-2.813 2.81 2.816 2.816 0 0 0 2.813 2.812c1.55 0 2.81-1.262 2.81-2.812 0-1.55-1.26-2.81-2.81-2.81zm0 8.332a5.528 5.528 0 0 1-5.523-5.522 5.528 5.528 0 0 1 5.523-5.52 5.527 5.527 0 0 1 5.52 5.52 5.527 5.527 0 0 1-5.52 5.522z" fill="#151933"/><path d="M90.414 42.402a1.353 1.353 0 0 1-1.355-1.355v-8.644a1.355 1.355 0 0 1 2.71 0v8.644c0 .751-.606 1.355-1.355 1.355zM101.993 42.402c-.75 0-1.355-.604-1.355-1.355v-8.644a1.354 1.354 0 1 1 2.71 0v8.644c0 .751-.607 1.355-1.355 1.355zM113.572 42.402a1.353 1.353 0 0 1-1.355-1.355v-8.644a1.355 1.355 0 1 1 2.71 0v8.644c0 .751-.606 1.355-1.355 1.355zM125.151 42.402c-.75 0-1.355-.604-1.355-1.355v-8.644a1.354 1.354 0 1 1 2.71 0v8.644c0 .751-.607 1.355-1.355 1.355zM136.726 42.402a1.353 1.353 0 0 1-1.355-1.355v-8.644a1.355 1.355 0 1 1 2.709 0v8.644c0 .751-.605 1.355-1.354 1.355zM401.941 345.886c-.19 0-.382-.041-.564-.125-9.519-4.382-15.668-13.983-15.668-24.456 0-14.842 12.072-26.914 26.911-26.914 14.839 0 26.911 12.072 26.911 26.914a1.355 1.355 0 0 1-2.709 0c0-13.346-10.856-24.204-24.202-24.204-13.346 0-24.201 10.858-24.201 24.204 0 9.419 5.53 18.053 14.091 21.996a1.355 1.355 0 0 1-.569 2.585z" fill="#151933"/><path d="M438.433 323.196a1.35 1.35 0 0 1-.791-.252l-5.894-4.232a1.355 1.355 0 0 1-.309-1.892 1.35 1.35 0 0 1 1.889-.312l4.915 3.529 4.079-4.477a1.354 1.354 0 1 1 2.002 1.821l-4.891 5.374a1.349 1.349 0 0 1-1 .441zM412.798 320.78a1.355 1.355 0 0 1-1.355-1.355v-13.186c0-.751.607-1.355 1.355-1.355.75 0 1.355.604 1.355 1.355v13.186c0 .748-.605 1.355-1.355 1.355zM427.734 325.923h-10.558a1.354 1.354 0 1 1 0-2.709h10.558a1.355 1.355 0 0 1 0 2.709z" fill="#151933"/><path d="M412.799 321.544a3.029 3.029 0 0 0-3.025 3.024 3.028 3.028 0 0 0 3.025 3.024 3.027 3.027 0 0 0 3.024-3.024 3.029 3.029 0 0 0-3.024-3.024zm0 8.758a5.741 5.741 0 0 1-5.734-5.734 5.74 5.74 0 0 1 5.734-5.734 5.74 5.74 0 0 1 5.734 5.734 5.74 5.74 0 0 1-5.734 5.734zM197.336 336.212h-36.305a1.355 1.355 0 1 1 0-2.71h36.305a1.355 1.355 0 0 1 0 2.71zM140.532 336.212h-36.32a1.354 1.354 0 1 1 0-2.71h36.32a1.355 1.355 0 1 1 0 2.71zM150.355 327.071a1.355 1.355 0 0 1-1.355-1.354v-49.108a1.355 1.355 0 1 1 2.71 0v49.108c0 .747-.606 1.354-1.355 1.354zM144.531 328.991a1.35 1.35 0 0 1-.988-.428l-21.881-23.346a1.355 1.355 0 0 1 1.977-1.853l21.881 23.345a1.356 1.356 0 0 1-.989 2.282zM121.756 293.955a1.353 1.353 0 0 1-1.035-2.227l17.68-20.928a1.351 1.351 0 0 1 1.908-.163c.572.485.644 1.339.161 1.911l-17.678 20.928a1.35 1.35 0 0 1-1.036.479zM94.204 326.573a1.357 1.357 0 0 1-1.034-2.23l17.693-20.944a1.35 1.35 0 0 1 1.909-.16c.572.482.644 1.336.16 1.908l-17.693 20.947a1.346 1.346 0 0 1-1.035.479z" fill="#151933"/><path d="M93.528 326.574c-4.683 0-8.492 3.81-8.492 8.492 0 4.683 3.809 8.493 8.492 8.493 4.683 0 8.493-3.81 8.493-8.493 0-4.682-3.81-8.492-8.493-8.492zm0 19.695c-6.177 0-11.201-5.024-11.201-11.203 0-6.175 5.025-11.202 11.201-11.202 6.178 0 11.203 5.027 11.203 11.202 0 6.179-5.025 11.203-11.203 11.203zM180.385 294.416c-.39 0-.775-.166-1.044-.488l-18.372-22.047a1.36 1.36 0 0 1 .174-1.911 1.361 1.361 0 0 1 1.91.174l18.372 22.05a1.354 1.354 0 0 1-1.04 2.222zM207.184 326.573c-.39 0-.774-.165-1.043-.487l-17.771-21.327a1.352 1.352 0 0 1 .173-1.907 1.358 1.358 0 0 1 1.909.173l17.771 21.326a1.353 1.353 0 0 1-1.039 2.222zM156.196 328.991a1.352 1.352 0 0 1-.955-2.314l23.496-23.365a1.354 1.354 0 1 1 1.911 1.922l-23.497 23.364a1.35 1.35 0 0 1-.955.393zM117.35 293.622a5.472 5.472 0 0 0-5.464 5.466 5.471 5.471 0 0 0 5.464 5.463 5.47 5.47 0 0 0 5.465-5.463 5.472 5.472 0 0 0-5.465-5.466zm0 13.639c-4.508 0-8.174-3.667-8.174-8.173 0-4.509 3.666-8.175 8.174-8.175 4.508 0 8.175 3.666 8.175 8.175 0 4.506-3.667 8.173-8.175 8.173z" fill="#151933"/><path d="M185.109 293.142a5.47 5.47 0 0 0-5.464 5.463 5.472 5.472 0 0 0 5.464 5.466 5.473 5.473 0 0 0 5.465-5.466 5.47 5.47 0 0 0-5.465-5.463zm0 13.639c-4.508 0-8.174-3.667-8.174-8.176 0-4.506 3.666-8.173 8.174-8.173 4.508 0 8.175 3.667 8.175 8.173 0 4.509-3.667 8.176-8.175 8.176zM150.356 243.268c-8.562 0-15.53 6.97-15.53 15.533 0 8.563 6.968 15.53 15.53 15.53 8.564 0 15.531-6.967 15.531-15.53 0-8.563-6.967-15.533-15.531-15.533zm0 33.772c-10.058 0-18.24-8.183-18.24-18.239 0-10.059 8.182-18.243 18.24-18.243 10.058 0 18.241 8.184 18.241 18.243 0 10.056-8.183 18.239-18.241 18.239zM207.182 326.574c-4.682 0-8.492 3.81-8.492 8.492 0 4.683 3.81 8.493 8.492 8.493 4.683 0 8.492-3.81 8.492-8.493 0-4.682-3.809-8.492-8.492-8.492zm0 19.695c-6.177 0-11.202-5.024-11.202-11.203 0-6.175 5.025-11.202 11.202-11.202 6.176 0 11.202 5.027 11.202 11.202 0 6.179-5.026 11.203-11.202 11.203zM150.355 327.072c-4.682 0-8.492 3.807-8.492 8.49 0 4.682 3.81 8.492 8.492 8.492 4.683 0 8.492-3.81 8.492-8.492 0-4.683-3.809-8.49-8.492-8.49zm0 19.692c-6.177 0-11.201-5.024-11.201-11.202 0-6.176 5.024-11.2 11.201-11.2 6.176 0 11.202 5.024 11.202 11.2 0 6.178-5.026 11.202-11.202 11.202z" fill="#151933"/><path d="M30.36 143.032a4.655 4.655 0 0 0-4.65 4.65 4.653 4.653 0 0 0 4.65 4.647 4.653 4.653 0 0 0 4.65-4.647 4.655 4.655 0 0 0-4.65-4.65zm0 12.007c-4.058 0-7.359-3.301-7.359-7.357 0-4.057 3.3-7.36 7.359-7.36 4.058 0 7.36 3.303 7.36 7.36 0 4.056-3.302 7.357-7.36 7.357zM466.164 212.893a4.654 4.654 0 0 0-4.648 4.651 4.654 4.654 0 0 0 4.648 4.65 4.657 4.657 0 0 0 4.65-4.65 4.657 4.657 0 0 0-4.65-4.651zm0 12.01c-4.057 0-7.357-3.303-7.357-7.359 0-4.057 3.3-7.36 7.357-7.36 4.059 0 7.36 3.303 7.36 7.36 0 4.056-3.301 7.359-7.36 7.359zM416.125 14.819a4.656 4.656 0 0 0-4.65 4.647 4.655 4.655 0 0 0 4.65 4.65 4.654 4.654 0 0 0 4.65-4.65 4.655 4.655 0 0 0-4.65-4.647zm0 12.007c-4.056 0-7.359-3.3-7.359-7.36 0-4.056 3.303-7.357 7.359-7.357 4.057 0 7.36 3.3 7.36 7.357 0 4.06-3.303 7.36-7.36 7.36zM355.013 347.607a4.049 4.049 0 0 0-2.872 1.187l-6.469 6.468a4.069 4.069 0 0 0 0 5.748l6.469 6.468c1.536 1.537 4.216 1.534 5.747 0l6.468-6.468a4.04 4.04 0 0 0 1.19-2.873 4.04 4.04 0 0 0-1.19-2.875l-6.468-6.468a4.052 4.052 0 0 0-2.875-1.187zm0 23.771a6.725 6.725 0 0 1-4.788-1.984l-6.469-6.468c-2.639-2.64-2.639-6.937 0-9.579l6.469-6.469c2.639-2.639 6.937-2.639 9.582 0l6.465 6.469a6.73 6.73 0 0 1 1.984 4.79c0 1.811-.705 3.51-1.984 4.789l-6.465 6.468a6.744 6.744 0 0 1-4.794 1.984zM53.158 278.534a4.029 4.029 0 0 0-2.874 1.192l-6.467 6.466a4.07 4.07 0 0 0 0 5.747l6.467 6.469c1.535 1.533 4.213 1.533 5.748 0l6.468-6.469a4.068 4.068 0 0 0 0-5.747l-6.468-6.466a4.028 4.028 0 0 0-2.874-1.192zm0 23.773a6.729 6.729 0 0 1-4.79-1.984l-6.467-6.468c-2.64-2.639-2.64-6.94 0-9.579l6.467-6.469c2.557-2.558 7.024-2.558 9.58 0l6.468 6.469c2.64 2.639 2.64 6.94 0 9.579l-6.468 6.468a6.727 6.727 0 0 1-4.79 1.984zM461.762 247.618a4.042 4.042 0 0 0-2.875 1.189l-6.466 6.469a4.067 4.067 0 0 0 0 5.747l6.466 6.466c1.536 1.536 4.213 1.536 5.75 0l6.466-6.466a4.067 4.067 0 0 0 0-5.747l-6.466-6.469a4.045 4.045 0 0 0-2.875-1.189zm0 23.773a6.723 6.723 0 0 1-4.791-1.987l-6.466-6.465c-2.639-2.639-2.639-6.94 0-9.579l6.466-6.469c2.558-2.558 7.024-2.558 9.582 0l6.465 6.469a6.777 6.777 0 0 1 0 9.579l-6.465 6.465a6.723 6.723 0 0 1-4.791 1.987z" fill="#FA8F45"/><path d="M14.903 220.616a1.35 1.35 0 0 1-.832-.284L.521 209.755a1.352 1.352 0 0 1 .04-2.165l13.548-9.809a1.353 1.353 0 0 1 1.892.303c.44.607.305 1.453-.302 1.892l-12.09 8.752 12.128 9.466a1.354 1.354 0 0 1-.834 2.422zM443.324 137.22a4.4 4.4 0 1 1 .001 8.8 4.4 4.4 0 0 1-.001-8.8zM8.13 111.47a4.4 4.4 0 1 1 0 8.8 4.4 4.4 0 0 1 0-8.8zM282.126 2.704a4.4 4.4 0 0 1 0 8.801 4.4 4.4 0 0 1-4.398-4.4 4.4 4.4 0 0 1 4.398-4.401zM128.092 170.514a4.4 4.4 0 1 1 0 8.8 4.4 4.4 0 0 1 0-8.8zM78.751 361.419a4.4 4.4 0 1 1 0 8.8 4.4 4.4 0 0 1 0-8.8zM94.666 187.186a1.37 1.37 0 0 1-.774-.244l-8.401-5.864a1.356 1.356 0 0 1 1.55-2.225l8.402 5.864a1.36 1.36 0 0 1 .337 1.889 1.36 1.36 0 0 1-1.114.58zM81.086 174.384c-.75 0-1.355-.607-1.355-1.355v-9.032a1.355 1.355 0 1 1 2.71 0v9.032c0 .748-.607 1.355-1.355 1.355zM67.507 187.186a1.356 1.356 0 0 1-.777-2.469l8.403-5.864a1.355 1.355 0 0 1 1.55 2.225l-8.402 5.864a1.368 1.368 0 0 1-.774.244zM295.945 349.965a1.354 1.354 0 0 1-1.355-1.355v-13.55a1.355 1.355 0 0 1 2.71 0v13.55c0 .748-.607 1.355-1.355 1.355zm-148.299 18.808a1.355 1.355 0 0 1-1.355-1.355v-13.549a1.354 1.354 0 1 1 2.709 0v13.549c0 .748-.605 1.355-1.354 1.355zm22.582 4.515h-13.549a1.355 1.355 0 0 1 0-2.71h13.549a1.355 1.355 0 1 1 0 2.71zm27.098 0h-13.549a1.355 1.355 0 0 1 0-2.71h13.549a1.354 1.354 0 1 1 0 2.71zm27.099 0h-13.55a1.355 1.355 0 0 1 0-2.71h13.55c.749 0 1.354.607 1.354 1.355 0 .751-.605 1.355-1.354 1.355zm27.098 0h-13.549a1.355 1.355 0 1 1 0-2.71h13.549a1.355 1.355 0 0 1 0 2.71zm27.098 0h-13.549a1.355 1.355 0 0 1 0-2.71h13.549a1.355 1.355 0 0 1 0 2.71zm17.324 0h-3.775a1.355 1.355 0 0 1 0-2.71h2.42v-8.419a1.355 1.355 0 0 1 2.71 0v9.774c0 .751-.607 1.355-1.355 1.355zM201.385 40.376h-13.549a1.354 1.354 0 1 1 0-2.71h13.549a1.354 1.354 0 1 1 0 2.71zm27.099 0h-13.549a1.355 1.355 0 1 1 0-2.71h13.549a1.355 1.355 0 1 1 0 2.71zm27.098 0h-13.549a1.355 1.355 0 1 1 0-2.71h13.549a1.355 1.355 0 0 1 0 2.71zm27.098 0h-13.549a1.354 1.354 0 1 1 0-2.71h13.549a1.355 1.355 0 0 1 0 2.71zm14.232 12.866a1.354 1.354 0 0 1-1.355-1.355v-11.69a1.355 1.355 0 0 1 .672-2.531h.683c.748 0 1.355.607 1.355 1.355v12.866c0 .75-.607 1.355-1.355 1.355z" fill="#151933"/></svg>