<?xml version="1.0" encoding="UTF-8" standalone="no"?>
<!DOCTYPE svg PUBLIC "-//W3C//DTD SVG 1.1//EN" "http://www.w3.org/Graphics/SVG/1.1/DTD/svg11.dtd">
<svg width="100%" height="100%" viewBox="0 0 1919 370" version="1.1" xmlns="http://www.w3.org/2000/svg" xmlns:xlink="http://www.w3.org/1999/xlink" xml:space="preserve" xmlns:serif="http://www.serif.com/" style="fill-rule:evenodd;clip-rule:evenodd;stroke-linejoin:round;stroke-miterlimit:2;">
    <g transform="matrix(0.894064,0,0,0.894064,-35.0341,-1439.26)">
        <g id="LOGO">
            <g id="TDT-Logo--RGB--2022" serif:id="TDT-Logo (RGB) 2022">
                <g id="Claim" transform="matrix(2.59515,0,0,2.59515,-3853.53,-761.719)">
                    <g transform="matrix(0.796543,0,0,0.794852,1662.07,850.936)">
                        <path d="M390.02,227.427C386.62,227.427 383.645,226.694 381.095,225.227C378.545,223.76 376.587,221.66 375.22,218.927C373.853,216.194 373.17,212.994 373.17,209.327C373.17,205.66 373.853,202.469 375.22,199.752C376.587,197.035 378.545,194.944 381.095,193.477C383.645,192.01 386.62,191.277 390.02,191.277C392.22,191.277 394.287,191.602 396.22,192.252C398.153,192.902 399.87,193.844 401.37,195.077C401.803,195.41 402.103,195.76 402.27,196.127C402.437,196.494 402.52,196.944 402.52,197.477C402.52,198.21 402.32,198.827 401.92,199.327C401.52,199.827 401.037,200.077 400.47,200.077C399.803,200.077 399.12,199.844 398.42,199.377C396.987,198.31 395.653,197.569 394.42,197.152C393.187,196.735 391.82,196.527 390.32,196.527C386.853,196.527 384.228,197.61 382.445,199.777C380.662,201.944 379.77,205.127 379.77,209.327C379.77,213.56 380.662,216.76 382.445,218.927C384.228,221.094 386.853,222.177 390.32,222.177C391.753,222.177 393.078,221.96 394.295,221.527C395.512,221.094 396.887,220.36 398.42,219.327C398.753,219.127 399.087,218.96 399.42,218.827C399.753,218.694 400.103,218.627 400.47,218.627C401.037,218.627 401.52,218.877 401.92,219.377C402.32,219.877 402.52,220.494 402.52,221.227C402.52,221.727 402.437,222.169 402.27,222.552C402.103,222.935 401.803,223.294 401.37,223.627C399.87,224.86 398.153,225.802 396.22,226.452C394.287,227.102 392.22,227.427 390.02,227.427Z" style="fill:rgb(0,69,161);fill-rule:nonzero;"/>
                        <path d="M426.27,227.427C422.837,227.427 419.862,226.694 417.345,225.227C414.828,223.76 412.887,221.66 411.52,218.927C410.153,216.194 409.47,212.994 409.47,209.327C409.47,205.66 410.145,202.469 411.495,199.752C412.845,197.035 414.787,194.944 417.32,193.477C419.853,192.01 422.837,191.277 426.27,191.277C429.703,191.277 432.678,192.01 435.195,193.477C437.712,194.944 439.645,197.035 440.995,199.752C442.345,202.469 443.02,205.66 443.02,209.327C443.02,212.994 442.337,216.194 440.97,218.927C439.603,221.66 437.662,223.76 435.145,225.227C432.628,226.694 429.67,227.427 426.27,227.427ZM426.27,222.277C429.503,222.277 432.028,221.16 433.845,218.927C435.662,216.694 436.57,213.494 436.57,209.327C436.57,205.16 435.662,201.969 433.845,199.752C432.028,197.535 429.503,196.427 426.27,196.427C423.003,196.427 420.462,197.535 418.645,199.752C416.828,201.969 415.92,205.16 415.92,209.327C415.92,213.494 416.828,216.694 418.645,218.927C420.462,221.16 423.003,222.277 426.27,222.277Z" style="fill:rgb(0,69,161);fill-rule:nonzero;"/>
                        <path d="M483.87,191.477C484.803,191.477 485.553,191.769 486.12,192.352C486.687,192.935 486.97,193.71 486.97,194.677L486.97,224.277C486.97,225.21 486.703,225.944 486.17,226.477C485.637,227.01 484.937,227.277 484.07,227.277C483.203,227.277 482.52,227.01 482.02,226.477C481.52,225.944 481.27,225.21 481.27,224.277L481.27,203.677L472.77,219.777C472.37,220.51 471.937,221.052 471.47,221.402C471.003,221.752 470.453,221.927 469.82,221.927C469.187,221.927 468.637,221.76 468.17,221.427C467.703,221.094 467.27,220.544 466.87,219.777L458.32,203.927L458.32,224.277C458.32,225.177 458.062,225.902 457.545,226.452C457.028,227.002 456.337,227.277 455.47,227.277C454.603,227.277 453.92,227.01 453.42,226.477C452.92,225.944 452.67,225.21 452.67,224.277L452.67,194.677C452.67,193.71 452.945,192.935 453.495,192.352C454.045,191.769 454.787,191.477 455.72,191.477C457.02,191.477 458.037,192.194 458.77,193.627L469.87,214.777L480.92,193.627C481.653,192.194 482.637,191.477 483.87,191.477Z" style="fill:rgb(0,69,161);fill-rule:nonzero;"/>
                        <path d="M528.97,191.477C529.903,191.477 530.653,191.769 531.22,192.352C531.787,192.935 532.07,193.71 532.07,194.677L532.07,224.277C532.07,225.21 531.803,225.944 531.27,226.477C530.737,227.01 530.037,227.277 529.17,227.277C528.303,227.277 527.62,227.01 527.12,226.477C526.62,225.944 526.37,225.21 526.37,224.277L526.37,203.677L517.87,219.777C517.47,220.51 517.037,221.052 516.57,221.402C516.103,221.752 515.553,221.927 514.92,221.927C514.287,221.927 513.737,221.76 513.27,221.427C512.803,221.094 512.37,220.544 511.97,219.777L503.42,203.927L503.42,224.277C503.42,225.177 503.162,225.902 502.645,226.452C502.128,227.002 501.437,227.277 500.57,227.277C499.703,227.277 499.02,227.01 498.52,226.477C498.02,225.944 497.77,225.21 497.77,224.277L497.77,194.677C497.77,193.71 498.045,192.935 498.595,192.352C499.145,191.769 499.887,191.477 500.82,191.477C502.12,191.477 503.137,192.194 503.87,193.627L514.97,214.777L526.02,193.627C526.753,192.194 527.737,191.477 528.97,191.477Z" style="fill:rgb(0,69,161);fill-rule:nonzero;"/>
                        <path d="M557.32,227.427C552.487,227.427 548.82,226.177 546.32,223.677C543.82,221.177 542.57,217.527 542.57,212.727L542.57,194.677C542.57,193.71 542.853,192.935 543.42,192.352C543.987,191.769 544.753,191.477 545.72,191.477C546.687,191.477 547.453,191.769 548.02,192.352C548.587,192.935 548.87,193.71 548.87,194.677L548.87,213.077C548.87,216.11 549.587,218.402 551.02,219.952C552.453,221.502 554.553,222.277 557.32,222.277C560.053,222.277 562.137,221.494 563.57,219.927C565.003,218.36 565.72,216.077 565.72,213.077L565.72,194.677C565.72,193.71 566.003,192.935 566.57,192.352C567.137,191.769 567.903,191.477 568.87,191.477C569.837,191.477 570.603,191.769 571.17,192.352C571.737,192.935 572.02,193.71 572.02,194.677L572.02,212.727C572.02,217.494 570.77,221.135 568.27,223.652C565.77,226.169 562.12,227.427 557.32,227.427Z" style="fill:rgb(0,69,161);fill-rule:nonzero;"/>
                        <path d="M609.17,191.477C610.103,191.477 610.845,191.769 611.395,192.352C611.945,192.935 612.22,193.71 612.22,194.677L612.22,224.027C612.22,224.994 611.937,225.777 611.37,226.377C610.803,226.977 610.07,227.277 609.17,227.277C608.103,227.277 607.287,226.894 606.72,226.127L588.47,202.377L588.47,224.027C588.47,224.994 588.203,225.777 587.67,226.377C587.137,226.977 586.403,227.277 585.47,227.277C584.537,227.277 583.803,226.977 583.27,226.377C582.737,225.777 582.47,224.994 582.47,224.027L582.47,194.677C582.47,193.71 582.753,192.935 583.32,192.352C583.887,191.769 584.637,191.477 585.57,191.477C586.603,191.477 587.403,191.86 587.97,192.627L606.17,216.277L606.17,194.677C606.17,193.71 606.445,192.935 606.995,192.352C607.545,191.769 608.27,191.477 609.17,191.477Z" style="fill:rgb(0,69,161);fill-rule:nonzero;"/>
                        <path d="M626.07,227.277C625.103,227.277 624.328,226.977 623.745,226.377C623.162,225.777 622.87,224.994 622.87,224.027L622.87,194.677C622.87,193.71 623.162,192.935 623.745,192.352C624.328,191.769 625.103,191.477 626.07,191.477C627.07,191.477 627.862,191.769 628.445,192.352C629.028,192.935 629.32,193.71 629.32,194.677L629.32,224.027C629.32,224.994 629.028,225.777 628.445,226.377C627.862,226.977 627.07,227.277 626.07,227.277Z" style="fill:rgb(0,69,161);fill-rule:nonzero;"/>
                        <path d="M655.72,227.427C652.32,227.427 649.345,226.694 646.795,225.227C644.245,223.76 642.287,221.66 640.92,218.927C639.553,216.194 638.87,212.994 638.87,209.327C638.87,205.66 639.553,202.469 640.92,199.752C642.287,197.035 644.245,194.944 646.795,193.477C649.345,192.01 652.32,191.277 655.72,191.277C657.92,191.277 659.987,191.602 661.92,192.252C663.853,192.902 665.57,193.844 667.07,195.077C667.503,195.41 667.803,195.76 667.97,196.127C668.137,196.494 668.22,196.944 668.22,197.477C668.22,198.21 668.02,198.827 667.62,199.327C667.22,199.827 666.737,200.077 666.17,200.077C665.503,200.077 664.82,199.844 664.12,199.377C662.687,198.31 661.353,197.569 660.12,197.152C658.887,196.735 657.52,196.527 656.02,196.527C652.553,196.527 649.928,197.61 648.145,199.777C646.362,201.944 645.47,205.127 645.47,209.327C645.47,213.56 646.362,216.76 648.145,218.927C649.928,221.094 652.553,222.177 656.02,222.177C657.453,222.177 658.778,221.96 659.995,221.527C661.212,221.094 662.587,220.36 664.12,219.327C664.453,219.127 664.787,218.96 665.12,218.827C665.453,218.694 665.803,218.627 666.17,218.627C666.737,218.627 667.22,218.877 667.62,219.377C668.02,219.877 668.22,220.494 668.22,221.227C668.22,221.727 668.137,222.169 667.97,222.552C667.803,222.935 667.503,223.294 667.07,223.627C665.57,224.86 663.853,225.802 661.92,226.452C659.987,227.102 657.92,227.427 655.72,227.427Z" style="fill:rgb(0,69,161);fill-rule:nonzero;"/>
                        <path d="M708.22,223.127C708.42,223.56 708.52,223.994 708.52,224.427C708.52,225.194 708.212,225.844 707.595,226.377C706.978,226.91 706.27,227.177 705.47,227.177C704.937,227.177 704.437,227.035 703.97,226.752C703.503,226.469 703.137,226.027 702.87,225.427L699.87,218.727L682.27,218.727L679.27,225.427C679.003,226.027 678.637,226.469 678.17,226.752C677.703,227.035 677.187,227.177 676.62,227.177C675.853,227.177 675.153,226.91 674.52,226.377C673.887,225.844 673.57,225.194 673.57,224.427C673.57,223.994 673.67,223.56 673.87,223.127L687.67,193.477C687.97,192.81 688.428,192.302 689.045,191.952C689.662,191.602 690.32,191.427 691.02,191.427C691.72,191.427 692.378,191.602 692.995,191.952C693.612,192.302 694.07,192.81 694.37,193.477L708.22,223.127ZM684.47,213.727L697.67,213.727L691.07,198.877L684.47,213.727Z" style="fill:rgb(0,69,161);fill-rule:nonzero;"/>
                        <path d="M723.62,227.227C722.62,227.227 721.828,226.935 721.245,226.352C720.662,225.769 720.37,224.994 720.37,224.027L720.37,197.027L711.27,197.027C709.27,197.027 708.27,196.144 708.27,194.377C708.27,192.61 709.27,191.727 711.27,191.727L735.92,191.727C737.92,191.727 738.92,192.61 738.92,194.377C738.92,196.144 737.92,197.027 735.92,197.027L726.82,197.027L726.82,224.027C726.82,224.994 726.528,225.769 725.945,226.352C725.362,226.935 724.587,227.227 723.62,227.227Z" style="fill:rgb(0,69,161);fill-rule:nonzero;"/>
                        <path d="M748.97,227.277C748.003,227.277 747.228,226.977 746.645,226.377C746.062,225.777 745.77,224.994 745.77,224.027L745.77,194.677C745.77,193.71 746.062,192.935 746.645,192.352C747.228,191.769 748.003,191.477 748.97,191.477C749.97,191.477 750.762,191.769 751.345,192.352C751.928,192.935 752.22,193.71 752.22,194.677L752.22,224.027C752.22,224.994 751.928,225.777 751.345,226.377C750.762,226.977 749.97,227.277 748.97,227.277Z" style="fill:rgb(0,69,161);fill-rule:nonzero;"/>
                        <path d="M778.57,227.427C775.137,227.427 772.162,226.694 769.645,225.227C767.128,223.76 765.187,221.66 763.82,218.927C762.453,216.194 761.77,212.994 761.77,209.327C761.77,205.66 762.445,202.469 763.795,199.752C765.145,197.035 767.087,194.944 769.62,193.477C772.153,192.01 775.137,191.277 778.57,191.277C782.003,191.277 784.978,192.01 787.495,193.477C790.012,194.944 791.945,197.035 793.295,199.752C794.645,202.469 795.32,205.66 795.32,209.327C795.32,212.994 794.637,216.194 793.27,218.927C791.903,221.66 789.962,223.76 787.445,225.227C784.928,226.694 781.97,227.427 778.57,227.427ZM778.57,222.277C781.803,222.277 784.328,221.16 786.145,218.927C787.962,216.694 788.87,213.494 788.87,209.327C788.87,205.16 787.962,201.969 786.145,199.752C784.328,197.535 781.803,196.427 778.57,196.427C775.303,196.427 772.762,197.535 770.945,199.752C769.128,201.969 768.22,205.16 768.22,209.327C768.22,213.494 769.128,216.694 770.945,218.927C772.762,221.16 775.303,222.277 778.57,222.277Z" style="fill:rgb(0,69,161);fill-rule:nonzero;"/>
                        <path d="M831.57,191.477C832.503,191.477 833.245,191.769 833.795,192.352C834.345,192.935 834.62,193.71 834.62,194.677L834.62,224.027C834.62,224.994 834.337,225.777 833.77,226.377C833.203,226.977 832.47,227.277 831.57,227.277C830.503,227.277 829.687,226.894 829.12,226.127L810.87,202.377L810.87,224.027C810.87,224.994 810.603,225.777 810.07,226.377C809.537,226.977 808.803,227.277 807.87,227.277C806.937,227.277 806.203,226.977 805.67,226.377C805.137,225.777 804.87,224.994 804.87,224.027L804.87,194.677C804.87,193.71 805.153,192.935 805.72,192.352C806.287,191.769 807.037,191.477 807.97,191.477C809.003,191.477 809.803,191.86 810.37,192.627L828.57,216.277L828.57,194.677C828.57,193.71 828.845,192.935 829.395,192.352C829.945,191.769 830.67,191.477 831.57,191.477Z" style="fill:rgb(0,69,161);fill-rule:nonzero;"/>
                    </g>
                    <g transform="matrix(0.795767,0,0,0.795735,1664.27,802.876)">
                        <path d="M396.87,192.277C397.27,191.777 397.753,191.527 398.32,191.527C398.787,191.527 399.203,191.71 399.57,192.077C399.937,192.444 400.12,192.894 400.12,193.427C400.12,193.927 399.97,194.344 399.67,194.677L387.52,210.027L387.52,225.127C387.52,225.794 387.328,226.31 386.945,226.677C386.562,227.044 386.07,227.227 385.47,227.227C384.87,227.227 384.378,227.044 383.995,226.677C383.612,226.31 383.42,225.794 383.42,225.127L383.42,209.977L371.27,194.677C370.937,194.31 370.77,193.894 370.77,193.427C370.77,192.894 370.962,192.444 371.345,192.077C371.728,191.71 372.17,191.527 372.67,191.527C373.237,191.527 373.72,191.777 374.12,192.277L385.52,206.827L396.87,192.277Z" style="fill:rgb(0,69,161);fill-rule:nonzero;"/>
                        <path d="M410.57,227.327C408.27,227.327 406.245,226.81 404.495,225.777C402.745,224.744 401.395,223.269 400.445,221.352C399.495,219.435 399.02,217.21 399.02,214.677C399.02,212.144 399.495,209.919 400.445,208.002C401.395,206.085 402.745,204.61 404.495,203.577C406.245,202.544 408.27,202.027 410.57,202.027C412.87,202.027 414.903,202.544 416.67,203.577C418.437,204.61 419.795,206.085 420.745,208.002C421.695,209.919 422.17,212.144 422.17,214.677C422.17,217.21 421.695,219.435 420.745,221.352C419.795,223.269 418.437,224.744 416.67,225.777C414.903,226.81 412.87,227.327 410.57,227.327ZM410.57,223.977C412.97,223.977 414.812,223.185 416.095,221.602C417.378,220.019 418.02,217.71 418.02,214.677C418.02,211.71 417.37,209.419 416.07,207.802C414.77,206.185 412.937,205.377 410.57,205.377C408.203,205.377 406.37,206.185 405.07,207.802C403.77,209.419 403.12,211.71 403.12,214.677C403.12,217.677 403.762,219.977 405.045,221.577C406.328,223.177 408.17,223.977 410.57,223.977Z" style="fill:rgb(0,69,161);fill-rule:nonzero;"/>
                        <path d="M446.72,202.127C447.353,202.127 447.845,202.31 448.195,202.677C448.545,203.044 448.72,203.527 448.72,204.127L448.72,225.277C448.72,225.844 448.545,226.31 448.195,226.677C447.845,227.044 447.353,227.227 446.72,227.227C446.12,227.227 445.645,227.052 445.295,226.702C444.945,226.352 444.77,225.894 444.77,225.327L444.77,222.827C444.003,224.294 442.928,225.41 441.545,226.177C440.162,226.944 438.603,227.327 436.87,227.327C433.97,227.327 431.787,226.519 430.32,224.902C428.853,223.285 428.12,220.894 428.12,217.727L428.12,204.127C428.12,203.527 428.303,203.044 428.67,202.677C429.037,202.31 429.537,202.127 430.17,202.127C430.803,202.127 431.295,202.31 431.645,202.677C431.995,203.044 432.17,203.527 432.17,204.127L432.17,217.627C432.17,219.794 432.603,221.385 433.47,222.402C434.337,223.419 435.703,223.927 437.57,223.927C439.703,223.927 441.42,223.235 442.72,221.852C444.02,220.469 444.67,218.644 444.67,216.377L444.67,204.127C444.67,203.527 444.853,203.044 445.22,202.677C445.587,202.31 446.087,202.127 446.72,202.127Z" style="fill:rgb(0,69,161);fill-rule:nonzero;"/>
                        <path d="M468.32,202.127C469.72,202.027 470.42,202.594 470.42,203.827C470.42,204.36 470.27,204.785 469.97,205.102C469.67,205.419 469.153,205.61 468.42,205.677L466.92,205.827C464.687,206.027 463.028,206.819 461.945,208.202C460.862,209.585 460.32,211.21 460.32,213.077L460.32,225.227C460.32,225.894 460.137,226.394 459.77,226.727C459.403,227.06 458.92,227.227 458.32,227.227C457.72,227.227 457.228,227.052 456.845,226.702C456.462,226.352 456.27,225.86 456.27,225.227L456.27,204.127C456.27,203.494 456.47,203.002 456.87,202.652C457.27,202.302 457.753,202.127 458.32,202.127C458.853,202.127 459.303,202.302 459.67,202.652C460.037,203.002 460.22,203.477 460.22,204.077L460.22,206.877C460.92,205.41 461.912,204.294 463.195,203.527C464.478,202.76 465.953,202.31 467.62,202.177L468.32,202.127Z" style="fill:rgb(0,69,161);fill-rule:nonzero;"/>
                        <path d="M505.67,221.327C506.037,221.327 506.353,221.477 506.62,221.777C506.887,222.077 507.02,222.46 507.02,222.927C507.02,223.76 506.437,224.527 505.27,225.227C504.07,225.927 502.803,226.452 501.47,226.802C500.137,227.152 498.837,227.327 497.57,227.327C493.803,227.327 490.828,226.21 488.645,223.977C486.462,221.744 485.37,218.66 485.37,214.727C485.37,212.227 485.853,210.019 486.82,208.102C487.787,206.185 489.145,204.694 490.895,203.627C492.645,202.56 494.637,202.027 496.87,202.027C500.037,202.027 502.553,203.06 504.42,205.127C506.287,207.194 507.22,209.994 507.22,213.527C507.22,214.194 507.087,214.677 506.82,214.977C506.553,215.277 506.12,215.427 505.52,215.427L489.42,215.427C489.72,221.16 492.437,224.027 497.57,224.027C498.87,224.027 499.987,223.852 500.92,223.502C501.853,223.152 502.853,222.677 503.92,222.077C504.787,221.577 505.37,221.327 505.67,221.327ZM496.92,205.177C494.787,205.177 493.078,205.844 491.795,207.177C490.512,208.51 489.753,210.394 489.52,212.827L503.67,212.827C503.603,210.36 502.987,208.469 501.82,207.152C500.653,205.835 499.02,205.177 496.92,205.177Z" style="fill:rgb(0,69,161);fill-rule:nonzero;"/>
                        <path d="M532.82,223.877C533.22,224.277 533.42,224.76 533.42,225.327C533.42,225.827 533.237,226.26 532.87,226.627C532.503,226.994 532.07,227.177 531.57,227.177C531.037,227.177 530.553,226.944 530.12,226.477L522.02,217.227L513.97,226.477C513.537,226.944 513.053,227.177 512.52,227.177C512.02,227.177 511.578,226.994 511.195,226.627C510.812,226.26 510.62,225.81 510.62,225.277C510.62,224.777 510.82,224.31 511.22,223.877L519.52,214.527L511.57,205.477C511.17,205.01 510.97,204.544 510.97,204.077C510.97,203.544 511.162,203.094 511.545,202.727C511.928,202.36 512.353,202.177 512.82,202.177C513.353,202.177 513.837,202.41 514.27,202.877L522.02,211.777L529.77,202.877C530.203,202.41 530.687,202.177 531.22,202.177C531.72,202.177 532.153,202.36 532.52,202.727C532.887,203.094 533.07,203.527 533.07,204.027C533.07,204.594 532.87,205.077 532.47,205.477L524.52,214.527L532.82,223.877Z" style="fill:rgb(0,69,161);fill-rule:nonzero;"/>
                        <path d="M550.97,202.027C553.103,202.027 554.987,202.56 556.62,203.627C558.253,204.694 559.52,206.185 560.42,208.102C561.32,210.019 561.77,212.244 561.77,214.777C561.77,217.31 561.32,219.519 560.42,221.402C559.52,223.285 558.262,224.744 556.645,225.777C555.028,226.81 553.137,227.327 550.97,227.327C549.07,227.327 547.412,226.91 545.995,226.077C544.578,225.244 543.503,224.06 542.77,222.527L542.77,234.277C542.77,234.877 542.595,235.352 542.245,235.702C541.895,236.052 541.403,236.227 540.77,236.227C540.137,236.227 539.637,236.044 539.27,235.677C538.903,235.31 538.72,234.844 538.72,234.277L538.72,204.127C538.72,203.527 538.903,203.044 539.27,202.677C539.637,202.31 540.137,202.127 540.77,202.127C541.403,202.127 541.895,202.31 542.245,202.677C542.595,203.044 542.77,203.527 542.77,204.127L542.77,206.827C543.503,205.294 544.578,204.11 545.995,203.277C547.412,202.444 549.07,202.027 550.97,202.027ZM550.17,223.977C552.537,223.977 554.37,223.177 555.67,221.577C556.97,219.977 557.62,217.71 557.62,214.777C557.62,211.844 556.97,209.552 555.67,207.902C554.37,206.252 552.537,205.427 550.17,205.427C547.803,205.427 545.978,206.227 544.695,207.827C543.412,209.427 542.77,211.71 542.77,214.677C542.77,217.644 543.412,219.935 544.695,221.552C545.978,223.169 547.803,223.977 550.17,223.977Z" style="fill:rgb(0,69,161);fill-rule:nonzero;"/>
                        <path d="M586.67,221.327C587.037,221.327 587.353,221.477 587.62,221.777C587.887,222.077 588.02,222.46 588.02,222.927C588.02,223.76 587.437,224.527 586.27,225.227C585.07,225.927 583.803,226.452 582.47,226.802C581.137,227.152 579.837,227.327 578.57,227.327C574.803,227.327 571.828,226.21 569.645,223.977C567.462,221.744 566.37,218.66 566.37,214.727C566.37,212.227 566.853,210.019 567.82,208.102C568.787,206.185 570.145,204.694 571.895,203.627C573.645,202.56 575.637,202.027 577.87,202.027C581.037,202.027 583.553,203.06 585.42,205.127C587.287,207.194 588.22,209.994 588.22,213.527C588.22,214.194 588.087,214.677 587.82,214.977C587.553,215.277 587.12,215.427 586.52,215.427L570.42,215.427C570.72,221.16 573.437,224.027 578.57,224.027C579.87,224.027 580.987,223.852 581.92,223.502C582.853,223.152 583.853,222.677 584.92,222.077C585.787,221.577 586.37,221.327 586.67,221.327ZM577.92,205.177C575.787,205.177 574.078,205.844 572.795,207.177C571.512,208.51 570.753,210.394 570.52,212.827L584.67,212.827C584.603,210.36 583.987,208.469 582.82,207.152C581.653,205.835 580.02,205.177 577.92,205.177Z" style="fill:rgb(0,69,161);fill-rule:nonzero;"/>
                        <path d="M606.22,202.127C607.62,202.027 608.32,202.594 608.32,203.827C608.32,204.36 608.17,204.785 607.87,205.102C607.57,205.419 607.053,205.61 606.32,205.677L604.82,205.827C602.587,206.027 600.928,206.819 599.845,208.202C598.762,209.585 598.22,211.21 598.22,213.077L598.22,225.227C598.22,225.894 598.037,226.394 597.67,226.727C597.303,227.06 596.82,227.227 596.22,227.227C595.62,227.227 595.128,227.052 594.745,226.702C594.362,226.352 594.17,225.86 594.17,225.227L594.17,204.127C594.17,203.494 594.37,203.002 594.77,202.652C595.17,202.302 595.653,202.127 596.22,202.127C596.753,202.127 597.203,202.302 597.57,202.652C597.937,203.002 598.12,203.477 598.12,204.077L598.12,206.877C598.82,205.41 599.812,204.294 601.095,203.527C602.378,202.76 603.853,202.31 605.52,202.177L606.22,202.127Z" style="fill:rgb(0,69,161);fill-rule:nonzero;"/>
                        <path d="M625.02,224.027C626.187,224.127 626.77,224.66 626.77,225.627C626.77,226.194 626.562,226.619 626.145,226.902C625.728,227.185 625.103,227.294 624.27,227.227L622.92,227.127C620.253,226.927 618.287,226.127 617.02,224.727C615.753,223.327 615.12,221.21 615.12,218.377L615.12,205.827L611.77,205.827C611.203,205.827 610.762,205.685 610.445,205.402C610.128,205.119 609.97,204.744 609.97,204.277C609.97,203.777 610.128,203.377 610.445,203.077C610.762,202.777 611.203,202.627 611.77,202.627L615.12,202.627L615.12,196.977C615.12,196.344 615.303,195.852 615.67,195.502C616.037,195.152 616.537,194.977 617.17,194.977C617.77,194.977 618.253,195.152 618.62,195.502C618.987,195.852 619.17,196.344 619.17,196.977L619.17,202.627L624.72,202.627C625.253,202.627 625.678,202.777 625.995,203.077C626.312,203.377 626.47,203.777 626.47,204.277C626.47,204.744 626.312,205.119 625.995,205.402C625.678,205.685 625.253,205.827 624.72,205.827L619.17,205.827L619.17,218.577C619.17,220.41 619.545,221.735 620.295,222.552C621.045,223.369 622.17,223.827 623.67,223.927L625.02,224.027Z" style="fill:rgb(0,69,161);fill-rule:nonzero;"/>
                        <path d="M638.97,227.327C637.437,227.327 635.978,227.144 634.595,226.777C633.212,226.41 631.987,225.894 630.92,225.227C630.32,224.827 629.895,224.452 629.645,224.102C629.395,223.752 629.27,223.327 629.27,222.827C629.27,222.394 629.395,222.035 629.645,221.752C629.895,221.469 630.22,221.327 630.62,221.327C631.02,221.327 631.603,221.577 632.37,222.077C633.37,222.677 634.362,223.152 635.345,223.502C636.328,223.852 637.553,224.027 639.02,224.027C640.82,224.027 642.22,223.71 643.22,223.077C644.22,222.444 644.72,221.527 644.72,220.327C644.72,219.594 644.537,219.002 644.17,218.552C643.803,218.102 643.17,217.702 642.27,217.352C641.37,217.002 640.053,216.644 638.32,216.277C635.387,215.644 633.287,214.794 632.02,213.727C630.753,212.66 630.12,211.21 630.12,209.377C630.12,207.944 630.52,206.677 631.32,205.577C632.12,204.477 633.228,203.61 634.645,202.977C636.062,202.344 637.67,202.027 639.47,202.027C640.77,202.027 642.028,202.202 643.245,202.552C644.462,202.902 645.537,203.394 646.47,204.027C647.603,204.827 648.17,205.66 648.17,206.527C648.17,206.96 648.037,207.327 647.77,207.627C647.503,207.927 647.187,208.077 646.82,208.077C646.42,208.077 645.82,207.794 645.02,207.227C644.087,206.627 643.203,206.16 642.37,205.827C641.537,205.494 640.503,205.327 639.27,205.327C637.703,205.327 636.445,205.677 635.495,206.377C634.545,207.077 634.07,208.01 634.07,209.177C634.07,209.91 634.245,210.502 634.595,210.952C634.945,211.402 635.528,211.802 636.345,212.152C637.162,212.502 638.337,212.844 639.87,213.177C642.137,213.677 643.895,214.227 645.145,214.827C646.395,215.427 647.287,216.16 647.82,217.027C648.353,217.894 648.62,218.994 648.62,220.327C648.62,222.427 647.737,224.119 645.97,225.402C644.203,226.685 641.87,227.327 638.97,227.327Z" style="fill:rgb(0,69,161);fill-rule:nonzero;"/>
                        <path d="M669.72,227.227C669.12,227.227 668.628,227.052 668.245,226.702C667.862,226.352 667.67,225.86 667.67,225.227L667.67,204.127C667.67,203.494 667.862,203.002 668.245,202.652C668.628,202.302 669.12,202.127 669.72,202.127C670.32,202.127 670.803,202.302 671.17,202.652C671.537,203.002 671.72,203.494 671.72,204.127L671.72,225.227C671.72,225.894 671.537,226.394 671.17,226.727C670.803,227.06 670.32,227.227 669.72,227.227ZM669.72,196.877C668.92,196.877 668.27,196.644 667.77,196.177C667.27,195.71 667.02,195.094 667.02,194.327C667.02,193.594 667.27,192.994 667.77,192.527C668.27,192.06 668.92,191.827 669.72,191.827C670.52,191.827 671.17,192.06 671.67,192.527C672.17,192.994 672.42,193.594 672.42,194.327C672.42,195.094 672.17,195.71 671.67,196.177C671.17,196.644 670.52,196.877 669.72,196.877Z" style="fill:rgb(0,69,161);fill-rule:nonzero;"/>
                        <path d="M691.52,202.027C697.353,202.027 700.27,205.244 700.27,211.677L700.27,225.227C700.27,225.86 700.095,226.352 699.745,226.702C699.395,227.052 698.903,227.227 698.27,227.227C697.637,227.227 697.137,227.052 696.77,226.702C696.403,226.352 696.22,225.86 696.22,225.227L696.22,211.927C696.22,209.66 695.778,208.01 694.895,206.977C694.012,205.944 692.603,205.427 690.67,205.427C688.437,205.427 686.653,206.11 685.32,207.477C683.987,208.844 683.32,210.694 683.32,213.027L683.32,225.227C683.32,225.86 683.145,226.352 682.795,226.702C682.445,227.052 681.953,227.227 681.32,227.227C680.687,227.227 680.187,227.052 679.82,226.702C679.453,226.352 679.27,225.86 679.27,225.227L679.27,204.127C679.27,203.527 679.453,203.044 679.82,202.677C680.187,202.31 680.687,202.127 681.32,202.127C681.92,202.127 682.395,202.31 682.745,202.677C683.095,203.044 683.27,203.51 683.27,204.077L683.27,206.627C684.07,205.127 685.187,203.985 686.62,203.202C688.053,202.419 689.687,202.027 691.52,202.027Z" style="fill:rgb(0,69,161);fill-rule:nonzero;"/>
                        <path d="M732.17,227.227C731.17,227.227 730.378,226.935 729.795,226.352C729.212,225.769 728.92,224.994 728.92,224.027L728.92,197.027L719.82,197.027C717.82,197.027 716.82,196.144 716.82,194.377C716.82,192.61 717.82,191.727 719.82,191.727L744.47,191.727C746.47,191.727 747.47,192.61 747.47,194.377C747.47,196.144 746.47,197.027 744.47,197.027L735.37,197.027L735.37,224.027C735.37,224.994 735.078,225.769 734.495,226.352C733.912,226.935 733.137,227.227 732.17,227.227Z" style="fill:rgb(0,69,161);fill-rule:nonzero;"/>
                        <path d="M754.37,226.977C753.403,226.977 752.645,226.71 752.095,226.177C751.545,225.644 751.27,224.894 751.27,223.927L751.27,194.777C751.27,193.81 751.545,193.06 752.095,192.527C752.645,191.994 753.403,191.727 754.37,191.727L772.42,191.727C773.387,191.727 774.137,191.944 774.67,192.377C775.203,192.81 775.47,193.427 775.47,194.227C775.47,195.06 775.203,195.702 774.67,196.152C774.137,196.602 773.387,196.827 772.42,196.827L757.57,196.827L757.57,206.527L771.42,206.527C772.387,206.527 773.137,206.744 773.67,207.177C774.203,207.61 774.47,208.244 774.47,209.077C774.47,209.877 774.203,210.494 773.67,210.927C773.137,211.36 772.387,211.577 771.42,211.577L757.57,211.577L757.57,221.877L772.42,221.877C773.387,221.877 774.137,222.102 774.67,222.552C775.203,223.002 775.47,223.644 775.47,224.477C775.47,225.277 775.203,225.894 774.67,226.327C774.137,226.76 773.387,226.977 772.42,226.977L754.37,226.977Z" style="fill:rgb(0,69,161);fill-rule:nonzero;"/>
                        <path d="M783.77,226.977C782.803,226.977 782.053,226.71 781.52,226.177C780.987,225.644 780.72,224.91 780.72,223.977L780.72,194.677C780.72,193.71 781.012,192.935 781.595,192.352C782.178,191.769 782.953,191.477 783.92,191.477C784.92,191.477 785.712,191.769 786.295,192.352C786.878,192.935 787.17,193.71 787.17,194.677L787.17,221.677L801.22,221.677C803.22,221.677 804.22,222.56 804.22,224.327C804.22,226.094 803.22,226.977 801.22,226.977L783.77,226.977Z" style="fill:rgb(0,69,161);fill-rule:nonzero;"/>
                        <path d="M811.57,226.977C810.603,226.977 809.845,226.71 809.295,226.177C808.745,225.644 808.47,224.894 808.47,223.927L808.47,194.777C808.47,193.81 808.745,193.06 809.295,192.527C809.845,191.994 810.603,191.727 811.57,191.727L829.62,191.727C830.587,191.727 831.337,191.944 831.87,192.377C832.403,192.81 832.67,193.427 832.67,194.227C832.67,195.06 832.403,195.702 831.87,196.152C831.337,196.602 830.587,196.827 829.62,196.827L814.77,196.827L814.77,206.527L828.62,206.527C829.587,206.527 830.337,206.744 830.87,207.177C831.403,207.61 831.67,208.244 831.67,209.077C831.67,209.877 831.403,210.494 830.87,210.927C830.337,211.36 829.587,211.577 828.62,211.577L814.77,211.577L814.77,221.877L829.62,221.877C830.587,221.877 831.337,222.102 831.87,222.552C832.403,223.002 832.67,223.644 832.67,224.477C832.67,225.277 832.403,225.894 831.87,226.327C831.337,226.76 830.587,226.977 829.62,226.977L811.57,226.977Z" style="fill:rgb(0,69,161);fill-rule:nonzero;"/>
                    </g>
                </g>
                <g id="Trenner" transform="matrix(4.16667,0,0,4.16667,39.1853,1605.91)">
                    <rect x="251.867" y="15.108" width="3.636" height="70.866" style="fill:rgb(0,69,161);fill-rule:nonzero;"/>
                </g>
                <g id="Logo" transform="matrix(1,0,0,1,0,732.214)">
                    <g transform="matrix(4.16667,0,0,4.16667,39.1853,874.303)">
                        <path d="M228.355,7.567L228.988,7.567C229.889,7.567 230.448,7.532 230.666,7.463C230.883,7.393 231.055,7.272 231.181,7.098C231.307,6.924 231.37,6.726 231.37,6.505C231.37,6.29 231.309,6.099 231.186,5.932C231.063,5.764 230.888,5.644 230.661,5.571C230.434,5.499 229.877,5.462 228.988,5.462L228.355,5.462L228.355,7.567ZM226.787,11.948L226.787,4.238L228.35,4.238C229.815,4.238 230.636,4.245 230.813,4.257C231.33,4.301 231.733,4.404 232.02,4.565C232.308,4.727 232.548,4.973 232.741,5.305C232.933,5.637 233.029,6.005 233.029,6.41C233.029,6.966 232.848,7.442 232.485,7.837C232.121,8.232 231.61,8.477 230.953,8.572C231.187,8.66 231.368,8.757 231.494,8.861C231.621,8.965 231.795,9.163 232.016,9.454C232.073,9.53 232.263,9.843 232.585,10.393L233.495,11.948L231.562,11.948L230.916,10.696C230.479,9.856 230.12,9.326 229.836,9.108C229.554,8.89 229.195,8.781 228.76,8.781L228.355,8.781L228.355,11.948L226.787,11.948ZM230.076,2.215C229.077,2.215 228.12,2.465 227.204,2.964C226.288,3.464 225.566,4.181 225.038,5.117C224.511,6.053 224.247,7.034 224.247,8.058C224.247,9.076 224.505,10.047 225.019,10.97C225.534,11.893 226.253,12.614 227.176,13.133C228.097,13.652 229.064,13.911 230.076,13.911C231.093,13.911 232.061,13.652 232.98,13.133C233.899,12.614 234.618,11.893 235.136,10.97C235.654,10.047 235.913,9.076 235.913,8.058C235.913,7.034 235.649,6.053 235.122,5.117C234.594,4.181 233.871,3.464 232.952,2.964C232.032,2.465 231.074,2.215 230.076,2.215ZM230.065,0.788C231.31,0.788 232.505,1.1 233.65,1.723C234.794,2.346 235.693,3.24 236.348,4.404C237.002,5.568 237.329,6.786 237.329,8.058C237.329,9.323 237.008,10.53 236.367,11.678C235.725,12.827 234.83,13.722 233.683,14.364C232.536,15.006 231.329,15.327 230.065,15.327C228.8,15.327 227.595,15.006 226.447,14.364C225.299,13.722 224.405,12.827 223.763,11.678C223.121,10.53 222.8,9.323 222.8,8.058C222.8,6.786 223.127,5.568 223.781,4.404C224.436,3.24 225.335,2.346 226.48,1.723C227.624,1.1 228.819,0.788 230.065,0.788Z" style="fill:rgb(0,69,161);fill-rule:nonzero;"/>
                    </g>
                    <g transform="matrix(4.16667,0,0,4.16667,39.1853,874.303)">
                        <path d="M2.147,15.422L12.392,15.422C13.578,15.422 14.539,14.461 14.539,13.275L14.539,3.03C14.539,1.844 13.578,0.883 12.392,0.883L2.147,0.883C0.961,0.883 0,1.844 0,3.03L0,13.275C0,14.461 0.961,15.422 2.147,15.422Z" style="fill:rgb(0,69,161);fill-rule:nonzero;"/>
                    </g>
                    <g transform="matrix(4.16667,0,0,4.16667,39.1853,874.303)">
                        <path d="M18.174,92.744L18.18,92.744C18.187,96.753 21.439,100 25.45,100C29.464,100 32.719,96.746 32.719,92.731C32.719,92.694 32.714,92.658 32.714,92.621L32.714,17.558C32.714,16.377 33.668,15.417 34.85,15.411L59.678,15.339C60.859,15.332 61.814,14.373 61.814,13.192L61.814,3.756C61.814,2.117 60.485,0.788 58.846,0.788L21.142,0.788C19.503,0.788 18.174,2.117 18.174,3.756L18.174,92.744Z" style="fill:rgb(0,69,161);fill-rule:nonzero;"/>
                    </g>
                    <g transform="matrix(4.16667,0,0,4.16667,39.1853,874.303)">
                        <path d="M155.862,15.422L166.107,15.422C167.293,15.422 168.254,14.461 168.254,13.275L168.254,3.03C168.254,1.844 167.293,0.883 166.107,0.883L155.862,0.883C154.676,0.883 153.715,1.844 153.715,3.03L153.715,13.275C153.715,14.461 154.676,15.422 155.862,15.422Z" style="fill:rgb(0,69,161);fill-rule:nonzero;"/>
                    </g>
                    <g transform="matrix(4.16667,0,0,4.16667,39.1853,874.303)">
                        <path d="M171.889,92.744L171.896,92.744C171.903,96.753 175.154,100 179.165,100C183.18,100 186.435,96.746 186.435,92.731C186.435,92.694 186.43,92.658 186.429,92.621L186.429,17.558C186.429,16.377 187.383,15.417 188.565,15.411L213.393,15.339C214.574,15.332 215.529,14.373 215.529,13.192L215.529,3.756C215.529,2.117 214.2,0.788 212.561,0.788L174.857,0.788C173.218,0.788 171.889,2.117 171.889,3.756L171.889,92.744Z" style="fill:rgb(0,69,161);fill-rule:nonzero;"/>
                    </g>
                    <g transform="matrix(4.16667,0,0,4.16667,39.1853,874.303)">
                        <path d="M121.371,7.904C117.823,3.502 115.456,0.918 103.594,0.918C103.545,0.918 84.924,0.892 78.5,0.883C77.311,0.881 76.352,1.845 76.354,3.033L76.362,8.307L76.353,8.307L76.353,79.669C76.353,80.854 77.314,81.816 78.5,81.816L88.745,81.816C89.931,81.816 90.892,80.854 90.892,79.669L90.892,17.571C90.892,16.385 91.856,15.424 93.042,15.424L101.53,15.424C109.584,15.411 109.321,16.737 113.76,23.337C117.222,28.486 128.306,44.574 128.985,45.82C130.593,48.773 130.34,50.75 128.798,53.476C127.744,55.341 113.45,77.455 111.805,79.992C109.104,84.158 108.455,85.466 96.565,85.466C95.439,85.466 94.572,86.464 94.565,87.589C94.556,88.963 94.56,94.684 94.563,97.858C94.564,99.044 95.525,100.001 96.711,100C99.984,99.996 106.09,99.989 108.456,99.989C113.379,99.99 118.013,96.734 120.371,93.35C123.763,88.478 140.885,63.707 142.94,60.01C147.244,53.286 147.582,46.246 143.965,40.519C139.781,33.893 124.738,12.081 121.371,7.904Z" style="fill:rgb(0,69,161);fill-rule:nonzero;"/>
                    </g>
                    <g transform="matrix(4.16667,0,0,4.16667,39.1853,874.303)">
                        <path d="M78.5,99.99L88.745,99.99C89.931,99.99 90.892,99.028 90.892,97.843L90.892,87.598C90.892,86.412 89.931,85.451 88.745,85.451L78.5,85.451C77.314,85.451 76.353,86.412 76.353,87.598L76.353,97.843C76.353,99.028 77.314,99.99 78.5,99.99Z" style="fill:rgb(0,69,161);fill-rule:nonzero;"/>
                    </g>
                </g>
            </g>
        </g>
    </g>
</svg>
