<?xml version="1.0" encoding="utf-8"?>
<!-- Generator: Adobe Illustrator 23.0.1, SVG Export Plug-In . SVG Version: 6.00 Build 0)  -->
<svg version="1.1" id="Livello_1" xmlns="http://www.w3.org/2000/svg" xmlns:xlink="http://www.w3.org/1999/xlink" x="0px" y="0px"
	 viewBox="0 0 250 120" style="enable-background:new 0 0 250 120;" xml:space="preserve">
<style type="text/css">
	.st0{fill:#005190;}
</style>
<g>
	<polygon points="118.9,35.1 118.9,29.9 117.3,29.9 117.3,28.6 120.4,28.6 120.4,35.1 	"/>
	<path d="M124.7,37.4c-0.3,0.2-0.7,0.4-1.1,0.5c-0.6,0.2-1,0.2-2.2,0.2v-1.4c0.2,0,0.4,0,0.6,0c0.9,0,1.2-0.1,1.6-0.3
		c0.5-0.3,0.8-0.8,0.8-1.4c0-1-0.6-1.5-1.8-1.7l-0.9-0.1v-4.5h4.1v1.3h-2.6v1.9l0.6,0.1c1.4,0.2,2.3,1.2,2.3,2.8
		C125.9,35.9,125.5,36.8,124.7,37.4"/>
	<path d="M130.2,29.9c-1.1,0-2,0.9-2,2c0,1.1,0.9,2,2,2c1.1,0,2-0.9,2-2C132.1,30.8,131.2,29.9,130.2,29.9 M130.2,35.4
		c-2,0-3.6-1.6-3.6-3.5c0-1.9,1.6-3.5,3.6-3.5c2,0,3.6,1.5,3.6,3.5C133.7,33.8,132.1,35.4,130.2,35.4"/>
	<path d="M138.2,30.8c-0.2,0-0.5,0-0.8,0.1c-0.4,0.1-0.7,0.2-1.2,0.5c0.1,1.1,0.2,1.5,0.6,2c0.3,0.4,0.7,0.7,1.2,0.7
		c0.9,0,1.5-0.8,1.5-1.8C139.5,31.4,139,30.8,138.2,30.8 M138,35.4c-1.9,0-3.2-1.6-3.2-4.1c0-1.5,0.5-2.9,1.4-4
		c0.9-1,1.8-1.5,3.3-1.5c0.3,0,0.5,0,1,0.1v1.3c-0.4,0-0.5-0.1-0.9-0.1c-1.1,0-1.7,0.2-2.2,0.8c-0.6,0.6-0.7,1-0.9,2.1
		c0.4-0.3,0.6-0.3,1-0.5c0.5-0.1,0.9-0.2,1.3-0.2c1.4,0,2.4,1.1,2.4,2.7C141.1,34.1,139.8,35.4,138,35.4"/>
	<path d="M124,52.1c-0.6,0.4-1.4,0.6-2.5,0.6c-1.1,0-1.8-0.2-2.5-0.6c-0.9-0.6-1.2-1.4-1.2-3v-5.4h1.7v5.5c0,1.3,0.7,2,2.1,2
		c1.3,0,2-0.7,2-2v-5.5h1.7v5.4C125.2,50.7,124.9,51.4,124,52.1"/>
	<path d="M132.5,52.6l-3.8-5.7c0,0-0.1-0.2-0.2-0.3c-0.1-0.1-0.1-0.2-0.1-0.2c-0.1-0.1-0.1-0.2-0.1-0.3v6.5h-1.6v-8.8h1.9l3.7,5.8
		c0,0,0.1,0.1,0.1,0.2c0,0.1,0.1,0.2,0.1,0.2l0.1,0.2l0.1,0.2v-6.6h1.6v8.9H132.5z"/>
	<rect x="135.6" y="43.7" width="1.7" height="8.8"/>
	<path d="M142.8,52.8h-1.2l-3.3-9.1h1.8l2,6l0,0.1l0,0.1l0,0.2l0-0.1c0-0.1,0-0.2,0-0.2l0.1-0.1l1.9-6h1.8L142.8,52.8z"/>
	<polygon points="147.1,52.5 147.1,43.7 152.5,43.7 152.5,45.1 148.8,45.1 148.8,47.3 151.8,47.3 151.8,48.7 148.8,48.7 148.8,51.1 
		152.7,51.1 152.7,52.5 	"/>
	<path d="M156.6,45.1h-1.1v2.4h1.1c1.1,0,1.5-0.4,1.5-1.3C158.2,45.5,157.7,45.1,156.6,45.1 M158.4,52.5l-2-3.5h-0.8v3.5h-1.7v-8.8
		h2.9c1.3,0,1.9,0.2,2.4,0.7c0.5,0.4,0.7,1.1,0.7,1.9c0,0.7-0.2,1.2-0.5,1.7c-0.3,0.4-0.6,0.6-1.4,0.8l2.2,3.8H158.4z"/>
	<path d="M166.7,45.8c-0.9-0.4-1.7-0.6-2.3-0.6c-0.8,0-1.3,0.3-1.3,0.8c0,0.4,0.2,0.6,0.8,0.9c1.4,0.7,2.2,1.3,2.6,1.7
		c0.4,0.4,0.6,1,0.6,1.6c0,1.6-1.2,2.5-3.1,2.5c-0.3,0-0.5,0-0.8,0c-0.6-0.1-0.9-0.2-1.8-0.6c-0.1-0.1-0.3-0.2-0.6-0.3l0.7-1.6
		c0.6,0.3,0.9,0.5,1.3,0.6c0.4,0.2,0.9,0.3,1.3,0.3c0.8,0,1.3-0.3,1.3-0.9c0-0.4-0.2-0.6-0.8-0.9l-1.4-0.8c-1.6-0.9-2-1.5-2-2.4
		c0-0.4,0.1-0.9,0.3-1.2c0.1-0.2,0.4-0.5,0.7-0.7c0.6-0.4,1.2-0.6,2.2-0.6c0.6,0,1.1,0.1,1.7,0.2c0.4,0.1,0.7,0.2,1.3,0.5
		L166.7,45.8z"/>
	<rect x="168.5" y="43.7" width="1.7" height="8.8"/>
	<polygon points="175.8,45.1 175.8,52.5 174.1,52.5 174.1,45.1 171.4,45.1 171.4,43.7 178.4,43.7 178.4,45.1 	"/>
	<path d="M181.5,45.7l-1,3.2h2L181.5,45.7z M183.6,52.5l-0.7-2.2h-3l-0.7,2.2h-1.8l3.2-8.8h1.5l3.2,8.8H183.6z"/>
	<polygon points="180.8,42.4 179.3,40.9 180.8,40.9 182.1,42.4 	"/>
	<path d="M123.2,58.8c-0.5-0.3-1.1-0.5-2.1-0.5h-1.3v5.9h1.3c2,0,3.1-1.1,3.1-2.9C124.2,60.2,123.8,59.2,123.2,58.8 M124.8,64.3
		c-0.8,0.9-2,1.3-3.6,1.3h-3.3v-8.8h3.3c1.7,0,2.7,0.4,3.6,1.3c0.8,0.8,1.2,1.9,1.2,3.1C126,62.3,125.5,63.5,124.8,64.3"/>
	<polygon points="127.1,65.6 127.1,56.8 132.5,56.8 132.5,58.2 128.8,58.2 128.8,60.4 131.8,60.4 131.8,61.8 128.8,61.8 128.8,64.2 
		132.7,64.2 132.7,65.6 	"/>
	<path d="M140.6,65.5c-0.9,0.2-1.5,0.3-2.2,0.3c-2.9,0-5-1.9-5-4.6c0-1.3,0.5-2.5,1.5-3.4c0.9-0.8,1.9-1.2,3.5-1.2
		c0.6,0,1.3,0.1,1.8,0.2c0.4,0.1,0.7,0.2,1.3,0.5l-0.4,1.4c-0.3-0.1-0.6-0.2-0.7-0.3c-0.6-0.2-1.3-0.3-1.8-0.3c-2,0-3.4,1.2-3.4,3
		c0,1.8,1.5,3.2,3.5,3.2c0.4,0,0.6,0,1.1-0.2v-2.4h1.7v3.6C141.1,65.4,140.8,65.4,140.6,65.5"/>
	<polygon points="142.9,65.6 142.9,56.8 144.5,56.8 144.5,64.2 148.1,64.2 148.1,65.6 	"/>
	<rect x="149.4" y="56.8" width="1.7" height="8.8"/>
	<path d="M161.7,58.9c-0.9-0.4-1.7-0.6-2.3-0.6c-0.8,0-1.3,0.3-1.3,0.8c0,0.4,0.2,0.6,0.8,0.9c1.4,0.7,2.2,1.3,2.7,1.7
		c0.4,0.4,0.6,1,0.6,1.6c0,1.6-1.1,2.5-3.1,2.5c-0.3,0-0.5,0-0.8-0.1c-0.6-0.1-0.9-0.2-1.8-0.6c-0.1-0.1-0.3-0.1-0.6-0.3l0.7-1.6
		c0.6,0.3,0.9,0.5,1.3,0.6c0.4,0.2,0.9,0.3,1.3,0.3c0.8,0,1.3-0.4,1.3-0.9c0-0.4-0.2-0.6-0.8-1l-1.4-0.8c-1.6-0.9-2-1.5-2-2.4
		c0-0.4,0.1-0.9,0.3-1.2c0.1-0.2,0.4-0.5,0.7-0.7c0.6-0.4,1.2-0.6,2.2-0.6c0.6,0,1.1,0.1,1.7,0.2c0.4,0.1,0.7,0.2,1.3,0.5
		L161.7,58.9z"/>
	<polygon points="167.5,58.2 167.5,65.6 165.8,65.6 165.8,58.2 163.1,58.2 163.1,56.8 170.1,56.8 170.1,58.2 	"/>
	<path d="M177.3,65.1c-0.6,0.4-1.4,0.6-2.5,0.6c-1.1,0-1.8-0.2-2.5-0.6c-0.9-0.6-1.2-1.4-1.2-3v-5.4h1.7v5.5c0,1.3,0.7,2,2.1,2
		c1.3,0,2-0.7,2-2v-5.5h1.7v5.4C178.5,63.8,178.2,64.5,177.3,65.1"/>
	<path d="M185,58.8c-0.5-0.3-1.2-0.5-2.1-0.5h-1.3v5.9h1.3c2,0,3.1-1.1,3.1-2.9C186,60.2,185.6,59.2,185,58.8 M186.6,64.3
		c-0.8,0.9-2,1.3-3.6,1.3h-3.3v-8.8h3.3c1.7,0,2.7,0.4,3.6,1.3c0.8,0.8,1.2,1.9,1.2,3.1C187.8,62.3,187.4,63.5,186.6,64.3"/>
	<rect x="188.9" y="56.8" width="1.7" height="8.8"/>
	<path d="M123.2,71.8c-0.5-0.3-1.1-0.5-2.1-0.5h-1.3v5.9h1.3c2,0,3.1-1.1,3.1-2.9C124.2,73.2,123.8,72.3,123.2,71.8 M124.8,77.4
		c-0.8,0.9-2,1.3-3.6,1.3h-3.3v-8.8h3.3c1.7,0,2.7,0.4,3.6,1.3c0.8,0.8,1.2,1.9,1.2,3.1C126,75.4,125.5,76.5,124.8,77.4"/>
	<rect x="127.1" y="69.8" width="1.7" height="8.8"/>
	<path d="M140.4,78.2c-0.6,0.4-1.4,0.6-2.5,0.6c-1.1,0-1.8-0.2-2.5-0.6c-0.9-0.6-1.2-1.4-1.2-3v-5.4h1.7v5.5c0,1.3,0.7,2,2.1,2
		c1.3,0,2-0.7,2-2v-5.5h1.7v5.4C141.6,76.8,141.4,77.6,140.4,78.2"/>
	<path d="M145.8,71.3h-1.1v2.4h1.1c1.1,0,1.5-0.4,1.5-1.3C147.3,71.6,146.9,71.3,145.8,71.3 M147.6,78.7l-2-3.5h-0.8v3.5H143v-8.8
		h2.9c1.3,0,1.9,0.2,2.4,0.7c0.5,0.4,0.7,1.1,0.7,1.9c0,0.7-0.2,1.2-0.5,1.7c-0.3,0.4-0.6,0.6-1.4,0.8l2.2,3.8H147.6z"/>
	<path d="M153.1,74.9H152v2.4h1.1c0.5,0,0.8,0,1-0.2c0.4-0.2,0.6-0.6,0.6-1C154.8,75.3,154.2,74.9,153.1,74.9 M153.1,71.2H152v2.3h1
		c0.9,0,1.5-0.4,1.5-1.1C154.5,71.6,154,71.2,153.1,71.2 M153.9,78.7h-3.6v-8.8h3.2c1.2,0,1.7,0.1,2.2,0.6c0.4,0.4,0.7,1,0.7,1.6
		c0,0.5-0.2,1-0.5,1.4c-0.4,0.4-0.8,0.6-1.4,0.6c1.3,0,2.2,0.9,2.2,2.3C156.6,77.8,155.6,78.7,153.9,78.7"/>
	<rect x="157.7" y="69.8" width="1.7" height="8.8"/>
	<path d="M166.7,78.7l-3.8-5.7c0,0-0.1-0.2-0.2-0.3c-0.1-0.1-0.1-0.2-0.1-0.2c-0.1-0.1-0.1-0.2-0.1-0.3v6.5h-1.6v-8.8h1.9l3.7,5.8
		c0,0,0.1,0.1,0.1,0.2c0,0.1,0.1,0.1,0.1,0.2l0.1,0.2l0.1,0.2v-6.6h1.6v8.9H166.7z"/>
	<path d="M174.4,71.1c-1.7,0-2.9,1.3-2.9,3.1c0,1.8,1.2,3.1,2.9,3.1c1.7,0,2.9-1.3,2.9-3.1C177.3,72.5,176,71.1,174.4,71.1
		 M174.4,78.8c-2.8,0-4.7-1.9-4.7-4.6c0-2.7,1.9-4.6,4.7-4.6c2.8,0,4.7,1.8,4.7,4.6C179.1,76.9,177.1,78.8,174.4,78.8"/>
	<path d="M124,84.9c-0.6-0.4-1.3-0.6-2-0.6c-1.7,0-2.9,1.2-2.9,2.9c0,1.9,1.3,3.1,3.2,3.1c0.6,0,1.1-0.1,1.9-0.4l0.3,1.4
		c-0.6,0.3-0.8,0.3-1.2,0.4c-0.4,0.1-0.9,0.1-1.4,0.1c-1.4,0-2.4-0.3-3.2-1.1c-0.9-0.8-1.5-2.2-1.5-3.5c0-1.3,0.5-2.4,1.3-3.3
		c0.9-0.9,1.9-1.2,3.3-1.2c1.1,0,2,0.3,2.8,0.8L124,84.9z"/>
	<path d="M129.1,84.9l-1,3.2h2L129.1,84.9z M131.3,91.7l-0.7-2.2h-3l-0.7,2.2h-1.8l3.2-8.8h1.5l3.2,8.8H131.3z"/>
	<path d="M136.6,84.3h-1.1v2.4h1.1c1.1,0,1.5-0.4,1.5-1.3C138.2,84.7,137.7,84.3,136.6,84.3 M138.4,91.7l-2-3.5h-0.8v3.5h-1.7v-8.8
		h2.9c1.3,0,1.9,0.2,2.4,0.7c0.5,0.4,0.7,1.1,0.7,1.9c0,0.7-0.2,1.2-0.5,1.7c-0.3,0.4-0.6,0.6-1.4,0.8l2.2,3.8H138.4z"/>
	<polygon points="141.1,91.7 141.1,82.9 142.8,82.9 142.8,90.3 146.4,90.3 146.4,91.7 	"/>
	<path d="M151.2,84.2c-1.7,0-2.9,1.3-2.9,3.1c0,1.8,1.2,3.1,2.9,3.1c1.7,0,2.9-1.3,2.9-3.1C154.1,85.5,152.9,84.2,151.2,84.2
		 M151.2,91.9c-2.8,0-4.7-1.9-4.7-4.6c0-2.7,1.9-4.6,4.7-4.6c2.8,0,4.7,1.8,4.7,4.6C155.9,90,154,91.9,151.2,91.9"/>
	<path d="M163.7,87.9h-1.1v2.4h1.1c0.5,0,0.8,0,1-0.2c0.4-0.2,0.6-0.6,0.6-1C165.3,88.4,164.7,87.9,163.7,87.9 M163.7,84.2h-1.1v2.3
		h1c1,0,1.5-0.4,1.5-1.1C165,84.7,164.5,84.2,163.7,84.2 M164.4,91.7h-3.6v-8.8h3.2c1.1,0,1.7,0.1,2.2,0.6c0.4,0.4,0.7,1,0.7,1.6
		c0,0.5-0.2,1-0.5,1.4c-0.4,0.4-0.7,0.6-1.4,0.6c1.3,0,2.2,0.9,2.2,2.3C167.1,90.9,166.2,91.7,164.4,91.7"/>
	<path d="M172.7,84.2c-1.7,0-2.9,1.3-2.9,3.1c0,1.8,1.2,3.1,2.9,3.1c1.7,0,2.9-1.3,2.9-3.1C175.6,85.5,174.3,84.2,172.7,84.2
		 M172.7,91.9c-2.8,0-4.7-1.9-4.7-4.6c0-2.7,1.9-4.6,4.7-4.6c2.8,0,4.7,1.8,4.7,4.6C177.4,90,175.4,91.9,172.7,91.9"/>
	<path class="st0" d="M38.6,66.5c0.8,0.2,1.4,0.4,2.2,0.6c-0.1-0.3-0.2-0.6-0.3-0.8c-0.1-0.2-0.2-0.3-0.5-0.2
		c-0.3,0.1-0.6,0.2-1,0.3C38.9,66.4,38.8,66.5,38.6,66.5"/>
	<path class="st0" d="M58.8,68.8c-0.2,0.3-0.3,0.6-0.5,0.9c0.8-0.1,1.5-0.2,2.3-0.3c-0.5-0.4-0.9-0.6-1.5-0.7
		C59,68.7,58.8,68.7,58.8,68.8"/>
	<path class="st0" d="M38.1,63.7c0.6,0.2,1.2,0.5,1.9,0.7c-0.1-0.3-0.1-0.6-0.2-0.9c0-0.1-0.1-0.2-0.2-0.2
		C39.1,63.3,38.6,63.4,38.1,63.7"/>
	<path class="st0" d="M59.7,66.1c-0.1,0.3-0.2,0.6-0.4,0.9c0.7-0.2,1.4-0.4,2.1-0.5c-0.5-0.4-1-0.5-1.5-0.5
		C59.8,66,59.7,66.1,59.7,66.1"/>
	<path class="st0" d="M37.7,60.8c0.6,0.3,1.2,0.5,1.9,0.8c0-0.3-0.1-0.6-0.1-0.9c0-0.2-0.1-0.2-0.3-0.3
		C38.6,60.4,38.1,60.6,37.7,60.8"/>
	<path class="st0" d="M39.8,51.1c0-0.1-0.1-0.2-0.2-0.2c-0.5-0.2-1-0.2-1.5-0.1c0.5,0.4,1.1,0.9,1.6,1.3
		C39.8,51.8,39.8,51.4,39.8,51.1"/>
	<path class="st0" d="M38.9,56.7c-0.9-0.2-1.7-0.1-2.5,0.3c1,0.5,1.9,1,2.9,1.5c0-0.4,0-0.9,0-1.4C39.2,56.9,39,56.8,38.9,56.7"/>
	<path class="st0" d="M39.5,53.7c-0.6-0.2-1.2-0.2-1.8-0.1c0.6,0.4,1.2,0.8,1.8,1.1C39.4,54.3,39.4,54,39.5,53.7"/>
	<path class="st0" d="M61.3,73.8H55c2.1,2.2,4.2,4.3,6.2,6.5C61.4,80.1,61.4,74.4,61.3,73.8"/>
	<path class="st0" d="M54.4,57.4c0.2,0.1,0.4,0.1,0.5-0.1c0.1-0.1,0-0.3-0.1-0.5c0,0-0.1-0.1-0.1-0.1c-1.1-1.2-2.6-1.6-4-2.2
		c0,0,0,0.1-0.1,0.1c0.5,0.4,1,0.9,1.5,1.3C52.9,56.4,53.7,56.9,54.4,57.4"/>
	<path class="st0" d="M53.5,45.4c-0.3-2-2.3-3.3-4.3-2.9C47.2,43,46,45,46.6,47c0.3,1,0.9,1.8,1.9,2.2c0.3,0.1,0.4,0,0.4-0.2
		c0-0.2-0.1-0.3-0.1-0.5c-0.1-0.1-0.2-0.2-0.3-0.3c-0.7-0.8-0.9-2-0.3-3c0.5-0.9,1.6-1.2,2.6-0.9c1.1,0.3,1.6,1.1,1.9,2.1
		c0.1,0.4,0.2,0.8,0.3,1.3c0-0.1,0.1-0.1,0.1-0.2C53.6,46.9,53.6,46.2,53.5,45.4"/>
	<path class="st0" d="M52.6,50.6c-0.2-0.2-0.5-0.3-0.8-0.5c-0.1,1.2-0.3,2.3-0.4,3.3c-0.1,0.4,0,0.6,0.5,0.7
		c1.1,0.4,2.2,0.8,3.1,1.7c0-0.7-0.1-1.2-0.3-1.8C54.3,52.7,53.6,51.5,52.6,50.6"/>
	<path class="st0" d="M45.8,57.2c0.2,0,0.4-0.1,0.6-0.3c1.3-0.7,2.4-1.7,3.4-2.8c0.1-0.1,0.2-0.3,0.3-0.5c0.3-0.7,0.2-1.6-0.2-2.1
		c0,0-0.1,0-0.1,0c0,0.3-0.2,0.6-0.1,0.9c0.1,1-0.3,1.6-1.1,2.1c-0.9,0.5-1.7,1-2.5,1.6c-0.2,0.1-0.4,0.4-0.6,0.6
		c-0.1,0.1-0.1,0.3,0,0.4C45.5,57.3,45.7,57.3,45.8,57.2"/>
	<path class="st0" d="M49.1,53.2c0.1-0.6,0.1-1.1,0.2-1.7c0-0.4,0.2-0.5,0.5-0.6c0.3,0,0.5,0.1,0.7,0.4c0.1,0.2,0.1,0.4,0.2,0.5h0
		c0.1-1,0.3-2,0.4-3c-0.4,0-0.8,0.1-1.2,0.1c-0.2,0-0.2,0.1-0.3,0.2c-0.2,0.7-0.4,1.4-0.6,2.1c-0.2,0.8-0.4,1.6-0.5,2.4
		C48.9,53.8,49.1,53.6,49.1,53.2"/>
	<path class="st0" d="M48.6,46.5c0,0.7,0.6,1.7,1.3,1.9c0.5,0.2,0.9-0.1,0.9-0.7c0-0.7-0.6-1.6-1.3-1.8
		C48.9,45.7,48.6,45.9,48.6,46.5"/>
	<path class="st0" d="M56.7,67.4c-0.7,0.9-1.6,1.6-2.5,2.2C54.1,69.6,54,69.9,54,70c0,0.4,0.1,0.8,0.1,1.3c0,0,0.1,0,0.1,0
		c1.2-1.1,2.1-2.3,2.6-3.9C56.8,67.4,56.7,67.4,56.7,67.4"/>
	<path class="st0" d="M51.5,47.3c0.1,0.5,0.2,1.1,0.3,1.6c0.1,0.4,0.3,0.6,0.8,0.8c0-0.1,0-0.1,0-0.1c-0.2-1-0.3-1.9-0.5-2.9
		c-0.2-0.8-0.6-1.3-1.4-1.6c-0.4-0.2-0.7-0.2-1.1,0c0.1,0,0.1,0.1,0.1,0.1C50.7,45.5,51.2,46.2,51.5,47.3"/>
	<path class="st0" d="M26.7,86c-0.2-0.2-0.4-0.3-0.7-0.3c-0.3,0-0.6,0.3-1,0.7c-0.4,0.4-0.6,0.7-0.6,1c0,0.2,0.1,0.5,0.3,0.7
		l0.5,0.5l2-2.1L26.7,86z"/>
	<path class="st0" d="M15.6,48.4c-0.4-0.1-0.7,0.1-0.8,0.4l-0.3,0.9l1.2,0.4l0.3-0.9C16.1,48.8,16,48.5,15.6,48.4"/>
	<polygon class="st0" points="23.3,35.4 24.2,37 25.1,36.1 	"/>
	<path class="st0" d="M17.1,76.9c-0.3,0.2-0.4,0.5-0.2,0.9l0.4,0.8l1.1-0.6L18,77.3C17.8,76.9,17.5,76.8,17.1,76.9"/>
	<path class="st0" d="M22.1,81.2c0-0.2,0-0.4-0.1-0.6c-0.1-0.2-0.3-0.3-0.5-0.3c-0.3,0-0.5,0.1-1.2,0.5c-0.7,0.5-0.8,0.6-0.9,0.9
		c0,0.2,0,0.4,0.1,0.6c0.1,0.2,0.3,0.3,0.5,0.3c0.3,0,0.5-0.1,1.2-0.5C21.9,81.6,22.1,81.5,22.1,81.2"/>
	<path class="st0" d="M47.6,53.9c0.2-0.7,0.3-1.4,0.4-2.1c0.1-0.5,0.2-1.1,0.3-1.6c-1.4,0.3-3.4,3.9-3,5.4c0,0,0.1,0,0.1,0
		c0.6-0.4,1.3-0.7,1.8-1.1C47.4,54.3,47.6,54.1,47.6,53.9"/>
	<polygon class="st0" points="86.8,57.7 84.9,57.2 85.1,58.4 	"/>
	<path class="st0" d="M81.1,41.4c0.3-0.2,0.3-0.5,0.1-0.9l-0.5-0.8l-1,0.6l0.5,0.8C80.5,41.5,80.8,41.6,81.1,41.4"/>
	<path class="st0" d="M74.3,33.5c0.3-0.3,0.2-0.7-0.1-1l-0.7-0.6l-0.9,1l0.7,0.6C73.7,33.8,74.1,33.8,74.3,33.5"/>
	<path class="st0" d="M78.8,42.2c0.2,0.3,0.6,0.4,0.9,0.2c0.3-0.2,0.4-0.5,0.1-0.9l-0.5-0.8l-1,0.7L78.8,42.2z"/>
	<path class="st0" d="M41,68.7c-0.6,0.1-1.1,0.3-1.4,0.7c0.7,0.1,1.5,0.3,2.2,0.4c-0.1-0.3-0.3-0.6-0.5-0.9
		C41.3,68.8,41.1,68.7,41,68.7"/>
	<path class="st0" d="M55.4,89.1c0.3,0.3,0.6,0.4,1,0.2c0.2-0.1,0.3-0.1,0.5-0.2c1.1-0.3,2.1-0.9,3-1.7c-0.2-0.2-0.4-0.3-0.5-0.5
		c-2.8-2.7-5.5-5.5-8.3-8.2c-1.6-1.5-3.1-3.1-4.7-4.6c-0.2-0.2-0.5-0.4-0.9-0.4c-1.8,0-3.5,0-5.3,0c-0.1,0-0.2,0.1-0.3,0.1
		c0.3,0.2,0.5,0.4,0.7,0.5c4.3,4.2,8.5,8.4,12.7,12.6C54,87.7,54.7,88.4,55.4,89.1"/>
	<path class="st0" d="M51.1,91.9c0,0,0-0.1,0-0.1c1.1-0.7,2.2-1.4,3.3-2.2C49.3,84.3,44,79.1,38.6,73.8c0,0.2,0,0.3,0,0.3
		c0,1.4,0,2.8,0,4.2c0,0.6,0.2,1.1,0.6,1.5c3.9,3.9,7.9,7.9,11.8,11.8C51,91.7,51.1,91.8,51.1,91.9"/>
	<path class="st0" d="M42,59.6l0.6-0.1l0.2-0.5l0.4,0.4l0.6-0.1l-0.2,0.6l0.4,0.5l-0.6,0.1l-0.2,0.5l-0.4-0.4l-0.6,0.1l0.2-0.6
		L42,59.6z M42.7,54l0.2-0.5l0.4,0.4l0.6-0.1l-0.2,0.6l0.4,0.5l-0.6,0.1l-0.2,0.5L42.9,55l-0.6,0.1l0.2-0.6L42,54.1L42.7,54z
		 M43.9,49.6l0.2-0.5l0.4,0.4l0.6-0.1l-0.2,0.6l0,0l0.4,0.5l-0.6,0.1l-0.2,0.5l-0.4-0.4l-0.6,0.1l0.2-0.6l-0.3-0.3l-0.2-0.2
		L43.9,49.6z M55.3,49.9l-0.1-0.3l0.6,0.1l0.4-0.4l0.2,0.5l0.4,0.1l0.3,0.1l-0.4,0.5l0.2,0.6l-0.6-0.1l-0.4,0.4l-0.2-0.5L55,50.7
		l0.4-0.5L55.3,49.9z M57.6,53.4l0.2,0.5l0.6,0.1L58,54.6l0.2,0.6L57.5,55l-0.4,0.4L57,54.9l-0.6-0.1l0.4-0.5l-0.2-0.6l0.6,0.1
		L57.6,53.4z M58.2,60.7l-0.6-0.1l-0.4,0.4L57,60.4l-0.6-0.1l0.4-0.5l-0.2-0.6l0.6,0.1l0.4-0.4l0.2,0.5l0.6,0.1L58,60L58.2,60.7z
		 M45,72.8c0.4-0.5,0.4-0.6,0-1c-0.2-0.2-0.3-0.3-0.5-0.5c-1.5-1.6-2.3-3.5-2.2-5.7c0-0.4,0.1-0.7,0.1-1.1c0.8,2,2,3.5,4,4.6
		c0.1-0.5,0.1-1.1,0.2-1.6c0.1-1.2,0.3-2.4,0.4-3.6c0-0.3,0-0.5-0.3-0.7c-0.7-0.5-1.1-1.2-1.4-1.9c-1-2.3-1.2-4.7-0.7-7.2
		c0.4-1.7,1.2-3.2,2.7-4.3c0,0,0.1-0.1,0.2-0.1c-0.2-0.2-0.4-0.3-0.6-0.5c-1.1-1-1.6-2.2-1.4-3.7c0.3-2.4,2.4-4,4.8-3.8
		c2.2,0.1,4,2.1,4,4.4c0,1-0.3,1.9-0.9,2.6c-0.3,0.4-0.4,0.7-0.2,1.2c0.2,0.5,0.4,0.9,0.7,1.3c1,1.3,1.5,2.8,1.7,4.4
		c0.2,1.5,0.1,2.9-0.1,4.4c-0.2,1.3-0.5,2.5-1.3,3.6c-0.2,0.3-0.3,0.6-0.3,1c0,1.3,0,2.6-0.1,3.9c0,0.1,0,0.3,0,0.4
		c1.8-1,3-2.5,3.7-4.5c0.6,3.3-0.6,5.8-3.2,7.7c0.2,0.2,0.4,0.4,0.6,0.7c0.2-0.2,0.3-0.3,0.4-0.5c1-1.2,1.8-2.6,2.4-4
		c1.1-2.6,1.7-5.3,1.9-8.1c0.3-3.3,0.1-6.6-0.6-9.9c-0.6-2.6-1.5-5-3-7.2c-0.5-0.8-1.2-1.4-2.2-1.7c-2.5-0.8-5-0.8-7.6-0.1
		c-1,0.3-1.9,0.8-2.5,1.8c-1,1.5-1.8,3.1-2.4,4.9c-0.9,2.5-1.3,5.1-1.4,7.7c-0.2,3.2,0.1,6.4,0.9,9.6c0.6,2.3,1.5,4.5,3,6.4
		C44.4,72.1,44.7,72.4,45,72.8"/>
	<path class="st0" d="M50,93.6c-0.3,0-0.5,0.2-0.5,0.5c0,0.3,0.2,0.5,0.5,0.5c0.3,0,0.5-0.3,0.5-0.5C50.5,93.8,50.3,93.6,50,93.6"/>
	<path class="st0" d="M38.6,80.5c0,0.2,0,0.3,0,0.4c0,1,0,2.1,0,3.1c0,1.6,0.7,2.9,1.9,4c0.9,0.8,2,1.2,3.2,1.4
		c2.1,0.4,4,1.3,5.4,2.9c0.2,0.2,0.4,0.3,0.6,0.4c0.3,0.1,0.7,0,0.9-0.3C46.6,88.5,42.7,84.5,38.6,80.5"/>
	<path class="st0" d="M59.7,70.2c-0.8,0.2-1.6,0.4-2.2,1c-0.4,0.5-0.8,1-1.2,1.5c0,0,0,0,0,0.1h0.4h3.9c0.2,0,0.4,0,0.7,0
		c0.2,0,0.3-0.1,0.3-0.3c0.1-0.6,0.3-1.2,0.5-1.8c0-0.1,0-0.2,0-0.3c0,0,0,0,0,0c-0.1,0-0.2,0-0.2-0.1C61.1,70.1,60.4,70,59.7,70.2"
		/>
	<polyline class="st0" points="62.1,70.5 62.1,70.5 62.1,70.5 62.1,70.5 	"/>
	<path class="st0" d="M59.8,43.7c-0.1-0.4-0.2-0.5-0.7-0.5c-0.3,0-0.6,0-0.9-0.1c-0.4,0-0.7-0.1-1.1-0.1c1.4,2.3,2.4,4.7,3,7.2
		c1.4-0.4,2.8-0.2,4,0.7c-1.5,0.1-2.4,0.9-3.3,2c1.4-0.2,2.6,0.1,3.6,1c-1.5,0-2.5,0.8-3.4,1.8c1-0.1,2,0,2.9,0.4
		c0.9,0.3,1.7,0.9,2.4,1.7c-2.2-0.3-3.8,0.7-5.3,2c1.4,0.1,2.5,0.7,3.3,1.7c-0.7-0.1-1.3-0.1-1.9,0.1c-0.6,0.2-1.2,0.5-1.7,0.9
		c1.3,0.4,2.5,0.7,3.3,2.1c-1.4-0.2-2.7-0.2-3.9,0.7c1.3,0.4,2.5,0.9,3.1,2.2c-1.4-0.6-2.6,0.1-3.9,0.4c0,0.1,0,0.1,0,0.1
		c0.1,0,0.2,0.1,0.3,0.1c1.2,0.4,2,1.2,2.5,2.3c0.1,0,0.2-0.1,0.2-0.1c0.7-1.2,1.7-2,2.9-2.5c1.3-0.6,2.1-1.5,2.5-2.9
		c0.3-1.1,0.5-2.2,0.5-3.3c0.2-2.9,0.2-5.9-0.3-8.7c-0.1-0.9-0.4-1.7-0.7-2.5c-0.4-1-1.1-1.4-2.2-1.2c-0.5,0.1-1,0.1-1.5,0
		c-1.7-0.3-3-1.6-3.4-3.3C60,45.1,59.9,44.4,59.8,43.7"/>
	<path class="st0" d="M56.2,33.7c-0.6,0.1-0.7,0.1-0.9,0.7c-0.3,1-0.3,2-0.3,3.1c0,0.6,0.2,0.9,0.7,1.1c0.4,0.1,0.7,0.3,1,0.5
		c0.1,0.1,0.3,0.1,0.5,0.2c-0.7-2-0.6-3.8,0.1-5.7C57,33.6,56.6,33.7,56.2,33.7"/>
	<path class="st0" d="M87.6,65L85,64.7c-0.5-0.1-0.9,0.2-1,0.7c-0.1,0.5,0.2,0.9,0.8,0.9l2.6,0.3l-0.1,0.6l-2.6-0.3
		c-0.8-0.1-1.3-0.8-1.2-1.6c0.1-0.8,0.7-1.4,1.6-1.3l2.6,0.4L87.6,65z M86.3,71.4c-0.2,0.7-0.8,1.1-1.5,0.9
		c-0.5-0.2-0.8-0.6-0.8-1.1l-2,0.4l0.2-0.7l1.9-0.3l0.2-0.7l-1.6-0.5l0.2-0.6l3.8,1.1L86.3,71.4z M84.4,76.5
		c-0.3,0.7-0.9,0.9-1.5,0.7c-0.4-0.2-0.6-0.6-0.6-0.8c-0.2,0.2-0.6,0.4-1.1,0.2c-0.7-0.3-0.8-0.9-0.5-1.6l0.7-1.5l3.7,1.7L84.4,76.5
		z M82.4,80.4l-3.5-2.1l0.3-0.5l3.4,2.1L82.4,80.4z M80.6,83.2l-3.4-0.2l2.2,1.7l-0.4,0.5l-3.2-2.5l0.3-0.4l3.4,0.3l-2.2-1.7
		l0.4-0.5l3.2,2.5L80.6,83.2z M76.1,88.2l-3.8-1.9l0.5-0.4l0.8,0.4l1.1-1.1l-0.4-0.8l0.5-0.4l1.7,3.9L76.1,88.2z M71.6,91.9
		l-0.3-0.4l0.9-0.7L70.1,88l0.5-0.4l2.1,2.8l0.9-0.6l0.3,0.4L71.6,91.9z M67.3,94.5L67.1,94l1.7-1l-0.6-1l-1.5,0.8l-0.3-0.5l1.5-0.8
		l-0.6-1l-1.7,1L65.4,91l2.2-1.3l2,3.5L67.3,94.5z M64.5,74c0,1.3,0,2.6,0,3.9c0,2,0,4,0,6c0,3.2-2,6-5,7c-1.2,0.4-2.4,0.7-3.6,1
		c-0.9,0.2-1.7,0.6-2.1,1.5c0,0.1-0.1,0.1-0.1,0.2c0.2,0,0.4,0.1,0.6,0.1c1.2,0.3,1.8,1.5,1.1,2.6c-0.4,0.6-1,1-1.9,1
		c-0.3,0-0.5,0-0.8,0c-0.4,0-0.6,0.1-0.8,0.4c-0.3,0.5-0.8,0.8-1.3,1c-0.4,0.1-0.7,0.1-1.1,0c-0.5-0.2-1-0.5-1.4-1
		c-0.2-0.2-0.4-0.3-0.7-0.3c-0.5,0-0.9,0-1.4-0.1c-0.9-0.1-1.6-0.9-1.6-1.9c0-0.9,0.6-1.5,1.6-1.6c0.1,0,0.2,0,0.4-0.1
		c-0.4-0.8-1-1.4-1.8-1.6c-0.9-0.3-1.8-0.5-2.8-0.7c-2.3-0.6-4.2-1.8-5.4-3.9c-0.7-1.3-0.9-2.7-0.9-4.1c0-3.1,0-6.2,0-9.3
		c0-1.4-0.6-2.3-1.8-2.8c-1.6-0.7-2.9-1.7-3.8-3.1c-0.6-1-1-2.1-1.2-3.3c-0.6-3-0.9-6.1-0.9-9.2c0-1.7,0.3-3.4,0.9-5
		c0.4-1,0.9-1.8,1.7-2.5c1.1-1,2.4-1.2,3.8-0.6c0.3,0.1,0.5,0.2,0.8,0.4c0.6,0.3,1.2,0.3,1.8,0.2c1.4-0.4,2.4-1.6,2.5-3.1
		c0-0.6,0.1-1.3,0.4-1.9c-0.1,0-0.3-0.1-0.4-0.1c-0.6-0.2-1.3-0.5-1.8-0.9C37.3,42,37.2,42,37,41.9c-1.5-0.3-2.5-1.3-2.8-2.8
		c-0.2-1.1-0.1-2.1,0.5-3c0-0.1,0-0.2,0-0.3C33.4,33.3,31.9,31,30,29c0,0-0.1-0.1-0.1-0.1c0-0.1-0.1-0.3,0-0.4
		c0.1-0.1,0.3-0.2,0.4-0.1c0.3,0.1,0.7,0.2,1,0.3c0.9,0.3,1.9,0.6,2.8,0.9c0.1,0,0.2,0,0.3,0.1c0-0.4,0.1-0.8,0.1-1.2
		c0.1-0.6,0.1-1.2,0.2-1.8c0-0.4,0.3-0.5,0.6-0.3c1.1,0.6,2.3,1.3,3.4,1.9c0.1,0,0.2,0.1,0.3,0.2c0.1-0.1,0.1-0.3,0.2-0.4
		c0.4-0.9,0.7-1.7,1.1-2.6c0.2-0.4,0.4-0.4,0.7-0.2c0.8,0.6,1.6,1.3,2.4,1.9c0.1-0.1,0.1-0.2,0.2-0.3c0.5-0.8,1-1.7,1.6-2.6
		c0.2-0.4,0.4-0.4,0.7-0.1c0.7,0.6,1.3,1.1,2,1.7c0.8-1,1.6-2,2.4-3h0.3c0.4,0.5,0.9,1.1,1.3,1.6c0.3,0.4,0.7,0.8,1,1.2
		c0.1-0.1,0.2-0.1,0.2-0.2c0.5-0.5,1.1-0.9,1.7-1.4c0.3-0.3,0.5-0.3,0.7,0.1c0.5,0.9,1.1,1.8,1.7,2.7c0.6-0.5,1.3-1,1.9-1.5
		c0.1-0.1,0.3-0.2,0.4-0.3c0.3-0.2,0.5-0.2,0.7,0.2c0.4,0.9,0.8,1.8,1.1,2.6c0,0.1,0.1,0.2,0.1,0.3c0.5-0.3,1-0.5,1.4-0.8
		c0.7-0.4,1.4-0.8,2.1-1.2c0.4-0.2,0.6-0.1,0.6,0.3c0.1,0.8,0.2,1.7,0.3,2.5c0,0.1,0,0.2,0,0.4c0.8-0.3,1.5-0.5,2.3-0.7
		c0.5-0.2,1-0.3,1.6-0.5c0.2-0.1,0.4-0.1,0.5,0.1c0.1,0.2,0,0.4-0.1,0.5c-2,2.1-3.5,4.5-4.9,7c-0.1,0.1,0,0.2,0,0.3
		c0.4,0.6,0.7,1.3,0.6,2.1c0,1-0.3,1.9-0.9,2.7c-0.4,0.5-1,0.9-1.7,1c-0.2,0.1-0.5,0.2-0.7,0.3c-0.5,0.3-1,0.5-1.6,0.8
		c-0.1,0.1-0.3,0.1-0.4,0.2c0.1,0.5,0.2,0.9,0.3,1.4c0.1,0.5,0.1,0.9,0.2,1.4c0.3,1.3,1.4,2.2,2.7,2.3c0.6,0,1.1-0.2,1.7-0.4
		c0.4-0.2,0.9-0.4,1.3-0.5c1.2-0.2,2.2,0.3,3.1,1.1c0.9,0.9,1.4,2,1.8,3.1c0.4,1.2,0.5,2.5,0.6,3.7c0.2,3.6-0.2,7.3-1.1,10.8
		c-0.6,2.3-2,3.9-4.1,4.9c-0.3,0.1-0.5,0.3-0.8,0.4C65.1,71.9,64.5,72.8,64.5,74 M64.5,95.8l-2.7-1.9l1,2.6l-0.6,0.2l-1.5-3.7
		l0.5-0.2l2.7,2l-1-2.6l0.6-0.2l1.5,3.8L64.5,95.8z M38.7,93.6c-0.2-0.4-0.4-0.6-0.8-0.7c-0.5-0.2-0.8-0.1-1,0.3
		c-0.1,0.2-0.1,0.3,0,0.5c0,0.1,0.1,0.2,0.3,0.3l0.4,0.2c0.3,0.1,0.5,0.3,0.6,0.6c0.1,0.2,0.1,0.5,0,0.8c-0.2,0.7-0.9,0.9-1.7,0.6
		c-0.5-0.2-0.8-0.4-1-0.9l0.5-0.2c0.1,0.3,0.4,0.5,0.7,0.6c0.4,0.2,0.8,0,0.9-0.3c0.1-0.1,0.1-0.3,0-0.4c-0.1-0.1-0.2-0.3-0.3-0.4
		l-0.4-0.2c-0.3-0.2-0.5-0.3-0.6-0.5c-0.1-0.2-0.1-0.5,0-0.9c0.3-0.7,1-0.9,1.8-0.6c0.6,0.2,0.9,0.5,1.1,1L38.7,93.6z M33.9,94.5
		l-0.2,0.5l-2.5-1.3l0.3-0.5l1,0.5l1.6-3.1l0.5,0.3L33,93.9L33.9,94.5z M29.5,92.6L29,92.3l1.5-2.2c0.3-0.5,0.2-0.9-0.2-1.2
		c-0.4-0.3-0.9-0.2-1.2,0.2l-1.5,2.2l-0.5-0.4l1.5-2.2c0.5-0.7,1.3-0.8,2-0.3c0.7,0.5,0.9,1.3,0.4,2L29.5,92.6z M24.3,88.5
		c-0.3-0.3-0.5-0.6-0.5-1c0-0.6,0.4-1,0.8-1.4c0.4-0.4,0.8-0.9,1.4-0.9c0.4,0,0.7,0.1,1,0.4l1,1l-2.7,2.9L24.3,88.5z M21.3,85.4
		l3-2.6l0.4,0.5l-3,2.6L21.3,85.4z M20,83.2c-0.4-0.1-0.7-0.3-1-0.6c-0.2-0.3-0.3-0.7-0.3-1.1c0.1-0.5,0.5-0.8,1.1-1.2
		c0.6-0.4,1-0.7,1.5-0.6c0.4,0.1,0.7,0.3,1,0.6c0.3,0.3,0.3,0.7,0.3,1.1c-0.1,0.5-0.5,0.8-1.1,1.2C21,83,20.6,83.3,20,83.2
		 M16.4,78.1c-0.4-0.7-0.1-1.3,0.5-1.7c0.5-0.3,1-0.1,1.3,0.2l1.2-1.6l0.3,0.6l-1.1,1.5l0.3,0.7l1.5-0.8l0.3,0.5l-3.6,1.9L16.4,78.1
		z M14.1,72.6L13.9,72l2.5-0.7c0.5-0.1,0.7-0.5,0.6-1c-0.1-0.5-0.5-0.7-1.1-0.6l-2.5,0.7l-0.2-0.6l2.6-0.7c0.8-0.2,1.5,0.2,1.7,1
		c0.2,0.8-0.1,1.5-0.9,1.8L14.1,72.6z M12.7,66.9l2.5-2.2l-2.8,0.4l-0.1-0.6l4-0.5l0.1,0.5l-2.6,2.2l2.8-0.4l0.1,0.6l-4,0.6
		L12.7,66.9z M12.2,61.5l4-0.1l0,0.6l-4,0.1L12.2,61.5z M12.3,59.1l3-0.7l-2.8-1.1l0-0.6l3.9,1.6l0,0.5l-4.1,1L12.3,59.1z
		 M13.2,52.2l0.5,0.1l-0.4,1.9l1.1,0.2l0.3-1.6l0.5,0.1L15,54.6l1.2,0.2l0.4-1.9l0.5,0.1l-0.5,2.5l-3.9-0.8L13.2,52.2z M14.3,48.6
		c0.2-0.7,0.9-1,1.5-0.8c0.5,0.2,0.8,0.6,0.8,1.1l2-0.3l-0.2,0.7l-1.9,0.3l-0.2,0.7l1.6,0.5l-0.2,0.6l-3.8-1.3L14.3,48.6z M16,44.4
		c0.2-0.5,0.5-0.8,1-0.9l0.2,0.5c-0.3,0.1-0.5,0.3-0.7,0.7c-0.2,0.4-0.1,0.8,0.2,0.9c0.1,0.1,0.3,0.1,0.4,0c0.1-0.1,0.3-0.2,0.4-0.3
		l0.2-0.4c0.2-0.3,0.4-0.4,0.6-0.5c0.3-0.1,0.6-0.1,0.9,0.1c0.7,0.3,0.8,1.1,0.4,1.8c-0.3,0.5-0.6,0.9-1.1,1l-0.2-0.5
		c0.4-0.1,0.6-0.4,0.8-0.8c0.2-0.5,0.2-0.8-0.2-1c-0.2-0.1-0.3-0.1-0.4,0c-0.1,0.1-0.2,0.1-0.3,0.3l-0.3,0.4
		c-0.2,0.3-0.4,0.5-0.6,0.5c-0.2,0.1-0.5,0.1-0.8-0.1C15.8,45.8,15.6,45.1,16,44.4 M18,40.8l3.4,2.1l-0.3,0.5l-3.4-2.1L18,40.8z
		 M20.7,36.9l0.4,0.3l-0.7,0.9l2.8,2.1l-0.4,0.5l-2.8-2.1l-0.7,0.9L19,39.1L20.7,36.9z M22.8,34.6l3.9,1.7l-0.5,0.5l-0.8-0.4
		l-1.1,1.2l0.4,0.7l-0.4,0.5l-1.9-3.8L22.8,34.6z M26.1,31.5c0.4-0.3,0.8-0.5,1.3-0.4l-0.1,0.5c-0.3,0-0.6,0.1-0.9,0.3
		c-0.4,0.3-0.4,0.7-0.2,0.9c0.1,0.1,0.2,0.2,0.3,0.2c0.1,0,0.3,0,0.5-0.1l0.4-0.2c0.3-0.2,0.5-0.2,0.8-0.2c0.3,0,0.5,0.2,0.8,0.4
		c0.5,0.6,0.3,1.3-0.4,1.8c-0.5,0.4-0.9,0.6-1.4,0.5l0.1-0.6c0.4,0.1,0.7-0.1,1-0.3c0.4-0.3,0.5-0.7,0.3-1c-0.1-0.1-0.2-0.2-0.4-0.2
		c-0.1,0-0.2,0-0.5,0.1l-0.4,0.2c-0.3,0.2-0.6,0.2-0.8,0.2c-0.3,0-0.5-0.2-0.7-0.4C25.4,32.7,25.5,32,26.1,31.5 M73.4,31.1l1.2,1
		c0.6,0.5,0.7,1.2,0.2,1.8c-0.5,0.5-1.2,0.6-1.8,0.1l-0.7-0.6l-1,1.2l-0.5-0.4L73.4,31.1z M77.3,34.6l0.4,0.5l-2,1.8
		c-0.4,0.4-0.4,0.8-0.1,1.2c0.3,0.4,0.8,0.4,1.2,0l2-1.8l0.4,0.4l-2,1.8c-0.6,0.5-1.4,0.5-2-0.2c-0.5-0.6-0.5-1.4,0.1-2L77.3,34.6z
		 M81.7,40.2c0.4,0.6,0.3,1.2-0.2,1.6c-0.4,0.2-0.8,0.2-1,0c0.1,0.3,0,0.7-0.4,1c-0.6,0.4-1.2,0.2-1.6-0.4l-0.9-1.4l3.4-2.2
		L81.7,40.2z M84,44.2l-3.1,1.5l0.8,1.7l-0.5,0.2l-1.1-2.3l3.6-1.7L84,44.2z M85.6,48.1l0.2,0.6L82,50l-0.2-0.6L85.6,48.1z
		 M86.9,52.5c0.2,0.7-0.1,1.4-0.9,1.7l-0.1-0.6c0.4-0.2,0.6-0.5,0.5-1c0-0.2-0.2-0.4-0.4-0.5c-0.3-0.1-0.5-0.1-1.3,0
		c-0.8,0.2-1,0.3-1.2,0.5c-0.1,0.2-0.2,0.4-0.1,0.6c0.1,0.4,0.4,0.6,0.9,0.6l0.1,0.6c-0.8,0-1.4-0.4-1.5-1.1c-0.1-0.4,0-0.8,0.2-1.1
		c0.3-0.5,0.7-0.6,1.5-0.7c0.8-0.2,1.2-0.3,1.7,0C86.6,51.8,86.8,52.1,86.9,52.5 M87.7,57.8l-3.9,1.8L83.8,59l0.8-0.3l-0.1-1.6
		l-0.8-0.2l-0.1-0.6l4.1,1.1L87.7,57.8z M50,11.1c-27.5,0-49.9,22.3-49.9,49.9c0,27.5,22.3,49.9,49.9,49.9
		c27.5,0,49.9-22.3,49.9-49.9C99.9,33.4,77.5,11.1,50,11.1"/>
	<path class="st0" d="M36.6,36.4c-0.2-0.1-0.4-0.2-0.6-0.3c-0.1,0-0.3,0-0.3,0.1C35.1,37,34.8,38,35.1,39c0.2,0.8,0.6,1.4,1.3,1.9
		c-0.3-0.7-0.5-1.5-0.5-2.3C36,37.8,36.2,37.1,36.6,36.4"/>
	<path class="st0" d="M39.7,39.2c-0.1,0.3,0.1,0.5,0.4,0.6c0.3,0.1,0.6,0.1,0.9,0.2c0.5,0.1,0.6,0,0.9-0.5c0.5-1.1,0.7-2.2,0.6-3.4
		c0-0.7-0.2-1.4-0.5-2.1c-0.1-0.1-0.3-0.3-0.4-0.3c-0.6,0-1.2,0-1.9,0c0.1,0.2,0.1,0.4,0.2,0.6c0.4,1,0.5,2,0.3,3
		C40,37.9,39.8,38.6,39.7,39.2"/>
	<path class="st0" d="M50,34.4c-0.4,0-0.8,0.4-0.8,0.8c0,0.4,0.4,0.8,0.8,0.8c0.4,0,0.8-0.4,0.8-0.8C50.8,34.8,50.4,34.4,50,34.4"/>
	<path class="st0" d="M44.7,38.4c0.1-0.1,0.2-0.3,0.2-0.5c0-0.5,0-1.1,0-1.6c0-0.7-0.1-1.3-0.3-2c-0.1-0.4-0.4-0.6-0.8-0.6
		c-0.3,0-0.6-0.1-0.8-0.1c-0.1,0-0.3,0-0.4,0c0.8,1.9,0.8,3.8,0.1,5.8C43.4,39,44.1,38.7,44.7,38.4"/>
	<path class="st0" d="M50,36.9c-0.9,0-1.7-0.8-1.7-1.7c0-0.9,0.8-1.6,1.7-1.6c0.9,0,1.7,0.8,1.7,1.7C51.7,36.1,50.9,36.9,50,36.9
		 M53.2,33.6c-0.5,0.1-0.7,0-1-0.4c-0.5-0.6-1.1-1.2-1.7-1.8c-0.4-0.4-0.8-0.4-1.2,0.1c-0.5,0.6-1.1,1.1-1.5,1.7
		c-0.3,0.4-0.5,0.5-1,0.3c-0.5-0.2-1-0.2-1.6,0c0.7,1.4,0.5,3,0.5,4.5c2.8-0.7,5.6-0.7,8.5,0c0-1.6-0.1-3.1,0.5-4.5
		C54.3,33.4,53.7,33.4,53.2,33.6"/>
	<path class="st0" d="M43.9,41.7c0.6-0.3,1.3-0.7,1.9-0.9c2.2-0.8,4.4-0.9,6.6-0.5c1.3,0.2,2.5,0.6,3.6,1.3c1.4,0.9,3,1,4.6,0.7
		c2.8-0.6,3.1-3.7,2.1-5.3c-0.1-0.1-0.2-0.3-0.3-0.3c-0.6,0-1.1,0-1.7,0c0,0.2,0,0.5,0.1,0.7c0.1,0.6,0.3,1.1,0.4,1.7
		c0.2,0.7,0,1.1-0.6,1.4c-1.1,0.5-2.2,0.5-3.2-0.1c-1.7-1-3.6-1.6-5.6-1.8c-3.2-0.3-6.1,0.1-8.9,1.8c-1,0.6-2.1,0.6-3.1,0.2
		c-0.8-0.3-1-0.7-0.8-1.5c0.2-0.8,0.3-1.5,0.5-2.3c-0.6,0-1.2,0-1.7,0c-0.2,0-0.4,0.1-0.5,0.4c-0.1,0.4-0.3,0.7-0.4,1.1
		c-0.5,1.9,0.5,3.6,2.5,4.1C40.9,42.6,42.4,42.4,43.9,41.7"/>
	<polygon class="st0" points="75.6,87.4 74.9,85.7 74,86.5 	"/>
	<path class="st0" d="M32.7,50.6c-0.6,2.2-0.9,4.4-1,6.6c-0.1,2.2,0.1,4.4,0.4,6.6c0.3,1.9,1.2,3.2,2.9,4c0.6,0.3,1.2,0.8,1.8,1.2
		c0.6,0.5,1,1.1,1.2,1.8c0.1,0.5,0.3,1,0.4,1.4c0.1,0.3,0.2,0.4,0.6,0.4c1.4,0,2.8,0,4.3,0c0.1,0,0.3,0,0.5-0.1
		c-0.4-0.5-0.7-0.9-1.1-1.3c-0.9-1.1-2-1.4-3.4-1.3c-0.4,0-0.8,0.2-1.3,0.3c0.5-1.3,1.5-2,2.8-2.5c-1.3-0.6-2.5-1-3.9-0.5
		c0.4-0.6,0.8-1.2,1.3-1.5c0.5-0.3,1.1-0.6,1.7-0.8c-1.1-0.7-2.3-1.1-3.7-0.7c0.7-1.3,1.9-1.6,3.2-2.1c-1.1-0.7-2.3-1.2-3.6-0.9
		c0.3-0.4,0.6-0.7,1-0.9c0.7-0.5,1.5-0.7,2.4-0.8c-1.6-1.3-3.2-2.3-5.4-2.1c1.5-1.5,3.2-2.1,5.3-2c-1-1-2-1.8-3.4-1.8
		c1-1,2.3-1,3.6-1.2c-0.6-0.5-1-0.9-1.5-1.3c-0.5-0.4-1.2-0.5-1.9-0.5c1.3-0.9,2.6-1.2,4.1-0.8c0.7-2.6,1.7-4.9,3-7.2
		c-0.8,0.1-1.5,0.2-2.1,0.3c-0.3,0-0.4,0.2-0.5,0.5c-0.1,0.6-0.2,1.3-0.3,1.9c-0.4,2.6-3,4-5,3.5c-0.4-0.1-0.7,0-1.1,0.1
		C33.3,49.5,32.9,50,32.7,50.6"/>
	<path class="st0" d="M81.6,76c0.3,0.1,0.7,0,0.8-0.4l0.4-0.9l-1.1-0.5l-0.4,0.9C81.1,75.5,81.2,75.8,81.6,76"/>
	<path class="st0" d="M46.8,61.9c0.1,0.1,0.1,0.1,0.2,0.3c0.8-1.6,0.6-3.2,0.6-4.8c-0.1,0.1-0.2,0.1-0.3,0.2c-0.5,0.3-1,0.6-1.6,0.7
		c-0.2,0-0.3,0.1-0.3,0.3C45.6,59.7,46,60.8,46.8,61.9"/>
	<path class="st0" d="M70.5,65.3c0.7-3,1-6,1-9c0-1.6-0.1-3.2-0.6-4.8c-0.3-1.1-0.9-2-1.8-2.7c-0.8-0.6-1.6-0.8-2.7-0.5
		c0.1,0.1,0.2,0.1,0.2,0.2c0.7,0.4,1.2,1,1.5,1.7c0.2,0.4,0.3,0.8,0.4,1.2c0.5,1.9,0.6,3.9,0.7,5.9c0.1,2.3,0,4.7-0.4,6.9
		c-0.4,2-1.5,3.6-3.4,4.4c-2,0.9-2.9,2.4-2.9,4.5c0,3.6,0,7.1,0,10.7c0,0.8-0.1,1.5-0.4,2.2c-1.1,2.3-2.9,3.7-5.4,4.1
		c-2,0.3-3.7,1.2-5.1,2.6c-0.3,0.3-0.4,0.6-0.3,1c0.1,0.4,0,0.8-0.3,1.1c-0.4,0.5-1.1,0.6-1.6,0.2c-0.6-0.4-0.8-1-0.6-1.6
		c0.1-0.2,0-0.4-0.1-0.6c-0.8-1-1.8-1.8-3.1-2.3c-0.8-0.3-1.7-0.5-2.6-0.7c-3.1-0.7-5.4-3.2-5.3-6.6c0-1.5,0-3.1,0-4.6c0-2,0-4,0-6
		c0-1.2-0.4-2.2-1.2-3.1c-0.6-0.6-1.3-1-2-1.3c-1.1-0.5-1.9-1.3-2.5-2.4c-0.4-0.8-0.6-1.7-0.8-2.6c-0.3-1.8-0.3-3.6-0.3-5.5
		c0-2.4,0.2-4.7,0.8-7c0.3-1.1,0.8-2.1,1.8-2.6c0,0,0.1-0.1,0.1-0.1c-0.5-0.1-1-0.1-1.4,0c-1.1,0.3-1.8,1-2.4,2
		c-0.7,1.3-1,2.6-1.1,4c-0.2,3.6,0,7.2,0.8,10.8c0.2,1.1,0.6,2.1,1.2,3c0.8,1.2,1.9,2,3.2,2.6c0.4,0.2,0.9,0.4,1.2,0.7
		c1,0.8,1.2,1.8,1.2,3c0,3.3,0,6.7,0,10c0,2.4,1.1,4.2,3.2,5.5c1.2,0.7,2.6,1.1,4,1.3c0.9,0.1,1.8,0.4,2.6,1
		c0.5,0.4,0.9,0.9,1.1,1.6c0.3,1-0.3,1.3-1,1.1c-0.4-0.1-0.7,0-0.9,0.4c-0.2,0.3-0.2,0.7,0.1,1c0.3,0.4,0.7,0.5,1.2,0.5
		c0.5,0,0.9,0,1.4-0.1c0.2,0,0.3,0.1,0.4,0.2c0.2,0.3,0.4,0.6,0.7,0.9c0.5,0.6,1.2,0.6,1.7,0c0.2-0.2,0.4-0.5,0.6-0.8
		c0.3-0.5,0.3-0.5,0.8-0.3c0.7,0.1,1.4,0.1,2.1-0.3c0.4-0.3,0.5-0.7,0.3-1.1c-0.2-0.4-0.5-0.6-1-0.6c-0.1,0-0.2,0.1-0.3,0.1
		c-0.5,0-0.8-0.2-0.7-0.7c0-0.6,0.3-1.1,0.7-1.6c0.7-0.7,1.5-1.1,2.4-1.3c1-0.2,1.9-0.4,2.9-0.7c2.3-0.7,3.9-2.2,4.6-4.6
		c0.3-1,0.3-2.1,0.3-3.1c0-3,0-5.9,0-8.9c0-1.4,0.6-2.4,1.8-3c0.3-0.2,0.6-0.3,0.9-0.4C68.6,69.3,70,67.7,70.5,65.3"/>
	<path class="st0" d="M85,71.7c0.4,0.1,0.7-0.1,0.8-0.5l0.2-0.9L84.8,70l-0.2,0.9C84.5,71.3,84.6,71.6,85,71.7"/>
	<path class="st0" d="M83.2,76.6c0.3,0.2,0.6,0,0.8-0.3l0.4-0.8l-1-0.5l-0.4,0.8C82.8,76.1,82.8,76.5,83.2,76.6"/>
	<path class="st0" d="M43.5,67.7c0-0.1-0.1-0.1-0.1-0.2c0,0,0,0-0.1,0.1c0.4,1.5,1.3,2.7,2.5,3.8c0.1-0.4,0.2-0.7,0.2-1
		c0.1-0.4,0.1-0.5-0.3-0.7C44.9,69.1,44.2,68.4,43.5,67.7"/>
	<path class="st0" d="M55,58.3c-1.7-0.3-2.9-1.1-3.9-2.4c0.2,2.6,0.8,5,2.8,6.8C54.7,61.3,54.9,59.8,55,58.3"/>
	<path class="st0" d="M46.2,72.7h7.6c-0.6-1.3-0.6-2.7-0.6-4.1v-4.8c0-0.3-0.1-0.6-0.3-0.8c-1.7-1.9-2.5-4.1-2.8-6.5
		C50.1,56,50,55.4,50,55c-0.5,0.5-1,0.9-1.5,1.4c-0.1,0.1-0.2,0.4-0.2,0.6c0,0.7,0,1.4,0,2.1c0,0.8-0.1,1.7-0.3,2.5
		c-0.1,0.3-0.2,0.7-0.2,1c-0.1,1.3-0.2,2.6-0.3,3.8c-0.2,2-0.5,4-1.3,5.9C46.2,72.5,46.2,72.6,46.2,72.7"/>
	<path class="st0" d="M60.9,53.6c-0.1,0-0.2,0.2-0.2,0.3c0,0.3,0,0.6,0.1,0.9c0.6-0.4,1.1-0.7,1.7-1.1
		C61.9,53.5,61.4,53.4,60.9,53.6"/>
	<path class="st0" d="M60.5,50.8c-0.1,0.1-0.3,0.2-0.3,0.3c0,0.3,0.1,0.7,0.1,1c0.5-0.5,1-0.9,1.5-1.3C61.4,50.7,61,50.7,60.5,50.8"
		/>
	<path class="st0" d="M61.1,56.7c-0.1,0-0.3,0.2-0.3,0.3c0,0.5,0,1,0,1.6c0.9-0.7,1.9-1.3,3.1-1.5C63,56.7,62.1,56.6,61.1,56.7"/>
	<path class="st0" d="M58.5,82.3c-1-0.9-1.9-1.7-2.9-2.6c-0.2,0.4-0.3,0.7-0.5,1c-0.3-0.3-0.5-0.6-0.8-0.9c0.3-0.2,0.6-0.4,0.9-0.5
		c-0.8-0.9-1.7-1.9-2.5-2.8c0.3,0,0.6,0,0.9,0.1c0.5,0,1,0.1,1.5,0.1c0.4,0,0.5,0.1,0.5,0.5c0.1,0.4,0.1,0.7,0.2,1.1
		c0,0.1,0.1,0.2,0.2,0.3c0,0,0.2,0,0.3-0.1c0-0.1,0-0.3,0-0.4c0-0.1-0.1-0.2-0.2-0.4c0.4-0.1,1,0.4,1.1,0.7c0,0.1,0,0.2-0.1,0.3
		c-0.1,0.1-0.3,0.2-0.4,0.3c0.1,0.3,0.3,0.3,0.6,0.3c0.2,0,0.5,0,0.7,0c0.3,0,0.4,0.1,0.4,0.4c0.1,0.8,0.2,1.5,0.2,2.3
		C58.5,82.2,58.5,82.2,58.5,82.3 M61.3,85c0.1-0.9,0.1-1.8,0.1-2.7c0-0.5-0.2-0.9-0.5-1.3c-2.3-2.3-4.6-4.6-6.9-6.9
		c-0.3-0.3-0.7-0.5-1.1-0.5c-1.8,0-3.5,0-5.3,0c-0.1,0-0.1,0-0.3,0c4.4,4.4,8.8,8.7,13.2,13C60.9,86.2,61.3,85.7,61.3,85"/>
	<path class="st0" d="M35.5,35.3c0.8,0.2,1.7,0.4,2.5,0.5c0.5,0.1,0.9,0,1.4-0.2c-0.3-0.9-0.5-1.7-0.8-2.6c1.7-0.4,3.4-0.4,5.1-0.2
		c0.2,0,0.4,0.1,0.6,0c0.8-0.3,1.5-0.3,2.3-0.2c0.4,0.1,0.7-0.1,0.9-0.4c0.4-0.6,1-1.1,1.6-1.6c0.6-0.4,1.1-0.4,1.7,0
		c0.6,0.4,1.2,0.9,1.6,1.6c0.3,0.4,0.6,0.5,1.1,0.5c0.7-0.1,1.4,0,2,0.1c0.2,0.1,0.5,0.1,0.8,0.1c1.1-0.1,2.1-0.3,3.2-0.1
		c0.6,0.1,1.2,0.2,1.9,0.3c-0.3,0.9-0.5,1.8-0.8,2.6c0.3,0,0.5,0,0.7,0.1c1,0,2-0.2,3.1-0.4c0.2,0,0.3-0.1,0.4-0.3
		c1.1-1.9,2.2-3.7,3.6-5.4c0.1-0.2,0.2-0.3,0.4-0.5c-0.2,0-0.3,0.1-0.4,0.1c-0.9,0.3-1.8,0.6-2.6,0.9c-0.3,0.1-0.5,0-0.5-0.4
		c0-0.2,0-0.4-0.1-0.6C65.1,28.5,65,27.7,65,27c-0.1,0.1-0.2,0.1-0.3,0.1c-1,0.6-2.1,1.2-3.2,1.8c-0.4,0.2-0.5,0.1-0.7-0.2
		c-0.4-0.9-0.7-1.8-1.1-2.6c0-0.1-0.1-0.1-0.1-0.2c-0.7,0.6-1.4,1.2-2.2,1.7c-0.4,0.3-0.5,0.3-0.8-0.1c-0.5-0.8-1-1.6-1.4-2.4
		c-0.1-0.1-0.1-0.2-0.2-0.3c-0.6,0.5-1.2,1-1.8,1.5c-0.4,0.4-0.5,0.4-0.9-0.1c-0.6-0.7-1.2-1.4-1.8-2.2c-0.1-0.1-0.1-0.2-0.2-0.3
		c-0.7,0.9-1.4,1.7-2.1,2.6c-0.3,0.4-0.4,0.4-0.8,0.1c-0.6-0.5-1.2-1-1.9-1.6c-0.1,0.1-0.1,0.2-0.2,0.3c-0.5,0.8-1,1.7-1.5,2.5
		c-0.2,0.4-0.4,0.4-0.8,0.1c-0.7-0.5-1.4-1.1-2-1.7c-0.1,0-0.1-0.1-0.2-0.2c-0.4,1-0.8,2-1.3,2.9c-0.2,0.4-0.3,0.5-0.7,0.2
		c-1.1-0.6-2.2-1.2-3.2-1.8c-0.1,0-0.2-0.1-0.3-0.2c0,0.1,0,0.2,0,0.2c-0.1,0.9-0.2,1.8-0.3,2.7c0,0.4-0.2,0.5-0.6,0.4
		c-0.4-0.1-0.8-0.3-1.3-0.4c-0.6-0.2-1.2-0.4-1.8-0.6c0,0,0,0.1,0,0.1c1.5,1.8,2.8,3.7,3.9,5.8C35.3,35.3,35.4,35.3,35.5,35.3"/>
	<path class="st0" d="M60.6,60.7c0,0.3-0.1,0.7-0.1,1.1c0.7-0.5,1.3-0.7,2.1-0.8c-0.4-0.3-1.4-0.5-1.8-0.4
		C60.7,60.5,60.6,60.6,60.6,60.7"/>
	<path class="st0" d="M62,63.7c-0.5-0.3-1-0.4-1.5-0.4c-0.1,0-0.2,0.1-0.2,0.2c-0.1,0.3-0.1,0.6-0.2,0.9
		C60.7,64.1,61.4,63.9,62,63.7"/>
	<path class="st0" d="M63.8,36.2c-0.1,0.1-0.2,0.1-0.4,0.2c0.9,1.5,0.9,3,0.2,4.5l0.1,0c0.1-0.1,0.2-0.1,0.3-0.2
		c1.2-1.1,1.4-2.8,0.5-4.3C64.3,36,64.2,36,63.8,36.2"/>
	<path class="st0" d="M60.4,33.7c-0.6,0-1.1-0.1-1.7-0.1c-0.3,0-0.5,0.1-0.5,0.4c-0.7,1.9-0.7,3.8,0.2,5.6c0.1,0.1,0.3,0.3,0.4,0.3
		c0.4,0,0.8,0,1.1-0.1c0.4-0.1,0.5-0.3,0.5-0.6c0-0.3-0.1-0.7-0.2-1c-0.2-1-0.4-2-0.2-3C60.1,34.7,60.3,34.2,60.4,33.7"/>
</g>
</svg>
