<svg width="281" height="100" viewBox="0 0 281 100" fill="none" xmlns="http://www.w3.org/2000/svg">
<path d="M155.472 87.1558C165.92 87.1558 169.074 85.5647 174.79 78.4048C174.79 82.5788 178.144 85.9625 182.281 85.9625H189.772V22.518H174.002V57.9196C174.002 68.2617 168.68 74.2282 160.4 74.2282C152.712 74.2282 149.755 69.8527 149.755 61.3007V22.518H133.985V64.4828C134.183 79.797 141.279 87.1558 155.472 87.1558Z" fill="#1F78D1"/>
<path d="M252.836 21.328L242.666 21.3277L237.507 34.2308C237.507 34.2308 265.05 31.1971 265.05 41.5393V42.9315C264.853 45.9148 262.882 47.5058 256.968 47.9036L246.126 49.0969C230.356 50.2902 224.442 58.0468 224.442 67.7922C224.442 79.5264 232.327 87.0841 247.112 87.0841C257.362 87.0841 261.699 85.8908 265.05 79.5264C265.247 79.3275 265.444 78.9298 265.641 78.532C265.641 82.5961 268.907 85.8908 272.935 85.8908H280.623V44.3237C280.82 31.3961 272.155 21.5269 252.836 21.328ZM265.05 59.2401C265.05 68.3888 259.531 75.9465 249.871 75.9465C241.789 75.9465 238.241 72.1677 238.241 66.4C238.241 61.8256 241.395 58.4446 249.28 57.8479L256.771 57.2512C261.108 56.8535 263.867 56.0579 265.05 54.8646V59.2401Z" fill="#1F78D1"/>
<path d="M235.11 21.3282H231.292C222.618 21.3282 216.222 25.8896 213.66 33.0495V22.5086H198.678V77.3328C198.678 82.0936 202.503 85.9531 207.222 85.9531H214.448V51.7447C214.448 38.4108 220.56 34.2428 229.97 34.2428L235.11 21.3282Z" fill="#1F78D1"/>
<path d="M24.9313 99.9986L42.9119 49.115C27.7819 51.1061 13.9675 57.5218 2.34589 67.2561C5.19647 80.7513 13.5289 92.2554 24.9313 99.9986Z" fill="#1F78D1"/>
<path d="M82.6039 99.9986C94.2255 92.6979 102.558 80.9725 105.628 67.2561C94.0062 57.0794 80.1919 50.6636 65.0619 49.115L82.6039 99.9986Z" fill="#1F78D1"/>
<path d="M107.383 56.8583V54.4246C107.383 24.115 83.4811 -5.34058e-05 54.0975 -5.34058e-05C24.7138 -5.34058e-05 0.373623 24.115 0.373623 54.4246V56.8583C15.9426 45.1326 34.5815 38.7167 54.0975 38.7167C73.1749 38.7167 91.8138 45.1326 107.383 56.8583Z" fill="#1F78D1"/>
</svg>
