<?xml version="1.0" encoding="utf-8"?>
<!-- Svg Vector Icons : http://www.onlinewebfonts.com/icon -->
<!DOCTYPE svg PUBLIC "-//W3C//DTD SVG 1.1//EN" "http://www.w3.org/Graphics/SVG/1.1/DTD/svg11.dtd">
<svg version="1.1" xmlns="http://www.w3.org/2000/svg" xmlns:xlink="http://www.w3.org/1999/xlink" x="0px" y="0px" viewBox="0 0 1000 1000" enable-background="new 0 0 1000 1000" xml:space="preserve">
<metadata> Svg Vector Icons : http://www.onlinewebfonts.com/icon </metadata>
<g><path d="M407.5,484.6c111.5,0,224.9-109.6,224.9-225.7c0-116-108-234.1-219.5-234.1c-111.4,0-222.3,120.9-222.3,236.9C190.7,377.8,296.1,484.6,407.5,484.6L407.5,484.6L407.5,484.6L407.5,484.6z"/><path d="M456.6,532.9H233.6c-55.8,0-139.4,29.1-167.2,116c-27.9,87-27.9,87-55.8,174c-14,43.7,190.2,66,393.2,65.3c67.4-0.2,21.5-55.5,21.5-125.8C425.4,602.5,561.9,532.9,456.6,532.9L456.6,532.9L456.6,532.9L456.6,532.9z"/><path d="M456.6,532.9"/><path d="M974.5,669.4h-46.7c-4.3-15.4-10.4-30.1-18-43.7l33-33c6.1-6.1,6.1-15.9,0-22l-53.3-53.3c-3-3-7-4.5-10.9-4.5c-4,0-7.9,1.5-10.9,4.5l-33,33c-13.6-7.7-28.3-13.7-43.7-18v-46.7c0-8.5-7-15.5-15.5-15.5h-75.3c-8.5,0-15.5,7-15.5,15.5v46.7c-15.4,4.3-30.1,10.4-43.7,18l-33-32.9c-3-3-7-4.5-10.9-4.5c-3.9,0-7.9,1.5-10.9,4.5l-53.3,53.3c-6,6.1-6,15.9,0,22l33,33c-7.7,13.6-13.7,28.3-18,43.7h-46.7c-8.5,0-15.5,7-15.5,15.5v75.3c0,8.5,7,15.5,15.5,15.5h46.7c4.3,15.4,10.4,30.1,18,43.7l-33,33c-6,6.1-6,15.9,0,22l53.3,53.3c3,3,7,4.5,10.9,4.5c3.9,0,7.9-1.5,10.9-4.5l33-33c13.6,7.7,28.3,13.7,43.7,18v46.7c0,8.5,7,15.5,15.5,15.5h75.3c8.5,0,15.5-7,15.5-15.5v-46.7c15.4-4.3,30.1-10.4,43.7-18l33,33c3,3,7,4.5,10.9,4.5c4,0,7.9-1.5,10.9-4.5l53.3-53.3c6.1-6.1,6.1-15.9,0-22l-33-33c7.7-13.7,13.7-28.3,18-43.7h46.7c8.5,0,15.5-7,15.5-15.5V685C990,676.4,983,669.4,974.5,669.4L974.5,669.4z M870.2,759.7c-3,10.8-7.2,21-12.5,30.5l-19,33.6l-33.6,19c-9.4,5.3-19.6,9.5-30.5,12.5l-37.1,10.4l-37.1-10.4c-10.8-3-21-7.2-30.5-12.5l-33.6-19l-19-33.6c-5.3-9.4-9.5-19.6-12.5-30.5l-10.3-37.1l10.4-37.1c3-10.8,7.2-21,12.5-30.5l19-33.6l33.6-19c9.4-5.3,19.6-9.5,30.5-12.5l37.1-10.4l37.1,10.4c10.8,3,21,7.2,30.5,12.5l33.6,19l19,33.6c5.3,9.4,9.5,19.6,12.5,30.5l10.4,37.1L870.2,759.7L870.2,759.7z"/><path d="M737.5,628c-52.3,0-94.7,42.3-94.7,94.7c0,52.2,42.3,94.7,94.7,94.7c52.3,0,94.7-42.3,94.7-94.7C832.2,670.3,789.9,628,737.5,628L737.5,628z M737.5,757.4c-19.3,0-34.9-15.6-34.9-34.9c0-19.3,15.6-34.9,34.9-34.9c19.3,0,34.9,15.6,34.9,34.9C772.4,741.8,756.8,757.4,737.5,757.4L737.5,757.4z"/></g>
</svg>