<?xml version="1.0" encoding="UTF-8" standalone="no"?>
<!-- Created with Inkscape (http://www.inkscape.org/) -->

<svg
   xmlns:dc="http://purl.org/dc/elements/1.1/"
   xmlns:cc="http://creativecommons.org/ns#"
   xmlns:rdf="http://www.w3.org/1999/02/22-rdf-syntax-ns#"
   xmlns:svg="http://www.w3.org/2000/svg"
   xmlns="http://www.w3.org/2000/svg"
   xmlns:sodipodi="http://sodipodi.sourceforge.net/DTD/sodipodi-0.dtd"
   xmlns:inkscape="http://www.inkscape.org/namespaces/inkscape"
   width="866.685"
   height="1000"
   id="svg3290"
   version="1.1"
   inkscape:version="0.92.3 (2405546, 2018-03-11)"
   sodipodi:docname="Open Source Initiative (Print).svg"
   inkscape:export-filename="/home/rafael/workspace/logo-osi/5/png/logo396x412.png"
   inkscape:export-xdpi="52.737835"
   inkscape:export-ydpi="52.737835">
  <defs
     id="defs3292" />
  <sodipodi:namedview
     id="base"
     pagecolor="#ffffff"
     bordercolor="#666666"
     borderopacity="1.0"
     inkscape:pageopacity="0.0"
     inkscape:pageshadow="2"
     inkscape:zoom="0.49497475"
     inkscape:cx="474.60635"
     inkscape:cy="582.35127"
     inkscape:document-units="px"
     inkscape:current-layer="svg3290"
     showgrid="false"
     inkscape:window-width="1360"
     inkscape:window-height="706"
     inkscape:window-x="-8"
     inkscape:window-y="-8"
     inkscape:window-maximized="1"
     showguides="true"
     inkscape:guide-bbox="true" />
  <metadata
     id="metadata3295">
    <rdf:RDF>
      <cc:Work
         rdf:about="">
        <dc:format>image/svg+xml</dc:format>
        <dc:type
           rdf:resource="http://purl.org/dc/dcmitype/StillImage" />
        <dc:title></dc:title>
      </cc:Work>
    </rdf:RDF>
  </metadata>
  <path
     style="color:#000000;font-style:normal;font-variant:normal;font-weight:normal;font-stretch:normal;font-size:medium;line-height:normal;font-family:sans-serif;font-variant-ligatures:normal;font-variant-position:normal;font-variant-caps:normal;font-variant-numeric:normal;font-variant-alternates:normal;font-feature-settings:normal;text-indent:0;text-align:start;text-decoration:none;text-decoration-line:none;text-decoration-style:solid;text-decoration-color:#000000;letter-spacing:normal;word-spacing:normal;text-transform:none;writing-mode:lr-tb;direction:ltr;text-orientation:mixed;dominant-baseline:auto;baseline-shift:baseline;text-anchor:middle;white-space:normal;shape-padding:0;clip-rule:nonzero;display:inline;overflow:visible;visibility:visible;opacity:1;isolation:auto;mix-blend-mode:normal;color-interpolation:sRGB;color-interpolation-filters:linearRGB;solid-color:#000000;solid-opacity:1;vector-effect:none;fill-opacity:1;fill-rule:nonzero;stroke:none;stroke-width:29.93845367;stroke-linecap:butt;stroke-linejoin:round;stroke-miterlimit:4;stroke-dasharray:none;stroke-dashoffset:0;stroke-opacity:1;color-rendering:auto;image-rendering:auto;shape-rendering:auto;text-rendering:auto;enable-background:accumulate"
     d="M 446.71094,0 C 266.43486,0 111.60257,128.6988 78.748047,305.93945 45.893083,483.18249 144.29737,658.88577 312.61133,723.48828 a 14.970724,14.970724 0 0 0 19.33984,-8.61133 l 84.02735,-218.94922 a 14.970724,14.970724 0 0 0 -8.61133,-19.33789 c -49.48539,-18.99761 -78.25295,-70.37171 -68.5918,-122.48046 9.661,-52.1079 54.92678,-89.73438 107.93555,-89.73438 53.00877,0 98.27455,37.62648 107.93554,89.73438 9.66116,52.10875 -19.1064,103.48285 -68.59179,122.48046 a 14.970724,14.970724 0 0 0 -8.61133,19.33789 l 84.02734,218.94922 a 14.970724,14.970724 0 0 0 19.33985,8.61133 C 749.1245,658.88577 847.52879,483.18249 814.67383,305.93945 781.81931,128.6988 626.98701,0 446.71094,0 Z m 0,29.9375 c 166.04591,0 308.26645,118.22076 338.52539,281.45898 29.34574,158.31179 -54.79091,314.88553 -201.29688,378.46875 l -73.5,-191.52148 C 564.76134,470.48868 595.41767,409.79069 584.08203,348.65039 571.82502,282.54054 513.9495,234.4375 446.71094,234.4375 c -67.23856,0 -125.11409,48.10304 -137.3711,114.21289 -11.33563,61.1403 19.32069,121.83829 73.64258,149.69336 l -73.5,191.52148 C 162.97646,626.28201 78.839807,469.70827 108.18555,311.39648 138.44448,148.15826 280.66503,29.9375 446.71094,29.9375 Z"
     id="path3773"
     inkscape:connector-curvature="0" />
  <g
     aria-label="open    "
     transform="matrix(4.0210922,0,0,4.0993241,1612.1473,3496.0706)"
     style="font-style:normal;font-weight:normal;line-height:0%;font-family:sans-serif;-inkscape-font-specification:Sans;letter-spacing:0px;word-spacing:0px;display:inline;fill-opacity:1;stroke:none"
     id="text7890-3-1">
    <path
       d="m -383.22498,-653.48608 q 0,4.68622 -2.40319,7.39839 -2.40319,2.71217 -6.43711,2.71217 -4.06826,0 -6.47145,-2.71217 -2.38602,-2.71217 -2.38602,-7.39839 0,-4.68622 2.38602,-7.39839 2.40319,-2.72933 6.47145,-2.72933 4.03392,0 6.43711,2.72933 2.40319,2.71217 2.40319,7.39839 z m -3.33013,0 q 0,-3.72494 -1.45908,-5.52733 -1.45908,-1.81956 -4.05109,-1.81956 -2.62635,0 -4.08543,1.81956 -1.44191,1.80239 -1.44191,5.52733 0,3.60478 1.45908,5.47584 1.45908,1.85389 4.06826,1.85389 2.57484,0 4.03392,-1.83673 1.47625,-1.85388 1.47625,-5.493 z"
       style="font-style:normal;font-variant:normal;font-weight:normal;font-stretch:normal;font-size:35.15522385px;line-height:1.25;font-family:OpenSymbol;-inkscape-font-specification:Sans;fill-opacity:1"
       id="path26630"
       inkscape:connector-curvature="0" />
    <path
       d="m -361.33879,-653.7264 q 0,2.33453 -0.66946,4.27425 -0.66946,1.92255 -1.88822,3.26147 -1.13294,1.27025 -2.67784,1.97404 -1.52775,0.68663 -3.24431,0.68663 -1.49341,0 -2.71217,-0.32615 -1.20159,-0.32614 -2.45469,-1.01277 v 8.03352 h -3.22714 v -26.24626 h 3.22714 v 2.00838 q 1.28743,-1.08144 2.88383,-1.80239 1.61357,-0.73812 3.43313,-0.73812 3.46746,0 5.39001,2.62634 1.93972,2.60917 1.93972,7.26106 z m -3.33014,0.0858 q 0,-3.46746 -1.18443,-5.18402 -1.18443,-1.71657 -3.63911,-1.71657 -1.39042,0 -2.798,0.6008 -1.40758,0.6008 -2.69501,1.57924 v 10.86585 q 1.37326,0.61796 2.3517,0.84111 0.9956,0.22316 2.2487,0.22316 2.695,0 4.20558,-1.81956 1.51057,-1.81956 1.51057,-5.39001 z"
       style="font-style:normal;font-variant:normal;font-weight:normal;font-stretch:normal;font-size:35.15522385px;line-height:1.25;font-family:OpenSymbol;-inkscape-font-specification:Sans;fill-opacity:1"
       id="path26632"
       inkscape:connector-curvature="0" />
    <path
       d="m -340.25939,-653.15993 h -14.12732 q 0,1.76806 0.53213,3.08981 0.53214,1.30459 1.45908,2.14571 0.89262,0.82395 2.11138,1.23592 1.23592,0.41198 2.71217,0.41198 1.95688,0 3.93093,-0.77246 1.99121,-0.78961 2.83233,-1.5449 h 0.17165 v 3.51895 q -1.63073,0.68663 -3.33013,1.1501 -1.6994,0.46347 -3.57045,0.46347 -4.77205,0 -7.44989,-2.57484 -2.67784,-2.59201 -2.67784,-7.3469 0,-4.70338 2.55768,-7.46705 2.57485,-2.76366 6.76326,-2.76366 3.87944,0 5.97364,2.26586 2.11138,2.26586 2.11138,6.43711 z m -3.14131,-2.47185 q -0.0172,-2.54052 -1.28743,-3.93093 -1.25309,-1.39042 -3.82793,-1.39042 -2.59201,0 -4.13692,1.52774 -1.52774,1.52774 -1.73373,3.79361 z"
       style="font-style:normal;font-variant:normal;font-weight:normal;font-stretch:normal;font-size:35.15522385px;line-height:1.25;font-family:OpenSymbol;-inkscape-font-specification:Sans;fill-opacity:1"
       id="path26634"
       inkscape:connector-curvature="0" />
    <path
       d="m -319.33448,-643.90765 h -3.22714 V -654.825 q 0,-1.32175 -0.15449,-2.47185 -0.1545,-1.16726 -0.56647,-1.81956 -0.42914,-0.72095 -1.23593,-1.06427 -0.80678,-0.36048 -2.0942,-0.36048 -1.32176,0 -2.76367,0.6523 -1.44191,0.65229 -2.76367,1.66507 v 14.31614 h -3.22714 v -19.17402 h 3.22714 v 2.12854 q 1.51058,-1.25309 3.12415,-1.95688 1.61357,-0.70379 3.31296,-0.70379 3.10699,0 4.73772,1.87105 1.63074,1.87105 1.63074,5.39001 z"
       style="font-style:normal;font-variant:normal;font-weight:normal;font-stretch:normal;font-size:35.15522385px;line-height:1.25;font-family:OpenSymbol;-inkscape-font-specification:Sans;fill-opacity:1"
       id="path26636"
       inkscape:connector-curvature="0" />
  </g>
  <g
     aria-label="source    "
     transform="matrix(4.0210922,0,0,4.0993241,1612.1473,3496.0706)"
     style="font-style:normal;font-weight:normal;line-height:0%;font-family:sans-serif;-inkscape-font-specification:Sans;letter-spacing:0px;word-spacing:0px;display:inline;fill-opacity:1;stroke:none"
     id="text7890-3-1-1">
    <path
       d="m -283.04338,-650.06322 q 0,2.62634 -2.18004,4.30857 -2.16287,1.68223 -5.92215,1.68223 -2.12853,0 -3.91376,-0.4978 -1.76806,-0.51497 -2.96966,-1.11577 v -3.62195 h 0.17166 q 1.52774,1.1501 3.3988,1.83673 1.87105,0.66946 3.58761,0.66946 2.12854,0 3.33014,-0.68663 1.20159,-0.68662 1.20159,-2.16287 0,-1.13293 -0.65229,-1.71656 -0.6523,-0.58363 -2.50618,-0.99561 -0.68663,-0.15449 -1.8024,-0.36048 -1.0986,-0.20598 -2.00838,-0.4463 -2.52334,-0.66946 -3.58761,-1.95689 -1.04711,-1.30458 -1.04711,-3.1928 0,-1.18443 0.48064,-2.23154 0.4978,-1.0471 1.49341,-1.87105 0.96128,-0.80679 2.43752,-1.27026 1.49341,-0.48064 3.33013,-0.48064 1.71657,0 3.46746,0.42914 1.76806,0.41198 2.93533,1.01278 v 3.45029 h -0.17166 q -1.23593,-0.90978 -3.00399,-1.52774 -1.76806,-0.63513 -3.46745,-0.63513 -1.76806,0 -2.98683,0.68662 -1.21876,0.66946 -1.21876,2.00838 0,1.18443 0.73813,1.78523 0.72095,0.6008 2.33452,0.97844 0.89262,0.20599 1.99122,0.41198 1.11576,0.20598 1.85389,0.37764 2.24869,0.51497 3.46745,1.76806 1.21877,1.27026 1.21877,3.36447 z"
       style="font-style:normal;font-variant:normal;font-weight:normal;font-stretch:normal;font-size:35.15522385px;line-height:1.25;font-family:OpenSymbol;-inkscape-font-specification:Sans;fill-opacity:1"
       id="path26639"
       inkscape:connector-curvature="0" />
    <path
       d="m -262.06698,-654.11431 q 0,4.68621 -2.40319,7.39839 -2.40319,2.71217 -6.43711,2.71217 -4.06826,0 -6.47145,-2.71217 -2.38602,-2.71218 -2.38602,-7.39839 0,-4.68622 2.38602,-7.39839 2.40319,-2.72934 6.47145,-2.72934 4.03392,0 6.43711,2.72934 2.40319,2.71217 2.40319,7.39839 z m -3.33013,0 q 0,-3.72495 -1.45908,-5.52734 -1.45908,-1.81956 -4.05109,-1.81956 -2.62634,0 -4.08542,1.81956 -1.44192,1.80239 -1.44192,5.52734 0,3.60478 1.45908,5.47583 1.45908,1.85389 4.06826,1.85389 2.57484,0 4.03392,-1.83672 1.47625,-1.85389 1.47625,-5.493 z"
       style="font-style:normal;font-variant:normal;font-weight:normal;font-stretch:normal;font-size:35.15522385px;line-height:1.25;font-family:OpenSymbol;-inkscape-font-specification:Sans;fill-opacity:1"
       id="path26641"
       inkscape:connector-curvature="0" />
    <path
       d="m -241.15923,-644.53589 h -3.22714 v -2.12854 q -1.63074,1.28743 -3.12415,1.97405 -1.49341,0.68663 -3.2958,0.68663 -3.02115,0 -4.70339,-1.83673 -1.68223,-1.85389 -1.68223,-5.42434 v -12.44508 h 3.22714 v 10.91734 q 0,1.45908 0.13733,2.50618 0.13732,1.02994 0.58363,1.76806 0.46347,0.75529 1.20159,1.0986 0.73813,0.34332 2.14571,0.34332 1.25309,0 2.72933,-0.6523 1.49341,-0.65229 2.78084,-1.66506 v -14.31614 h 3.22714 z"
       style="font-style:normal;font-variant:normal;font-weight:normal;font-stretch:normal;font-size:35.15522385px;line-height:1.25;font-family:OpenSymbol;-inkscape-font-specification:Sans;fill-opacity:1"
       id="path26643"
       inkscape:connector-curvature="0" />
    <path
       d="m -222.8435,-660.19095 h -0.17165 q -0.72096,-0.17166 -1.40759,-0.24032 -0.66946,-0.0858 -1.5964,-0.0858 -1.49341,0 -2.88383,0.66946 -1.39041,0.6523 -2.67784,1.6994 v 13.61235 h -3.22714 v -19.17401 h 3.22714 v 2.83233 q 1.92255,-1.54491 3.38163,-2.18004 1.47625,-0.65229 3.00399,-0.65229 0.84112,0 1.21876,0.0515 0.37764,0.0343 1.13293,0.15449 z"
       style="font-style:normal;font-variant:normal;font-weight:normal;font-stretch:normal;font-size:35.15522385px;line-height:1.25;font-family:OpenSymbol;-inkscape-font-specification:Sans;fill-opacity:1"
       id="path26645"
       inkscape:connector-curvature="0" />
    <path
       d="m -205.59203,-645.73748 q -1.61357,0.77245 -3.07265,1.20159 -1.44191,0.42914 -3.07265,0.42914 -2.07704,0 -3.81077,-0.6008 -1.73373,-0.61796 -2.96965,-1.85388 -1.25309,-1.23593 -1.93972,-3.12415 -0.68663,-1.88822 -0.68663,-4.41157 0,-4.70338 2.57485,-7.38122 2.59201,-2.67784 6.83192,-2.67784 1.6479,0 3.22714,0.46347 1.59641,0.46347 2.91816,1.13293 v 3.58762 h -0.17166 q -1.47624,-1.1501 -3.05548,-1.76806 -1.56207,-0.61796 -3.05548,-0.61796 -2.7465,0 -4.34291,1.85389 -1.57924,1.83672 -1.57924,5.40717 0,3.46746 1.54491,5.33851 1.56207,1.85389 4.37724,1.85389 0.97844,0 1.99121,-0.25748 1.01277,-0.25749 1.81956,-0.66946 0.70379,-0.36048 1.32175,-0.75529 0.61797,-0.41197 0.97844,-0.70379 h 0.17166 z"
       style="font-style:normal;font-variant:normal;font-weight:normal;font-stretch:normal;font-size:35.15522385px;line-height:1.25;font-family:OpenSymbol;-inkscape-font-specification:Sans;fill-opacity:1"
       id="path26647"
       inkscape:connector-curvature="0" />
    <path
       d="m -185.38808,-653.78817 h -14.12732 q 0,1.76806 0.53213,3.08982 0.53214,1.30459 1.45908,2.1457 0.89262,0.82395 2.11138,1.23593 1.23592,0.41197 2.71217,0.41197 1.95688,0 3.93093,-0.77245 1.99121,-0.78962 2.83233,-1.54491 h 0.17165 v 3.51896 q -1.63073,0.68662 -3.33013,1.1501 -1.6994,0.46347 -3.57045,0.46347 -4.77205,0 -7.44989,-2.57485 -2.67784,-2.59201 -2.67784,-7.34689 0,-4.70338 2.55768,-7.46705 2.57485,-2.76367 6.76326,-2.76367 3.87944,0 5.97365,2.26586 2.11137,2.26587 2.11137,6.43712 z m -3.14131,-2.47185 q -0.0172,-2.54051 -1.28743,-3.93093 -1.25309,-1.39042 -3.82793,-1.39042 -2.59201,0 -4.13692,1.52775 -1.52774,1.52774 -1.73373,3.7936 z"
       style="font-style:normal;font-variant:normal;font-weight:normal;font-stretch:normal;font-size:35.15522385px;line-height:1.25;font-family:OpenSymbol;-inkscape-font-specification:Sans;fill-opacity:1"
       id="path26649"
       inkscape:connector-curvature="0" />
  </g>
  <g
     aria-label="initiative    "
     transform="matrix(4.0210922,0,0,4.0993241,1612.1473,3496.0706)"
     style="font-style:normal;font-weight:normal;line-height:0%;font-family:sans-serif;-inkscape-font-specification:Sans;letter-spacing:0px;word-spacing:0px;display:inline;fill-opacity:1;stroke:none"
     id="text7890-3-1-1-4">
    <path
       d="m -361.83078,-631.81423 h -3.63911 v -3.3473 h 3.63911 z m -0.20598,22.38399 h -3.22714 v -19.17401 h 3.22714 z"
       style="font-style:normal;font-variant:normal;font-weight:normal;font-stretch:normal;font-size:35.15522385px;line-height:1.25;font-family:OpenSymbol;-inkscape-font-specification:Sans;fill-opacity:1"
       id="path26652"
       inkscape:connector-curvature="0" />
    <path
       d="m -339.58411,-609.43024 h -3.22714 v -10.91734 q 0,-1.32176 -0.15449,-2.47185 -0.15449,-1.16727 -0.56647,-1.81956 -0.42914,-0.72096 -1.23592,-1.06427 -0.80679,-0.36048 -2.09421,-0.36048 -1.32175,0 -2.76367,0.6523 -1.44191,0.65229 -2.76367,1.66506 v 14.31614 h -3.22713 v -19.17401 h 3.22713 v 2.12854 q 1.51058,-1.2531 3.12415,-1.95689 1.61357,-0.70379 3.31297,-0.70379 3.10698,0 4.73771,1.87106 1.63074,1.87105 1.63074,5.39001 z"
       style="font-style:normal;font-variant:normal;font-weight:normal;font-stretch:normal;font-size:35.15522385px;line-height:1.25;font-family:OpenSymbol;-inkscape-font-specification:Sans;fill-opacity:1"
       id="path26654"
       inkscape:connector-curvature="0" />
    <path
       d="m -329.90269,-631.81423 h -3.63912 v -3.3473 h 3.63912 z m -0.20599,22.38399 h -3.22714 v -19.17401 h 3.22714 z"
       style="font-style:normal;font-variant:normal;font-weight:normal;font-stretch:normal;font-size:35.15522385px;line-height:1.25;font-family:OpenSymbol;-inkscape-font-specification:Sans;fill-opacity:1"
       id="path26656"
       inkscape:connector-curvature="0" />
    <path
       d="m -313.73266,-609.60189 q -0.90978,0.24032 -1.99121,0.39481 -1.06427,0.15449 -1.90539,0.15449 -2.93532,0 -4.46307,-1.57924 -1.52774,-1.57924 -1.52774,-5.06386 v -10.19639 h -2.18003 v -2.71217 h 2.18003 v -5.51017 h 3.22714 v 5.51017 h 6.66027 v 2.71217 h -6.66027 v 8.73731 q 0,1.51057 0.0687,2.36885 0.0687,0.84112 0.48063,1.57924 0.37765,0.68663 1.02994,1.01278 0.66946,0.30898 2.02555,0.30898 0.78962,0 1.6479,-0.22316 0.85828,-0.24032 1.23592,-0.39481 h 0.17166 z"
       style="font-style:normal;font-variant:normal;font-weight:normal;font-stretch:normal;font-size:35.15522385px;line-height:1.25;font-family:OpenSymbol;-inkscape-font-specification:Sans;fill-opacity:1"
       id="path26658"
       inkscape:connector-curvature="0" />
    <path
       d="m -306.35144,-631.81423 h -3.63911 v -3.3473 h 3.63911 z m -0.20598,22.38399 h -3.22714 v -19.17401 h 3.22714 z"
       style="font-style:normal;font-variant:normal;font-weight:normal;font-stretch:normal;font-size:35.15522385px;line-height:1.25;font-family:OpenSymbol;-inkscape-font-specification:Sans;fill-opacity:1"
       id="path26660"
       inkscape:connector-curvature="0" />
    <path
       d="m -285.2377,-609.43024 h -3.20998 v -2.04271 q -0.42914,0.29182 -1.16726,0.82395 -0.72096,0.51497 -1.40758,0.82395 -0.80679,0.39481 -1.85389,0.6523 -1.0471,0.27465 -2.45469,0.27465 -2.59201,0 -4.3944,-1.71657 -1.80239,-1.71656 -1.80239,-4.37723 0,-2.18004 0.92694,-3.51896 0.94411,-1.35608 2.67784,-2.12854 1.7509,-0.77245 4.20558,-1.0471 2.45469,-0.27465 5.26985,-0.41198 v -0.4978 q 0,-1.0986 -0.39481,-1.81956 -0.37764,-0.72095 -1.0986,-1.13293 -0.68662,-0.39481 -1.6479,-0.53213 -0.96127,-0.13733 -2.00838,-0.13733 -1.27025,0 -2.83233,0.34331 -1.56207,0.32615 -3.22714,0.96128 h -0.17165 v -3.27864 q 0.94411,-0.25748 2.72933,-0.56646 1.78523,-0.30899 3.51896,-0.30899 2.02554,0 3.51895,0.34332 1.51058,0.32614 2.60918,1.13293 1.08144,0.78962 1.6479,2.04271 0.56647,1.25309 0.56647,3.10698 z m -3.20998,-4.72055 v -5.33851 q -1.47624,0.0858 -3.48462,0.25748 -1.99121,0.17166 -3.15848,0.49781 -1.39041,0.39481 -2.2487,1.23592 -0.85828,0.82395 -0.85828,2.28303 0,1.6479 0.99561,2.48902 0.99561,0.82395 3.03832,0.82395 1.69939,0 3.10698,-0.65229 1.40758,-0.66946 2.60917,-1.59641 z"
       style="font-style:normal;font-variant:normal;font-weight:normal;font-stretch:normal;font-size:35.15522385px;line-height:1.25;font-family:OpenSymbol;-inkscape-font-specification:Sans;fill-opacity:1"
       id="path26662"
       inkscape:connector-curvature="0" />
    <path
       d="m -269.03334,-609.60189 q -0.90978,0.24032 -1.99122,0.39481 -1.06427,0.15449 -1.90538,0.15449 -2.93533,0 -4.46307,-1.57924 -1.52774,-1.57924 -1.52774,-5.06386 v -10.19639 h -2.18003 v -2.71217 h 2.18003 v -5.51017 h 3.22714 v 5.51017 h 6.66027 v 2.71217 h -6.66027 v 8.73731 q 0,1.51057 0.0687,2.36885 0.0687,0.84112 0.48064,1.57924 0.37765,0.68663 1.02994,1.01278 0.66946,0.30898 2.02554,0.30898 0.78962,0 1.64791,-0.22316 0.85828,-0.24032 1.23592,-0.39481 h 0.17166 z"
       style="font-style:normal;font-variant:normal;font-weight:normal;font-stretch:normal;font-size:35.15522385px;line-height:1.25;font-family:OpenSymbol;-inkscape-font-specification:Sans;fill-opacity:1"
       id="path26664"
       inkscape:connector-curvature="0" />
    <path
       d="m -261.65212,-631.81423 h -3.63911 v -3.3473 h 3.63911 z m -0.20599,22.38399 h -3.22714 v -19.17401 h 3.22714 z"
       style="font-style:normal;font-variant:normal;font-weight:normal;font-stretch:normal;font-size:35.15522385px;line-height:1.25;font-family:OpenSymbol;-inkscape-font-specification:Sans;fill-opacity:1"
       id="path26666"
       inkscape:connector-curvature="0" />
    <path
       d="m -238.85615,-628.60425 -7.75887,19.17401 h -3.24431 l -7.70737,-19.17401 h 3.50179 l 5.93931,15.26025 5.88782,-15.26025 z"
       style="font-style:normal;font-variant:normal;font-weight:normal;font-stretch:normal;font-size:35.15522385px;line-height:1.25;font-family:OpenSymbol;-inkscape-font-specification:Sans;fill-opacity:1"
       id="path26668"
       inkscape:connector-curvature="0" />
    <path
       d="m -218.58354,-618.68251 h -14.12732 q 0,1.76806 0.53214,3.08981 0.53213,1.30459 1.45908,2.1457 0.89261,0.82395 2.11137,1.23593 1.23593,0.41198 2.71217,0.41198 1.95688,0 3.93093,-0.77246 1.99121,-0.78962 2.83233,-1.54491 h 0.17166 v 3.51896 q -1.63074,0.68663 -3.33014,1.1501 -1.69939,0.46347 -3.57045,0.46347 -4.77205,0 -7.44988,-2.57485 -2.67784,-2.59201 -2.67784,-7.34689 0,-4.70338 2.55768,-7.46705 2.57484,-2.76367 6.76326,-2.76367 3.87943,0 5.97364,2.26587 2.11137,2.26586 2.11137,6.43711 z m -3.14131,-2.47186 q -0.0172,-2.54051 -1.28742,-3.93093 -1.25309,-1.39041 -3.82794,-1.39041 -2.59201,0 -4.13692,1.52774 -1.52774,1.52774 -1.73373,3.7936 z"
       style="font-style:normal;font-variant:normal;font-weight:normal;font-stretch:normal;font-size:35.15522385px;line-height:1.25;font-family:OpenSymbol;-inkscape-font-specification:Sans;fill-opacity:1"
       id="path26670"
       inkscape:connector-curvature="0" />
  </g>
  <g
     style="display:inline"
     id="g3797"
     transform="matrix(4.0600195,0,0,4.0600195,1525.9702,3491.951)"
     inkscape:export-filename="/home/rafael/workspace/logo-osi/3/png/logo396x412.png"
     inkscape:export-xdpi="48.18"
     inkscape:export-ydpi="48.18" />
</svg>
