<?xml version="1.0" encoding="utf-8"?>
<!-- Generator: Adobe Illustrator 19.2.1, SVG Export Plug-In . SVG Version: 6.00 Build 0)  -->
<svg version="1.1" id="Layer_1" xmlns="http://www.w3.org/2000/svg" xmlns:xlink="http://www.w3.org/1999/xlink" x="0px" y="0px"
	 viewBox="0 0 258 78" style="enable-background:new 0 0 258 78;" xml:space="preserve">
<style type="text/css">
	.st0{fill:#B0C3C6;}
	.st1{fill:none;stroke:#DEE7E8;stroke-miterlimit:10;}
	.st2{fill:#00A6E2;}
	.st3{fill:none;stroke:#B0C3C6;stroke-width:2;stroke-miterlimit:10;}
	.st4{fill:#666666;}
	.st5{fill:none;stroke:#B0C3C6;stroke-width:2;stroke-linejoin:round;stroke-miterlimit:10;}
	.st6{fill:#00C9ED;}
	.st7{fill:#FFFFFF;stroke:#B0C3C6;stroke-width:2;stroke-linejoin:round;stroke-miterlimit:10;}
	.st8{fill:#303030;}
	.st9{opacity:0.4;fill:#F6F6F6;}
	.st10{fill:none;stroke:#999999;stroke-width:2;stroke-miterlimit:10;}
	.st11{fill:#999999;}
	.st12{fill:#FFFFFF;}
	.st13{clip-path:url(#SVGID_2_);fill:#2F3537;}
	.st14{opacity:0.3;fill:none;stroke:#9FB1B3;stroke-width:2;stroke-miterlimit:10;}
	.st15{fill:none;stroke:#FFFFFF;stroke-miterlimit:10;}
	.st16{fill:#FFFFFF;stroke:#FFFFFF;stroke-miterlimit:10;}
	.st17{fill:none;stroke:#303030;stroke-miterlimit:10;}
	.st18{opacity:0.8;fill:#B0C3C6;}
	.st19{opacity:0.7;}
	.st20{opacity:0.8;clip-path:url(#SVGID_4_);fill:#00A6E2;}
	.st21{opacity:0.8;fill:#00A6E2;}
	.st22{opacity:0.8;clip-path:url(#SVGID_6_);fill:#00A6E2;}
	.st23{clip-path:url(#SVGID_8_);}
	.st24{clip-path:url(#SVGID_10_);}
	.st25{fill:none;stroke:#B0C3C6;stroke-width:3;stroke-linejoin:round;stroke-miterlimit:10;}
	.st26{opacity:0.3;fill:none;stroke:#9FB1B3;stroke-width:3;stroke-miterlimit:10;}
	.st27{fill:#FFFFFF;stroke:#B0C3C6;stroke-width:3;stroke-linejoin:round;stroke-miterlimit:10;}
	.st28{clip-path:url(#SVGID_12_);fill:#2F3537;}
	.st29{clip-path:url(#SVGID_14_);fill:#B0C3C6;}
	.st30{fill:#33B8E8;}
	.st31{fill:#238DB4;}
	.st32{fill:#E2E7E8;}
	.st33{clip-path:url(#SVGID_16_);}
	.st34{fill:#FFFFFF;stroke:#B0C3C6;stroke-width:2;stroke-miterlimit:10;}
	.st35{fill:#B4CBCE;}
	.st36{fill:#003147;}
</style>
<g>
	<path class="st2" d="M91.5,43.8c-0.7,0.7-1.6,1.4-2.6,2.2s-2.1,1.5-3.2,2.1s-2.3,1.2-3.5,1.6c-1.2,0.4-2.4,0.7-3.4,0.7
		c-0.3,0-0.7,0-1-0.1c-0.3-0.1-0.6-0.2-0.9-0.4c-0.3-0.2-0.5-0.4-0.8-0.8s-0.5-0.7-0.8-1.2c1.6-0.4,3-1,4.4-1.8
		c1.3-0.8,2.5-1.7,3.5-2.7c1-1,1.7-2.1,2.3-3.2c0.6-1.1,0.8-2.2,0.8-3.4c0-1-0.2-2-0.5-2.8c-0.4-0.8-0.9-1.5-1.5-2.1s-1.4-1-2.3-1.4
		s-1.8-0.5-2.8-0.5c-1.3,0-2.4,0.2-3.4,0.7c-1,0.4-1.9,1-2.8,1.8c-0.8,0.8-1.5,1.6-2.2,2.6c-0.6,1-1.1,2-1.5,3.1
		c-0.4,1.1-0.7,2.2-0.9,3.3c-0.2,1.1-0.3,2.2-0.3,3.2c0,0.2,0,0.5,0,0.7c-0.2,0.1-0.4,0.3-0.6,0.4c-1,0.8-2.1,1.5-3.2,2.1
		s-2.3,1.2-3.5,1.6c-1.2,0.4-2.4,0.7-3.4,0.7c-0.3,0-0.7,0-1-0.1c-0.3-0.1-0.6-0.2-0.9-0.4c-0.3-0.2-0.5-0.4-0.8-0.8
		s-0.5-0.7-0.8-1.2c1.6-0.4,3-1,4.4-1.8c1.3-0.8,2.5-1.7,3.5-2.7c1-1,1.7-2.1,2.3-3.2c0.6-1.1,0.8-2.2,0.8-3.4c0-1-0.2-2-0.5-2.8
		c-0.4-0.8-0.9-1.5-1.5-2.1s-1.4-1-2.3-1.4s-1.8-0.5-2.8-0.5c-1.3,0-2.4,0.2-3.4,0.7c-1,0.4-1.9,1-2.8,1.8c-0.8,0.8-1.5,1.6-2.2,2.6
		c-0.6,1-1.1,2-1.5,3.1c-0.4,1-0.7,2.1-0.9,3.1c-0.2,0.1-0.4,0.2-0.6,0.3c-0.9,0.4-1.7,0.5-2.5,0.5c-0.3,0-0.6-0.1-0.8-0.2
		c-0.3-0.1-0.5-0.3-0.7-0.6c-0.2-0.3-0.4-0.6-0.5-1c-0.1-0.4-0.2-1-0.2-1.6c0-0.4,0-0.9,0.1-1.4c0.1-0.6,0.2-1.2,0.3-1.8
		c0.1-0.6,0.2-1.2,0.3-1.7c0.1-0.6,0.1-1,0.1-1.3c0-0.4-0.1-0.8-0.2-1.1c-0.1-0.3-0.3-0.6-0.6-0.8c-0.2-0.2-0.5-0.4-0.9-0.5
		c-0.3-0.1-0.7-0.2-1-0.2c-1,0-1.9,0.3-2.6,0.8c-0.8,0.5-1.4,1.2-2,2c-0.6,0.8-1.1,1.6-1.6,2.5c-0.5,0.9-0.9,1.7-1.2,2.4h-0.3
		c0-0.9-0.1-1.9-0.1-2.8s0-1.8,0-2.4c0-0.6,0-1,0-1.3s-0.1-0.6-0.2-0.7c-0.1-0.2-0.3-0.3-0.6-0.3c-0.3,0-0.6-0.1-1.1-0.1
		c-0.4,0-0.8,0-1,0.1c-0.3,0-0.5,0.1-0.7,0.3c-0.2,0.1-0.4,0.3-0.5,0.6c-0.1,0.2-0.3,0.6-0.4,1c-0.2,0.6-0.5,1.4-0.7,2.3
		c-0.2,0.9-0.5,1.9-0.7,3c0,0,0,0,0,0c-0.4,0.3-0.9,0.6-1.4,0.9c-0.9,0.5-2.1,1-3.5,1.4c-1.4,0.4-3,0.6-4.8,0.6
		c-0.2,0-0.3,0-0.5-0.1c-0.1,0-0.2-0.1-0.4-0.1c-0.1-0.1-0.2-0.1-0.4-0.1c-0.1,0-0.3-0.1-0.6-0.1c-0.2,0-0.4,0-0.6,0.1
		c-0.2,0.1-0.5,0.2-0.8,0.4l0.1-0.4c1.1-1.4,2.2-3,3.3-4.6c1.1-1.6,2.1-3.3,3.1-5s1.9-3.4,2.7-5.1c0.8-1.7,1.5-3.3,2.1-4.9
		c0.6-1.6,1.1-3.1,1.4-4.4c0.3-1.4,0.5-2.6,0.5-3.7c0-1.2-0.2-2.2-0.6-3c-0.4-0.8-0.8-1.5-1.4-1.9s-1.2-0.8-1.9-1.1
		c-0.7-0.2-1.3-0.3-1.9-0.3c-1.6,0-3,0.5-4.3,1.4s-2.5,2.2-3.5,3.8c-1.1,1.6-2,3.5-2.9,5.7s-1.6,4.5-2.3,6.9c-0.7,2.4-1.2,5-1.7,7.5
		c-0.5,2.6-0.9,5.1-1.2,7.6s-0.6,4.8-0.9,7s-0.4,4.1-0.5,5.8s-0.2,3-0.3,4.1c0,1-0.1,1.6-0.1,1.7c0,1.1,0,2.3,0.1,3.4
		c0.1,1.2,0.2,2.4,0.4,3.5c0.2,1.1,0.5,2.2,0.8,3.2c0.4,1,0.8,1.9,1.3,2.7c0.5,0.8,1.2,1.4,1.9,1.8c0.7,0.5,1.6,0.7,2.6,0.7
		c1,0,1.9-0.2,2.7-0.6c0.8-0.4,1.5-1,2.1-1.6s1.1-1.5,1.6-2.3c0.5-0.9,0.8-1.8,1.2-2.7c0.3-0.9,0.6-1.9,0.8-2.8
		c0.2-0.9,0.4-1.8,0.5-2.5c0.1-0.8,0.2-1.4,0.2-1.9c0-0.5,0.1-0.9,0.1-1c0-1.4-0.2-2.8-0.6-4.1c-0.4-1.4-0.8-2.6-1.2-3.7
		c-0.5-1.3-1.1-2.5-1.8-3.7c1.3-0.1,2.5-0.2,3.8-0.4c1.1-0.2,2.3-0.5,3.6-0.8c0.6-0.2,1.2-0.4,1.8-0.6c0,0.3-0.1,0.5-0.1,0.8
		c-0.2,1.2-0.3,2.3-0.4,3.4c-0.1,1.1-0.1,2-0.1,2.8c0,0.7,0,1.4,0.1,2.1c0.1,0.7,0.2,1.3,0.5,1.8c0.2,0.5,0.6,1,1,1.3
		s1.1,0.5,1.8,0.5c0.3,0,0.6-0.1,0.9-0.2c0.3-0.1,0.5-0.3,0.8-0.6s0.5-0.7,0.7-1.1c0.2-0.5,0.5-1,0.7-1.8l4.9-13.6h0.4
		c0.1,1.1,0.3,2.3,0.6,3.4c0.2,1.1,0.6,2.1,1.1,3s1.2,1.6,2,2.2c0.8,0.6,1.9,0.8,3.3,0.8c0.8,0,1.5-0.1,2.2-0.3
		c0.6-0.2,1.1-0.4,1.7-0.6c0.1,0.6,0.2,1.2,0.4,1.8c0.4,1.4,1.1,2.6,1.9,3.6c0.9,1,1.9,1.9,3.2,2.5s2.8,0.9,4.5,0.9
		c1.1,0,2.2-0.1,3.2-0.4c1.1-0.2,2.1-0.6,3.1-1c1-0.4,1.9-0.9,2.8-1.4c0.9-0.5,1.7-1.1,2.5-1.6c0.3-0.2,0.7-0.5,1-0.7
		c0.3,0.6,0.7,1.2,1.1,1.7c0.9,1,1.9,1.9,3.2,2.5s2.8,0.9,4.5,0.9c1.1,0,2.2-0.1,3.2-0.4c1.1-0.2,2.1-0.6,3.1-1
		c1-0.4,1.9-0.9,2.8-1.4c0.9-0.5,1.7-1.1,2.5-1.6c1.8-1.3,3.5-2.7,5.1-4.4L91.5,43.8z M12.3,30.8c0.1-1.2,0.3-2.5,0.7-4.1
		c0.3-1.5,0.8-3.3,1.4-5.3c0.6-2,1.4-4.3,2.5-6.9c0.3-0.9,0.7-1.6,1.2-2c0.4-0.4,1.1-0.7,1.9-0.7c0.5,0,0.8,0.2,1.1,0.7
		c0.3,0.4,0.4,1.1,0.4,2.1c0,0.7-0.3,1.7-0.9,3c-0.6,1.3-1.3,2.9-2.2,4.6c-0.9,1.7-1.9,3.6-3,5.6c-1.1,2-2.2,4.1-3.3,6.2
		C12.1,33,12.2,31.9,12.3,30.8z M13.4,60.7c-0.1,1-0.2,2-0.4,2.8c-0.2,0.9-0.5,1.6-0.8,2.1c-0.4,0.6-0.9,0.8-1.5,0.8
		c-0.2,0-0.4-0.1-0.6-0.4c-0.2-0.2-0.4-0.8-0.5-1.6c-0.2-0.8-0.3-2-0.4-3.6c-0.1-1.6-0.1-3.7-0.1-6.4c0-0.4,0-0.9,0.1-1.6
		c0-0.7,0.1-1.4,0.1-2.1s0.1-1.6,0.2-2.4c0.1-0.8,0.1-1.5,0.2-2.2c0.1-0.6,0.2-1.2,0.3-1.6c0.1-0.4,0.2-0.6,0.2-0.6
		c0.2,0,0.5,0.2,0.7,0.7s0.5,1.1,0.7,1.9c0.2,0.8,0.5,1.7,0.7,2.7c0.2,1,0.4,2,0.6,3c0.2,1,0.3,2,0.4,2.9c0.1,0.9,0.2,1.7,0.2,2.3
		C13.5,58.7,13.5,59.7,13.4,60.7z M53.3,42c0-0.6,0.1-1.1,0.2-1.7c0.1-0.6,0.3-1.2,0.5-1.8c0.2-0.6,0.5-1.1,0.9-1.6
		c0.4-0.5,0.8-0.8,1.4-1.1s1.2-0.4,2-0.4c0.4,0,0.8,0.3,1.1,0.8c0.3,0.5,0.4,1.2,0.4,2c0,0.6-0.2,1.2-0.7,1.8s-1,1.2-1.7,1.7
		c-0.7,0.5-1.4,1-2.1,1.3c-0.8,0.3-1.5,0.5-2.1,0.5C53.3,43,53.3,42.5,53.3,42z M74.7,42c0-0.6,0.1-1.1,0.2-1.7
		c0.1-0.6,0.3-1.2,0.5-1.8c0.2-0.6,0.5-1.1,0.9-1.6c0.4-0.5,0.8-0.8,1.4-1.1s1.2-0.4,2-0.4c0.4,0,0.8,0.3,1.1,0.8
		c0.3,0.5,0.4,1.2,0.4,2c0,0.6-0.2,1.2-0.7,1.8s-1,1.2-1.7,1.7c-0.7,0.5-1.4,1-2.1,1.3c-0.8,0.3-1.5,0.5-2.1,0.5
		C74.7,43,74.7,42.5,74.7,42z"/>
	<path class="st36" d="M110.4,56.2c-0.9-1.7-1.9-3.5-2.8-5.2c-0.9-1.7-1.8-3.5-2.7-5.2c-0.2,0-0.5,0-0.8,0s-0.5,0-0.8,0h-4.1v10.4
		h-7.5v-31h11.9c3.4,0,6.4,0.8,8.9,2.4s3.7,4.2,3.7,7.8c0,1.9-0.4,3.5-1.3,4.9s-2,2.5-3.3,3.3c1.2,2.1,2.4,4.2,3.5,6.3
		c1.2,2.1,2.4,4.2,3.5,6.3H110.4z M103.5,31.2h-4.2v8.6h4.3c1.5,0,2.7-0.4,3.6-1.1c0.9-0.7,1.4-1.8,1.4-3.2c0-1.5-0.4-2.6-1.3-3.3
		C106.3,31.5,105.1,31.2,103.5,31.2z"/>
	<path class="st36" d="M168,56.2h-12.7v-31H168c4.8,0,8.5,1.4,11,4.3c2.5,2.9,3.7,6.5,3.7,11c0,4.8-1.3,8.6-4,11.5
		C176,54.8,172.4,56.2,168,56.2z M167.9,31.2h-5.2v19h4.8c2.1,0,3.9-0.8,5.2-2.4c1.4-1.6,2.1-4,2.1-7.4c0-2.8-0.6-5-1.8-6.7
		C172,32,170.2,31.2,167.9,31.2z"/>
	<path class="st36" d="M195.1,25.1v31h-7.5v-31H195.1z"/>
	<path class="st36" d="M208.9,25.1v19c0,2.2,0.6,3.8,1.7,4.8c1.1,1.1,2.6,1.6,4.3,1.6c1.8,0,3.2-0.5,4.3-1.6
		c1.1-1.1,1.7-2.7,1.7-4.8v-19h7.5v19.4c0,3.8-1.2,6.8-3.7,8.9c-2.5,2.2-5.7,3.2-9.8,3.2c-4,0-7.3-1.1-9.8-3.2s-3.7-5.1-3.7-9V25.1
		H208.9z"/>
	<path class="st36" d="M232.9,33.2c0-2.5,1-4.5,3-6.2c2-1.7,4.8-2.5,8.3-2.5c1.6,0,3.1,0.2,4.7,0.7c1.6,0.5,3,1,4.2,1.8l-2.3,5.3
		c-1.4-0.5-2.6-0.9-3.5-1.2c-0.9-0.3-2-0.4-3.1-0.4c-1.1,0-2,0.2-2.6,0.7c-0.7,0.5-1,1.1-1,1.8c0,0.9,0.5,1.6,1.5,2.1s2.2,1.2,3.6,2
		c2.2,1.1,4.3,2.5,6.3,4.2c2,1.6,3,3.7,3,6.3c0,2.6-1.1,4.7-3.2,6.4c-2.1,1.7-5.1,2.6-8.9,2.6c-1.5,0-3.2-0.3-5.3-0.8
		s-3.6-1.1-4.6-1.8l2.3-5.8c0.9,0.5,2,1,3.4,1.4c1.4,0.4,2.8,0.7,3.9,0.7c1.5,0,2.6-0.3,3.4-0.8c0.8-0.5,1.1-1.2,1.1-2
		c0-0.7-0.5-1.4-1.6-2.1s-2.3-1.3-3.5-2c-2.1-1.1-4.2-2.4-6.2-4C233.9,38,232.9,35.9,232.9,33.2z"/>
	<path class="st36" d="M140,25.1l12,31l-7.7,0l-2.4-6.5h-11.1l-2.4,6.5H121l11.8-31H140z M136.3,34.5l-3.3,9.3h6.8L136.3,34.5z"/>
</g>
</svg>
