<?xml version="1.0" encoding="UTF-8" standalone="no"?>
<svg
   xmlns:dc="http://purl.org/dc/elements/1.1/"
   xmlns:cc="http://creativecommons.org/ns#"
   xmlns:rdf="http://www.w3.org/1999/02/22-rdf-syntax-ns#"
   xmlns:svg="http://www.w3.org/2000/svg"
   xmlns="http://www.w3.org/2000/svg"
   version="1.1"
   id="svg4250"
   viewBox="0 0 400.7143 400.7143"
   height="400.71429"
   width="400.71429">
  <defs
     id="defs4252" />
  <metadata
     id="metadata4255">
    <rdf:RDF>
      <cc:Work
         rdf:about="">
        <dc:format>image/svg+xml</dc:format>
        <dc:type
           rdf:resource="http://purl.org/dc/dcmitype/StillImage" />
        <dc:title></dc:title>
      </cc:Work>
    </rdf:RDF>
  </metadata>
  <g
     transform="translate(-0.28570057,-654.79067)"
     id="layer1">
    <circle
       r="200.35715"
       cy="855.14783"
       cx="200.64285"
       id="path4800"
       style="opacity:1;fill:#1a1a1a;stroke:#ff2766;stroke-width:0;stroke-miterlimit:4;stroke-dasharray:none;stroke-dashoffset:0;stroke-opacity:1" />
    <path
       id="path4240"
       d="m 151.92637,886.57544 0,-69.98893 c 1.04163,-0.38797 2.0631,-0.78979 3.06217,-1.28169 l 73.3938,88.08949 c -1.99143,4.28381 -3.19882,9.05258 -3.19882,14.14004 0,18.20447 14.32079,32.97496 31.9905,32.97496 17.66971,0 31.9905,-14.77049 31.9905,-32.97496 0,-14.34325 -8.92446,-26.40952 -21.32775,-30.95891 l 0,-69.98893 c 12.40329,-4.54247 21.32775,-16.62026 21.32775,-30.9543 0,-18.20908 -14.32079,-32.97957 -31.9905,-32.97957 -17.66971,0 -31.98827,14.77049 -31.98827,32.97957 0,14.34789 8.92446,26.41415 21.32775,30.9543 l 0,69.98893 c -1.04163,0.38335 -2.06086,0.79442 -3.05321,1.27706 l -73.40277,-88.0941 c 1.98919,-4.29767 3.19659,-9.06182 3.19659,-14.13543 0,-18.21139 -14.31631,-32.97957 -31.9905,-32.97957 -17.6697,0 -31.98826,14.76818 -31.98826,32.97957 0,14.34328 8.92221,26.41415 21.32775,30.94968 l 0,70.00279 c -12.40554,4.5517 -21.32775,16.61566 -21.32775,30.95891 0,18.20447 14.31856,32.97496 31.98826,32.97496 17.67419,0 31.98826,-14.77049 31.98826,-32.97496 0.003,-14.34325 -8.91998,-26.40721 -21.3255,-30.95891 z"
       style="fill:#ffffff" />
  </g>
</svg>
