<?xml version="1.0" encoding="iso-8859-1"?>
<!-- Generator: Adobe Illustrator 18.0.0, SVG Export Plug-In . SVG Version: 6.00 Build 0)  -->
<!DOCTYPE svg PUBLIC "-//W3C//DTD SVG 1.1//EN" "http://www.w3.org/Graphics/SVG/1.1/DTD/svg11.dtd">
<svg version="1.1" id="Capa_1" xmlns="http://www.w3.org/2000/svg" xmlns:xlink="http://www.w3.org/1999/xlink" x="0px" y="0px"
	 viewBox="0 0 297.27 297.27" style="enable-background:new 0 0 297.27 297.27;" xml:space="preserve">
<g>
	<path d="M132.444,57.816c-8.284,0-15,6.716-15,15v140.717c9.911,1.818,20.089,1.818,30,0V72.816
		C147.444,64.532,140.729,57.816,132.444,57.816z"/>
	<path d="M188.444,124.816c-8.284,0-15,6.716-15,15v64.215c6.204-3.551,12.049-7.954,17.341-13.246
		c4.997-4.997,9.215-10.482,12.659-16.301v-34.668C203.444,131.532,196.729,124.816,188.444,124.816z"/>
	<path d="M76.444,99.816c-8.284,0-15,6.716-15,15v59.668c3.444,5.819,7.662,11.304,12.659,16.301
		c5.292,5.292,11.137,9.695,17.341,13.246v-89.215C91.444,106.532,84.729,99.816,76.444,99.816z"/>
	<path d="M288.563,246.524l-29.323-29.323l-14.458-14.458c32.011-51.144,25.798-119.554-18.641-163.994
		c-51.663-51.663-135.728-51.665-187.393,0c-51.664,51.665-51.664,135.729,0,187.393c25.832,25.832,59.765,38.748,93.696,38.748
		c24.442,0,48.883-6.703,70.298-20.107L217.2,259.24l29.323,29.324c11.609,11.609,30.431,11.609,42.04,0
		C300.172,276.954,300.172,258.133,288.563,246.524z M59.961,204.928c-39.967-39.967-39.967-104.999,0-144.967
		c19.983-19.983,46.233-29.975,72.483-29.975s52.5,9.991,72.483,29.975c39.967,39.968,39.967,105,0,144.967
		S99.928,244.895,59.961,204.928z"/>
</g>
<g>
</g>
<g>
</g>
<g>
</g>
<g>
</g>
<g>
</g>
<g>
</g>
<g>
</g>
<g>
</g>
<g>
</g>
<g>
</g>
<g>
</g>
<g>
</g>
<g>
</g>
<g>
</g>
<g>
</g>
</svg>
