<svg width="475" height="379" viewBox="0 0 475 379" fill="none" xmlns="http://www.w3.org/2000/svg">
<path d="M405.6 208.376L243.482 370.497C232.9 381.079 215.741 381.079 205.16 370.497L43.0414 208.376C32.4582 197.795 32.4582 180.636 43.0414 170.054L205.16 7.93646C215.741 -2.64539 232.9 -2.64539 243.482 7.93646L405.6 170.054C416.184 180.636 416.184 197.795 405.6 208.376Z" fill="#FEF1E8"/>
<path d="M216.504 106.506C216.139 106.506 215.774 106.36 215.506 106.07C215 105.517 215.037 104.661 215.587 104.154C233.701 87.4914 256.117 76.98 280.41 73.7526C281.161 73.6577 281.833 74.1753 281.931 74.9151C282.031 75.6576 281.508 76.3405 280.768 76.4381C257.027 79.5923 235.123 89.8679 217.421 106.149C217.161 106.39 216.832 106.506 216.504 106.506Z" fill="#151933"/>
<path d="M179.641 176.268C179.577 176.268 179.51 176.265 179.446 176.254C178.705 176.148 178.192 175.46 178.299 174.72C181.256 154.231 189.593 134.761 202.407 118.416C202.871 117.828 203.719 117.722 204.311 118.185C204.899 118.646 205.003 119.5 204.541 120.088C192.017 136.059 183.871 155.085 180.98 175.105C180.884 175.783 180.303 176.268 179.641 176.268Z" fill="#151933"/>
<path d="M201.865 263.789C201.452 263.789 201.044 263.6 200.777 263.245C188.84 247.295 181.054 228.47 178.26 208.804C178.156 208.062 178.67 207.376 179.411 207.271C180.154 207.162 180.838 207.682 180.944 208.422C183.672 227.64 191.281 246.035 202.947 261.621C203.396 262.22 203.273 263.071 202.675 263.518C202.432 263.7 202.146 263.789 201.865 263.789Z" fill="#151933"/>
<path d="M282.375 310.271C282.321 310.271 282.27 310.268 282.215 310.263C256.244 307.214 231.609 295.416 212.852 277.038C212.318 276.515 212.309 275.656 212.834 275.122C213.356 274.585 214.212 274.577 214.749 275.103C233.08 293.061 257.152 304.591 282.53 307.572C283.275 307.658 283.806 308.333 283.719 309.076C283.638 309.764 283.053 310.271 282.375 310.271Z" fill="#151933"/>
<path d="M296.706 117.227C272.226 117.227 248.705 109.859 228.69 95.9248C228.076 95.4967 227.924 94.6539 228.353 94.0388C228.78 93.4209 229.623 93.2692 230.239 93.7001C249.797 107.317 272.781 114.517 296.706 114.517C297.454 114.517 298.061 115.121 298.061 115.872C298.061 116.62 297.454 117.227 296.706 117.227Z" fill="#151933"/>
<path d="M233.876 290.861C233.419 290.861 232.972 290.628 232.717 290.211C232.327 289.568 232.532 288.737 233.171 288.349C251.748 277.063 273.117 271.096 294.967 271.096C295.715 271.096 296.322 271.703 296.322 272.451C296.322 273.201 295.715 273.805 294.967 273.805C273.613 273.805 252.731 279.634 234.579 290.663C234.359 290.796 234.115 290.861 233.876 290.861Z" fill="#151933"/>
<path d="M237.218 183.462C237.199 183.462 237.179 183.462 237.158 183.46C236.41 183.427 235.83 182.796 235.863 182.045C238.069 131.58 256.422 89.4233 281.534 77.1424C282.206 76.8118 283.017 77.0936 283.347 77.7629C283.675 78.435 283.396 79.2452 282.724 79.5758C258.476 91.434 240.734 132.661 238.571 182.167C238.539 182.893 237.94 183.462 237.218 183.462Z" fill="#151933"/>
<path d="M282.756 307.941C282.563 307.941 282.368 307.897 282.184 307.813C256.452 295.817 237.819 253.078 235.817 201.461C235.787 200.713 236.37 200.082 237.117 200.055C237.872 200 238.496 200.607 238.524 201.353C240.457 251.194 258.882 293.961 283.33 305.356C284.008 305.673 284.3 306.48 283.986 307.158C283.756 307.651 283.265 307.941 282.756 307.941Z" fill="#151933"/>
<path d="M287.579 157.058C287.563 157.058 287.549 157.058 287.538 157.058C248.55 155.92 213.502 147.124 193.784 133.521C193.168 133.095 193.012 132.253 193.438 131.638C193.86 131.02 194.704 130.865 195.321 131.291C214.627 144.607 249.129 153.227 287.617 154.349C288.365 154.37 288.953 154.996 288.931 155.744C288.91 156.476 288.308 157.058 287.579 157.058Z" fill="#151933"/>
<path d="M194.554 250.945C194.124 250.945 193.7 250.742 193.438 250.36C193.012 249.745 193.168 248.902 193.784 248.476C213.488 234.884 248.512 226.085 287.473 224.942C288.194 224.969 288.845 225.508 288.866 226.259C288.888 227.004 288.3 227.63 287.552 227.651C249.094 228.779 214.614 237.399 195.321 250.707C195.087 250.869 194.818 250.945 194.554 250.945Z" fill="#151933"/>
<path d="M296.256 295.006C295.508 295.006 294.901 294.399 294.901 293.651V235.127C294.901 234.379 295.508 233.772 296.256 233.772C297.007 233.772 297.611 234.379 297.611 235.127V293.651C297.611 294.399 297.007 295.006 296.256 295.006Z" fill="#151933"/>
<path d="M296.256 218.899C295.508 218.899 294.901 218.294 294.901 217.544V164.355C294.901 163.607 295.508 163 296.256 163C297.007 163 297.611 163.607 297.611 164.355V217.544C297.611 218.294 297.007 218.899 296.256 218.899Z" fill="#151933"/>
<path d="M296.256 148.314C295.508 148.314 294.901 147.709 294.901 146.959V90.1391C294.901 89.3885 295.508 88.7842 296.256 88.7842C297.007 88.7842 297.611 89.3885 297.611 90.1391V146.959C297.611 147.709 297.007 148.314 296.256 148.314Z" fill="#151933"/>
<path d="M296.031 193.25H245.505C244.756 193.25 244.15 192.643 244.15 191.895C244.15 191.147 244.756 190.54 245.505 190.54H296.031C296.779 190.54 297.386 191.147 297.386 191.895C297.386 192.643 296.779 193.25 296.031 193.25Z" fill="#151933"/>
<path d="M228.846 193.25H195.688C194.94 193.25 194.333 192.643 194.333 191.895C194.333 191.147 194.94 190.54 195.688 190.54H228.846C229.595 190.54 230.201 191.147 230.201 191.895C230.201 192.643 229.595 193.25 228.846 193.25Z" fill="#151933"/>
<path d="M178.425 178.44C171.006 178.44 164.972 184.475 164.972 191.895C164.972 199.311 171.006 205.346 178.425 205.346C185.842 205.346 191.877 199.311 191.877 191.895C191.877 184.475 185.842 178.44 178.425 178.44ZM178.425 208.056C169.513 208.056 162.262 200.805 162.262 191.895C162.262 182.982 169.513 175.731 178.425 175.731C187.336 175.731 194.587 182.982 194.587 191.895C194.587 200.805 187.336 208.056 178.425 208.056Z" fill="#151933"/>
<path d="M295.414 60.7289C288.36 60.7289 282.621 66.4684 282.621 73.5221C282.621 80.5784 288.36 86.3178 295.414 86.3178C302.47 86.3178 308.209 80.5784 308.209 73.5221C308.209 66.4684 302.47 60.7289 295.414 60.7289ZM295.414 89.0276C286.867 89.0276 279.911 82.0715 279.911 73.5221C279.911 64.9753 286.867 58.0191 295.414 58.0191C303.963 58.0191 310.919 64.9753 310.919 73.5221C310.919 82.0715 303.963 89.0276 295.414 89.0276Z" fill="#151933"/>
<path d="M296.913 297.123C289.859 297.123 284.117 302.863 284.117 309.916C284.117 316.97 289.859 322.709 296.913 322.709C303.967 322.709 309.706 316.97 309.706 309.916C309.706 302.863 303.967 297.123 296.913 297.123ZM296.913 325.419C288.363 325.419 281.407 318.466 281.407 309.916C281.407 301.367 288.363 294.413 296.913 294.413C305.462 294.413 312.416 301.367 312.416 309.916C312.416 318.466 305.462 325.419 296.913 325.419Z" fill="#151933"/>
<path d="M236.995 185.101C233.25 185.101 230.202 188.15 230.202 191.895C230.202 195.64 233.25 198.688 236.995 198.688C240.741 198.688 243.789 195.64 243.789 191.895C243.789 188.15 240.741 185.101 236.995 185.101ZM236.995 201.398C231.755 201.398 227.492 197.133 227.492 191.895C227.492 186.654 231.755 182.392 236.995 182.392C242.235 182.392 246.499 186.654 246.499 191.895C246.499 197.133 242.235 201.398 236.995 201.398Z" fill="#151933"/>
<path d="M296.583 219.376C292.838 219.376 289.789 222.422 289.789 226.169C289.789 229.914 292.838 232.963 296.583 232.963C300.328 232.963 303.376 229.914 303.376 226.169C303.376 222.422 300.328 219.376 296.583 219.376ZM296.583 235.673C291.342 235.673 287.08 231.407 287.08 226.169C287.08 220.928 291.342 216.666 296.583 216.666C301.824 216.666 306.086 220.928 306.086 226.169C306.086 231.407 301.824 235.673 296.583 235.673Z" fill="#151933"/>
<path d="M296.257 149.034C292.512 149.034 289.464 152.082 289.464 155.83C289.464 159.575 292.512 162.621 296.257 162.621C300.005 162.621 303.051 159.575 303.051 155.83C303.051 152.082 300.005 149.034 296.257 149.034ZM296.257 165.331C291.017 165.331 286.754 161.068 286.754 155.83C286.754 150.589 291.017 146.324 296.257 146.324C301.498 146.324 305.761 150.589 305.761 155.83C305.761 161.068 301.498 165.331 296.257 165.331Z" fill="#151933"/>
<path d="M210.029 105.541C206.284 105.541 203.235 108.59 203.235 112.335C203.235 116.08 206.284 119.128 210.029 119.128C213.775 119.128 216.823 116.08 216.823 112.335C216.823 108.59 213.775 105.541 210.029 105.541ZM210.029 121.838C204.788 121.838 200.525 117.576 200.525 112.335C200.525 107.094 204.788 102.832 210.029 102.832C215.269 102.832 219.532 107.094 219.532 112.335C219.532 117.576 215.269 121.838 210.029 121.838Z" fill="#151933"/>
<path d="M208.058 263.166C204.312 263.166 201.264 266.212 201.264 269.957C201.264 273.704 204.312 276.753 208.058 276.753C211.804 276.753 214.85 273.704 214.85 269.957C214.85 266.212 211.804 263.166 208.058 263.166ZM208.058 279.463C202.818 279.463 198.555 275.2 198.555 269.957C198.555 264.719 202.818 260.456 208.058 260.456C213.298 260.456 217.56 264.719 217.56 269.957C217.56 275.2 213.298 279.463 208.058 279.463Z" fill="#151933"/>
<path d="M377.113 106.506C376.785 106.506 376.457 106.39 376.197 106.149C358.493 89.8679 336.59 79.5923 312.849 76.4381C312.109 76.3405 311.586 75.6576 311.687 74.9151C311.784 74.1753 312.464 73.6577 313.207 73.7526C337.501 76.98 359.916 87.4914 378.031 104.154C378.581 104.661 378.617 105.517 378.11 106.07C377.844 106.36 377.478 106.506 377.113 106.506Z" fill="#151933"/>
<path d="M413.976 176.268C413.315 176.268 412.735 175.783 412.637 175.105C409.748 155.088 401.6 136.062 389.075 120.088C388.615 119.5 388.718 118.646 389.306 118.185C389.896 117.722 390.747 117.828 391.208 118.416C404.025 134.764 412.363 154.231 415.317 174.72C415.426 175.46 414.911 176.148 414.171 176.254C414.106 176.265 414.041 176.268 413.976 176.268Z" fill="#151933"/>
<path d="M391.754 263.789C391.472 263.789 391.188 263.7 390.944 263.518C390.345 263.071 390.223 262.22 390.67 261.621C402.336 246.035 409.945 227.64 412.677 208.422C412.782 207.682 413.465 207.173 414.208 207.271C414.95 207.376 415.465 208.062 415.359 208.804C412.566 228.47 404.777 247.297 392.841 263.245C392.575 263.6 392.166 263.789 391.754 263.789Z" fill="#151933"/>
<path d="M311.244 310.271C310.567 310.271 309.979 309.764 309.9 309.076C309.81 308.333 310.344 307.658 311.087 307.572C336.464 304.591 360.538 293.061 378.868 275.103C379.404 274.577 380.26 274.591 380.783 275.122C381.306 275.656 381.298 276.515 380.764 277.038C362.007 295.416 337.375 307.214 311.401 310.263C311.35 310.268 311.295 310.271 311.244 310.271Z" fill="#151933"/>
<path d="M296.911 117.227C296.163 117.227 295.556 116.62 295.556 115.872C295.556 115.121 296.163 114.517 296.911 114.517C320.836 114.517 343.821 107.317 363.381 93.7001C363.993 93.2719 364.838 93.4237 365.267 94.0388C365.695 94.6539 365.543 95.4967 364.928 95.9248C344.91 109.859 321.392 117.227 296.911 117.227Z" fill="#151933"/>
<path d="M359.741 290.861C359.503 290.861 359.259 290.796 359.04 290.663C340.887 279.634 320.005 273.805 298.654 273.805C297.903 273.805 297.299 273.201 297.299 272.451C297.299 271.703 297.903 271.096 298.654 271.096C320.503 271.096 341.87 277.063 360.446 288.349C361.085 288.737 361.289 289.568 360.901 290.211C360.647 290.628 360.199 290.861 359.741 290.861Z" fill="#151933"/>
<path d="M356.401 183.462C355.68 183.462 355.079 182.893 355.049 182.167C352.886 132.661 335.142 91.434 310.895 79.5758C310.223 79.2452 309.944 78.435 310.272 77.7629C310.605 77.0936 311.418 76.8172 312.085 77.1424C337.196 89.4233 355.55 131.58 357.756 182.045C357.788 182.796 357.208 183.427 356.461 183.46C356.439 183.462 356.42 183.462 356.401 183.462Z" fill="#151933"/>
<path d="M310.862 307.941C310.349 307.941 309.862 307.651 309.631 307.158C309.317 306.48 309.61 305.673 310.287 305.356C334.735 293.961 353.159 251.194 355.094 201.353C355.121 200.607 355.793 200.003 356.5 200.055C357.248 200.082 357.828 200.713 357.801 201.461C355.799 253.078 337.166 295.817 311.433 307.813C311.249 307.897 311.054 307.941 310.862 307.941Z" fill="#151933"/>
<path d="M306.037 157.058C305.308 157.058 304.706 156.476 304.685 155.744C304.663 154.996 305.251 154.37 305.999 154.349C344.487 153.227 378.991 144.607 398.296 131.291C398.911 130.865 399.756 131.02 400.179 131.638C400.604 132.253 400.45 133.095 399.832 133.521C380.115 147.124 345.067 155.92 306.078 157.058C306.064 157.058 306.053 157.058 306.037 157.058Z" fill="#151933"/>
<path d="M399.065 250.945C398.802 250.945 398.534 250.869 398.298 250.707C379.004 237.399 344.527 228.779 306.067 227.651C305.319 227.63 304.731 227.004 304.752 226.259C304.774 225.508 305.503 224.969 306.145 224.942C345.107 226.085 380.131 234.884 399.834 248.476C400.452 248.902 400.607 249.745 400.181 250.36C399.918 250.742 399.496 250.945 399.065 250.945Z" fill="#151933"/>
<path d="M348.113 193.25H297.586C296.838 193.25 296.231 192.643 296.231 191.895C296.231 191.147 296.838 190.54 297.586 190.54H348.113C348.861 190.54 349.468 191.147 349.468 191.895C349.468 192.643 348.861 193.25 348.113 193.25Z" fill="#151933"/>
<path d="M397.929 193.25H364.771C364.021 193.25 363.416 192.643 363.416 191.895C363.416 191.147 364.021 190.54 364.771 190.54H397.929C398.679 190.54 399.284 191.147 399.284 191.895C399.284 192.643 398.679 193.25 397.929 193.25Z" fill="#151933"/>
<path d="M415.192 178.44C407.775 178.44 401.74 184.475 401.74 191.895C401.74 199.311 407.775 205.346 415.192 205.346C422.609 205.346 428.643 199.311 428.643 191.895C428.643 184.475 422.609 178.44 415.192 178.44ZM415.192 208.056C406.279 208.056 399.03 200.805 399.03 191.895C399.03 182.982 406.279 175.731 415.192 175.731C424.104 175.731 431.353 182.982 431.353 191.895C431.353 200.805 424.104 208.056 415.192 208.056Z" fill="#151933"/>
<path d="M356.623 185.101C352.878 185.101 349.83 188.15 349.83 191.895C349.83 195.64 352.878 198.688 356.623 198.688C360.371 198.688 363.417 195.64 363.417 191.895C363.417 188.15 360.371 185.101 356.623 185.101ZM356.623 201.398C351.382 201.398 347.12 197.133 347.12 191.895C347.12 186.654 351.382 182.392 356.623 182.392C361.864 182.392 366.126 186.654 366.126 191.895C366.126 197.133 361.864 201.398 356.623 201.398Z" fill="#151933"/>
<path d="M383.588 105.541C379.843 105.541 376.794 108.59 376.794 112.335C376.794 116.08 379.843 119.128 383.588 119.128C387.335 119.128 390.381 116.08 390.381 112.335C390.381 108.59 387.335 105.541 383.588 105.541ZM383.588 121.838C378.347 121.838 374.084 117.576 374.084 112.335C374.084 107.094 378.347 102.832 383.588 102.832C388.828 102.832 393.091 107.094 393.091 112.335C393.091 117.576 388.828 121.838 383.588 121.838Z" fill="#151933"/>
<path d="M385.558 263.166C381.813 263.166 378.767 266.212 378.767 269.957C378.767 273.704 381.813 276.753 385.558 276.753C389.305 276.753 392.351 273.704 392.351 269.957C392.351 266.212 389.305 263.166 385.558 263.166ZM385.558 279.463C380.32 279.463 376.057 275.2 376.057 269.957C376.057 264.719 380.32 260.456 385.558 260.456C390.799 260.456 395.061 264.719 395.061 269.957C395.061 275.2 390.799 279.463 385.558 279.463Z" fill="#151933"/>
<path d="M450.57 115.95C450.302 115.95 450.031 115.868 449.795 115.706L437.628 107.216C437.016 106.785 436.867 105.942 437.292 105.327C437.718 104.715 438.563 104.563 439.181 104.991L451.345 113.481C451.96 113.912 452.11 114.755 451.681 115.37C451.419 115.746 450.996 115.95 450.57 115.95Z" fill="#151933"/>
<path d="M430.905 97.4171C430.157 97.4171 429.55 96.8101 429.55 96.0622V82.9873C429.55 82.2367 430.157 81.6324 430.905 81.6324C431.655 81.6324 432.259 82.2367 432.259 82.9873V96.0622C432.259 96.8101 431.655 97.4171 430.905 97.4171Z" fill="#151933"/>
<path d="M411.242 115.95C410.817 115.95 410.394 115.746 410.131 115.37C409.703 114.755 409.852 113.912 410.467 113.481L422.632 104.991C423.247 104.566 424.092 104.715 424.518 105.327C424.946 105.942 424.797 106.785 424.182 107.216L412.017 115.706C411.781 115.868 411.51 115.95 411.242 115.95Z" fill="#151933"/>
<path d="M89.113 210.425H12.9299C12.1803 210.425 11.575 209.821 11.575 209.07C11.575 208.322 12.1803 207.715 12.9299 207.715H89.113C89.8611 207.715 90.4679 208.322 90.4679 209.07C90.4679 209.821 89.8611 210.425 89.113 210.425Z" fill="#151933"/>
<path d="M63.6808 227.651H50.1317C49.3824 227.651 48.7768 227.047 48.7768 226.296C48.7768 225.548 49.3824 224.941 50.1317 224.941H63.6808C64.4292 224.941 65.0357 225.548 65.0357 226.296C65.0357 227.047 64.4292 227.651 63.6808 227.651ZM90.779 227.651H77.2299C76.4806 227.651 75.875 227.047 75.875 226.296C75.875 225.548 76.4806 224.941 77.2299 224.941H90.779C91.5275 224.941 92.1339 225.548 92.1339 226.296C92.1339 227.047 91.5275 227.651 90.779 227.651ZM117.877 227.651H104.328C103.579 227.651 102.973 227.047 102.973 226.296C102.973 225.548 103.579 224.941 104.328 224.941H117.877C118.626 224.941 119.232 225.548 119.232 226.296C119.232 227.047 118.626 227.651 117.877 227.651Z" fill="#151933"/>
<path d="M396.426 20.8214H320.242C319.494 20.8214 318.887 20.2171 318.887 19.4664C318.887 18.7185 319.494 18.1115 320.242 18.1115H396.426C397.176 18.1115 397.781 18.7185 397.781 19.4664C397.781 20.2171 397.176 20.8214 396.426 20.8214Z" fill="#151933"/>
<path d="M413.446 36.4521H379.403C378.655 36.4521 378.048 35.8451 378.048 35.0972C378.048 34.3493 378.655 33.7423 379.403 33.7423H413.446C414.197 33.7423 414.801 34.3493 414.801 35.0972C414.801 35.8451 414.197 36.4521 413.446 36.4521Z" fill="#151933"/>
<path d="M58.58 3.68739C56.3379 3.68739 54.5153 5.5111 54.5153 7.75212V117.177C54.5153 119.418 56.3379 121.242 58.58 121.242H168.005C170.247 121.242 172.07 119.418 172.07 117.177V7.75212C172.07 5.5111 170.247 3.68739 168.005 3.68739H58.58ZM168.005 123.952H58.58C54.8445 123.952 51.8055 120.912 51.8055 117.177V7.75212C51.8055 4.01799 54.8445 0.97757 58.58 0.97757H168.005C171.741 0.97757 174.78 4.01799 174.78 7.75212V117.177C174.78 120.912 171.741 123.952 168.005 123.952Z" fill="#151933"/>
<path d="M79.771 24.8805C77.53 24.8805 75.7063 26.7042 75.7063 28.9453V95.9835C75.7063 98.2245 77.53 100.048 79.771 100.048H146.81C149.051 100.048 150.875 98.2245 150.875 95.9835V28.9453C150.875 26.7042 149.051 24.8805 146.81 24.8805H79.771ZM146.81 102.758H79.771C76.0355 102.758 72.9965 99.7176 72.9965 95.9835V28.9453C72.9965 25.2084 76.0355 22.1707 79.771 22.1707H146.81C150.545 22.1707 153.585 25.2084 153.585 28.9453V95.9835C153.585 99.7176 150.545 102.758 146.81 102.758Z" fill="#151933"/>
<path d="M86.411 33.1724C86.0246 33.1724 85.7113 33.4868 85.7113 33.8715V79.4155C85.7113 79.8003 86.0246 80.1146 86.411 80.1146H96.8544C98.7342 80.1146 100.264 81.643 100.264 83.5236V91.0569C100.264 91.4417 100.577 91.756 100.965 91.756H125.619C126.003 91.756 126.317 91.4417 126.317 91.0569V83.5236C126.317 81.643 127.847 80.1146 129.727 80.1146H140.17C140.556 80.1146 140.87 79.8003 140.87 79.4155V33.8715C140.87 33.4868 140.556 33.1724 140.17 33.1724H86.411ZM125.619 94.4658H100.965C99.0835 94.4658 97.554 92.9348 97.554 91.0569V83.5236C97.554 83.1361 97.2408 82.8244 96.8544 82.8244H86.411C84.5298 82.8244 83.0015 81.2934 83.0015 79.4155V33.8715C83.0015 31.9936 84.5298 30.4626 86.411 30.4626H140.17C142.051 30.4626 143.58 31.9936 143.58 33.8715V79.4155C143.58 81.2934 142.051 82.8244 140.17 82.8244H129.727C129.341 82.8244 129.027 83.1361 129.027 83.5236V91.0569C129.027 92.9348 127.498 94.4658 125.619 94.4658Z" fill="#151933"/>
<path d="M164.251 9.02625C162.701 9.02625 161.441 10.2863 161.441 11.8363C161.441 13.389 162.701 14.6491 164.251 14.6491C165.802 14.6491 167.063 13.389 167.063 11.8363C167.063 10.2863 165.802 9.02625 164.251 9.02625ZM164.251 17.3589C161.208 17.3589 158.731 14.8821 158.731 11.8363C158.731 8.79317 161.208 6.31643 164.251 6.31643C167.295 6.31643 169.772 8.79317 169.772 11.8363C169.772 14.8821 167.295 17.3589 164.251 17.3589Z" fill="#151933"/>
<path d="M64.3496 9.02625C62.801 9.02625 61.5393 10.2863 61.5393 11.8363C61.5393 13.389 62.801 14.6491 64.3496 14.6491C65.8994 14.6491 67.1611 13.389 67.1611 11.8363C67.1611 10.2863 65.8994 9.02625 64.3496 9.02625ZM64.3496 17.3589C61.3062 17.3589 58.8295 14.8821 58.8295 11.8363C58.8295 8.79317 61.3062 6.31643 64.3496 6.31643C67.3928 6.31643 69.8709 8.79317 69.8709 11.8363C69.8709 14.8821 67.3928 17.3589 64.3496 17.3589Z" fill="#151933"/>
<path d="M163.241 111.555C161.691 111.555 160.431 112.815 160.431 114.365C160.431 115.915 161.691 117.177 163.241 117.177C164.791 117.177 166.051 115.915 166.051 114.365C166.051 112.815 164.791 111.555 163.241 111.555ZM163.241 119.887C160.198 119.887 157.721 117.411 157.721 114.365C157.721 111.322 160.198 108.845 163.241 108.845C166.284 108.845 168.761 111.322 168.761 114.365C168.761 117.411 166.284 119.887 163.241 119.887Z" fill="#151933"/>
<path d="M63.3416 111.555C61.7907 111.555 60.529 112.815 60.529 114.365C60.529 115.915 61.7907 117.177 63.3416 117.177C64.8913 117.177 66.1519 115.915 66.1519 114.365C66.1519 112.815 64.8913 111.555 63.3416 111.555ZM63.3416 119.887C60.2974 119.887 57.8192 117.411 57.8192 114.365C57.8192 111.322 60.2974 108.845 63.3416 108.845C66.385 108.845 68.8617 111.322 68.8617 114.365C68.8617 117.411 66.385 119.887 63.3416 119.887Z" fill="#151933"/>
<path d="M90.4138 42.4023C89.6656 42.4023 89.0589 41.7981 89.0589 41.0474V32.4031C89.0589 31.6552 89.6656 31.0482 90.4138 31.0482C91.1633 31.0482 91.7687 31.6552 91.7687 32.4031V41.0474C91.7687 41.7981 91.1633 42.4023 90.4138 42.4023Z" fill="#151933"/>
<path d="M101.993 42.4023C101.243 42.4023 100.638 41.7981 100.638 41.0474V32.4031C100.638 31.6552 101.243 31.0482 101.993 31.0482C102.741 31.0482 103.348 31.6552 103.348 32.4031V41.0474C103.348 41.7981 102.741 42.4023 101.993 42.4023Z" fill="#151933"/>
<path d="M113.572 42.4023C112.823 42.4023 112.217 41.7981 112.217 41.0474V32.4031C112.217 31.6552 112.823 31.0482 113.572 31.0482C114.321 31.0482 114.927 31.6552 114.927 32.4031V41.0474C114.927 41.7981 114.321 42.4023 113.572 42.4023Z" fill="#151933"/>
<path d="M125.151 42.4023C124.401 42.4023 123.796 41.7981 123.796 41.0474V32.4031C123.796 31.6552 124.401 31.0482 125.151 31.0482C125.899 31.0482 126.506 31.6552 126.506 32.4031V41.0474C126.506 41.7981 125.899 42.4023 125.151 42.4023Z" fill="#151933"/>
<path d="M136.726 42.4023C135.977 42.4023 135.371 41.7981 135.371 41.0474V32.4031C135.371 31.6552 135.977 31.0482 136.726 31.0482C137.475 31.0482 138.08 31.6552 138.08 32.4031V41.0474C138.08 41.7981 137.475 42.4023 136.726 42.4023Z" fill="#151933"/>
<path d="M401.941 345.886C401.751 345.886 401.559 345.845 401.377 345.761C391.858 341.379 385.709 331.778 385.709 321.305C385.709 306.463 397.781 294.391 412.62 294.391C427.459 294.391 439.531 306.463 439.531 321.305C439.531 322.053 438.924 322.66 438.176 322.66C437.429 322.66 436.822 322.053 436.822 321.305C436.822 307.959 425.966 297.101 412.62 297.101C399.274 297.101 388.419 307.959 388.419 321.305C388.419 330.724 393.949 339.358 402.51 343.301C403.19 343.612 403.488 344.42 403.174 345.097C402.946 345.593 402.456 345.886 401.941 345.886Z" fill="#151933"/>
<path d="M438.433 323.196C438.157 323.196 437.88 323.115 437.642 322.944L431.748 318.712C431.141 318.275 431 317.427 431.439 316.82C431.872 316.21 432.718 316.072 433.328 316.508L438.243 320.037L442.322 315.56C442.826 315.007 443.685 314.964 444.235 315.468C444.79 315.972 444.828 316.828 444.324 317.381L439.433 322.755C439.167 323.047 438.801 323.196 438.433 323.196Z" fill="#151933"/>
<path d="M412.798 320.78C412.05 320.78 411.443 320.173 411.443 319.425V306.239C411.443 305.488 412.05 304.884 412.798 304.884C413.548 304.884 414.153 305.488 414.153 306.239V319.425C414.153 320.173 413.548 320.78 412.798 320.78Z" fill="#151933"/>
<path d="M427.734 325.923H417.176C416.428 325.923 415.821 325.319 415.821 324.568C415.821 323.821 416.428 323.214 417.176 323.214H427.734C428.482 323.214 429.089 323.821 429.089 324.568C429.089 325.319 428.482 325.923 427.734 325.923Z" fill="#151933"/>
<path d="M412.799 321.544C411.132 321.544 409.774 322.901 409.774 324.568C409.774 326.237 411.132 327.592 412.799 327.592C414.465 327.592 415.823 326.237 415.823 324.568C415.823 322.901 414.465 321.544 412.799 321.544ZM412.799 330.302C409.639 330.302 407.065 327.73 407.065 324.568C407.065 321.405 409.639 318.834 412.799 318.834C415.961 318.834 418.533 321.405 418.533 324.568C418.533 327.73 415.961 330.302 412.799 330.302Z" fill="#151933"/>
<path d="M197.336 336.212H161.031C160.282 336.212 159.676 335.608 159.676 334.857C159.676 334.109 160.282 333.502 161.031 333.502H197.336C198.084 333.502 198.691 334.109 198.691 334.857C198.691 335.608 198.084 336.212 197.336 336.212Z" fill="#151933"/>
<path d="M140.532 336.212H104.212C103.462 336.212 102.857 335.608 102.857 334.857C102.857 334.109 103.462 333.502 104.212 333.502H140.532C141.281 333.502 141.887 334.109 141.887 334.857C141.887 335.608 141.281 336.212 140.532 336.212Z" fill="#151933"/>
<path d="M150.355 327.071C149.606 327.071 149 326.464 149 325.717V276.609C149 275.861 149.606 275.254 150.355 275.254C151.104 275.254 151.71 275.861 151.71 276.609V325.717C151.71 326.464 151.104 327.071 150.355 327.071Z" fill="#151933"/>
<path d="M144.531 328.991C144.17 328.991 143.808 328.847 143.543 328.563L121.662 305.217C121.149 304.673 121.177 303.814 121.724 303.302C122.27 302.792 123.131 302.817 123.639 303.364L145.52 326.709C146.031 327.256 146.004 328.113 145.457 328.625C145.197 328.869 144.864 328.991 144.531 328.991Z" fill="#151933"/>
<path d="M121.756 293.955C121.448 293.955 121.136 293.852 120.882 293.635C120.311 293.153 120.239 292.3 120.721 291.728L138.401 270.8C138.882 270.228 139.736 270.152 140.309 270.637C140.881 271.122 140.953 271.976 140.47 272.548L122.792 293.476C122.524 293.793 122.142 293.955 121.756 293.955Z" fill="#151933"/>
<path d="M94.2037 326.573C93.8945 326.573 93.5845 326.47 93.3303 326.254C92.7588 325.771 92.6868 324.915 93.1694 324.343L110.863 303.399C111.343 302.824 112.199 302.754 112.772 303.239C113.344 303.721 113.416 304.575 112.932 305.147L95.2389 326.094C94.9722 326.411 94.5901 326.573 94.2037 326.573Z" fill="#151933"/>
<path d="M93.528 326.574C88.8449 326.574 85.0365 330.384 85.0365 335.066C85.0365 339.749 88.8449 343.559 93.528 343.559C98.2108 343.559 102.021 339.749 102.021 335.066C102.021 330.384 98.2108 326.574 93.528 326.574ZM93.528 346.269C87.3515 346.269 82.3267 341.245 82.3267 335.066C82.3267 328.891 87.3515 323.864 93.528 323.864C99.7056 323.864 104.731 328.891 104.731 335.066C104.731 341.245 99.7056 346.269 93.528 346.269Z" fill="#151933"/>
<path d="M180.385 294.416C179.995 294.416 179.61 294.25 179.341 293.928L160.969 271.881C160.491 271.306 160.569 270.45 161.143 269.97C161.72 269.493 162.573 269.572 163.053 270.144L181.425 292.194C181.903 292.768 181.826 293.622 181.251 294.101C180.997 294.313 180.69 294.416 180.385 294.416Z" fill="#151933"/>
<path d="M207.184 326.573C206.794 326.573 206.41 326.408 206.141 326.086L188.37 304.759C187.89 304.185 187.968 303.328 188.543 302.852C189.12 302.375 189.971 302.451 190.452 303.025L208.223 324.351C208.703 324.926 208.625 325.782 208.05 326.259C207.796 326.47 207.489 326.573 207.184 326.573Z" fill="#151933"/>
<path d="M156.196 328.991C155.848 328.991 155.5 328.858 155.235 328.592C154.707 328.061 154.71 327.202 155.241 326.677L178.737 303.312C179.266 302.784 180.124 302.787 180.653 303.318C181.181 303.849 181.178 304.705 180.648 305.234L157.151 328.598C156.886 328.861 156.541 328.991 156.196 328.991Z" fill="#151933"/>
<path d="M117.35 293.622C114.338 293.622 111.886 296.075 111.886 299.088C111.886 302.099 114.338 304.551 117.35 304.551C120.364 304.551 122.815 302.099 122.815 299.088C122.815 296.075 120.364 293.622 117.35 293.622ZM117.35 307.261C112.842 307.261 109.176 303.594 109.176 299.088C109.176 294.579 112.842 290.913 117.35 290.913C121.858 290.913 125.525 294.579 125.525 299.088C125.525 303.594 121.858 307.261 117.35 307.261Z" fill="#151933"/>
<path d="M185.109 293.142C182.096 293.142 179.645 295.592 179.645 298.605C179.645 301.618 182.096 304.071 185.109 304.071C188.122 304.071 190.574 301.618 190.574 298.605C190.574 295.592 188.122 293.142 185.109 293.142ZM185.109 306.781C180.601 306.781 176.935 303.114 176.935 298.605C176.935 294.099 180.601 290.432 185.109 290.432C189.617 290.432 193.284 294.099 193.284 298.605C193.284 303.114 189.617 306.781 185.109 306.781Z" fill="#151933"/>
<path d="M150.356 243.268C141.794 243.268 134.826 250.238 134.826 258.801C134.826 267.364 141.794 274.331 150.356 274.331C158.92 274.331 165.887 267.364 165.887 258.801C165.887 250.238 158.92 243.268 150.356 243.268ZM150.356 277.04C140.298 277.04 132.116 268.857 132.116 258.801C132.116 248.742 140.298 240.558 150.356 240.558C160.414 240.558 168.597 248.742 168.597 258.801C168.597 268.857 160.414 277.04 150.356 277.04Z" fill="#151933"/>
<path d="M207.182 326.574C202.5 326.574 198.69 330.384 198.69 335.066C198.69 339.749 202.5 343.559 207.182 343.559C211.865 343.559 215.674 339.749 215.674 335.066C215.674 330.384 211.865 326.574 207.182 326.574ZM207.182 346.269C201.005 346.269 195.98 341.245 195.98 335.066C195.98 328.891 201.005 323.864 207.182 323.864C213.358 323.864 218.384 328.891 218.384 335.066C218.384 341.245 213.358 346.269 207.182 346.269Z" fill="#151933"/>
<path d="M150.355 327.072C145.673 327.072 141.863 330.879 141.863 335.562C141.863 340.244 145.673 344.054 150.355 344.054C155.038 344.054 158.847 340.244 158.847 335.562C158.847 330.879 155.038 327.072 150.355 327.072ZM150.355 346.764C144.178 346.764 139.154 341.74 139.154 335.562C139.154 329.386 144.178 324.362 150.355 324.362C156.531 324.362 161.557 329.386 161.557 335.562C161.557 341.74 156.531 346.764 150.355 346.764Z" fill="#151933"/>
<path d="M30.3599 143.032C27.7961 143.032 25.7109 145.118 25.7109 147.682C25.7109 150.245 27.7961 152.329 30.3599 152.329C32.9247 152.329 35.0099 150.245 35.0099 147.682C35.0099 145.118 32.9247 143.032 30.3599 143.032ZM30.3599 155.039C26.3016 155.039 23.0011 151.738 23.0011 147.682C23.0011 143.625 26.3016 140.322 30.3599 140.322C34.4184 140.322 37.7197 143.625 37.7197 147.682C37.7197 151.738 34.4184 155.039 30.3599 155.039Z" fill="#FA8F45"/>
<path d="M466.164 212.893C463.6 212.893 461.516 214.98 461.516 217.544C461.516 220.107 463.6 222.194 466.164 222.194C468.727 222.194 470.814 220.107 470.814 217.544C470.814 214.98 468.727 212.893 466.164 212.893ZM466.164 224.903C462.107 224.903 458.807 221.6 458.807 217.544C458.807 213.487 462.107 210.184 466.164 210.184C470.223 210.184 473.524 213.487 473.524 217.544C473.524 221.6 470.223 224.903 466.164 224.903Z" fill="#FA8F45"/>
<path d="M416.125 14.8189C413.562 14.8189 411.475 16.9055 411.475 19.4663C411.475 22.0325 413.562 24.1163 416.125 24.1163C418.689 24.1163 420.775 22.0325 420.775 19.4663C420.775 16.9055 418.689 14.8189 416.125 14.8189ZM416.125 26.8261C412.069 26.8261 408.766 23.5256 408.766 19.4663C408.766 15.4097 412.069 12.1091 416.125 12.1091C420.182 12.1091 423.485 15.4097 423.485 19.4663C423.485 23.5256 420.182 26.8261 416.125 26.8261Z" fill="#FA8F45"/>
<path d="M355.013 347.607C353.972 347.607 352.932 348.003 352.141 348.794L345.672 355.262C344.087 356.848 344.087 359.425 345.672 361.01L352.141 367.478C353.677 369.015 356.357 369.012 357.888 367.478L364.356 361.01C365.123 360.243 365.546 359.221 365.546 358.137C365.546 357.051 365.123 356.029 364.356 355.262L357.888 348.794C357.097 348.003 356.056 347.607 355.013 347.607ZM355.013 371.378C353.203 371.378 351.504 370.673 350.225 369.394L343.756 362.926C341.117 360.286 341.117 355.989 343.756 353.347L350.225 346.878C352.864 344.239 357.162 344.239 359.807 346.878L366.272 353.347C367.551 354.626 368.256 356.327 368.256 358.137C368.256 359.948 367.551 361.647 366.272 362.926L359.807 369.394C358.525 370.673 356.823 371.378 355.013 371.378Z" fill="#FA8F45"/>
<path d="M53.1582 278.534C52.0722 278.534 51.0516 278.956 50.2842 279.726L43.8167 286.192C42.2333 287.777 42.2333 290.354 43.8167 291.939L50.2842 298.408C51.8193 299.941 54.4972 299.941 56.032 298.408L62.4998 291.939C64.0842 290.354 64.0842 287.777 62.4998 286.192L56.032 279.726C55.2646 278.956 54.2443 278.534 53.1582 278.534ZM53.1582 302.307C51.3481 302.307 49.6471 301.602 48.3684 300.323L41.9008 293.855C39.2609 291.216 39.2609 286.915 41.9008 284.276L48.3684 277.807C50.9248 275.249 55.3917 275.249 57.9481 277.807L64.4157 284.276C67.0567 286.915 67.0567 291.216 64.4157 293.855L57.9481 300.323C56.6704 301.602 54.9684 302.307 53.1582 302.307Z" fill="#FA8F45"/>
<path d="M461.762 247.618C460.675 247.618 459.656 248.04 458.887 248.807L452.421 255.276C450.836 256.861 450.836 259.438 452.421 261.023L458.887 267.489C460.423 269.025 463.1 269.025 464.637 267.489L471.103 261.023C472.688 259.438 472.688 256.861 471.103 255.276L464.637 248.807C463.867 248.04 462.848 247.618 461.762 247.618ZM461.762 271.391C459.952 271.391 458.25 270.686 456.971 269.404L450.505 262.939C447.866 260.3 447.866 255.999 450.505 253.36L456.971 246.891C459.529 244.333 463.995 244.333 466.553 246.891L473.018 253.36C475.661 255.999 475.661 260.3 473.018 262.939L466.553 269.404C465.274 270.686 463.572 271.391 461.762 271.391Z" fill="#FA8F45"/>
<path d="M14.9032 220.616C14.6122 220.616 14.3179 220.524 14.0713 220.332L0.521066 209.755C0.185509 209.493 -0.00818889 209.089 0.000265754 208.663C0.00769066 208.238 0.216211 207.84 0.560223 207.59L14.1092 197.781C14.7159 197.342 15.5649 197.477 16.0009 198.084C16.4402 198.691 16.3058 199.537 15.6993 199.976L3.60983 208.728L15.7373 218.194C16.328 218.657 16.4329 219.505 15.9722 220.096C15.7045 220.44 15.3064 220.616 14.9032 220.616Z" fill="#151933"/>
<path d="M443.324 137.22C445.755 137.22 447.725 139.19 447.725 141.62C447.725 144.051 445.755 146.021 443.324 146.021C440.894 146.021 438.924 144.051 438.924 141.62C438.924 139.19 440.894 137.22 443.324 137.22Z" fill="#151933"/>
<path d="M8.12957 111.47C10.56 111.47 12.5298 113.44 12.5298 115.871C12.5298 118.301 10.56 120.271 8.12957 120.271C5.69914 120.271 3.72931 118.301 3.72931 115.871C3.72931 113.44 5.69914 111.47 8.12957 111.47Z" fill="#151933"/>
<path d="M282.126 2.70351C284.556 2.70351 286.526 4.67355 286.526 7.10426C286.526 9.53497 284.556 11.505 282.126 11.505C279.698 11.505 277.728 9.53497 277.728 7.10426C277.728 4.67355 279.698 2.70351 282.126 2.70351Z" fill="#151933"/>
<path d="M128.092 170.514C130.522 170.514 132.492 172.484 132.492 174.912C132.492 177.343 130.522 179.313 128.092 179.313C125.663 179.313 123.692 177.343 123.692 174.912C123.692 172.484 125.663 170.514 128.092 170.514Z" fill="#151933"/>
<path d="M78.7512 361.419C81.1816 361.419 83.1517 363.389 83.1517 365.819C83.1517 368.247 81.1816 370.218 78.7512 370.218C76.3218 370.218 74.3521 368.247 74.3521 365.819C74.3521 363.389 76.3218 361.419 78.7512 361.419Z" fill="#151933"/>
<path d="M94.6662 187.186C94.3993 187.186 94.1283 187.104 93.8923 186.942L85.4908 181.078C84.877 180.647 84.7266 179.804 85.1542 179.192C85.5808 178.576 86.4276 178.425 87.0416 178.853L95.4432 184.717C96.0572 185.148 96.2062 185.99 95.7797 186.606C95.5163 186.982 95.0939 187.186 94.6662 187.186Z" fill="#151933"/>
<path d="M81.0856 174.384C80.3363 174.384 79.7307 173.777 79.7307 173.029V163.997C79.7307 163.249 80.3363 162.642 81.0856 162.642C81.834 162.642 82.4405 163.249 82.4405 163.997V173.029C82.4405 173.777 81.834 174.384 81.0856 174.384Z" fill="#151933"/>
<path d="M67.5074 187.186C67.0797 187.186 66.6573 186.982 66.395 186.606C65.9674 185.99 66.1164 185.148 66.7304 184.717L75.1331 178.853C75.7468 178.427 76.5937 178.579 77.0194 179.192C77.447 179.804 77.2977 180.647 76.6836 181.078L68.2813 186.942C68.0461 187.104 67.7743 187.186 67.5074 187.186Z" fill="#151933"/>
<path d="M295.945 349.965C295.194 349.965 294.59 349.358 294.59 348.61V335.06C294.59 334.313 295.194 333.706 295.945 333.706C296.693 333.706 297.3 334.313 297.3 335.06V348.61C297.3 349.358 296.693 349.965 295.945 349.965ZM147.646 368.773C146.897 368.773 146.291 368.166 146.291 367.418V353.869C146.291 353.119 146.897 352.514 147.646 352.514C148.395 352.514 149 353.119 149 353.869V367.418C149 368.166 148.395 368.773 147.646 368.773ZM170.228 373.288H156.679C155.931 373.288 155.324 372.684 155.324 371.933C155.324 371.185 155.931 370.578 156.679 370.578H170.228C170.977 370.578 171.583 371.185 171.583 371.933C171.583 372.684 170.977 373.288 170.228 373.288ZM197.326 373.288H183.777C183.029 373.288 182.422 372.684 182.422 371.933C182.422 371.185 183.029 370.578 183.777 370.578H197.326C198.076 370.578 198.681 371.185 198.681 371.933C198.681 372.684 198.076 373.288 197.326 373.288ZM224.425 373.288H210.875C210.127 373.288 209.521 372.684 209.521 371.933C209.521 371.185 210.127 370.578 210.875 370.578H224.425C225.174 370.578 225.779 371.185 225.779 371.933C225.779 372.684 225.174 373.288 224.425 373.288ZM251.523 373.288H237.974C237.225 373.288 236.619 372.684 236.619 371.933C236.619 371.185 237.225 370.578 237.974 370.578H251.523C252.271 370.578 252.878 371.185 252.878 371.933C252.878 372.684 252.271 373.288 251.523 373.288ZM278.621 373.288H265.072C264.324 373.288 263.717 372.684 263.717 371.933C263.717 371.185 264.324 370.578 265.072 370.578H278.621C279.369 370.578 279.976 371.185 279.976 371.933C279.976 372.684 279.369 373.288 278.621 373.288ZM295.945 373.288H292.17C291.422 373.288 290.815 372.684 290.815 371.933C290.815 371.185 291.422 370.578 292.17 370.578H294.59V362.159C294.59 361.411 295.194 360.804 295.945 360.804C296.693 360.804 297.3 361.411 297.3 362.159V371.933C297.3 372.684 296.693 373.288 295.945 373.288Z" fill="#151933"/>
<path d="M201.385 40.3757H187.836C187.088 40.3757 186.481 39.7714 186.481 39.0208C186.481 38.2729 187.088 37.6659 187.836 37.6659H201.385C202.135 37.6659 202.74 38.2729 202.74 39.0208C202.74 39.7714 202.135 40.3757 201.385 40.3757ZM228.484 40.3757H214.935C214.186 40.3757 213.58 39.7714 213.58 39.0208C213.58 38.2729 214.186 37.6659 214.935 37.6659H228.484C229.233 37.6659 229.839 38.2729 229.839 39.0208C229.839 39.7714 229.233 40.3757 228.484 40.3757ZM255.582 40.3757H242.033C241.284 40.3757 240.678 39.7714 240.678 39.0208C240.678 38.2729 241.284 37.6659 242.033 37.6659H255.582C256.33 37.6659 256.937 38.2729 256.937 39.0208C256.937 39.7714 256.33 40.3757 255.582 40.3757ZM282.68 40.3757H269.131C268.383 40.3757 267.776 39.7714 267.776 39.0208C267.776 38.2729 268.383 37.6659 269.131 37.6659H282.68C283.428 37.6659 284.035 38.2729 284.035 39.0208C284.035 39.7714 283.428 40.3757 282.68 40.3757ZM296.912 53.2419C296.164 53.2419 295.557 52.6377 295.557 51.887V40.1969C295.151 39.9638 294.874 39.5248 294.874 39.0208C294.874 38.2729 295.481 37.6659 296.229 37.6659H296.912C297.66 37.6659 298.267 38.2729 298.267 39.0208V51.887C298.267 52.6377 297.66 53.2419 296.912 53.2419Z" fill="#151933"/>
</svg>
