<?xml version="1.0" encoding="UTF-8" standalone="no"?>
<svg
   xmlns:dc="http://purl.org/dc/elements/1.1/"
   xmlns:cc="http://creativecommons.org/ns#"
   xmlns:rdf="http://www.w3.org/1999/02/22-rdf-syntax-ns#"
   xmlns:svg="http://www.w3.org/2000/svg"
   xmlns="http://www.w3.org/2000/svg"
   height="245.5"
   width="599.98199"
   xml:space="preserve"
   viewBox="0 0 599.98199 245.5"
   y="0px"
   x="0px"
   id="layer"
   version="1.1"><metadata
   id="metadata51"><rdf:RDF><cc:Work
       rdf:about=""><dc:format>image/svg+xml</dc:format><dc:type
         rdf:resource="http://purl.org/dc/dcmitype/StillImage" /></cc:Work></rdf:RDF></metadata><defs
   id="defs49" />
<style
   id="style2"
   type="text/css">
	.st0{fill:#009FE3;}
</style>
<g
   transform="translate(-20.217985,-198.9)"
   id="g44">
	<path
   style="fill:#009fe3"
   id="path4"
   d="m 92.1,323.3 -3.5,-28.8 22.3,-15.3 -29.3,-38.8 c -22.3,14.7 -42.4,52.3 -37.7,74.3 15.2,4.2 48.2,8.6 48.2,8.6"
   class="st0" />
	<path
   style="fill:#009fe3"
   id="path6"
   d="m 43.9,326.3 47.7,8.2 19.4,19.4 c 0,0 -14.7,27 -21.1,38.2 -21.8,-8.2 -46.3,-39.4 -46,-65.8"
   class="st0" />
	<path
   style="fill:#009fe3"
   id="path8"
   d="m 120,362 36.7,-7.5 24.1,45.2 c 0,0 -42.4,13.9 -69.8,5.9 4.3,-28.3 9,-43.6 9,-43.6"
   class="st0" />
	<polygon
   style="fill:#009fe3"
   id="polygon10"
   points="220.7,359.2 209.5,380.6 175.5,343.9 180.7,338 "
   class="st0" />
	<polygon
   style="fill:#009fe3"
   id="polygon12"
   points="227.7,281.9 231.2,342.1 190.1,326.3 190.1,302.2 "
   class="st0" />
	<polygon
   style="fill:#009fe3"
   id="polygon14"
   points="245.3,258.7 231.2,244.6 175.5,281.9 183.1,292.8 "
   class="st0" />
	<path
   style="fill:#009fe3"
   id="path16"
   d="m 97.4,231.7 26.4,37 18.8,-7.6 18.8,14.7 36.7,-28.8 c 0,0 -33.8,-45.9 -100.7,-15.3"
   class="st0" />
	<path
   style="fill:#009fe3"
   id="path18"
   d="m 152.6,425 3.5,19.4 c 0,0 42,-7.3 64.6,-23.5 -5.3,-10 -10,-17 -10,-17 l -24.1,20.3 z"
   class="st0" />
	<polygon
   style="fill:#009fe3"
   id="polygon20"
   points="257.6,374.5 240.9,369.2 224.2,392.1 241.2,403.8 "
   class="st0" />
	<path
   style="fill:#009fe3"
   id="path22"
   d="m 245.3,303.4 c 2.2,12.7 3.6,38.8 0,48.2 7.1,2.9 18.2,7.6 18.2,7.6 0,0 9.4,-29.4 0,-58.7 -9.1,1.8 -18.2,2.9 -18.2,2.9"
   class="st0" />
	<polygon
   style="fill:#009fe3"
   id="polygon24"
   points="260.6,286 255.6,268 240.9,275.8 246.7,290.4 "
   class="st0" />
	<polygon
   style="fill:#009fe3"
   id="polygon26"
   points="224.2,228.3 206.8,240.5 175.5,221.2 180.7,212.3 "
   class="st0" />
	<polygon
   style="fill:#009fe3"
   id="polygon28"
   points="162.1,202.3 158.9,212.1 145.8,209 92.6,219 86.8,209 143.9,198.9 "
   class="st0" />
	<polygon
   style="fill:#009fe3"
   id="polygon30"
   points="38.9,278.7 23.1,278.7 57.5,233.3 63.2,236.9 "
   class="st0" />
	<path
   style="fill:#009fe3"
   id="path32"
   d="m 21.6,305.8 c -5.1,34.9 5.3,60.6 8.8,63.5 l 10.5,-1 c 0,0 -11.8,-41.7 -14.5,-63.5 z"
   class="st0" />
	<path
   style="fill:#009fe3"
   id="path34"
   d="m 41.2,394 10.6,-8.8 c 0,0 18.2,18.6 38.7,27.1 -4.6,8.8 -6.2,11.7 -6.2,11.7 0,0 -30.1,-14.2 -43.1,-30"
   class="st0" />
	<polygon
   style="fill:#009fe3"
   id="polygon36"
   points="134.2,441.6 135.7,424.1 104.2,419.6 104.2,432.8 "
   class="st0" />
	<path
   style="fill:#009fe3"
   id="path38"
   d="m 372.3,367.5 c -8.4,9.8 -18.4,15.3 -30.1,15.3 -20.6,0 -34.9,-13.7 -34.9,-31.4 0,-19.6 14.1,-36.9 65.3,-39.3 V 309 c 0,-17.7 -6.9,-24.9 -24.6,-24.9 -11.2,0 -25.1,5.3 -35.4,12.2 l -3.8,-17.7 c 9.6,-6.7 25.6,-12.7 41.2,-12.7 29.7,0 42.8,12.7 42.3,42.6 v 46 c 0,9.1 1.2,10.8 10.8,10.8 l -1.2,16.5 c -17.7,1.4 -25.6,-4.8 -28.5,-14.4 h -1.1 z m 0.2,-42.9 c -32.5,4.3 -44.5,11 -44.5,24.4 0,9.8 7.4,17 19.4,17 10.1,0 18.9,-5 25.1,-11.7 z"
   class="st0" />
	<path
   style="fill:#009fe3"
   id="path40"
   d="m 418.2,379.3 v -17 c 33.5,-24.9 63.9,-43.6 63.9,-62.3 0,-11 -8.4,-18.9 -22.7,-18.9 -12,0 -22.7,5.3 -34,13.7 L 418.5,278 c 11.2,-8.9 25.4,-15.3 43.1,-15.3 24.4,0 41.4,13.9 41.4,35 0,26.1 -23.7,40.5 -54.8,63 h 60.1 v 18.7 h -90.1 z"
   class="st0" />
	<path
   style="fill:#009fe3"
   id="path42"
   d="m 589.5,367.5 c -8.4,9.8 -18.4,15.3 -30.2,15.3 -20.6,0 -34.9,-13.7 -34.9,-31.4 0,-19.6 14.1,-36.9 65.3,-39.3 V 309 c 0,-17.7 -6.9,-24.9 -24.6,-24.9 -11.2,0 -25.1,5.3 -35.4,12.2 l -3.8,-17.7 c 9.6,-6.7 25.6,-12.7 41.2,-12.7 29.7,0 42.8,12.7 42.3,42.6 v 46 c 0,9.1 1.2,10.8 10.8,10.8 l -1.2,16.5 c -17.7,1.4 -25.6,-4.8 -28.5,-14.4 h -1 z m 0.3,-42.9 c -32.5,4.3 -44.5,11 -44.5,24.4 0,9.8 7.4,17 19.4,17 10.1,0 18.9,-5 25.1,-11.7 z"
   class="st0" />
</g>
</svg>