<svg width="200" height="60" xmlns="http://www.w3.org/2000/svg"><g fill="none"><path fill="#002D62" d="M70.476 18.681h4.575v20.691h-4.575zm7.284 5.711h3.93v2.121h.09a5.38 5.38 0 014.596-2.496c4.441 0 5.552 2.463 5.552 6.175v9.213h-4.175v-8.473c0-2.463-.733-3.679-2.654-3.679-2.22 0-3.198 1.249-3.198 4.298v7.843H77.76V24.392zm21.763 0h3.03v2.718h-3.03v7.412c0 1.392.344 1.735 1.743 1.735a6.59 6.59 0 001.277-.11v3.214c-.799.11-1.604.157-2.41.144-2.531 0-4.752-.575-4.752-3.557V27.11h-2.498v-2.718h2.51v-4.507h4.14l-.01 4.507zm8.094 8.495c.122 2.608 1.399 3.8 3.697 3.8a3.411 3.411 0 003.265-1.944h3.642c-.823 3.15-3.79 5.265-7.051 5.027-4.741 0-7.695-3.248-7.695-7.888a7.489 7.489 0 011.918-5.424 7.565 7.565 0 015.21-2.486h.567c5.13 0 7.606 4.287 7.306 8.904l-10.86.011zm6.729-2.607c-.378-2.088-1.277-3.192-3.331-3.192a3.275 3.275 0 00-2.362.824 3.241 3.241 0 00-1.08 2.247v.121h6.773zm5.974-5.833h3.93v2.784h.055a5.32 5.32 0 014.897-3.192c.305.002.609.05.9.143v3.823a7.465 7.465 0 00-1.489-.144c-3.03 0-4.074 2.21-4.074 4.806v6.75h-4.22v-14.97zm11.28.023h3.93v2.043h.09a5.381 5.381 0 014.63-2.452c4.441 0 5.552 2.463 5.552 6.175v9.213h-4.13v-8.517c0-2.463-.734-3.679-2.655-3.679-2.22 0-3.197 1.249-3.197 4.287v7.854h-4.142L131.6 24.47zm19.809 8.417c.11 2.608 1.399 3.8 3.697 3.8a3.4 3.4 0 003.265-1.944h3.641c-.822 3.15-3.788 5.265-7.05 5.027-4.741 0-7.684-3.248-7.684-7.888a7.489 7.489 0 011.918-5.424 7.565 7.565 0 015.21-2.486h.556c5.13 0 7.606 4.287 7.317 8.904l-10.87.011zm6.728-2.607c-.377-2.088-1.288-3.192-3.33-3.192a3.274 3.274 0 00-2.349.856 3.241 3.241 0 00-1.05 2.259v.066l6.73.011zm22.84 9.092h-4.253L174.05 29.32h-.056l-2.565 10.053h-4.286l-4.774-14.98h4.375l2.764 10.175h.056l2.498-10.175h4.02l2.564 10.141h.067l2.765-10.14h4.252zm8.827-4.872c0 1.801 1.544 2.52 3.176 2.52 1.199 0 2.71-.465 2.71-1.912 0-1.248-1.722-1.68-4.687-2.32-2.387-.52-4.774-1.359-4.774-3.999 0-3.822 3.331-4.817 6.551-4.817s6.318 1.105 6.662 4.784h-3.93c-.112-1.591-1.344-2.033-2.82-2.033-.933 0-2.3.177-2.3 1.392 0 1.48 2.332 1.68 4.698 2.21 2.365.53 4.774 1.425 4.774 4.208 0 3.944-3.431 5.215-6.873 5.215s-6.906-1.304-7.073-5.28l3.886.032z"/><path d="M12.294 42.72l3.176.287c0-2.53.078-4.143.078-4.143A105.035 105.035 0 011.38 37.627a29.815 29.815 0 0010.07 15.4c-2.565-11.5-1.865-10.617.844-10.308z" fill="#FBB034"/><path d="M44.36 3.469a30.114 30.114 0 00-27.758-.155 23.027 23.027 0 00-1.21 7.037 97.632 97.632 0 0116.655-.917c3.864 0 4.12.133 4.63 1.459v3.844c3.398 0 6.662 0 9.505.166 0-3.883-.615-7.742-1.821-11.434z" fill="#6CB33F"/><path d="M20.333 50.74c-2.398-.32-2.298-1.304-2.31-1.989 0-.21 0-2.485-.1-5.523a418.989 418.989 0 01-5.607-.486c-2.731-.32-3.43-1.194-.866 10.284 12.74 10.279 31.417 8.462 41.916-4.076-4.775 1.182-14.701 2.651-33.033 1.79z" fill="#F15D22"/><path d="M44.36 3.469c2.222 5.634 1.844 15.466 1.9 16.051.055.586-.411 2.21 3.164 2.132a58.8 58.8 0 019.993.818A29.931 29.931 0 0044.361 3.469z" fill="#626264"/><path d="M19.511 23.796c1.2 0 8.506-.133 17.288-.078l-.144-12.76c-.522-1.325-.766-1.424-4.63-1.457a106.715 106.715 0 00-25.671 2.441A29.787 29.787 0 00.947 35.848c4.108.32 10.637.541 16.832.663l-.188-11.047s-.322-1.668 1.92-1.668z" fill="#002D62"/><path d="M59.828 24.304c-6.818-.464-15.467-.63-23.04-.685l.122 10.694s.3 2.209-3.03 2.209c-1.722 0-8.673 0-16.1-.133.1 5.844.21 11.887.21 12.24 0 .686-.089 1.658 2.31 1.99 18.365.872 28.302-.608 33.066-1.768a29.627 29.627 0 006.995-19.024 29.956 29.956 0 00-.533-5.523z" fill="#005CAB"/><path d="M36.91 34.368l-.122-10.694c-8.782 0-16.088 0-17.288.077-2.22 0-1.92 1.669-1.92 1.669l.188 11.047c7.428.154 14.368.176 16.1.132 3.353-.055 3.042-2.231 3.042-2.231z" fill="#B1BCE0"/></g></svg>