<svg viewBox="0 0 1919 370" xmlns="http://www.w3.org/2000/svg" xml:space="preserve" style="fill-rule:evenodd;clip-rule:evenodd;stroke-linejoin:round;stroke-miterlimit:2"><path d="M390.02 227.427c-3.4 0-6.375-.733-8.925-2.2-2.55-1.467-4.508-3.567-5.875-6.3-1.367-2.733-2.05-5.933-2.05-9.6s.683-6.858 2.05-9.575c1.367-2.717 3.325-4.808 5.875-6.275 2.55-1.467 5.525-2.2 8.925-2.2 2.2 0 4.267.325 6.2.975 1.933.65 3.65 1.592 5.15 2.825.433.333.733.683.9 1.05.167.367.25.817.25 1.35 0 .733-.2 1.35-.6 1.85-.4.5-.883.75-1.45.75-.667 0-1.35-.233-2.05-.7-1.433-1.067-2.767-1.808-4-2.225-1.233-.417-2.6-.625-4.1-.625-3.467 0-6.092 1.083-7.875 3.25-1.783 2.167-2.675 5.35-2.675 9.55 0 4.233.892 7.433 2.675 9.6s4.408 3.25 7.875 3.25c1.433 0 2.758-.217 3.975-.65 1.217-.433 2.592-1.167 4.125-2.2.333-.2.667-.367 1-.5.333-.133.683-.2 1.05-.2.567 0 1.05.25 1.45.75.4.5.6 1.117.6 1.85 0 .5-.083.942-.25 1.325-.167.383-.467.742-.9 1.075-1.5 1.233-3.217 2.175-5.15 2.825-1.933.65-4 .975-6.2.975zM426.27 227.427c-3.433 0-6.408-.733-8.925-2.2-2.517-1.467-4.458-3.567-5.825-6.3-1.367-2.733-2.05-5.933-2.05-9.6s.675-6.858 2.025-9.575c1.35-2.717 3.292-4.808 5.825-6.275 2.533-1.467 5.517-2.2 8.95-2.2 3.433 0 6.408.733 8.925 2.2 2.517 1.467 4.45 3.558 5.8 6.275 1.35 2.717 2.025 5.908 2.025 9.575 0 3.667-.683 6.867-2.05 9.6-1.367 2.733-3.308 4.833-5.825 6.3-2.517 1.467-5.475 2.2-8.875 2.2zm0-5.15c3.233 0 5.758-1.117 7.575-3.35 1.817-2.233 2.725-5.433 2.725-9.6s-.908-7.358-2.725-9.575c-1.817-2.217-4.342-3.325-7.575-3.325-3.267 0-5.808 1.108-7.625 3.325-1.817 2.217-2.725 5.408-2.725 9.575 0 4.167.908 7.367 2.725 9.6 1.817 2.233 4.358 3.35 7.625 3.35zM483.87 191.477c.933 0 1.683.292 2.25.875s.85 1.358.85 2.325v29.6c0 .933-.267 1.667-.8 2.2-.533.533-1.233.8-2.1.8s-1.55-.267-2.05-.8c-.5-.533-.75-1.267-.75-2.2v-20.6l-8.5 16.1c-.4.733-.833 1.275-1.3 1.625-.467.35-1.017.525-1.65.525s-1.183-.167-1.65-.5c-.467-.333-.9-.883-1.3-1.65l-8.55-15.85v20.35c0 .9-.258 1.625-.775 2.175-.517.55-1.208.825-2.075.825-.867 0-1.55-.267-2.05-.8-.5-.533-.75-1.267-.75-2.2v-29.6c0-.967.275-1.742.825-2.325.55-.583 1.292-.875 2.225-.875 1.3 0 2.317.717 3.05 2.15l11.1 21.15 11.05-21.15c.733-1.433 1.717-2.15 2.95-2.15zM528.97 191.477c.933 0 1.683.292 2.25.875s.85 1.358.85 2.325v29.6c0 .933-.267 1.667-.8 2.2-.533.533-1.233.8-2.1.8s-1.55-.267-2.05-.8c-.5-.533-.75-1.267-.75-2.2v-20.6l-8.5 16.1c-.4.733-.833 1.275-1.3 1.625-.467.35-1.017.525-1.65.525s-1.183-.167-1.65-.5c-.467-.333-.9-.883-1.3-1.65l-8.55-15.85v20.35c0 .9-.258 1.625-.775 2.175-.517.55-1.208.825-2.075.825-.867 0-1.55-.267-2.05-.8-.5-.533-.75-1.267-.75-2.2v-29.6c0-.967.275-1.742.825-2.325.55-.583 1.292-.875 2.225-.875 1.3 0 2.317.717 3.05 2.15l11.1 21.15 11.05-21.15c.733-1.433 1.717-2.15 2.95-2.15zM557.32 227.427c-4.833 0-8.5-1.25-11-3.75s-3.75-6.15-3.75-10.95v-18.05c0-.967.283-1.742.85-2.325.567-.583 1.333-.875 2.3-.875.967 0 1.733.292 2.3.875.567.583.85 1.358.85 2.325v18.4c0 3.033.717 5.325 2.15 6.875 1.433 1.55 3.533 2.325 6.3 2.325 2.733 0 4.817-.783 6.25-2.35 1.433-1.567 2.15-3.85 2.15-6.85v-18.4c0-.967.283-1.742.85-2.325.567-.583 1.333-.875 2.3-.875.967 0 1.733.292 2.3.875.567.583.85 1.358.85 2.325v18.05c0 4.767-1.25 8.408-3.75 10.925-2.5 2.517-6.15 3.775-10.95 3.775zM609.17 191.477c.933 0 1.675.292 2.225.875s.825 1.358.825 2.325v29.35c0 .967-.283 1.75-.85 2.35-.567.6-1.3.9-2.2.9-1.067 0-1.883-.383-2.45-1.15l-18.25-23.75v21.65c0 .967-.267 1.75-.8 2.35-.533.6-1.267.9-2.2.9-.933 0-1.667-.3-2.2-.9-.533-.6-.8-1.383-.8-2.35v-29.35c0-.967.283-1.742.85-2.325.567-.583 1.317-.875 2.25-.875 1.033 0 1.833.383 2.4 1.15l18.2 23.65v-21.6c0-.967.275-1.742.825-2.325.55-.583 1.275-.875 2.175-.875zM626.07 227.277c-.967 0-1.742-.3-2.325-.9-.583-.6-.875-1.383-.875-2.35v-29.35c0-.967.292-1.742.875-2.325.583-.583 1.358-.875 2.325-.875 1 0 1.792.292 2.375.875s.875 1.358.875 2.325v29.35c0 .967-.292 1.75-.875 2.35-.583.6-1.375.9-2.375.9zM655.72 227.427c-3.4 0-6.375-.733-8.925-2.2-2.55-1.467-4.508-3.567-5.875-6.3-1.367-2.733-2.05-5.933-2.05-9.6s.683-6.858 2.05-9.575c1.367-2.717 3.325-4.808 5.875-6.275 2.55-1.467 5.525-2.2 8.925-2.2 2.2 0 4.267.325 6.2.975 1.933.65 3.65 1.592 5.15 2.825.433.333.733.683.9 1.05.167.367.25.817.25 1.35 0 .733-.2 1.35-.6 1.85-.4.5-.883.75-1.45.75-.667 0-1.35-.233-2.05-.7-1.433-1.067-2.767-1.808-4-2.225-1.233-.417-2.6-.625-4.1-.625-3.467 0-6.092 1.083-7.875 3.25-1.783 2.167-2.675 5.35-2.675 9.55 0 4.233.892 7.433 2.675 9.6s4.408 3.25 7.875 3.25c1.433 0 2.758-.217 3.975-.65 1.217-.433 2.592-1.167 4.125-2.2.333-.2.667-.367 1-.5.333-.133.683-.2 1.05-.2.567 0 1.05.25 1.45.75.4.5.6 1.117.6 1.85 0 .5-.083.942-.25 1.325-.167.383-.467.742-.9 1.075-1.5 1.233-3.217 2.175-5.15 2.825-1.933.65-4 .975-6.2.975zM708.22 223.127c.2.433.3.867.3 1.3 0 .767-.308 1.417-.925 1.95-.617.533-1.325.8-2.125.8a2.845 2.845 0 0 1-1.5-.425c-.467-.283-.833-.725-1.1-1.325l-3-6.7h-17.6l-3 6.7c-.267.6-.633 1.042-1.1 1.325a2.932 2.932 0 0 1-1.55.425c-.767 0-1.467-.267-2.1-.8s-.95-1.183-.95-1.95c0-.433.1-.867.3-1.3l13.8-29.65c.3-.667.758-1.175 1.375-1.525a3.939 3.939 0 0 1 1.975-.525c.7 0 1.358.175 1.975.525.617.35 1.075.858 1.375 1.525l13.85 29.65zm-23.75-9.4h13.2l-6.6-14.85-6.6 14.85zM723.62 227.227c-1 0-1.792-.292-2.375-.875s-.875-1.358-.875-2.325v-27h-9.1c-2 0-3-.883-3-2.65s1-2.65 3-2.65h24.65c2 0 3 .883 3 2.65s-1 2.65-3 2.65h-9.1v27c0 .967-.292 1.742-.875 2.325-.583.583-1.358.875-2.325.875zM748.97 227.277c-.967 0-1.742-.3-2.325-.9-.583-.6-.875-1.383-.875-2.35v-29.35c0-.967.292-1.742.875-2.325.583-.583 1.358-.875 2.325-.875 1 0 1.792.292 2.375.875s.875 1.358.875 2.325v29.35c0 .967-.292 1.75-.875 2.35-.583.6-1.375.9-2.375.9zM778.57 227.427c-3.433 0-6.408-.733-8.925-2.2-2.517-1.467-4.458-3.567-5.825-6.3-1.367-2.733-2.05-5.933-2.05-9.6s.675-6.858 2.025-9.575c1.35-2.717 3.292-4.808 5.825-6.275 2.533-1.467 5.517-2.2 8.95-2.2 3.433 0 6.408.733 8.925 2.2 2.517 1.467 4.45 3.558 5.8 6.275 1.35 2.717 2.025 5.908 2.025 9.575 0 3.667-.683 6.867-2.05 9.6-1.367 2.733-3.308 4.833-5.825 6.3-2.517 1.467-5.475 2.2-8.875 2.2zm0-5.15c3.233 0 5.758-1.117 7.575-3.35 1.817-2.233 2.725-5.433 2.725-9.6s-.908-7.358-2.725-9.575c-1.817-2.217-4.342-3.325-7.575-3.325-3.267 0-5.808 1.108-7.625 3.325-1.817 2.217-2.725 5.408-2.725 9.575 0 4.167.908 7.367 2.725 9.6 1.817 2.233 4.358 3.35 7.625 3.35zM831.57 191.477c.933 0 1.675.292 2.225.875s.825 1.358.825 2.325v29.35c0 .967-.283 1.75-.85 2.35-.567.6-1.3.9-2.2.9-1.067 0-1.883-.383-2.45-1.15l-18.25-23.75v21.65c0 .967-.267 1.75-.8 2.35-.533.6-1.267.9-2.2.9-.933 0-1.667-.3-2.2-.9-.533-.6-.8-1.383-.8-2.35v-29.35c0-.967.283-1.742.85-2.325.567-.583 1.317-.875 2.25-.875 1.033 0 1.833.383 2.4 1.15l18.2 23.65v-21.6c0-.967.275-1.742.825-2.325.55-.583 1.275-.875 2.175-.875z" style="fill:#0045a1;fill-rule:nonzero" transform="matrix(1.84816 0 0 1.84424 376.048 -145.918)"/><g><path d="M396.87 192.277c.4-.5.883-.75 1.45-.75.467 0 .883.183 1.25.55.367.367.55.817.55 1.35 0 .5-.15.917-.45 1.25l-12.15 15.35v15.1c0 .667-.192 1.183-.575 1.55-.383.367-.875.55-1.475.55-.6 0-1.092-.183-1.475-.55-.383-.367-.575-.883-.575-1.55v-15.15l-12.15-15.3c-.333-.367-.5-.783-.5-1.25 0-.533.192-.983.575-1.35.383-.367.825-.55 1.325-.55.567 0 1.05.25 1.45.75l11.4 14.55 11.35-14.55zM410.57 227.327c-2.3 0-4.325-.517-6.075-1.55s-3.1-2.508-4.05-4.425c-.95-1.917-1.425-4.142-1.425-6.675 0-2.533.475-4.758 1.425-6.675.95-1.917 2.3-3.392 4.05-4.425s3.775-1.55 6.075-1.55c2.3 0 4.333.517 6.1 1.55 1.767 1.033 3.125 2.508 4.075 4.425.95 1.917 1.425 4.142 1.425 6.675 0 2.533-.475 4.758-1.425 6.675-.95 1.917-2.308 3.392-4.075 4.425-1.767 1.033-3.8 1.55-6.1 1.55zm0-3.35c2.4 0 4.242-.792 5.525-2.375 1.283-1.583 1.925-3.892 1.925-6.925 0-2.967-.65-5.258-1.95-6.875-1.3-1.617-3.133-2.425-5.5-2.425s-4.2.808-5.5 2.425c-1.3 1.617-1.95 3.908-1.95 6.875 0 3 .642 5.3 1.925 6.9 1.283 1.6 3.125 2.4 5.525 2.4zM446.72 202.127c.633 0 1.125.183 1.475.55.35.367.525.85.525 1.45v21.15c0 .567-.175 1.033-.525 1.4-.35.367-.842.55-1.475.55-.6 0-1.075-.175-1.425-.525-.35-.35-.525-.808-.525-1.375v-2.5c-.767 1.467-1.842 2.583-3.225 3.35-1.383.767-2.942 1.15-4.675 1.15-2.9 0-5.083-.808-6.55-2.425-1.467-1.617-2.2-4.008-2.2-7.175v-13.6c0-.6.183-1.083.55-1.45.367-.367.867-.55 1.5-.55s1.125.183 1.475.55c.35.367.525.85.525 1.45v13.5c0 2.167.433 3.758 1.3 4.775.867 1.017 2.233 1.525 4.1 1.525 2.133 0 3.85-.692 5.15-2.075 1.3-1.383 1.95-3.208 1.95-5.475v-12.25c0-.6.183-1.083.55-1.45.367-.367.867-.55 1.5-.55zM468.32 202.127c1.4-.1 2.1.467 2.1 1.7 0 .533-.15.958-.45 1.275-.3.317-.817.508-1.55.575l-1.5.15c-2.233.2-3.892.992-4.975 2.375-1.083 1.383-1.625 3.008-1.625 4.875v12.15c0 .667-.183 1.167-.55 1.5-.367.333-.85.5-1.45.5s-1.092-.175-1.475-.525c-.383-.35-.575-.842-.575-1.475v-21.1c0-.633.2-1.125.6-1.475.4-.35.883-.525 1.45-.525.533 0 .983.175 1.35.525.367.35.55.825.55 1.425v2.8c.7-1.467 1.692-2.583 2.975-3.35 1.283-.767 2.758-1.217 4.425-1.35l.7-.05zM505.67 221.327c.367 0 .683.15.95.45.267.3.4.683.4 1.15 0 .833-.583 1.6-1.75 2.3a15.14 15.14 0 0 1-3.8 1.575c-1.333.35-2.633.525-3.9.525-3.767 0-6.742-1.117-8.925-3.35-2.183-2.233-3.275-5.317-3.275-9.25 0-2.5.483-4.708 1.45-6.625.967-1.917 2.325-3.408 4.075-4.475 1.75-1.067 3.742-1.6 5.975-1.6 3.167 0 5.683 1.033 7.55 3.1s2.8 4.867 2.8 8.4c0 .667-.133 1.15-.4 1.45-.267.3-.7.45-1.3.45h-16.1c.3 5.733 3.017 8.6 8.15 8.6 1.3 0 2.417-.175 3.35-.525.933-.35 1.933-.825 3-1.425.867-.5 1.45-.75 1.75-.75zm-8.75-16.15c-2.133 0-3.842.667-5.125 2s-2.042 3.217-2.275 5.65h14.15c-.067-2.467-.683-4.358-1.85-5.675-1.167-1.317-2.8-1.975-4.9-1.975zM532.82 223.877c.4.4.6.883.6 1.45 0 .5-.183.933-.55 1.3-.367.367-.8.55-1.3.55-.533 0-1.017-.233-1.45-.7l-8.1-9.25-8.05 9.25c-.433.467-.917.7-1.45.7-.5 0-.942-.183-1.325-.55a1.798 1.798 0 0 1-.575-1.35c0-.5.2-.967.6-1.4l8.3-9.35-7.95-9.05c-.4-.467-.6-.933-.6-1.4 0-.533.192-.983.575-1.35.383-.367.808-.55 1.275-.55.533 0 1.017.233 1.45.7l7.75 8.9 7.75-8.9c.433-.467.917-.7 1.45-.7.5 0 .933.183 1.3.55.367.367.55.8.55 1.3 0 .567-.2 1.05-.6 1.45l-7.95 9.05 8.3 9.35zM550.97 202.027c2.133 0 4.017.533 5.65 1.6 1.633 1.067 2.9 2.558 3.8 4.475.9 1.917 1.35 4.142 1.35 6.675 0 2.533-.45 4.742-1.35 6.625-.9 1.883-2.158 3.342-3.775 4.375s-3.508 1.55-5.675 1.55c-1.9 0-3.558-.417-4.975-1.25-1.417-.833-2.492-2.017-3.225-3.55v11.75c0 .6-.175 1.075-.525 1.425-.35.35-.842.525-1.475.525-.633 0-1.133-.183-1.5-.55-.367-.367-.55-.833-.55-1.4v-30.15c0-.6.183-1.083.55-1.45.367-.367.867-.55 1.5-.55s1.125.183 1.475.55c.35.367.525.85.525 1.45v2.7c.733-1.533 1.808-2.717 3.225-3.55 1.417-.833 3.075-1.25 4.975-1.25zm-.8 21.95c2.367 0 4.2-.8 5.5-2.4 1.3-1.6 1.95-3.867 1.95-6.8s-.65-5.225-1.95-6.875c-1.3-1.65-3.133-2.475-5.5-2.475s-4.192.8-5.475 2.4c-1.283 1.6-1.925 3.883-1.925 6.85 0 2.967.642 5.258 1.925 6.875s3.108 2.425 5.475 2.425zM586.67 221.327c.367 0 .683.15.95.45.267.3.4.683.4 1.15 0 .833-.583 1.6-1.75 2.3a15.14 15.14 0 0 1-3.8 1.575c-1.333.35-2.633.525-3.9.525-3.767 0-6.742-1.117-8.925-3.35-2.183-2.233-3.275-5.317-3.275-9.25 0-2.5.483-4.708 1.45-6.625.967-1.917 2.325-3.408 4.075-4.475 1.75-1.067 3.742-1.6 5.975-1.6 3.167 0 5.683 1.033 7.55 3.1s2.8 4.867 2.8 8.4c0 .667-.133 1.15-.4 1.45-.267.3-.7.45-1.3.45h-16.1c.3 5.733 3.017 8.6 8.15 8.6 1.3 0 2.417-.175 3.35-.525.933-.35 1.933-.825 3-1.425.867-.5 1.45-.75 1.75-.75zm-8.75-16.15c-2.133 0-3.842.667-5.125 2s-2.042 3.217-2.275 5.65h14.15c-.067-2.467-.683-4.358-1.85-5.675-1.167-1.317-2.8-1.975-4.9-1.975zM606.22 202.127c1.4-.1 2.1.467 2.1 1.7 0 .533-.15.958-.45 1.275-.3.317-.817.508-1.55.575l-1.5.15c-2.233.2-3.892.992-4.975 2.375-1.083 1.383-1.625 3.008-1.625 4.875v12.15c0 .667-.183 1.167-.55 1.5-.367.333-.85.5-1.45.5s-1.092-.175-1.475-.525c-.383-.35-.575-.842-.575-1.475v-21.1c0-.633.2-1.125.6-1.475.4-.35.883-.525 1.45-.525.533 0 .983.175 1.35.525.367.35.55.825.55 1.425v2.8c.7-1.467 1.692-2.583 2.975-3.35 1.283-.767 2.758-1.217 4.425-1.35l.7-.05zM625.02 224.027c1.167.1 1.75.633 1.75 1.6 0 .567-.208.992-.625 1.275-.417.283-1.042.392-1.875.325l-1.35-.1c-2.667-.2-4.633-1-5.9-2.4-1.267-1.4-1.9-3.517-1.9-6.35v-12.55h-3.35c-.567 0-1.008-.142-1.325-.425-.317-.283-.475-.658-.475-1.125 0-.5.158-.9.475-1.2.317-.3.758-.45 1.325-.45h3.35v-5.65c0-.633.183-1.125.55-1.475.367-.35.867-.525 1.5-.525.6 0 1.083.175 1.45.525.367.35.55.842.55 1.475v5.65h5.55c.533 0 .958.15 1.275.45.317.3.475.7.475 1.2 0 .467-.158.842-.475 1.125-.317.283-.742.425-1.275.425h-5.55v12.75c0 1.833.375 3.158 1.125 3.975.75.817 1.875 1.275 3.375 1.375l1.35.1zM638.97 227.327c-1.533 0-2.992-.183-4.375-.55-1.383-.367-2.608-.883-3.675-1.55-.6-.4-1.025-.775-1.275-1.125s-.375-.775-.375-1.275c0-.433.125-.792.375-1.075.25-.283.575-.425.975-.425s.983.25 1.75.75c1 .6 1.992 1.075 2.975 1.425.983.35 2.208.525 3.675.525 1.8 0 3.2-.317 4.2-.95s1.5-1.55 1.5-2.75c0-.733-.183-1.325-.55-1.775-.367-.45-1-.85-1.9-1.2-.9-.35-2.217-.708-3.95-1.075-2.933-.633-5.033-1.483-6.3-2.55-1.267-1.067-1.9-2.517-1.9-4.35 0-1.433.4-2.7 1.2-3.8.8-1.1 1.908-1.967 3.325-2.6 1.417-.633 3.025-.95 4.825-.95 1.3 0 2.558.175 3.775.525 1.217.35 2.292.842 3.225 1.475 1.133.8 1.7 1.633 1.7 2.5 0 .433-.133.8-.4 1.1-.267.3-.583.45-.95.45-.4 0-1-.283-1.8-.85-.933-.6-1.817-1.067-2.65-1.4-.833-.333-1.867-.5-3.1-.5-1.567 0-2.825.35-3.775 1.05-.95.7-1.425 1.633-1.425 2.8 0 .733.175 1.325.525 1.775.35.45.933.85 1.75 1.2s1.992.692 3.525 1.025c2.267.5 4.025 1.05 5.275 1.65 1.25.6 2.142 1.333 2.675 2.2.533.867.8 1.967.8 3.3 0 2.1-.883 3.792-2.65 5.075-1.767 1.283-4.1 1.925-7 1.925zM669.72 227.227c-.6 0-1.092-.175-1.475-.525-.383-.35-.575-.842-.575-1.475v-21.1c0-.633.192-1.125.575-1.475.383-.35.875-.525 1.475-.525.6 0 1.083.175 1.45.525.367.35.55.842.55 1.475v21.1c0 .667-.183 1.167-.55 1.5-.367.333-.85.5-1.45.5zm0-30.35c-.8 0-1.45-.233-1.95-.7-.5-.467-.75-1.083-.75-1.85 0-.733.25-1.333.75-1.8.5-.467 1.15-.7 1.95-.7s1.45.233 1.95.7c.5.467.75 1.067.75 1.8 0 .767-.25 1.383-.75 1.85-.5.467-1.15.7-1.95.7zM691.52 202.027c5.833 0 8.75 3.217 8.75 9.65v13.55c0 .633-.175 1.125-.525 1.475-.35.35-.842.525-1.475.525-.633 0-1.133-.175-1.5-.525-.367-.35-.55-.842-.55-1.475v-13.3c0-2.267-.442-3.917-1.325-4.95-.883-1.033-2.292-1.55-4.225-1.55-2.233 0-4.017.683-5.35 2.05-1.333 1.367-2 3.217-2 5.55v12.2c0 .633-.175 1.125-.525 1.475-.35.35-.842.525-1.475.525-.633 0-1.133-.175-1.5-.525-.367-.35-.55-.842-.55-1.475v-21.1c0-.6.183-1.083.55-1.45.367-.367.867-.55 1.5-.55.6 0 1.075.183 1.425.55.35.367.525.833.525 1.4v2.55c.8-1.5 1.917-2.642 3.35-3.425 1.433-.783 3.067-1.175 4.9-1.175zM732.17 227.227c-1 0-1.792-.292-2.375-.875s-.875-1.358-.875-2.325v-27h-9.1c-2 0-3-.883-3-2.65s1-2.65 3-2.65h24.65c2 0 3 .883 3 2.65s-1 2.65-3 2.65h-9.1v27c0 .967-.292 1.742-.875 2.325-.583.583-1.358.875-2.325.875zM754.37 226.977c-.967 0-1.725-.267-2.275-.8-.55-.533-.825-1.283-.825-2.25v-29.15c0-.967.275-1.717.825-2.25.55-.533 1.308-.8 2.275-.8h18.05c.967 0 1.717.217 2.25.65.533.433.8 1.05.8 1.85 0 .833-.267 1.475-.8 1.925-.533.45-1.283.675-2.25.675h-14.85v9.7h13.85c.967 0 1.717.217 2.25.65.533.433.8 1.067.8 1.9 0 .8-.267 1.417-.8 1.85-.533.433-1.283.65-2.25.65h-13.85v10.3h14.85c.967 0 1.717.225 2.25.675.533.45.8 1.092.8 1.925 0 .8-.267 1.417-.8 1.85-.533.433-1.283.65-2.25.65h-18.05zM783.77 226.977c-.967 0-1.717-.267-2.25-.8-.533-.533-.8-1.267-.8-2.2v-29.3c0-.967.292-1.742.875-2.325.583-.583 1.358-.875 2.325-.875 1 0 1.792.292 2.375.875s.875 1.358.875 2.325v27h14.05c2 0 3 .883 3 2.65s-1 2.65-3 2.65h-17.45zM811.57 226.977c-.967 0-1.725-.267-2.275-.8-.55-.533-.825-1.283-.825-2.25v-29.15c0-.967.275-1.717.825-2.25.55-.533 1.308-.8 2.275-.8h18.05c.967 0 1.717.217 2.25.65.533.433.8 1.05.8 1.85 0 .833-.267 1.475-.8 1.925-.533.45-1.283.675-2.25.675h-14.85v9.7h13.85c.967 0 1.717.217 2.25.65.533.433.8 1.067.8 1.9 0 .8-.267 1.417-.8 1.85-.533.433-1.283.65-2.25.65h-13.85v10.3h14.85c.967 0 1.717.225 2.25.675.533.45.8 1.092.8 1.925 0 .8-.267 1.417-.8 1.85-.533.433-1.283.65-2.25.65h-18.05z" style="fill:#0045a1;fill-rule:nonzero" transform="matrix(1.84636 0 0 1.84629 381.153 -257.428)"/></g><g><path style="fill:#0045a1;fill-rule:nonzero" d="M251.867 15.108h3.636v70.866h-3.636z" transform="matrix(3.72527 0 0 3.72527 0 -3.474)"/></g><g><path d="M228.355 7.567h.633c.901 0 1.46-.035 1.678-.104a.992.992 0 0 0 .704-.958.94.94 0 0 0-.184-.573 1.01 1.01 0 0 0-.525-.361c-.227-.072-.784-.109-1.673-.109h-.633v2.105zm-1.568 4.381v-7.71h1.563c1.465 0 2.286.007 2.463.019.517.044.92.147 1.207.308.288.162.528.408.721.74.192.332.288.7.288 1.105 0 .556-.181 1.032-.544 1.427-.364.395-.875.64-1.532.735.234.088.415.185.541.289.127.104.301.302.522.593.057.076.247.389.569.939l.91 1.555h-1.933l-.646-1.252c-.437-.84-.796-1.37-1.08-1.588-.282-.218-.641-.327-1.076-.327h-.405v3.167h-1.568zm3.289-9.733c-.999 0-1.956.25-2.872.749a5.444 5.444 0 0 0-2.166 2.153c-.527.936-.791 1.917-.791 2.941 0 1.018.258 1.989.772 2.912a5.525 5.525 0 0 0 2.157 2.163 5.823 5.823 0 0 0 2.9.778 5.819 5.819 0 0 0 2.904-.778 5.569 5.569 0 0 0 2.156-2.163 5.865 5.865 0 0 0 .777-2.912c0-1.024-.264-2.005-.791-2.941a5.435 5.435 0 0 0-2.17-2.153 5.952 5.952 0 0 0-2.876-.749zm-.011-1.427c1.245 0 2.44.312 3.585.935a6.756 6.756 0 0 1 2.698 2.681c.654 1.164.981 2.382.981 3.654 0 1.265-.321 2.472-.962 3.62a6.85 6.85 0 0 1-2.684 2.686c-1.147.642-2.354.963-3.618.963-1.265 0-2.47-.321-3.618-.963a6.844 6.844 0 0 1-2.684-2.686c-.642-1.148-.963-2.355-.963-3.62 0-1.272.327-2.49.981-3.654a6.753 6.753 0 0 1 2.699-2.681c1.144-.623 2.339-.935 3.585-.935zM2.147 15.422h10.245a2.147 2.147 0 0 0 2.147-2.147V3.03A2.147 2.147 0 0 0 12.392.883H2.147A2.147 2.147 0 0 0 0 3.03v10.245c0 1.186.961 2.147 2.147 2.147zM18.174 92.744h.006A7.27 7.27 0 0 0 25.45 100a7.27 7.27 0 0 0 7.269-7.269c0-.037-.005-.073-.005-.11V17.558c0-1.181.954-2.141 2.136-2.147l24.828-.072a2.148 2.148 0 0 0 2.136-2.147V3.756A2.968 2.968 0 0 0 58.846.788H21.142a2.968 2.968 0 0 0-2.968 2.968v88.988zM155.862 15.422h10.245a2.147 2.147 0 0 0 2.147-2.147V3.03a2.147 2.147 0 0 0-2.147-2.147h-10.245a2.147 2.147 0 0 0-2.147 2.147v10.245c0 1.186.961 2.147 2.147 2.147zM171.889 92.744h.007a7.268 7.268 0 0 0 7.269 7.256 7.27 7.27 0 0 0 7.27-7.269c0-.037-.005-.073-.006-.11V17.558c0-1.181.954-2.141 2.136-2.147l24.828-.072a2.148 2.148 0 0 0 2.136-2.147V3.756a2.968 2.968 0 0 0-2.968-2.968h-37.704a2.968 2.968 0 0 0-2.968 2.968v88.988zM121.371 7.904c-3.548-4.402-5.915-6.986-17.777-6.986L78.5.883a2.143 2.143 0 0 0-2.146 2.15l.008 5.274h-.009v71.362c0 1.185.961 2.147 2.147 2.147h10.245a2.147 2.147 0 0 0 2.147-2.147V17.571a2.15 2.15 0 0 1 2.15-2.147h8.488c8.054-.013 7.791 1.313 12.23 7.913 3.462 5.149 14.546 21.237 15.225 22.483 1.608 2.953 1.355 4.93-.187 7.656-1.054 1.865-15.348 23.979-16.993 26.516-2.701 4.166-3.35 5.474-15.24 5.474-1.126 0-1.993.998-2 2.123-.009 1.374-.005 7.095-.002 10.269A2.143 2.143 0 0 0 96.711 100c3.273-.004 9.379-.011 11.745-.011 4.923.001 9.557-3.255 11.915-6.639 3.392-4.872 20.514-29.643 22.569-33.34 4.304-6.724 4.642-13.764 1.025-19.491-4.184-6.626-19.227-28.438-22.594-32.615z" style="fill:#0045a1;fill-rule:nonzero" transform="matrix(3.72527 0 0 3.72527 0 -2.931)"/><path d="M78.5 99.99h10.245a2.147 2.147 0 0 0 2.147-2.147V87.598a2.147 2.147 0 0 0-2.147-2.147H78.5a2.147 2.147 0 0 0-2.147 2.147v10.245c0 1.185.961 2.147 2.147 2.147z" style="fill:#0045a1;fill-rule:nonzero" transform="matrix(3.72527 0 0 3.72527 0 -2.931)"/></g></svg>