<svg version="1.1" id="Livello_1" xmlns="http://www.w3.org/2000/svg" x="0" y="0" viewBox="0 0 250 120" style="enable-background:new 0 0 250 120" xml:space="preserve"><style>.st0{fill:#005190}</style><path d="M118.9 35.1v-5.2h-1.6v-1.3h3.1v6.5zM124.7 37.4c-.3.2-.7.4-1.1.5-.6.2-1 .2-2.2.2v-1.4h.6c.9 0 1.2-.1 1.6-.3.5-.3.8-.8.8-1.4 0-1-.6-1.5-1.8-1.7l-.9-.1v-4.5h4.1V30h-2.6v1.9l.6.1c1.4.2 2.3 1.2 2.3 2.8-.2 1.1-.6 2-1.4 2.6M130.2 29.9c-1.1 0-2 .9-2 2s.9 2 2 2 2-.9 2-2c-.1-1.1-1-2-2-2m0 5.5c-2 0-3.6-1.6-3.6-3.5s1.6-3.5 3.6-3.5 3.6 1.5 3.6 3.5c-.1 1.9-1.7 3.5-3.6 3.5M138.2 30.8c-.2 0-.5 0-.8.1-.4.1-.7.2-1.2.5.1 1.1.2 1.5.6 2 .3.4.7.7 1.2.7.9 0 1.5-.8 1.5-1.8 0-.9-.5-1.5-1.3-1.5m-.2 4.6c-1.9 0-3.2-1.6-3.2-4.1 0-1.5.5-2.9 1.4-4 .9-1 1.8-1.5 3.3-1.5.3 0 .5 0 1 .1v1.3c-.4 0-.5-.1-.9-.1-1.1 0-1.7.2-2.2.8-.6.6-.7 1-.9 2.1.4-.3.6-.3 1-.5.5-.1.9-.2 1.3-.2 1.4 0 2.4 1.1 2.4 2.7-.1 2.1-1.4 3.4-3.2 3.4M124 52.1c-.6.4-1.4.6-2.5.6s-1.8-.2-2.5-.6c-.9-.6-1.2-1.4-1.2-3v-5.4h1.7v5.5c0 1.3.7 2 2.1 2 1.3 0 2-.7 2-2v-5.5h1.7v5.4c-.1 1.6-.4 2.3-1.3 3M132.5 52.6l-3.8-5.7s-.1-.2-.2-.3c-.1-.1-.1-.2-.1-.2-.1-.1-.1-.2-.1-.3v6.5h-1.6v-8.8h1.9l3.7 5.8s.1.1.1.2.1.2.1.2l.1.2.1.2v-6.6h1.6v8.9h-1.8zM135.6 43.7h1.7v8.8h-1.7zM142.8 52.8h-1.2l-3.3-9.1h1.8l2 6v.4V49.8l.1-.1 1.9-6h1.8l-3.1 9.1zM147.1 52.5v-8.8h5.4v1.4h-3.7v2.2h3v1.4h-3v2.4h3.9v1.4zM156.6 45.1h-1.1v2.4h1.1c1.1 0 1.5-.4 1.5-1.3.1-.7-.4-1.1-1.5-1.1m1.8 7.4-2-3.5h-.8v3.5h-1.7v-8.8h2.9c1.3 0 1.9.2 2.4.7.5.4.7 1.1.7 1.9 0 .7-.2 1.2-.5 1.7-.3.4-.6.6-1.4.8l2.2 3.8h-1.8zM166.7 45.8c-.9-.4-1.7-.6-2.3-.6-.8 0-1.3.3-1.3.8 0 .4.2.6.8.9 1.4.7 2.2 1.3 2.6 1.7.4.4.6 1 .6 1.6 0 1.6-1.2 2.5-3.1 2.5h-.8c-.6-.1-.9-.2-1.8-.6-.1-.1-.3-.2-.6-.3l.7-1.6c.6.3.9.5 1.3.6.4.2.9.3 1.3.3.8 0 1.3-.3 1.3-.9 0-.4-.2-.6-.8-.9l-1.4-.8c-1.6-.9-2-1.5-2-2.4 0-.4.1-.9.3-1.2.1-.2.4-.5.7-.7.6-.4 1.2-.6 2.2-.6.6 0 1.1.1 1.7.2.4.1.7.2 1.3.5l-.7 1.5zM168.5 43.7h1.7v8.8h-1.7zM175.8 45.1v7.4h-1.7v-7.4h-2.7v-1.4h7v1.4zM181.5 45.7l-1 3.2h2l-1-3.2zm2.1 6.8-.7-2.2h-3l-.7 2.2h-1.8l3.2-8.8h1.5l3.2 8.8h-1.7zM180.8 42.4l-1.5-1.5h1.5l1.3 1.5zM123.2 58.8c-.5-.3-1.1-.5-2.1-.5h-1.3v5.9h1.3c2 0 3.1-1.1 3.1-2.9 0-1.1-.4-2.1-1-2.5m1.6 5.5c-.8.9-2 1.3-3.6 1.3h-3.3v-8.8h3.3c1.7 0 2.7.4 3.6 1.3.8.8 1.2 1.9 1.2 3.1 0 1.1-.5 2.3-1.2 3.1M127.1 65.6v-8.8h5.4v1.4h-3.7v2.2h3v1.4h-3v2.4h3.9v1.4zM140.6 65.5c-.9.2-1.5.3-2.2.3-2.9 0-5-1.9-5-4.6 0-1.3.5-2.5 1.5-3.4.9-.8 1.9-1.2 3.5-1.2.6 0 1.3.1 1.8.2.4.1.7.2 1.3.5l-.4 1.4c-.3-.1-.6-.2-.7-.3-.6-.2-1.3-.3-1.8-.3-2 0-3.4 1.2-3.4 3s1.5 3.2 3.5 3.2c.4 0 .6 0 1.1-.2v-2.4h1.7v3.6c-.4.1-.7.1-.9.2M142.9 65.6v-8.8h1.6v7.4h3.6v1.4zM149.4 56.8h1.7v8.8h-1.7zM161.7 58.9c-.9-.4-1.7-.6-2.3-.6-.8 0-1.3.3-1.3.8 0 .4.2.6.8.9 1.4.7 2.2 1.3 2.7 1.7.4.4.6 1 .6 1.6 0 1.6-1.1 2.5-3.1 2.5-.3 0-.5 0-.8-.1-.6-.1-.9-.2-1.8-.6-.1-.1-.3-.1-.6-.3l.7-1.6c.6.3.9.5 1.3.6.4.2.9.3 1.3.3.8 0 1.3-.4 1.3-.9 0-.4-.2-.6-.8-1l-1.4-.8c-1.6-.9-2-1.5-2-2.4 0-.4.1-.9.3-1.2.1-.2.4-.5.7-.7.6-.4 1.2-.6 2.2-.6.6 0 1.1.1 1.7.2.4.1.7.2 1.3.5l-.8 1.7zM167.5 58.2v7.4h-1.7v-7.4h-2.7v-1.4h7v1.4zM177.3 65.1c-.6.4-1.4.6-2.5.6s-1.8-.2-2.5-.6c-.9-.6-1.2-1.4-1.2-3v-5.4h1.7v5.5c0 1.3.7 2 2.1 2 1.3 0 2-.7 2-2v-5.5h1.7v5.4c-.1 1.7-.4 2.4-1.3 3M185 58.8c-.5-.3-1.2-.5-2.1-.5h-1.3v5.9h1.3c2 0 3.1-1.1 3.1-2.9 0-1.1-.4-2.1-1-2.5m1.6 5.5c-.8.9-2 1.3-3.6 1.3h-3.3v-8.8h3.3c1.7 0 2.7.4 3.6 1.3.8.8 1.2 1.9 1.2 3.1 0 1.1-.4 2.3-1.2 3.1M188.9 56.8h1.7v8.8h-1.7zM123.2 71.8c-.5-.3-1.1-.5-2.1-.5h-1.3v5.9h1.3c2 0 3.1-1.1 3.1-2.9 0-1.1-.4-2-1-2.5m1.6 5.6c-.8.9-2 1.3-3.6 1.3h-3.3v-8.8h3.3c1.7 0 2.7.4 3.6 1.3.8.8 1.2 1.9 1.2 3.1 0 1.1-.5 2.2-1.2 3.1M127.1 69.8h1.7v8.8h-1.7zM140.4 78.2c-.6.4-1.4.6-2.5.6s-1.8-.2-2.5-.6c-.9-.6-1.2-1.4-1.2-3v-5.4h1.7v5.5c0 1.3.7 2 2.1 2 1.3 0 2-.7 2-2v-5.5h1.7v5.4c-.1 1.6-.3 2.4-1.3 3M145.8 71.3h-1.1v2.4h1.1c1.1 0 1.5-.4 1.5-1.3 0-.8-.4-1.1-1.5-1.1m1.8 7.4-2-3.5h-.8v3.5H143v-8.8h2.9c1.3 0 1.9.2 2.4.7.5.4.7 1.1.7 1.9 0 .7-.2 1.2-.5 1.7-.3.4-.6.6-1.4.8l2.2 3.8h-1.7zM153.1 74.9H152v2.4h1.1c.5 0 .8 0 1-.2.4-.2.6-.6.6-1 .1-.8-.5-1.2-1.6-1.2m0-3.7H152v2.3h1c.9 0 1.5-.4 1.5-1.1 0-.8-.5-1.2-1.4-1.2m.8 7.5h-3.6v-8.8h3.2c1.2 0 1.7.1 2.2.6.4.4.7 1 .7 1.6 0 .5-.2 1-.5 1.4-.4.4-.8.6-1.4.6 1.3 0 2.2.9 2.2 2.3-.1 1.4-1.1 2.3-2.8 2.3M157.7 69.8h1.7v8.8h-1.7zM166.7 78.7l-3.8-5.7s-.1-.2-.2-.3c-.1-.1-.1-.2-.1-.2-.1-.1-.1-.2-.1-.3v6.5h-1.6v-8.8h1.9l3.7 5.8s.1.1.1.2.1.1.1.2l.1.2.1.2v-6.6h1.6v8.9h-1.8zM174.4 71.1c-1.7 0-2.9 1.3-2.9 3.1s1.2 3.1 2.9 3.1 2.9-1.3 2.9-3.1c0-1.7-1.3-3.1-2.9-3.1m0 7.7c-2.8 0-4.7-1.9-4.7-4.6 0-2.7 1.9-4.6 4.7-4.6 2.8 0 4.7 1.8 4.7 4.6 0 2.7-2 4.6-4.7 4.6M124 84.9c-.6-.4-1.3-.6-2-.6-1.7 0-2.9 1.2-2.9 2.9 0 1.9 1.3 3.1 3.2 3.1.6 0 1.1-.1 1.9-.4l.3 1.4c-.6.3-.8.3-1.2.4-.4.1-.9.1-1.4.1-1.4 0-2.4-.3-3.2-1.1-.9-.8-1.5-2.2-1.5-3.5 0-1.3.5-2.4 1.3-3.3.9-.9 1.9-1.2 3.3-1.2 1.1 0 2 .3 2.8.8l-.6 1.4zM129.1 84.9l-1 3.2h2l-1-3.2zm2.2 6.8-.7-2.2h-3l-.7 2.2h-1.8l3.2-8.8h1.5l3.2 8.8h-1.7zM136.6 84.3h-1.1v2.4h1.1c1.1 0 1.5-.4 1.5-1.3.1-.7-.4-1.1-1.5-1.1m1.8 7.4-2-3.5h-.8v3.5h-1.7v-8.8h2.9c1.3 0 1.9.2 2.4.7.5.4.7 1.1.7 1.9 0 .7-.2 1.2-.5 1.7-.3.4-.6.6-1.4.8l2.2 3.8h-1.8zM141.1 91.7v-8.8h1.7v7.4h3.6v1.4zM151.2 84.2c-1.7 0-2.9 1.3-2.9 3.1s1.2 3.1 2.9 3.1 2.9-1.3 2.9-3.1-1.2-3.1-2.9-3.1m0 7.7c-2.8 0-4.7-1.9-4.7-4.6 0-2.7 1.9-4.6 4.7-4.6 2.8 0 4.7 1.8 4.7 4.6 0 2.7-1.9 4.6-4.7 4.6M163.7 87.9h-1.1v2.4h1.1c.5 0 .8 0 1-.2.4-.2.6-.6.6-1 0-.7-.6-1.2-1.6-1.2m0-3.7h-1.1v2.3h1c1 0 1.5-.4 1.5-1.1-.1-.7-.6-1.2-1.4-1.2m.7 7.5h-3.6v-8.8h3.2c1.1 0 1.7.1 2.2.6.4.4.7 1 .7 1.6 0 .5-.2 1-.5 1.4-.4.4-.7.6-1.4.6 1.3 0 2.2.9 2.2 2.3-.1 1.5-1 2.3-2.8 2.3M172.7 84.2c-1.7 0-2.9 1.3-2.9 3.1s1.2 3.1 2.9 3.1 2.9-1.3 2.9-3.1-1.3-3.1-2.9-3.1m0 7.7c-2.8 0-4.7-1.9-4.7-4.6 0-2.7 1.9-4.6 4.7-4.6 2.8 0 4.7 1.8 4.7 4.6 0 2.7-2 4.6-4.7 4.6"/><path class="st0" d="M38.6 66.5c.8.2 1.4.4 2.2.6-.1-.3-.2-.6-.3-.8-.1-.2-.2-.3-.5-.2-.3.1-.6.2-1 .3-.1 0-.2.1-.4.1M58.8 68.8c-.2.3-.3.6-.5.9.8-.1 1.5-.2 2.3-.3-.5-.4-.9-.6-1.5-.7-.1 0-.3 0-.3.1M38.1 63.7c.6.2 1.2.5 1.9.7-.1-.3-.1-.6-.2-.9 0-.1-.1-.2-.2-.2-.5 0-1 .1-1.5.4M59.7 66.1c-.1.3-.2.6-.4.9.7-.2 1.4-.4 2.1-.5-.5-.4-1-.5-1.5-.5-.1 0-.2.1-.2.1M37.7 60.8c.6.3 1.2.5 1.9.8 0-.3-.1-.6-.1-.9 0-.2-.1-.2-.3-.3-.6 0-1.1.2-1.5.4M39.8 51.1c0-.1-.1-.2-.2-.2-.5-.2-1-.2-1.5-.1.5.4 1.1.9 1.6 1.3.1-.3.1-.7.1-1M38.9 56.7c-.9-.2-1.7-.1-2.5.3 1 .5 1.9 1 2.9 1.5v-1.4c-.1-.2-.3-.3-.4-.4M39.5 53.7c-.6-.2-1.2-.2-1.8-.1.6.4 1.2.8 1.8 1.1-.1-.4-.1-.7 0-1M61.3 73.8H55c2.1 2.2 4.2 4.3 6.2 6.5.2-.2.2-5.9.1-6.5M54.4 57.4c.2.1.4.1.5-.1.1-.1 0-.3-.1-.5l-.1-.1c-1.1-1.2-2.6-1.6-4-2.2 0 0 0 .1-.1.1.5.4 1 .9 1.5 1.3.8.5 1.6 1 2.3 1.5M53.5 45.4c-.3-2-2.3-3.3-4.3-2.9-2 .5-3.2 2.5-2.6 4.5.3 1 .9 1.8 1.9 2.2.3.1.4 0 .4-.2s-.1-.3-.1-.5l-.3-.3c-.7-.8-.9-2-.3-3 .5-.9 1.6-1.2 2.6-.9 1.1.3 1.6 1.1 1.9 2.1.1.4.2.8.3 1.3 0-.1.1-.1.1-.2.5-.6.5-1.3.4-2.1M52.6 50.6c-.2-.2-.5-.3-.8-.5-.1 1.2-.3 2.3-.4 3.3-.1.4 0 .6.5.7 1.1.4 2.2.8 3.1 1.7 0-.7-.1-1.2-.3-1.8-.4-1.3-1.1-2.5-2.1-3.4M45.8 57.2c.2 0 .4-.1.6-.3 1.3-.7 2.4-1.7 3.4-2.8.1-.1.2-.3.3-.5.3-.7.2-1.6-.2-2.1h-.1c0 .3-.2.6-.1.9.1 1-.3 1.6-1.1 2.1-.9.5-1.7 1-2.5 1.6-.2.1-.4.4-.6.6-.1.1-.1.3 0 .4 0 .2.2.2.3.1"/><path class="st0" d="M49.1 53.2c.1-.6.1-1.1.2-1.7 0-.4.2-.5.5-.6.3 0 .5.1.7.4.1.2.1.4.2.5.1-1 .3-2 .4-3-.4 0-.8.1-1.2.1-.2 0-.2.1-.3.2l-.6 2.1c-.2.8-.4 1.6-.5 2.4.4.2.6 0 .6-.4M48.6 46.5c0 .7.6 1.7 1.3 1.9.5.2.9-.1.9-.7 0-.7-.6-1.6-1.3-1.8-.6-.2-.9 0-.9.6M56.7 67.4c-.7.9-1.6 1.6-2.5 2.2-.1 0-.2.3-.2.4 0 .4.1.8.1 1.3h.1c1.2-1.1 2.1-2.3 2.6-3.9h-.1"/><path class="st0" d="M51.5 47.3c.1.5.2 1.1.3 1.6.1.4.3.6.8.8v-.1c-.2-1-.3-1.9-.5-2.9-.2-.8-.6-1.3-1.4-1.6-.4-.2-.7-.2-1.1 0 .1 0 .1.1.1.1 1 .3 1.5 1 1.8 2.1M26.7 86c-.2-.2-.4-.3-.7-.3-.3 0-.6.3-1 .7-.4.4-.6.7-.6 1 0 .2.1.5.3.7l.5.5 2-2.1-.5-.5zM15.6 48.4c-.4-.1-.7.1-.8.4l-.3.9 1.2.4.3-.9c.1-.4 0-.7-.4-.8M23.3 35.4l.9 1.6.9-.9zM17.1 76.9c-.3.2-.4.5-.2.9l.4.8 1.1-.6-.4-.7c-.2-.4-.5-.5-.9-.4M22.1 81.2c0-.2 0-.4-.1-.6-.1-.2-.3-.3-.5-.3-.3 0-.5.1-1.2.5-.7.5-.8.6-.9.9 0 .2 0 .4.1.6.1.2.3.3.5.3.3 0 .5-.1 1.2-.5.7-.5.9-.6.9-.9M47.6 53.9c.2-.7.3-1.4.4-2.1.1-.5.2-1.1.3-1.6-1.4.3-3.4 3.9-3 5.4h.1c.6-.4 1.3-.7 1.8-1.1.2-.2.4-.4.4-.6M86.8 57.7l-1.9-.5.2 1.2zM81.1 41.4c.3-.2.3-.5.1-.9l-.5-.8-1 .6.5.8c.3.4.6.5.9.3M74.3 33.5c.3-.3.2-.7-.1-1l-.7-.6-.9 1 .7.6c.4.3.8.3 1 0M78.8 42.2c.2.3.6.4.9.2.3-.2.4-.5.1-.9l-.5-.8-1 .7.5.8zM41 68.7c-.6.1-1.1.3-1.4.7.7.1 1.5.3 2.2.4-.1-.3-.3-.6-.5-.9 0-.1-.2-.2-.3-.2M55.4 89.1c.3.3.6.4 1 .2.2-.1.3-.1.5-.2 1.1-.3 2.1-.9 3-1.7-.2-.2-.4-.3-.5-.5-2.8-2.7-5.5-5.5-8.3-8.2-1.6-1.5-3.1-3.1-4.7-4.6-.2-.2-.5-.4-.9-.4h-5.3c-.1 0-.2.1-.3.1.3.2.5.4.7.5 4.3 4.2 8.5 8.4 12.7 12.6.7.8 1.4 1.5 2.1 2.2M51.1 91.9v-.1c1.1-.7 2.2-1.4 3.3-2.2-5.1-5.3-10.4-10.5-15.8-15.8v4.5c0 .6.2 1.1.6 1.5L51 91.6c0 .1.1.2.1.3"/><path class="st0" d="m42 59.6.6-.1.2-.5.4.4.6-.1-.2.6.4.5-.6.1-.2.5-.4-.4-.6.1.2-.6-.4-.5zm.7-5.6.2-.5.4.4.6-.1-.2.6.4.5-.6.1-.2.5-.4-.5-.6.1.2-.6-.5-.4.7-.1zm1.2-4.4.2-.5.4.4.6-.1-.2.6.4.5-.6.1-.2.5-.4-.4-.6.1.2-.6-.3-.3-.2-.2.7-.1zm11.4.3-.1-.3.6.1.4-.4.2.5.4.1.3.1-.4.5.2.6-.6-.1-.4.4-.2-.5-.7-.2.4-.5-.1-.3zm2.3 3.5.2.5.6.1-.4.6.2.6-.7-.2-.4.4-.1-.5-.6-.1.4-.5-.2-.6.6.1.4-.4zm.6 7.3-.6-.1-.4.4-.2-.6-.6-.1.4-.5-.2-.6.6.1.4-.4.2.5.6.1-.4.5.2.7zM45 72.8c.4-.5.4-.6 0-1l-.5-.5c-1.5-1.6-2.3-3.5-2.2-5.7 0-.4.1-.7.1-1.1.8 2 2 3.5 4 4.6.1-.5.1-1.1.2-1.6.1-1.2.3-2.4.4-3.6 0-.3 0-.5-.3-.7-.7-.5-1.1-1.2-1.4-1.9-1-2.3-1.2-4.7-.7-7.2.4-1.7 1.2-3.2 2.7-4.3 0 0 .1-.1.2-.1-.2-.2-.4-.3-.6-.5-1.1-1-1.6-2.2-1.4-3.7.3-2.4 2.4-4 4.8-3.8 2.2.1 4 2.1 4 4.4 0 1-.3 1.9-.9 2.6-.3.4-.4.7-.2 1.2s.4.9.7 1.3c1 1.3 1.5 2.8 1.7 4.4.2 1.5.1 2.9-.1 4.4-.2 1.3-.5 2.5-1.3 3.6-.2.3-.3.6-.3 1 0 1.3 0 2.6-.1 3.9v.4c1.8-1 3-2.5 3.7-4.5.6 3.3-.6 5.8-3.2 7.7.2.2.4.4.6.7.2-.2.3-.3.4-.5 1-1.2 1.8-2.6 2.4-4 1.1-2.6 1.7-5.3 1.9-8.1.3-3.3.1-6.6-.6-9.9-.6-2.6-1.5-5-3-7.2-.5-.8-1.2-1.4-2.2-1.7-2.5-.8-5-.8-7.6-.1-1 .3-1.9.8-2.5 1.8-1 1.5-1.8 3.1-2.4 4.9-.9 2.5-1.3 5.1-1.4 7.7-.2 3.2.1 6.4.9 9.6.6 2.3 1.5 4.5 3 6.4.6.4.9.7 1.2 1.1M50 93.6c-.3 0-.5.2-.5.5s.2.5.5.5.5-.3.5-.5c0-.3-.2-.5-.5-.5M38.6 80.5V84c0 1.6.7 2.9 1.9 4 .9.8 2 1.2 3.2 1.4 2.1.4 4 1.3 5.4 2.9.2.2.4.3.6.4.3.1.7 0 .9-.3-4-3.9-7.9-7.9-12-11.9M59.7 70.2c-.8.2-1.6.4-2.2 1l-1.2 1.5v.1h5c.2 0 .3-.1.3-.3.1-.6.3-1.2.5-1.8v-.3c-.1 0-.2 0-.2-.1-.8-.2-1.5-.3-2.2-.1M62.1 70.5"/><path class="st0" d="M59.8 43.7c-.1-.4-.2-.5-.7-.5-.3 0-.6 0-.9-.1-.4 0-.7-.1-1.1-.1 1.4 2.3 2.4 4.7 3 7.2 1.4-.4 2.8-.2 4 .7-1.5.1-2.4.9-3.3 2 1.4-.2 2.6.1 3.6 1-1.5 0-2.5.8-3.4 1.8 1-.1 2 0 2.9.4.9.3 1.7.9 2.4 1.7-2.2-.3-3.8.7-5.3 2 1.4.1 2.5.7 3.3 1.7-.7-.1-1.3-.1-1.9.1-.6.2-1.2.5-1.7.9 1.3.4 2.5.7 3.3 2.1-1.4-.2-2.7-.2-3.9.7 1.3.4 2.5.9 3.1 2.2-1.4-.6-2.6.1-3.9.4v.1c.1 0 .2.1.3.1 1.2.4 2 1.2 2.5 2.3.1 0 .2-.1.2-.1.7-1.2 1.7-2 2.9-2.5 1.3-.6 2.1-1.5 2.5-2.9.3-1.1.5-2.2.5-3.3.2-2.9.2-5.9-.3-8.7-.1-.9-.4-1.7-.7-2.5-.4-1-1.1-1.4-2.2-1.2-.5.1-1 .1-1.5 0-1.7-.3-3-1.6-3.4-3.3-.1-.8-.2-1.5-.3-2.2M56.2 33.7c-.6.1-.7.1-.9.7-.3 1-.3 2-.3 3.1 0 .6.2.9.7 1.1.4.1.7.3 1 .5.1.1.3.1.5.2-.7-2-.6-3.8.1-5.7-.3 0-.7.1-1.1.1"/><path class="st0" d="m87.6 65-2.6-.3c-.5-.1-.9.2-1 .7-.1.5.2.9.8.9l2.6.3-.1.6-2.6-.3c-.8-.1-1.3-.8-1.2-1.6.1-.8.7-1.4 1.6-1.3l2.6.4-.1.6zm-1.3 6.4c-.2.7-.8 1.1-1.5.9-.5-.2-.8-.6-.8-1.1l-2 .4.2-.7 1.9-.3.2-.7-1.6-.5.2-.6 3.8 1.1-.4 1.5zm-1.9 5.1c-.3.7-.9.9-1.5.7-.4-.2-.6-.6-.6-.8-.2.2-.6.4-1.1.2-.7-.3-.8-.9-.5-1.6l.7-1.5 3.7 1.7-.7 1.3zm-2 3.9-3.5-2.1.3-.5 3.4 2.1-.2.5zm-1.8 2.8-3.4-.2 2.2 1.7-.4.5-3.2-2.5.3-.4 3.4.3-2.2-1.7.4-.5 3.2 2.5-.3.3zm-4.5 5-3.8-1.9.5-.4.8.4 1.1-1.1-.4-.8.5-.4 1.7 3.9-.4.3zm-4.5 3.7-.3-.4.9-.7-2.1-2.8.5-.4 2.1 2.8.9-.6.3.4-2.3 1.7zm-4.3 2.6-.2-.5 1.7-1-.6-1-1.5.8-.3-.5 1.5-.8-.6-1-1.7 1-.2-.5 2.2-1.3 2 3.5-2.3 1.3zM64.5 74v9.9c0 3.2-2 6-5 7-1.2.4-2.4.7-3.6 1-.9.2-1.7.6-2.1 1.5 0 .1-.1.1-.1.2.2 0 .4.1.6.1 1.2.3 1.8 1.5 1.1 2.6-.4.6-1 1-1.9 1h-.8c-.4 0-.6.1-.8.4-.3.5-.8.8-1.3 1-.4.1-.7.1-1.1 0-.5-.2-1-.5-1.4-1-.2-.2-.4-.3-.7-.3-.5 0-.9 0-1.4-.1-.9-.1-1.6-.9-1.6-1.9 0-.9.6-1.5 1.6-1.6.1 0 .2 0 .4-.1-.4-.8-1-1.4-1.8-1.6-.9-.3-1.8-.5-2.8-.7-2.3-.6-4.2-1.8-5.4-3.9-.7-1.3-.9-2.7-.9-4.1v-9.3c0-1.4-.6-2.3-1.8-2.8-1.6-.7-2.9-1.7-3.8-3.1-.6-1-1-2.1-1.2-3.3-.6-3-.9-6.1-.9-9.2 0-1.7.3-3.4.9-5 .4-1 .9-1.8 1.7-2.5 1.1-1 2.4-1.2 3.8-.6.3.1.5.2.8.4.6.3 1.2.3 1.8.2 1.4-.4 2.4-1.6 2.5-3.1 0-.6.1-1.3.4-1.9-.1 0-.3-.1-.4-.1-.6-.2-1.3-.5-1.8-.9-.2-.2-.3-.2-.5-.3-1.5-.3-2.5-1.3-2.8-2.8-.2-1.1-.1-2.1.5-3v-.3C33.4 33.3 31.9 31 30 29l-.1-.1c0-.1-.1-.3 0-.4.1-.1.3-.2.4-.1.3.1.7.2 1 .3.9.3 1.9.6 2.8.9.1 0 .2 0 .3.1 0-.4.1-.8.1-1.2.1-.6.1-1.2.2-1.8 0-.4.3-.5.6-.3 1.1.6 2.3 1.3 3.4 1.9.1 0 .2.1.3.2.1-.1.1-.3.2-.4.4-.9.7-1.7 1.1-2.6.2-.4.4-.4.7-.2.8.6 1.6 1.3 2.4 1.9.1-.1.1-.2.2-.3.5-.8 1-1.7 1.6-2.6.2-.4.4-.4.7-.1.7.6 1.3 1.1 2 1.7l2.4-3h.3c.4.5.9 1.1 1.3 1.6.3.4.7.8 1 1.2.1-.1.2-.1.2-.2.5-.5 1.1-.9 1.7-1.4.3-.3.5-.3.7.1.5.9 1.1 1.8 1.7 2.7.6-.5 1.3-1 1.9-1.5.1-.1.3-.2.4-.3.3-.2.5-.2.7.2.4.9.8 1.8 1.1 2.6 0 .1.1.2.1.3.5-.3 1-.5 1.4-.8l2.1-1.2c.4-.2.6-.1.6.3.1.8.2 1.7.3 2.5v.4c.8-.3 1.5-.5 2.3-.7.5-.2 1-.3 1.6-.5.2-.1.4-.1.5.1.1.2 0 .4-.1.5-2 2.1-3.5 4.5-4.9 7-.1.1 0 .2 0 .3.4.6.7 1.3.6 2.1 0 1-.3 1.9-.9 2.7-.4.5-1 .9-1.7 1-.2.1-.5.2-.7.3-.5.3-1 .5-1.6.8-.1.1-.3.1-.4.2.1.5.2.9.3 1.4.1.5.1.9.2 1.4.3 1.3 1.4 2.2 2.7 2.3.6 0 1.1-.2 1.7-.4.4-.2.9-.4 1.3-.5 1.2-.2 2.2.3 3.1 1.1.9.9 1.4 2 1.8 3.1.4 1.2.5 2.5.6 3.7.2 3.6-.2 7.3-1.1 10.8-.6 2.3-2 3.9-4.1 4.9-.3.1-.5.3-.8.4-1.1.5-1.7 1.4-1.7 2.6m0 21.8-2.7-1.9 1 2.6-.6.2-1.5-3.7.5-.2 2.7 2-1-2.6.6-.2 1.5 3.8h-.5zm-25.8-2.2c-.2-.4-.4-.6-.8-.7-.5-.2-.8-.1-1 .3-.1.2-.1.3 0 .5 0 .1.1.2.3.3l.4.2c.3.1.5.3.6.6.1.2.1.5 0 .8-.2.7-.9.9-1.7.6-.5-.2-.8-.4-1-.9l.5-.2c.1.3.4.5.7.6.4.2.8 0 .9-.3.1-.1.1-.3 0-.4-.1-.1-.2-.3-.3-.4l-.4-.2c-.3-.2-.5-.3-.6-.5-.1-.2-.1-.5 0-.9.3-.7 1-.9 1.8-.6.6.2.9.5 1.1 1l-.5.2zm-4.8.9-.2.5-2.5-1.3.3-.5 1 .5 1.6-3.1.5.3-1.6 3 .9.6zm-4.4-1.9-.5-.3 1.5-2.2c.3-.5.2-.9-.2-1.2-.4-.3-.9-.2-1.2.2l-1.5 2.2-.5-.4 1.5-2.2c.5-.7 1.3-.8 2-.3s.9 1.3.4 2l-1.5 2.2zm-5.2-4.1c-.3-.3-.5-.6-.5-1 0-.6.4-1 .8-1.4.4-.4.8-.9 1.4-.9.4 0 .7.1 1 .4l1 1-2.7 2.9-1-1zm-3-3.1 3-2.6.4.5-3 2.6-.4-.5zM20 83.2c-.4-.1-.7-.3-1-.6-.2-.3-.3-.7-.3-1.1.1-.5.5-.8 1.1-1.2.6-.4 1-.7 1.5-.6.4.1.7.3 1 .6.3.3.3.7.3 1.1-.1.5-.5.8-1.1 1.2-.5.4-.9.7-1.5.6m-3.6-5.1c-.4-.7-.1-1.3.5-1.7.5-.3 1-.1 1.3.2l1.2-1.6.3.6-1.1 1.5.3.7 1.5-.8.3.5-3.6 1.9-.7-1.3zm-2.3-5.5-.2-.6 2.5-.7c.5-.1.7-.5.6-1-.1-.5-.5-.7-1.1-.6l-2.5.7-.2-.6 2.6-.7c.8-.2 1.5.2 1.7 1 .2.8-.1 1.5-.9 1.8l-2.5.7zm-1.4-5.7 2.5-2.2-2.8.4-.1-.6 4-.5.1.5-2.6 2.2 2.8-.4.1.6-4 .6v-.6zm-.5-5.4 4-.1v.6l-4 .1v-.6zm.1-2.4 3-.7-2.8-1.1v-.6l3.9 1.6v.5l-4.1 1v-.7zm.9-6.9.5.1-.4 1.9 1.1.2.3-1.6.5.1-.2 1.7 1.2.2.4-1.9.5.1-.5 2.5-3.9-.8.5-2.5zm1.1-3.6c.2-.7.9-1 1.5-.8.5.2.8.6.8 1.1l2-.3-.2.7-1.9.3-.2.7 1.6.5-.2.6-3.8-1.3.4-1.5zm1.7-4.2c.2-.5.5-.8 1-.9l.2.5c-.3.1-.5.3-.7.7-.2.4-.1.8.2.9.1.1.3.1.4 0 .1-.1.3-.2.4-.3l.2-.4c.2-.3.4-.4.6-.5.3-.1.6-.1.9.1.7.3.8 1.1.4 1.8-.3.5-.6.9-1.1 1l-.2-.5c.4-.1.6-.4.8-.8.2-.5.2-.8-.2-1-.2-.1-.3-.1-.4 0-.1.1-.2.1-.3.3l-.3.4c-.2.3-.4.5-.6.5-.2.1-.5.1-.8-.1-.7-.3-.9-1-.5-1.7m2-3.6 3.4 2.1-.3.5-3.4-2.1.3-.5zm2.7-3.9.4.3-.7.9 2.8 2.1-.4.5-2.8-2.1-.7.9-.3-.4 1.7-2.2zm2.1-2.3 3.9 1.7-.5.5-.8-.4-1.1 1.2.4.7-.4.5-1.9-3.8.4-.4zm3.3-3.1c.4-.3.8-.5 1.3-.4l-.1.5c-.3 0-.6.1-.9.3-.4.3-.4.7-.2.9.1.1.2.2.3.2.1 0 .3 0 .5-.1l.4-.2c.3-.2.5-.2.8-.2.3 0 .5.2.8.4.5.6.3 1.3-.4 1.8-.5.4-.9.6-1.4.5l.1-.6c.4.1.7-.1 1-.3.4-.3.5-.7.3-1-.1-.1-.2-.2-.4-.2-.1 0-.2 0-.5.1l-.4.2c-.3.2-.6.2-.8.2-.3 0-.5-.2-.7-.4-.4-.5-.3-1.2.3-1.7m47.3-.4 1.2 1c.6.5.7 1.2.2 1.8-.5.5-1.2.6-1.8.1l-.7-.6-1 1.2-.5-.4 2.6-3.1zm3.9 3.5.4.5-2 1.8c-.4.4-.4.8-.1 1.2.3.4.8.4 1.2 0l2-1.8.4.4-2 1.8c-.6.5-1.4.5-2-.2-.5-.6-.5-1.4.1-2l2-1.7zm4.4 5.6c.4.6.3 1.2-.2 1.6-.4.2-.8.2-1 0 .1.3 0 .7-.4 1-.6.4-1.2.2-1.6-.4l-.9-1.4 3.4-2.2.7 1.4zm2.3 4-3.1 1.5.8 1.7-.5.2-1.1-2.3 3.6-1.7.3.6zm1.6 3.9.2.6L82 50l-.2-.6 3.8-1.3zm1.3 4.4c.2.7-.1 1.4-.9 1.7l-.1-.6c.4-.2.6-.5.5-1 0-.2-.2-.4-.4-.5-.3-.1-.5-.1-1.3 0-.8.2-1 .3-1.2.5-.1.2-.2.4-.1.6.1.4.4.6.9.6l.1.6c-.8 0-1.4-.4-1.5-1.1-.1-.4 0-.8.2-1.1.3-.5.7-.6 1.5-.7.8-.2 1.2-.3 1.7 0 .3.3.5.6.6 1m.8 5.3-3.9 1.8V59l.8-.3-.1-1.6-.8-.2-.1-.6 4.1 1.1v.4zM50 11.1C22.5 11.1.1 33.4.1 61c0 27.5 22.3 49.9 49.9 49.9 27.5 0 49.9-22.3 49.9-49.9 0-27.6-22.4-49.9-49.9-49.9"/><path class="st0" d="m36.6 36.4-.6-.3c-.1 0-.3 0-.3.1-.6.8-.9 1.8-.6 2.8.2.8.6 1.4 1.3 1.9-.3-.7-.5-1.5-.5-2.3.1-.8.3-1.5.7-2.2M39.7 39.2c-.1.3.1.5.4.6.3.1.6.1.9.2.5.1.6 0 .9-.5.5-1.1.7-2.2.6-3.4 0-.7-.2-1.4-.5-2.1-.1-.1-.3-.3-.4-.3h-1.9c.1.2.1.4.2.6.4 1 .5 2 .3 3-.2.6-.4 1.3-.5 1.9M50 34.4c-.4 0-.8.4-.8.8s.4.8.8.8.8-.4.8-.8-.4-.8-.8-.8M44.7 38.4c.1-.1.2-.3.2-.5v-1.6c0-.7-.1-1.3-.3-2-.1-.4-.4-.6-.8-.6-.3 0-.6-.1-.8-.1h-.4c.8 1.9.8 3.8.1 5.8.7-.4 1.4-.7 2-1"/><path class="st0" d="M50 36.9c-.9 0-1.7-.8-1.7-1.7 0-.9.8-1.6 1.7-1.6.9 0 1.7.8 1.7 1.7 0 .8-.8 1.6-1.7 1.6m3.2-3.3c-.5.1-.7 0-1-.4-.5-.6-1.1-1.2-1.7-1.8-.4-.4-.8-.4-1.2.1-.5.6-1.1 1.1-1.5 1.7-.3.4-.5.5-1 .3s-1-.2-1.6 0c.7 1.4.5 3 .5 4.5 2.8-.7 5.6-.7 8.5 0 0-1.6-.1-3.1.5-4.5-.4-.1-1-.1-1.5.1"/><path class="st0" d="M43.9 41.7c.6-.3 1.3-.7 1.9-.9 2.2-.8 4.4-.9 6.6-.5 1.3.2 2.5.6 3.6 1.3 1.4.9 3 1 4.6.7 2.8-.6 3.1-3.7 2.1-5.3-.1-.1-.2-.3-.3-.3h-1.7c0 .2 0 .5.1.7.1.6.3 1.1.4 1.7.2.7 0 1.1-.6 1.4-1.1.5-2.2.5-3.2-.1-1.7-1-3.6-1.6-5.6-1.8-3.2-.3-6.1.1-8.9 1.8-1 .6-2.1.6-3.1.2-.8-.3-1-.7-.8-1.5.2-.8.3-1.5.5-2.3h-1.7c-.2 0-.4.1-.5.4-.1.4-.3.7-.4 1.1-.5 1.9.5 3.6 2.5 4.1 1.5.2 3 0 4.5-.7M75.6 87.4l-.7-1.7-.9.8zM32.7 50.6c-.6 2.2-.9 4.4-1 6.6-.1 2.2.1 4.4.4 6.6.3 1.9 1.2 3.2 2.9 4 .6.3 1.2.8 1.8 1.2.6.5 1 1.1 1.2 1.8.1.5.3 1 .4 1.4.1.3.2.4.6.4h4.3c.1 0 .3 0 .5-.1-.4-.5-.7-.9-1.1-1.3-.9-1.1-2-1.4-3.4-1.3-.4 0-.8.2-1.3.3.5-1.3 1.5-2 2.8-2.5-1.3-.6-2.5-1-3.9-.5.4-.6.8-1.2 1.3-1.5.5-.3 1.1-.6 1.7-.8-1.1-.7-2.3-1.1-3.7-.7.7-1.3 1.9-1.6 3.2-2.1-1.1-.7-2.3-1.2-3.6-.9.3-.4.6-.7 1-.9.7-.5 1.5-.7 2.4-.8-1.6-1.3-3.2-2.3-5.4-2.1 1.5-1.5 3.2-2.1 5.3-2-1-1-2-1.8-3.4-1.8 1-1 2.3-1 3.6-1.2-.6-.5-1-.9-1.5-1.3s-1.2-.5-1.9-.5c1.3-.9 2.6-1.2 4.1-.8.7-2.6 1.7-4.9 3-7.2-.8.1-1.5.2-2.1.3-.3 0-.4.2-.5.5-.1.6-.2 1.3-.3 1.9-.4 2.6-3 4-5 3.5-.4-.1-.7 0-1.1.1-.7.6-1.1 1.1-1.3 1.7M81.6 76c.3.1.7 0 .8-.4l.4-.9-1.1-.5-.4.9c-.2.4-.1.7.3.9M46.8 61.9c.1.1.1.1.2.3.8-1.6.6-3.2.6-4.8-.1.1-.2.1-.3.2-.5.3-1 .6-1.6.7-.2 0-.3.1-.3.3.2 1.1.6 2.2 1.4 3.3"/><path class="st0" d="M70.5 65.3c.7-3 1-6 1-9 0-1.6-.1-3.2-.6-4.8-.3-1.1-.9-2-1.8-2.7-.8-.6-1.6-.8-2.7-.5.1.1.2.1.2.2.7.4 1.2 1 1.5 1.7.2.4.3.8.4 1.2.5 1.9.6 3.9.7 5.9.1 2.3 0 4.7-.4 6.9-.4 2-1.5 3.6-3.4 4.4-2 .9-2.9 2.4-2.9 4.5v10.7c0 .8-.1 1.5-.4 2.2-1.1 2.3-2.9 3.7-5.4 4.1-2 .3-3.7 1.2-5.1 2.6-.3.3-.4.6-.3 1 .1.4 0 .8-.3 1.1-.4.5-1.1.6-1.6.2-.6-.4-.8-1-.6-1.6.1-.2 0-.4-.1-.6-.8-1-1.8-1.8-3.1-2.3-.8-.3-1.7-.5-2.6-.7-3.1-.7-5.4-3.2-5.3-6.6V72.6c0-1.2-.4-2.2-1.2-3.1-.6-.6-1.3-1-2-1.3-1.1-.5-1.9-1.3-2.5-2.4-.4-.8-.6-1.7-.8-2.6-.3-1.8-.3-3.6-.3-5.5 0-2.4.2-4.7.8-7 .3-1.1.8-2.1 1.8-2.6l.1-.1c-.5-.1-1-.1-1.4 0-1.1.3-1.8 1-2.4 2-.7 1.3-1 2.6-1.1 4-.2 3.6 0 7.2.8 10.8.2 1.1.6 2.1 1.2 3 .8 1.2 1.9 2 3.2 2.6.4.2.9.4 1.2.7 1 .8 1.2 1.8 1.2 3v10c0 2.4 1.1 4.2 3.2 5.5 1.2.7 2.6 1.1 4 1.3.9.1 1.8.4 2.6 1 .5.4.9.9 1.1 1.6.3 1-.3 1.3-1 1.1-.4-.1-.7 0-.9.4-.2.3-.2.7.1 1 .3.4.7.5 1.2.5s.9 0 1.4-.1c.2 0 .3.1.4.2.2.3.4.6.7.9.5.6 1.2.6 1.7 0 .2-.2.4-.5.6-.8.3-.5.3-.5.8-.3.7.1 1.4.1 2.1-.3.4-.3.5-.7.3-1.1-.2-.4-.5-.6-1-.6-.1 0-.2.1-.3.1-.5 0-.8-.2-.7-.7 0-.6.3-1.1.7-1.6.7-.7 1.5-1.1 2.4-1.3 1-.2 1.9-.4 2.9-.7 2.3-.7 3.9-2.2 4.6-4.6.3-1 .3-2.1.3-3.1v-8.9c0-1.4.6-2.4 1.8-3 .3-.2.6-.3.9-.4 2.4-.9 3.8-2.5 4.3-4.9M85 71.7c.4.1.7-.1.8-.5l.2-.9-1.2-.3-.2.9c-.1.4 0 .7.4.8M83.2 76.6c.3.2.6 0 .8-.3l.4-.8-1-.5-.4.8c-.2.3-.2.7.2.8"/><path class="st0" d="M43.5 67.7c0-.1-.1-.1-.1-.2l-.1.1c.4 1.5 1.3 2.7 2.5 3.8.1-.4.2-.7.2-1 .1-.4.1-.5-.3-.7-.8-.6-1.5-1.3-2.2-2M55 58.3c-1.7-.3-2.9-1.1-3.9-2.4.2 2.6.8 5 2.8 6.8.8-1.4 1-2.9 1.1-4.4"/><path class="st0" d="M46.2 72.7h7.6c-.6-1.3-.6-2.7-.6-4.1v-4.8c0-.3-.1-.6-.3-.8-1.7-1.9-2.5-4.1-2.8-6.5 0-.5-.1-1.1-.1-1.5-.5.5-1 .9-1.5 1.4-.1.1-.2.4-.2.6v2.1c0 .8-.1 1.7-.3 2.5-.1.3-.2.7-.2 1-.1 1.3-.2 2.6-.3 3.8-.2 2-.5 4-1.3 5.9v.4M60.9 53.6c-.1 0-.2.2-.2.3 0 .3 0 .6.1.9.6-.4 1.1-.7 1.7-1.1-.6-.2-1.1-.3-1.6-.1M60.5 50.8c-.1.1-.3.2-.3.3 0 .3.1.7.1 1 .5-.5 1-.9 1.5-1.3-.4-.1-.8-.1-1.3 0M61.1 56.7c-.1 0-.3.2-.3.3v1.6c.9-.7 1.9-1.3 3.1-1.5-.9-.4-1.8-.5-2.8-.4M58.5 82.3c-1-.9-1.9-1.7-2.9-2.6-.2.4-.3.7-.5 1-.3-.3-.5-.6-.8-.9.3-.2.6-.4.9-.5-.8-.9-1.7-1.9-2.5-2.8.3 0 .6 0 .9.1.5 0 1 .1 1.5.1.4 0 .5.1.5.5.1.4.1.7.2 1.1 0 .1.1.2.2.3 0 0 .2 0 .3-.1v-.4c0-.1-.1-.2-.2-.4.4-.1 1 .4 1.1.7 0 .1 0 .2-.1.3-.1.1-.3.2-.4.3.1.3.3.3.6.3h.7c.3 0 .4.1.4.4.1.8.2 1.5.2 2.3-.1.2-.1.2-.1.3m2.8 2.7c.1-.9.1-1.8.1-2.7 0-.5-.2-.9-.5-1.3L54 74.1c-.3-.3-.7-.5-1.1-.5h-5.6c4.4 4.4 8.8 8.7 13.2 13 .4-.4.8-.9.8-1.6M35.5 35.3c.8.2 1.7.4 2.5.5.5.1.9 0 1.4-.2-.3-.9-.5-1.7-.8-2.6 1.7-.4 3.4-.4 5.1-.2.2 0 .4.1.6 0 .8-.3 1.5-.3 2.3-.2.4.1.7-.1.9-.4.4-.6 1-1.1 1.6-1.6.6-.4 1.1-.4 1.7 0 .6.4 1.2.9 1.6 1.6.3.4.6.5 1.1.5.7-.1 1.4 0 2 .1.2.1.5.1.8.1 1.1-.1 2.1-.3 3.2-.1.6.1 1.2.2 1.9.3-.3.9-.5 1.8-.8 2.6.3 0 .5 0 .7.1 1 0 2-.2 3.1-.4.2 0 .3-.1.4-.3 1.1-1.9 2.2-3.7 3.6-5.4.1-.2.2-.3.4-.5-.2 0-.3.1-.4.1-.9.3-1.8.6-2.6.9-.3.1-.5 0-.5-.4 0-.2 0-.4-.1-.6-.1-.7-.2-1.5-.2-2.2-.1.1-.2.1-.3.1-1 .6-2.1 1.2-3.2 1.8-.4.2-.5.1-.7-.2-.4-.9-.7-1.8-1.1-2.6 0-.1-.1-.1-.1-.2-.7.6-1.4 1.2-2.2 1.7-.4.3-.5.3-.8-.1-.5-.8-1-1.6-1.4-2.4-.1-.1-.1-.2-.2-.3l-1.8 1.5c-.4.4-.5.4-.9-.1-.6-.7-1.2-1.4-1.8-2.2-.1-.1-.1-.2-.2-.3-.7.9-1.4 1.7-2.1 2.6-.3.4-.4.4-.8.1-.6-.5-1.2-1-1.9-1.6-.1.1-.1.2-.2.3-.5.8-1 1.7-1.5 2.5-.2.4-.4.4-.8.1-.7-.5-1.4-1.1-2-1.7-.1 0-.1-.1-.2-.2-.4 1-.8 2-1.3 2.9-.2.4-.3.5-.7.2-1.1-.6-2.2-1.2-3.2-1.8-.1 0-.2-.1-.3-.2v.2l-.3 2.7c0 .4-.2.5-.6.4-.4-.1-.8-.3-1.3-.4l-1.8-.6v.1c1.5 1.8 2.8 3.7 3.9 5.8.1.2.2.2.3.2M60.6 60.7c0 .3-.1.7-.1 1.1.7-.5 1.3-.7 2.1-.8-.4-.3-1.4-.5-1.8-.4-.1-.1-.2 0-.2.1M62 63.7c-.5-.3-1-.4-1.5-.4-.1 0-.2.1-.2.2-.1.3-.1.6-.2.9.6-.3 1.3-.5 1.9-.7M63.8 36.2c-.1.1-.2.1-.4.2.9 1.5.9 3 .2 4.5h.1c.1-.1.2-.1.3-.2 1.2-1.1 1.4-2.8.5-4.3-.2-.4-.3-.4-.7-.2"/><path class="st0" d="M60.4 33.7c-.6 0-1.1-.1-1.7-.1-.3 0-.5.1-.5.4-.7 1.9-.7 3.8.2 5.6.1.1.3.3.4.3.4 0 .8 0 1.1-.1.4-.1.5-.3.5-.6s-.1-.7-.2-1c-.2-1-.4-2-.2-3 .1-.5.3-1 .4-1.5"/></svg>