<?xml version="1.0" encoding="UTF-8"?><svg id="Layer_2" xmlns="http://www.w3.org/2000/svg" viewBox="0 0 284.33 91.2"><g id="Capa_1"><g><path d="M247.48,45.7h9.46v1c0,7.08,0,14.16,0,21.24,0,2.12,.25,4.22,1.03,6.21,1.05,2.67,3.37,4.35,6.27,4.75,2.08,.29,4.06,.1,5.95-.73,2.49-1.09,3.69-3.23,4.26-5.74,.24-1.04,.34-2.12,.36-3.19,.08-7.67,.13-15.34,.19-23.01,0-.14,.01-.28,.02-.49h9.26v.9c0,8.02,.12,16.05-.04,24.07-.1,4.91-1.87,9.26-5.68,12.56-2.21,1.91-4.89,2.91-7.73,3.51-2.57,.54-5.19,.53-7.76,.3-4.43-.4-8.45-1.93-11.48-5.4-1.86-2.13-2.97-4.65-3.61-7.4-.53-2.24-.51-4.5-.51-6.77,0-6.94,0-13.87,0-20.81v-1Z"/><path d="M232.19,73.47c2.98,4.27,5.95,8.55,9.01,12.93-.33,.02-.54,.05-.75,.05-2.98,0-5.96,0-8.94,0-.5,0-.8-.15-1.1-.59-2.38-3.48-4.8-6.93-7.22-10.37-.12-.18-.37-.38-.56-.38-2.69-.03-5.38-.02-8.16-.02v11.31h-9.41V45.72c.27-.01,.55-.04,.82-.04,6.36,0,12.73-.15,19.09,.05,3.98,.12,7.72,1.31,10.86,4.01,2.69,2.31,3.99,5.24,4.45,8.7,.37,2.77,.06,5.43-.96,7.97-1.11,2.76-3.12,4.8-5.71,6.26-.41,.23-.85,.43-1.28,.64-.02,.01-.04,.04-.14,.15m-17.68-20.04v14.1c1.66,0,3.26,.02,4.87,0,1.62-.03,3.25-.06,4.86-.18,2.76-.2,5.8-2.1,6.25-5.11,.15-1.01,.21-2.06,.1-3.08-.15-1.48-.85-2.72-1.99-3.75-1.51-1.38-3.38-1.83-5.27-1.94-2.91-.16-5.84-.04-8.81-.04"/><path d="M185.73,86.41h-9.46v-.95c0-3.7-.09-7.4,.04-11.09,.06-1.72-.48-3.09-1.36-4.5-2.23-3.57-4.36-7.2-6.53-10.81-2.5-4.16-5-8.32-7.5-12.48-.15-.26-.28-.54-.46-.91,2.76,0,5.42,.12,8.06-.05,1.59-.1,2.45,.42,3.24,1.78,3.06,5.29,6.24,10.52,9.38,15.77,.07,.11,.14,.22,.24,.38,1.32-2.19,2.61-4.36,3.91-6.52,2.19-3.63,4.37-7.26,6.58-10.87,.13-.22,.45-.47,.68-.47,2.98-.03,5.96-.02,9.07-.02-.79,1.34-1.52,2.58-2.26,3.82-2.15,3.58-4.3,7.17-6.46,10.75-2.29,3.8-4.6,7.58-6.87,11.39-.2,.34-.29,.8-.29,1.2-.02,4.19-.01,8.37-.01,12.56v1.03Z"/><path d="M164.55,86.44c-3.3,0-6.45,0-9.61-.02-.23,0-.59-.21-.68-.42-1.15-2.7-2.26-5.42-3.39-8.14h-18.74c-1.06,2.58-2.13,5.19-3.2,7.8-.22,.53-.5,.81-1.18,.8-2.95-.05-5.9-.02-9.06-.02,6.06-13.64,12.07-27.18,18.11-40.76,2.99,0,6.03-.01,9.07,.02,.25,0,.61,.29,.72,.54,1.13,2.41,2.23,4.84,3.31,7.28,1.04,2.33,2.05,4.67,3.08,7.01,1.8,4.08,3.6,8.16,5.41,12.23,1.08,2.44,2.2,4.85,3.3,7.29,.94,2.1,1.87,4.2,2.85,6.4m-16.7-15.85c-2.1-5.08-4.17-10.11-6.32-15.33-2.16,5.25-4.22,10.24-6.31,15.33h12.64Z"/><path d="M87.77,59.29c-3.05,9.12-6.06,18.12-9.08,27.16-3.29,0-6.56-.01-9.82,.01-.7,0-.65-.54-.78-.92-1.87-5.69-3.7-11.4-5.57-17.09-2.1-6.41-4.22-12.82-6.33-19.23-.38-1.16-.75-2.33-1.13-3.54,3.2,0,6.33-.01,9.45,.02,.23,0,.57,.31,.65,.55,.88,2.65,1.73,5.32,2.58,7.99,1.26,3.92,2.53,7.83,3.79,11.75,.81,2.5,1.6,5.01,2.41,7.51,.02,.07,.08,.13,.2,.32,.7-2.08,1.36-4.05,2.02-6.03,1.67-4.99,3.32-9.99,4.99-14.98,.73-2.18,1.5-4.34,2.22-6.52,.15-.45,.33-.63,.82-.63,2.58,.02,5.16,0,7.74,.03,.25,0,.66,.24,.73,.46,1.74,5.26,3.46,10.53,5.16,15.81,1.28,4,2.54,8,3.81,12,.02,.05,.05,.09,.09,.15,1.46-4.37,2.92-8.71,4.35-13.07,1.41-4.28,2.78-8.58,4.18-12.86,.27-.82,.35-1.93,.93-2.35,.57-.41,1.65-.14,2.5-.15,2.15,0,4.29,0,6.57,0-.12,.46-.19,.83-.31,1.19-1.69,5.16-3.39,10.32-5.09,15.48-1.88,5.72-3.77,11.43-5.64,17.15-.66,2.02-1.3,4.05-1.92,6.09-.19,.62-.46,.89-1.18,.88-2.89-.05-5.79-.03-8.68-.01-.55,0-.82-.11-1.01-.71-1.85-5.81-3.75-11.61-5.64-17.42-.92-2.82-1.84-5.64-2.76-8.46-.05-.16-.13-.31-.25-.58"/><path d="M91.68,44.38h-5.08c-.59-10.54-4.42-19.72-11.89-27.24-7.49-7.54-16.63-11.43-27.27-12.03V0c10.44,.47,19.78,3.84,27.75,10.58,10.4,8.79,15.82,20.09,16.5,33.8"/><path d="M75.72,44.36h-5.06c-.53-6.21-2.81-11.57-7.24-16.03-4.43-4.46-9.81-6.73-16.01-7.34v-5.02c6.23,.24,11.79,2.3,16.7,6.06,8.32,6.37,11.37,15.45,11.6,22.32"/><path d="M59.89,44.4c-1.56,0-3.04,.02-4.53-.02-.2,0-.52-.26-.57-.44-.91-3.7-3.24-6-6.88-7.01-.16-.04-.31-.11-.49-.17v-5.04c7.55,.73,12.24,7.03,12.47,12.68"/><path d="M52.37,64.98c.15,14.3-11.68,26.79-27.3,26.2C12,90.68,.04,80.2,0,64.98c-.04-14.43,11.25-26.11,26.15-26.21,7.61-.05,14.16,2.88,19.39,8.52,3.93,4.25,6.92,10.59,6.82,17.68"/></g></g></svg>