<?xml version="1.0" encoding="UTF-8" standalone="no"?>
<!-- Generator: Adobe Illustrator 19.2.1, SVG Export Plug-In . SVG Version: 6.00 Build 0)  -->

<svg
   xmlns:dc="http://purl.org/dc/elements/1.1/"
   xmlns:cc="http://creativecommons.org/ns#"
   xmlns:rdf="http://www.w3.org/1999/02/22-rdf-syntax-ns#"
   xmlns:svg="http://www.w3.org/2000/svg"
   xmlns="http://www.w3.org/2000/svg"
   xmlns:sodipodi="http://sodipodi.sourceforge.net/DTD/sodipodi-0.dtd"
   xmlns:inkscape="http://www.inkscape.org/namespaces/inkscape"
   version="1.1"
   id="layer"
   x="0px"
   y="0px"
   viewBox="0 0 600 191.0083"
   xml:space="preserve"
   sodipodi:docname="ubisoft.svg"
   width="600"
   height="191.0083"
   inkscape:version="0.92.5 (2060ec1f9f, 2020-04-08)"><metadata
   id="metadata11"><rdf:RDF><cc:Work
       rdf:about=""><dc:format>image/svg+xml</dc:format><dc:type
         rdf:resource="http://purl.org/dc/dcmitype/StillImage" /><dc:title></dc:title></cc:Work></rdf:RDF></metadata><defs
   id="defs9" /><sodipodi:namedview
   pagecolor="#ffffff"
   bordercolor="#666666"
   borderopacity="1"
   objecttolerance="10"
   gridtolerance="10"
   guidetolerance="10"
   inkscape:pageopacity="0"
   inkscape:pageshadow="2"
   inkscape:window-width="1920"
   inkscape:window-height="1043"
   id="namedview7"
   showgrid="false"
   fit-margin-top="0"
   showguides="true"
   inkscape:guide-bbox="true"
   fit-margin-left="0"
   fit-margin-right="0"
   fit-margin-bottom="0"
   inkscape:zoom="1.4478528"
   inkscape:cx="215.23669"
   inkscape:cy="131.09204"
   inkscape:window-x="0"
   inkscape:window-y="0"
   inkscape:window-maximized="1"
   inkscape:current-layer="layer1"><sodipodi:guide
     position="252.59915,193.44831"
     orientation="0,1"
     id="guide818"
     inkscape:locked="false" /><sodipodi:guide
     position="213.92119,-0.63220548"
     orientation="0,1"
     id="guide820"
     inkscape:locked="false" /></sodipodi:namedview>


<g
   inkscape:groupmode="layer"
   id="layer1"
   inkscape:label="Layer 1"
   style="display:inline"
   transform="translate(-21.6,-228.2917)"><g
     id="g851"><path
       id="path2"
       d="m 205.5,323.8 c -1.8,-98 -131.9,-134.3 -182.1,-42.9 2.4,1.8 5.4,4.2 7.3,5.4 -3.6,7.9 -6.7,16.3 -7.9,24.2 -0.6,5.4 -1.2,10.9 -1.2,16.9 0,50.8 41.1,91.9 91.9,91.9 50.8,0 91.9,-41.1 91.9,-91.9 0.1,-1.2 0.1,-2.4 0.1,-3.6 z M 44.6,340.1 c -1.2,9.7 -0.6,13.3 -0.6,14.5 l -2.4,0.6 c -0.6,-1.8 -3,-7.3 -3.6,-15.1 -2.4,-29.6 17.5,-56.3 48.4,-61.1 28.4,-4.2 55,13.3 61.7,38.1 l -2.4,0.6 c -0.6,-0.6 -1.8,-2.4 -6,-7.3 -34,-34.4 -87.9,-18.7 -95.1,29.7 z m 87.1,16.3 c -4.8,6.7 -12.1,10.9 -20.6,10.9 -13.9,0 -25.4,-11.5 -25.4,-25.4 0,-13.3 10.3,-24.2 23.6,-24.8 v 0 c 7.9,-0.6 15.7,4.2 19.4,10.9 3.6,7.9 2.4,16.9 -3.6,23.6 2.3,1.8 4.8,3.6 6.6,4.8 z m 52.6,1.2 C 171,387.8 143.8,403.6 114.7,403 58.4,400 42.1,335.9 79.6,312.3 l 1.8,1.8 c -0.6,0.6 -3,2.4 -6,9.7 -4.2,8.5 -5.4,16.3 -4.8,21.8 3,45.4 65.9,54.4 87.7,9.7 27.2,-61.7 -46,-124 -111.3,-76.2 l -1.2,-1.8 c 16.9,-26.6 50.2,-38.7 82.3,-30.8 48.9,12.6 75.6,63.4 56.2,111.1 z"
       inkscape:connector-curvature="0" /><path
       id="path4"
       d="m 295,287.5 v 42.3 c 0,16.9 -10.3,29.6 -29,29.6 -18.8,0 -29,-12.7 -29,-29.6 v -42.3 h 15 v 41.1 c 0,10.3 4.8,16.3 13.9,16.3 9.1,0 13.9,-6 13.9,-16.3 v -41.1 z m 57.4,50.8 c 0,12.1 -9.7,21.2 -25.4,21.2 h -24.8 v -71.4 h 23.6 c 13.9,0 23,6.7 23,16.9 0,7.9 -3.6,12.7 -9.1,15.1 7.3,3.1 12.7,8.5 12.7,18.2 z M 318,302 v 15.1 h 7.9 c 4.8,0 7.9,-3 7.9,-7.3 0,-4.2 -3,-7.3 -7.9,-7.3 z m 8.4,43.5 c 6.7,0 10.3,-3 10.3,-9.1 0,-6 -3.6,-9.1 -10.3,-9.1 H 318 v 17.5 z m 32.1,-57.4 h 15.1 v 70.8 h -15.1 z m 52,29 c 12.1,4.2 18.1,9.7 18.1,20.6 0,14.5 -11.5,23 -24.8,23 -12.1,0 -21.8,-5.4 -25.4,-15.7 l 12.1,-9.1 c 2.4,6.7 7.9,10.3 13.9,10.3 4.8,0 8.5,-3 8.5,-7.3 0,-4.2 -3,-6.7 -12.7,-10.3 -10.9,-4.2 -19.4,-9.7 -19.4,-21.2 0,-11.5 9.7,-20 23,-20 10.9,0 19.4,4.2 23,12.7 l -12.1,8.5 c -2.4,-5.4 -6,-8.5 -11.5,-8.5 -4.8,0 -7.9,2.4 -7.9,6 0.7,4.4 4.9,7.4 15.2,11 z m 95,6.7 c 0,20.6 -15.1,36.3 -36.3,36.3 -21.8,0 -36.3,-15.7 -36.3,-33.9 0,-12.1 4.8,-21.2 11.5,-26.6 l -2.4,-2.4 c 5.4,-5.4 15.1,-9.7 26.6,-9.7 21.8,-0.6 36.9,15.7 36.9,36.3 z m -15.8,0 c 0,-12.7 -7.9,-21.8 -20.6,-21.8 -7.3,0 -12.7,3 -15.7,6 l 2.4,2.4 c -3.6,3 -7.3,7.3 -7.3,15.1 0,10.9 7.9,20 20.6,20 12.8,0 20.6,-9 20.6,-21.7 z m 37.5,-20.6 v 16.3 h 30.2 V 331 h -30.2 v 27.8 H 511.5 V 288 h 48.4 v 14.5 h -32.7 z m 94.4,0 h -20 v 56.3 H 586.5 V 303.2 H 566 v -15.1 h 55 v 15.1 z"
       inkscape:connector-curvature="0" /></g></g></svg>