<svg width="281" height="100" fill="none" xmlns="http://www.w3.org/2000/svg"><path d="M155.472 87.156c10.448 0 13.602-1.591 19.318-8.751 0 4.174 3.354 7.558 7.491 7.558h7.491V22.518h-15.77V57.92c0 10.342-5.322 16.308-13.602 16.308-7.688 0-10.645-4.375-10.645-12.927V22.518h-15.77v41.965c.198 15.314 7.294 22.673 21.487 22.673zM252.836 21.328h-10.17l-5.159 12.903s27.543-3.034 27.543 7.308v1.392c-.197 2.984-2.168 4.575-8.082 4.973l-10.842 1.193c-15.77 1.193-21.684 8.95-21.684 18.695 0 11.734 7.885 19.292 22.67 19.292 10.25 0 14.587-1.193 17.938-7.558.197-.198.394-.596.591-.994 0 4.064 3.266 7.359 7.294 7.359h7.688V44.324c.197-12.928-8.468-22.797-27.787-22.996zM265.05 59.24c0 9.149-5.519 16.706-15.179 16.706-8.082 0-11.63-3.778-11.63-9.546 0-4.574 3.154-7.955 11.039-8.552l7.491-.597c4.337-.398 7.096-1.193 8.279-2.386v4.375zM235.11 21.328h-3.818c-8.674 0-15.07 4.562-17.632 11.722V22.509h-14.982v54.824c0 4.76 3.825 8.62 8.544 8.62h7.226V51.745c0-13.334 6.112-17.502 15.522-17.502l5.14-12.915zM24.931 99.999l17.98-50.884c-15.13 1.991-28.944 8.407-40.565 18.141 2.85 13.495 11.183 25 22.585 32.743zM82.604 99.999c11.621-7.301 19.954-19.026 23.024-32.743C94.006 57.08 80.192 50.664 65.062 49.115l17.542 50.884z" fill="#1F78D1"/><path d="M107.383 56.858v-2.433C107.383 24.115 83.481 0 54.098 0 24.713 0 .373 24.115.373 54.425v2.433C15.943 45.133 34.58 38.717 54.097 38.717c19.078 0 37.717 6.416 53.286 18.141z" fill="#1F78D1"/></svg>